<svg viewBox="0 0 387 155" xmlns="http://www.w3.org/2000/svg" xml:space="preserve" style="fill-rule:evenodd;clip-rule:evenodd;stroke-linejoin:round;stroke-miterlimit:2"><path d="M492 390.177V426.1c0 13.743 9.869 24.9 22.024 24.9h287.952C814.131 451 824 439.843 824 426.1V309.9c0-13.743-9.869-24.9-22.024-24.9H514.024C501.869 285 492 296.157 492 309.9v29.774s-41.637 10.983-69.03 41.953c40.542-9.911 69.03 8.55 69.03 8.55Z" style="fill-opacity:.3" transform="matrix(.91265 0 0 .80723 -372.024 -216.06)"/><path d="M484.695 395.355c-8.478-4.155-30.949-12.802-60.181-5.656-3.167.774-6.406-.903-7.957-4.119-1.551-3.216-1.043-7.203 1.248-9.793 22.507-25.447 54.147-38.091 66.89-42.399V309.9c0-18.301 13.142-33.159 29.329-33.159h287.952c16.187 0 29.329 14.858 29.329 33.159v116.2c0 18.301-13.142 33.159-29.329 33.159H514.024c-16.187 0-29.329-14.858-29.329-33.159v-30.745Zm7.305-5.178V426.1c0 13.743 9.869 24.9 22.024 24.9h287.952C814.131 451 824 439.843 824 426.1V309.9c0-13.743-9.869-24.9-22.024-24.9H514.024C501.869 285 492 296.157 492 309.9v29.774s-41.637 10.983-69.03 41.953c40.542-9.911 69.03 8.55 69.03 8.55Z" style="fill-opacity:.3" transform="matrix(.91265 0 0 .80723 -372.024 -216.06)"/><path d="M492 390.177V426.1c0 13.743 9.869 24.9 22.024 24.9h287.952C814.131 451 824 439.843 824 426.1V309.9c0-13.743-9.869-24.9-22.024-24.9H514.024C501.869 285 492 296.157 492 309.9v29.774s-41.637 10.983-69.03 41.953c40.542-9.911 69.03 8.55 69.03 8.55Z" style="fill:#fff" transform="matrix(.91265 0 0 .80723 -379.357 -223.394)"/><path d="M484.695 395.355c-8.478-4.155-30.949-12.802-60.181-5.656-3.167.774-6.406-.903-7.957-4.119-1.551-3.216-1.043-7.203 1.248-9.793 22.507-25.447 54.147-38.091 66.89-42.399V309.9c0-18.301 13.142-33.159 29.329-33.159h287.952c16.187 0 29.329 14.858 29.329 33.159v116.2c0 18.301-13.142 33.159-29.329 33.159H514.024c-16.187 0-29.329-14.858-29.329-33.159v-30.745Zm7.305-5.178V426.1c0 13.743 9.869 24.9 22.024 24.9h287.952C814.131 451 824 439.843 824 426.1V309.9c0-13.743-9.869-24.9-22.024-24.9H514.024C501.869 285 492 296.157 492 309.9v29.774s-41.637 10.983-69.03 41.953c40.542-9.911 69.03 8.55 69.03 8.55Z" style="fill:#a53232" transform="matrix(.91265 0 0 .80723 -379.357 -223.394)"/><path d="M126.224 118.207c0 .801-.12 1.276-.36 1.426-.24.15-.856.225-1.848.225-.256 0-.976-.05-2.16-.15-2.368-.2-4-.3-4.896-.3-1.056 0-1.984.05-2.784.15-1.6.2-2.688.3-3.264.3-.864 0-1.296-.5-1.296-1.501s.912-1.552 2.736-1.652c.448 0 .784-.1 1.008-.3.512-.2.768-.801.768-1.802 0-.5-.192-2.603-.576-6.306l-1.008-9.76c-.192-2.203-.608-6.257-1.248-12.163h-.864l-3.744-.15c-1.344-.1-2.768-.05-4.272.15-.288 2.002-.832 6.507-1.632 13.514l-1.056 9.76c-.16 1.502-.24 2.703-.24 3.604 0 1.701.352 2.803 1.056 3.303.16.1.944.3 2.352.601.448.1.672.55.672 1.351 0 .901-.288 1.351-.864 1.351l-7.92-.15c-.192.1-.4.15-.624.15-.448 0-.672-.5-.672-1.501 0-.601.496-1.001 1.488-1.201 1.28-.201 2.096-.951 2.448-2.253.352-1.301.928-5.505 1.728-12.613.608-5.005 1.488-12.412 2.64-22.222l5.808-50.002c.288-2.202.688-5.655 1.2-10.36.352-3.404.624-5.105.816-5.105.192 0 .544 2.302 1.056 6.907.64 5.906 3.456 29.23 8.448 69.971.64 5.206 1.28 10.511 1.92 15.917.544 4.604 1.088 7.407 1.632 8.408.416.801 1.408 1.151 2.976 1.051.384 0 .576.451.576 1.352ZM110.96 83.071a354.59 354.59 0 0 0-.336-2.853c-1.28-11.612-2.208-19.77-2.784-24.475-.16-1.302-.384-3.204-.672-5.706l-.288-2.703c-.576 4.305-1.28 10.261-2.112 17.868-.928 8.509-1.6 14.465-2.016 17.869.288 0 .64-.05 1.056-.15h3.744c.736 0 1.872.05 3.408.15ZM151.472 119.258c0 .6-.144.901-.432.901h-.96a11.79 11.79 0 0 0-1.68-.15h-1.2c-2.752 0-4.448-.1-5.088-.301h-.768l-1.152.15c-.416.101-.624-.25-.624-1.051 0-.6.08-.901.24-.901l1.104.151c.704.1 1.104-.501 1.2-1.802.064-.801.096-5.806.096-15.016V78.866c0-9.309-.144-14.815-.432-16.516-.416-2.603-1.216-3.904-2.4-3.904-1.248 0-2.208 1.751-2.88 5.255-.32 1.702-.48 5.355-.48 10.961v23.574c0 7.308.016 11.312.048 12.013v1.801l-.048 3.604c-.032 1.502.64 2.252 2.016 2.252.288 0 .432.301.432.901 0 .701-.208 1.051-.624 1.051h-.384c-.256-.1-.64-.15-1.152-.15h-2.112l-2.688.15-2.832.301h-1.44c-.48 0-.72-.301-.72-.901 0-.3.032-.501.096-.601.064-.1.208-.15.432-.15 1.216 0 1.936-.15 2.16-.45.224-.301.368-1.452.432-3.454.032-1.201.048-7.207.048-18.018V41.478c0-10.811-.072-17.042-.216-18.694-.144-1.652-.824-2.478-2.04-2.478-.928 0-1.392-.3-1.392-.9 0-.601.544-1.001 1.632-1.202 2.464-.5 4.784-1.802 6.96-3.904.416-.4.72-.6.912-.6.256 0 .384 2.803.384 8.408V33.07a790.454 790.454 0 0 0-.048 6.606v23.875c.928-4.104 1.832-6.907 2.712-8.409.88-1.501 2.072-2.252 3.576-2.252 3.168 0 5.152 4.004 5.952 12.012.288 2.603.432 6.807.432 12.613v34.986c0 2.603.136 4.204.408 4.805.272.6.952.901 2.04.901.32 0 .48.35.48 1.051ZM174.848 87.876c0 10.711-1.344 19.37-4.032 25.976-2.112 5.206-4.432 7.808-6.96 7.808-3.008 0-5.608-3.378-7.8-10.135s-3.288-14.74-3.288-23.95c0-9.609 1.096-17.793 3.288-24.55 2.192-6.757 4.84-10.135 7.944-10.135 2.976 0 5.528 3.428 7.656 10.285s3.192 15.091 3.192 24.701Zm-7.248.15c0-12.413-.272-20.922-.816-25.526-.608-5.106-1.584-7.658-2.928-7.658-1.248 0-2.224 2.678-2.928 8.033-.704 5.356-1.056 12.738-1.056 22.148 0 13.113.416 22.423 1.248 27.928.672 4.405 1.616 6.607 2.832 6.607 1.504 0 2.496-2.803 2.976-8.408.448-5.306.672-13.014.672-23.124Z" style="fill:#8f0002;fill-rule:nonzero" transform="matrix(1 0 0 .31967 0 51.227)"/><path d="M197.456 55.743c0 .7-.064 1.126-.192 1.276-.128.15-.576.225-1.344.225-.864 0-1.376.15-1.536.451l-.288 1.651-.576 5.256c-.256 2.402-.832 7.257-1.728 14.565-.064.6-.768 6.757-2.112 18.469-3.168 27.728-5.216 44.495-6.144 50.301-1.152 7.208-2.624 10.811-4.416 10.811-1.024 0-1.848-.951-2.472-2.853-.624-1.902-.936-4.404-.936-7.507 0-4.905.864-7.358 2.592-7.358.576 0 1.04.601 1.392 1.802.16.501.432 1.902.816 4.204.224 1.001.528 1.502.912 1.502.64 0 1.256-1.677 1.848-5.03.592-3.354 1.4-9.685 2.424-18.995-.256-1.601-.752-5.155-1.488-10.661a8509.75 8509.75 0 0 0-3.84-29.88c-.384-3.003-1.248-9.56-2.592-19.67-.448-3.404-.832-5.431-1.152-6.082-.32-.65-1.056-1.026-2.208-1.126-.384 0-.576-.4-.576-1.201s.192-1.201.576-1.201h.864c.48 0 1.2.05 2.16.15.96.1 1.696.15 2.208.15l5.856-.15c.192-.1.416-.15.672-.15.352 0 .528.35.528 1.051 0 .901-.48 1.301-1.44 1.201-.96-.1-1.44.551-1.44 1.952 0 1.001.128 2.553.384 4.655.352 2.803.544 4.454.576 4.955 1.568 13.614 2.848 23.974 3.84 31.082 2.976-23.725 4.464-37.238 4.464-40.542 0-1.101-.368-1.652-1.104-1.652-1.536 0-2.304-.45-2.304-1.351s.192-1.351.576-1.351c.32 0 .64.05.96.15.608.2 1.44.3 2.496.3.128 0 .6-.075 1.416-.225.816-.15 1.352-.225 1.608-.225h.288c.288 0 .432.35.432 1.051Z" style="fill:#8f0002;fill-rule:nonzero" transform="matrix(1 0 0 .31967 0 51.227)"/><path d="M240.608 119.108c0 .901-.24 1.251-.72 1.051h-.864l-1.392-.15c-.928-.1-2.048-.151-3.36-.151h-2.688c-.096 0-.336.051-.72.151h-1.68c-.448 0-.672-.301-.672-.901 0-.501.368-.801 1.104-.901.928-.1 1.392-1.001 1.392-2.703V82.02c0-10.311-.112-16.517-.336-18.619-.32-2.903-1.12-4.355-2.4-4.355-1.184 0-2.112 1.602-2.784 4.805-.288 1.301-.448 2.753-.48 4.355-.064 1.901-.096 7.057-.096 15.465v28.53c0 3.003.088 4.754.264 5.255.176.501.776.751 1.8.751.288 0 .432.25.432.751 0 .8-.176 1.201-.528 1.201-.32 0-.576-.05-.768-.15l-9.312-.301c-.288 0-.432-.3-.432-.901 0-.6.384-.901 1.152-.901.576 0 .912-.25 1.008-.75l.096-1.502V78.866c0-9.409-.176-15.09-.528-17.042-.352-1.952-1.072-2.928-2.16-2.928-1.312 0-2.288 1.702-2.928 5.105a29.647 29.647 0 0 0-.408 3.979c-.048 1.352-.072 5.281-.072 11.787v29.731c0 4.605.088 7.132.264 7.583.176.45.616.675 1.32.675h.72c.32 0 .48.301.48.901 0 .701-.144 1.051-.432 1.051-.416 0-.8-.05-1.152-.15h-2.016c-2.56.2-3.92.351-4.08.451-1.536.2-2.672.3-3.408.3h-.672c-.416 0-.624-.4-.624-1.201 0-.701.144-1.051.432-1.051l1.104.15c.544.1.992-.301 1.344-1.201.256-.701.384-2.803.384-6.307V85.924c0-13.915-.064-21.372-.192-22.373-.256-.901-1.248-1.352-2.976-1.352-.448 0-.672-.35-.672-1.051 0-.801.208-1.201.624-1.201 3.2-.2 6.048-2.402 8.544-6.607.288-.5.496-.75.624-.75.16 0 .24.4.24 1.201 0 1.501-.016 2.753-.048 3.754v6.306c1.472-7.408 3.648-11.111 6.528-11.111 3.232 0 5.136 4.054 5.712 12.162.736-4.304 1.632-7.382 2.688-9.234 1.056-1.852 2.448-2.778 4.176-2.778 4.064 0 6.096 7.007 6.096 21.021v2.253a116.268 116.268 0 0 0-.048 3.003v31.682c0 3.204.04 5.156.12 5.856.08.701.344 1.101.792 1.201.64.201 1.216.301 1.728.301.32 0 .48.3.48.901ZM262.832 111.75c0 .801-.256 1.902-.768 3.304-1.376 3.904-3.072 5.856-5.088 5.856-1.312 0-2.264-.851-2.856-2.553-.592-1.702-.984-4.755-1.176-9.159-1.44 8.208-3.408 12.312-5.904 12.312-1.376 0-2.488-1.351-3.336-4.054-.848-2.703-1.272-6.206-1.272-10.511 0-12.613 3.456-20.07 10.368-22.373v-3.153c0-10.01-.112-16.166-.336-18.469l-.048-.751c-.448-5.005-1.584-7.507-3.408-7.507-1.056 0-1.904.951-2.544 2.853-.64 1.902-.96 3.753-.96 5.555 0 1.001.384 1.602 1.152 1.802 1.152.3 1.728 2.503 1.728 6.607 0 2.202-.232 4.029-.696 5.481-.464 1.451-1.064 2.177-1.8 2.177-.928 0-1.688-.876-2.28-2.628-.592-1.752-.888-3.979-.888-6.682 0-4.304.688-8.208 2.064-11.712 1.376-3.503 3.184-5.255 5.424-5.255 3.328 0 5.648 1.852 6.96 5.556 1.056 3.103 1.584 8.508 1.584 16.216v25.676c0 5.006.016 7.909.048 8.709.16 4.205.624 6.307 1.392 6.307.544 0 1.216-1.201 2.016-3.604.16-.5.288-.751.384-.751.16 0 .24.251.24.751ZM252.8 93.882v-7.358c-3.104 1.902-4.656 7.408-4.656 16.517 0 7.007.768 10.511 2.304 10.511.864 0 1.472-1.502 1.824-4.505.352-3.003.528-8.058.528-15.165ZM278.528 110.098c0 1.102-.304 2.553-.912 4.355-1.568 4.705-3.728 7.057-6.48 7.057-2.528 0-4.192-1.952-4.992-5.856-.32-1.501-.504-2.903-.552-4.204-.048-1.301-.072-4.655-.072-10.06V88.176l-.048-3.153V71.509l-.048-10.811c0-1.802-.08-2.853-.24-3.153-.16-.301-.64-.451-1.44-.451-.96 0-1.44-.4-1.44-1.201 0-.601.176-1.001.528-1.201 3.008-.301 5.6-5.406 7.776-15.316.288-1.401.512-2.102.672-2.102.192 0 .288.701.288 2.102-.032 8.609.08 13.314.336 14.114.256.801 1.04 1.202 2.352 1.202 1.344 0 2.288-.201 2.832-.601.064-.1.128-.15.192-.15.128 0 .192.3.192.901 0 1.401-.208 2.102-.624 2.102-1.312.1-2.768.15-4.368.15-.128 0-.352-.05-.672-.15v3.153c0 26.828.112 42.544.336 47.149.288 5.805 1.184 8.708 2.688 8.708.672 0 1.536-1.501 2.592-4.504.512-1.402.832-2.102.96-2.102.096 0 .144.25.144.75ZM297.584 101.39c0 2.202-.416 5.105-1.248 8.708-1.792 7.708-4.128 11.562-7.008 11.562-3.232 0-5.888-3.203-7.968-9.61-2.08-6.406-3.12-14.615-3.12-24.625 0-9.81 1.008-17.993 3.024-24.55 2.016-6.557 4.528-9.835 7.536-9.835 2.048 0 3.792 1.401 5.232 4.204 1.6 3.103 2.64 7.558 3.12 13.364.128 1.802.224 3.954.288 6.457-.736.2-3.696.35-8.88.45-.8 0-1.808.1-3.024.3a352.67 352.67 0 0 0-.144 9.16c0 11.712.784 20.02 2.352 24.925.928 2.903 2.064 4.355 3.408 4.355 1.12 0 2.2-1.201 3.24-3.604 1.04-2.402 1.832-5.506 2.376-9.309.256-1.902.464-2.853.624-2.853.128 0 .192.3.192.901Zm-6.048-26.127c.032-7.708-.144-13.064-.528-16.067s-1.056-4.504-2.016-4.504c-1.952 0-3.072 6.857-3.36 20.571.672-.1 2.08-.15 4.224-.15.64 0 1.2.05 1.68.15Z" style="fill:#262626;fill-rule:nonzero" transform="matrix(1 0 0 .31967 0 51.227)"/><path d="M319.664 55.743c0 .7-.064 1.126-.192 1.276-.128.15-.576.225-1.344.225-.864 0-1.376.15-1.536.451l-.288 1.651-.576 5.256c-.256 2.402-.832 7.257-1.728 14.565-.064.6-.768 6.757-2.112 18.469-3.168 27.728-5.216 44.495-6.144 50.301-1.152 7.208-2.624 10.811-4.416 10.811-1.024 0-1.848-.951-2.472-2.853-.624-1.902-.936-4.404-.936-7.507 0-4.905.864-7.358 2.592-7.358.576 0 1.04.601 1.392 1.802.16.501.432 1.902.816 4.204.224 1.001.528 1.502.912 1.502.64 0 1.256-1.677 1.848-5.03.592-3.354 1.4-9.685 2.424-18.995-.256-1.601-.752-5.155-1.488-10.661a8509.75 8509.75 0 0 0-3.84-29.88c-.384-3.003-1.248-9.56-2.592-19.67-.448-3.404-.832-5.431-1.152-6.082-.32-.65-1.056-1.026-2.208-1.126-.384 0-.576-.4-.576-1.201s.192-1.201.576-1.201h.864c.48 0 1.2.05 2.16.15.96.1 1.696.15 2.208.15l5.856-.15c.192-.1.416-.15.672-.15.352 0 .528.35.528 1.051 0 .901-.48 1.301-1.44 1.201-.96-.1-1.44.551-1.44 1.952 0 1.001.128 2.553.384 4.655.352 2.803.544 4.454.576 4.955 1.568 13.614 2.848 23.974 3.84 31.082 2.976-23.725 4.464-37.238 4.464-40.542 0-1.101-.368-1.652-1.104-1.652-1.536 0-2.304-.45-2.304-1.351s.192-1.351.576-1.351c.32 0 .64.05.96.15.608.2 1.44.3 2.496.3.128 0 .6-.075 1.416-.225.816-.15 1.352-.225 1.608-.225h.288c.288 0 .432.35.432 1.051ZM333.44 98.987c0 6.707-.656 12.138-1.968 16.292-1.312 4.154-3.008 6.231-5.088 6.231-1.024 0-2.24-.801-3.648-2.402-1.152-1.302-1.904-1.952-2.256-1.952-.608 0-1.008.7-1.2 2.102-.192 1.401-.336 2.102-.432 2.102-.192 0-.288-.35-.288-1.051 0-.601.032-1.552.096-2.853.096-1.902.144-5.205.144-9.91v-1.502a87.69 87.69 0 0 1-.048-3.303v-2.553c0-1.101.08-1.651.24-1.651.192 0 .336.75.432 2.252.288 5.305 1.104 9.735 2.448 13.289 1.344 3.553 2.848 5.33 4.512 5.33 1.056 0 1.912-1.026 2.568-3.078.656-2.052.984-4.73.984-8.033 0-2.603-.304-4.805-.912-6.607-.448-1.301-1.648-2.953-3.6-4.955-2.4-2.503-4.136-5.531-5.208-9.085-1.072-3.553-1.608-8.083-1.608-13.588 0-5.907.64-10.912 1.92-15.016 1.28-4.104 2.848-6.156 4.704-6.156.704 0 1.92.701 3.648 2.102.256.2.448.3.576.3.704 0 1.232-1.351 1.584-4.054.064-.5.144-.751.24-.751.224 0 .336.601.336 1.802l-.048 2.853c-.032.401-.048 1.101-.048 2.102 0 4.105.08 8.309.24 12.613v.751c0 .801-.096 1.201-.288 1.201-.16 0-.288-.45-.384-1.351-.928-10.211-2.816-15.316-5.664-15.316-1.056 0-1.928.901-2.616 2.703-.688 1.802-1.032 4.104-1.032 6.907 0 2.603.288 4.655.864 6.156.576 1.502 1.696 3.204 3.36 5.106 2.912 3.203 4.88 6.406 5.904 9.609 1.024 3.204 1.536 7.658 1.536 13.364ZM345.392 26.313c-1.696 23.924-2.896 45.746-3.6 65.467-.032 1.201-.192 1.802-.48 1.802-.256 0-.448-1.752-.576-5.256-.288-7.608-1.312-26.677-3.072-57.208l-.288-4.956c.224-.9.512-2.002.864-3.303 1.504-5.906 2.544-8.859 3.12-8.859.416 0 .816.601 1.2 1.802s1.328 4.705 2.832 10.511Zm-.576 84.086c0 3.103-.32 5.656-.96 7.658-.64 2.002-1.456 3.003-2.448 3.003s-1.824-1.026-2.496-3.078c-.672-2.053-1.008-4.63-1.008-7.733 0-3.003.336-5.556 1.008-7.658.672-2.102 1.504-3.153 2.496-3.153.928 0 1.728 1.051 2.4 3.153.672 2.102 1.008 4.705 1.008 7.808Z" style="fill:#262626;fill-rule:nonzero" transform="matrix(1 0 0 .31967 0 51.227)"/><path style="fill:#8f0002;fill-rule:nonzero" d="M93.344 138.778h101.52v9.91H93.344z" transform="matrix(1 0 0 .31967 0 51.227)"/></svg>