<svg viewBox="0 0 1008 618" xmlns="http://www.w3.org/2000/svg" xml:space="preserve" style="fill-rule:evenodd;clip-rule:evenodd;stroke-linecap:round;stroke-linejoin:round;stroke-miterlimit:1.5"><path d="m203.683 481.892 172.175 79.833 369.974-167.447-159.803-53.001-382.346 140.615Z" style="fill:url(#a);stroke:#000;stroke-width:6px" transform="matrix(-1 0 0 1 1106.9 -338.277)"/><path d="m203.731 482.185-55.772 79.673 234.385 120.463-6.459-120.515-172.154-79.621ZM382.495 681.565l409.402-211.746-45.841-75.509-370.075 167.485 6.514 119.77Z" style="fill:#ffd900;stroke:#000;stroke-width:6px" transform="matrix(-1 0 0 1 1106.9 -338.277)"/><path d="m203.683 481.892 172.175 79.833 369.974-167.447-159.803-53.001-382.346 140.615Z" style="fill:url(#b);stroke:#000;stroke-width:6.61px" transform="matrix(-.83824 0 0 .9719 666.802 -298.525)"/><path d="m203.731 482.185-55.772 79.673 234.385 120.463-6.459-120.515-172.154-79.621ZM382.495 681.565l409.402-211.746-45.841-75.509-370.075 167.485 6.514 119.77Z" style="fill:#ffd900;stroke:#000;stroke-width:6.61px" transform="matrix(-.83824 0 0 .9719 666.802 -298.525)"/><path d="m203.683 481.892 172.175 79.833 369.974-167.447-159.803-53.001-382.346 140.615Z" style="fill:url(#c);stroke:#000;stroke-width:5.62px" transform="matrix(-1.02105 -.0313 -.03405 1.11115 1174.21 -131.933)"/><path d="m203.731 482.185-55.772 79.673 234.385 120.463-6.459-120.515-172.154-79.621ZM382.495 681.565l409.402-211.746-45.841-75.509-370.075 167.485 6.514 119.77Z" style="fill:#ffd900;stroke:#000;stroke-width:5.62px" transform="matrix(-1.02105 -.0313 -.03405 1.11115 1174.21 -131.933)"/><defs><radialGradient id="a" cx="0" cy="0" r="1" gradientUnits="userSpaceOnUse" gradientTransform="matrix(271.075 0 0 110.224 474.757 451.501)"><stop offset="0" style="stop-color:white;stop-opacity:1"/><stop offset="1" style="stop-color:#ffd900;stop-opacity:1"/></radialGradient><radialGradient id="b" cx="0" cy="0" r="1" gradientUnits="userSpaceOnUse" gradientTransform="matrix(271.075 0 0 110.224 474.757 451.501)"><stop offset="0" style="stop-color:white;stop-opacity:1"/><stop offset="1" style="stop-color:#ffd900;stop-opacity:1"/></radialGradient><radialGradient id="c" cx="0" cy="0" r="1" gradientUnits="userSpaceOnUse" gradientTransform="matrix(271.075 0 0 110.224 474.757 451.501)"><stop offset="0" style="stop-color:white;stop-opacity:1"/><stop offset="1" style="stop-color:#ffd900;stop-opacity:1"/></radialGradient></defs></svg>