<svg viewBox="0 0 624 778" xmlns="http://www.w3.org/2000/svg" xml:space="preserve" style="fill-rule:evenodd;clip-rule:evenodd;stroke-linecap:round;stroke-linejoin:round;stroke-miterlimit:1.5"><path d="M395 422s-58.05 20.165-59 29c-.95 8.835 0 10 0 10s-2.71 2.289-1 7 3 4 3 4-2.593-5.547 0-8c2.593-2.453 10-2 10-2s.479 7.064-1 14-2.96 11.963-1 16c2.395 4.934 6 4 6 4s3.763 3.001 7 3c3.237-.001 5-1 5-1s-7.057.195-8-3c-.943-3.195 4.004-3.294 5-8 .996-4.706 1.33-15.091 3-18 1.67-2.909 15.827-19.186 24-18s16.625 19.018 21 19c4.375-.018 6.731-1.491 8 1 1.269 2.491 4 8 4 8s.984-5.721-3-16-15.776-15.299-16-21c-.224-5.701 5-10 5-10l-12-10Z" style="fill:#8d8c8a;stroke:#000;stroke-width:3px" transform="translate(-134.866 -29.73)"/><path d="M406 413s-7.388 7.543-18.358 12.533C367.139 434.861 336.619 445.244 336 451c-.95 8.835 0 10 0 10s-2.71 2.289-1 7 3 4 3 4-2.593-5.547 0-8c2.593-2.453 10-2 10-2s.479 7.064-1 14-2.96 11.963-1 16c2.395 4.934 6 4 6 4s1.763 1.001 5 1c3.237-.001 5-3 5-3s-5.057 2.195-6-1c-.943-3.195 3.004-4.294 4-9s2.33-16.091 4-19c1.67-2.909 15.827-15.186 24-14s16.625 19.018 21 19c4.375-.018 6.442-3.491 7.711-1 1.269 2.491 2.289 8 2.289 8s2.984-3.721-1-14-13.489-15.876-16-21c-6.224-12.701 14.711-18.999 14.711-18.999L406 413Z" style="fill:#8d8c8a;stroke:#000;stroke-width:3px" transform="translate(-59.866 27.27)"/><path d="m550 439 54 33 154 335-56.233-80.49L550 439Z" style="fill:url(#a);stroke:#000;stroke-width:3px" transform="translate(-134.866 -29.73)"/><path d="M504 429.001S615.909 589.154 626 617c10.091 27.846 37.999 63.441 44 78 6.001 14.559 44 66 44 66l-15-40s-64.003-117.521-77-145-70-132-70-132l-39.774-41L504 429.001Z" style="fill:url(#b);stroke:#000;stroke-width:3px" transform="translate(-134.866 -29.73)"/><path d="M421 422s51.26 24.488 54 35c2.74 10.512 6 14 6 14l10.711 9s15.643.366 19.289-11c3.646-11.366-2-79-2-79l-89-12 1 44Z" style="fill:#e7c752;stroke:#000;stroke-width:3px" transform="translate(-134.866 -29.73)"/><path d="M491.711 211.534 461 386l-32-1 5 25s2.113 8.731 4 20 12 21 12 21-27.02-9.969-46-20-32.122-29.561-52-50-10.631-15.948-52-64-60.139-101.341-63-115c-2.861-13.659-9.244-13.531-24-28s-15-18.893-15-18.893L141 91s-17.853-15.046 10-39 64.756-22.617 92-21c43.901 2.606 132.529 94.065 151 107 17.903 12.537 82.564 57.214 97.711 73.534Z" style="fill:url(#c);stroke:#000;stroke-width:3px" transform="translate(-134.866 -29.73)"/><path d="M491.711 211.534c.48.518.911 1.007 1.289 1.466 12.284 14.918 109.413 178.202 114 187 15.13 29.021 101.501 89.178 109 105 7.499 15.822 8 24 8 24l-18-24 10 21-56-39s17.943 35.038 20 42c2.057 6.962 3 13 3 13s-36.086-49.047-60-58c-23.914-8.953-42.13-15.056-67-33-24.87-17.944-73-56-73-56s-16.333-1-23.5-4.5C452.333 387 439 370 439 370s-16.081-5.115-25-20-12-20-12-20-16.524-9.435-30-30c-13.476-20.565-48.616-114.712-21-129 27.616-14.288 47.013-17.61 96 14s46 28 46 28" style="fill:url(#d);stroke:#000;stroke-width:3px" transform="translate(-134.866 -29.73)"/><ellipse cx="170.033" cy="138.954" rx="18.033" ry="12.046" style="fill:#909090" transform="rotate(-33.811 25.604 339.133)"/><path d="M180 105s-1.572 16.988-6 21.908c-4.428 4.92-16 7.092-16 7.092s10.459 16.196 24 19c13.541 2.804 31 2 31 2s-10.687-12.297-13-22c-2.313-9.703-2.746-17.399-6-22-3.254-4.601-14-6-14-6Z" style="fill:#667280;stroke:#000;stroke-width:3px" transform="translate(-134.866 -29.73)"/><path d="M141 89s-6.776 23.173-5 41c3.462 34.746 33 44 33 44s-10.99-13.419-12-21c-1.01-7.581-2.663-15.094 4-26s16.954-21.04 23-20c6.046 1.04 10 4 10 4s-33.405-33.967-44-31c-10.595 2.967-9 9-9 9Z" style="fill:#bdc7d7;stroke:#000;stroke-width:3px" transform="translate(-134.866 -29.73)"/><path d="M246 58s-3.565 2.382-13 0-13.157-9.95-27-7c-9.117 1.943-21.434 19.499-17 28 6.983 13.387 15.074 15.582 23 14 17.961-3.584 18.782-17.558 25-25s9-10 9-10Z" style="fill:#e7e1e1;stroke:#000;stroke-width:3px" transform="translate(-134.866 -29.73)"/><circle cx="208.5" cy="77.5" r="11.5" style="fill:url(#e)" transform="translate(-131.866 -38.913)"/><ellipse cx="208.25" cy="65.658" rx="3.25" ry="2.658" style="fill:#fcfcfc" transform="matrix(1 0 0 1.1881 -134.866 -42.58)"/><path d="M207 71.886c0-1 5.196-1.195 6-3.57.804-2.374 1.389-4.467 3-4.316 1.611.151 3.724 5.426 2 7.886-1.724 2.459-3.762 3.526-6.5 3.114-2.738-.412-4.5-2.114-4.5-3.114Z" style="fill:#e2e0e0" transform="translate(-134.866 -29.73)"/><defs><radialGradient id="a" cx="0" cy="0" r="1" gradientUnits="userSpaceOnUse" gradientTransform="matrix(104 0 0 184 654 623)"><stop offset="0" style="stop-color:#78e000;stop-opacity:1"/><stop offset="1" style="stop-color:#d8be00;stop-opacity:1"/></radialGradient><radialGradient id="c" cx="0" cy="0" r="1" gradientUnits="userSpaceOnUse" gradientTransform="matrix(178.172 0 0 210.385 313.538 240.615)"><stop offset="0" style="stop-color:#fff800;stop-opacity:1"/><stop offset="1" style="stop-color:#fa4714;stop-opacity:1"/></radialGradient><radialGradient id="d" cx="0" cy="0" r="1" gradientUnits="userSpaceOnUse" gradientTransform="matrix(191.653 0 0 190.725 532.347 351.275)"><stop offset="0" style="stop-color:#0433fe;stop-opacity:1"/><stop offset=".57" style="stop-color:#217d70;stop-opacity:1"/><stop offset="1" style="stop-color:#2e9d32;stop-opacity:1"/></radialGradient><radialGradient id="e" cx="0" cy="0" r="1" gradientUnits="userSpaceOnUse" gradientTransform="matrix(11.5 0 0 11.5 208.5 77.5)"><stop offset="0" style="stop-color:#8d8d8d;stop-opacity:1"/><stop offset=".55" style="stop-color:#2a2a2a;stop-opacity:1"/><stop offset="1" style="stop-color:black;stop-opacity:1"/></radialGradient><linearGradient id="b" x1="0" y1="0" x2="1" y2="0" gradientUnits="userSpaceOnUse" gradientTransform="matrix(210 0 0 358 504 582)"><stop offset="0" style="stop-color:#639e00;stop-opacity:1"/><stop offset="1" style="stop-color:#525c47;stop-opacity:1"/></linearGradient></defs></svg>