<svg viewBox="0 0 920 1912" xmlns="http://www.w3.org/2000/svg" xml:space="preserve" style="fill-rule:evenodd;clip-rule:evenodd;stroke-linecap:round;stroke-linejoin:round;stroke-miterlimit:1.5"><path d="m619.591 1515.28 71.026 379.07s1.644 14.74 34.514 8.47c32.871-6.28 33.83-15.18 33.83-15.18l-6.551-398.35-132.819 25.99Z" style="fill:#69481e;stroke:#000;stroke-width:6.67px"/><path d="M556.721 1424.36s1.159 25.97 13.555 51.61c12.396 25.63 19.758 38.32 19.758 38.32s61.583 13.15 103.964 4.82 78.612-35.7 78.612-35.7 5.321-25.94 3.665-52.14c-1.656-26.2-6.815-58.42-6.815-58.42l-212.739 51.51Z" style="fill:#69481e;stroke:#000;stroke-width:6.67px"/><path d="M341.047 289.442s-31.862-9.253-64.675-26.297c-32.812-17.044-37.972-33.928-37.972-33.928s8.875-41.436 38.467-60.345 45.137 1.882 45.137 1.882 34.774-126.526 74.712-143.169C436.653 10.942 510.225 3.14 510.225 3.14s96.635 1.692 107.268 22.996c10.633 21.304 81.388 148.289 81.388 148.289s28.041-14.275 44.285-2.037c16.244 12.237 46.611 52.85 37.777 63.085-8.834 10.235-126.187 50.589-126.187 50.589s16.366 27.841 11.505 46.063c-4.862 18.223-15.661 36.094-15.661 36.094s9.104 19.981 9.104 33.323c0 13.343 2.538 31.643 2.538 31.643l33.482 14.229s107.163-57.094 186.036 32.117c81.491 92.171 1.384 206.094 1.384 206.094s4.774 69.659-6.518 97.089c-11.293 27.43-41.668 67.75-41.668 67.75s-7.129 32.365-17.747 45.033c-24.887 29.691-124.003 6.817-124.003 6.817l1.566 17.974s23.268 7.284 23.268 28.573-5.372 36.886-5.372 36.886 11.625 30.713 4.807 44.793c-6.818 14.08-19.611 22.18-19.611 22.18s43.437 75.84 47.939 116.91c6.6 60.22-.374 123.34-.374 123.34s30.109 17.42 31.467 38.47c1.358 21.06-62.355 117.35-101.714 129.1-39.36 11.75-82.75-28.86-82.75-28.86s-61.498-14.34-67.274-41.35c-5.775-27.02 11.909-67.8 4.148-83.25-7.76-15.45-27.429-99.03-27.429-99.03l-22.178-.84s-15.077 52.23-34.27 84.79c-19.193 32.56-58.107 76.96-58.107 76.96l-17.337 79.1s31.22 10.56 32.235 28.93c1.015 18.37-22.048 43.64-23.917 63.08-1.868 19.45-.521 39.33-5.634 48.68-5.112 9.34-26.855 10.9-26.855 10.9s-10.422 27.4-10.422 61.2c0 33.8 8.759 58.66 3.474 78.09-5.285 19.44-20.755 32.9-20.755 32.9s17.34 81.52 2.447 94.25c-14.893 12.73-69.773 16.35-69.773 16.35s-14.011 14.57-32.816 20.36c-18.805 5.78-49.851 7.58-49.851 7.58s-65.531-12.8-94.686-12.8-50.92 6.11-50.92 6.11-20.268-19.22-19.424-48.13c.845-28.92 13.847-39.31 26.722-44.46 12.874-5.14 30.609-3.47 30.609-3.47s5.371-27.14 23.17-43.88c17.799-16.74 36.443-28.27 36.443-28.27s-10.662-10.65-5.662-29.38c5-18.73 15.938-19.05 15.938-19.05s.237-36.91.581-53.61c.344-16.69-7.4-54.38-7.4-54.38l-30.674-22.25-3.933-100.64s7.133-10.68 29.353-13.93c22.219-3.25 29.328 1.22 29.328 1.22s51.68-70.86 60.213-101.97c8.533-31.11 28.377-93.67 28.377-93.67s5.056-86.94 21.919-124.08c16.864-37.15 30.468-76.43 30.468-76.43s-12.765-11.4-10.783-34.57c1.983-23.178 6.994-29.637 6.994-29.637s-16.01-14.824-6.857-38.988c9.153-24.164 23.733-27.329 23.733-27.329l-.344-16.563s-69.788 21.701-104.058 2.215c-34.271-19.486-34.271-50.691-34.271-50.691s-40.781-34.329-49.031-77.945c-8.251-43.616-2.508-86.698-2.508-86.698s-85.595-108.842-.122-201.774c85.473-92.931 189.672-36.587 189.672-36.587l30.252-14.723s3.128-7.411 6.357-37.211c3.229-29.799 7.797-26.764 7.797-26.764s-21.714-21.679-16.874-46.235c4.841-24.556 12.548-34.368 12.548-34.368Z"/></svg>