<svg viewBox="0 0 750 750" xmlns="http://www.w3.org/2000/svg" xml:space="preserve" style="fill-rule:evenodd;clip-rule:evenodd;stroke-linecap:round;stroke-linejoin:round;stroke-miterlimit:1.5"><circle cx="441.129" cy="441.129" r="441.129" style="fill:#ffc12f;stroke:#000;stroke-width:4px" transform="matrix(.69444 0 0 .69444 69.135 68.66)"/><circle cx="540.684" cy="540" r="365" style="fill:#fff19f;stroke:#000;stroke-width:4px" transform="matrix(.69444 0 0 .69444 0 0)"/><path d="M553 69.862H196s-7.503-11.204-11.059-15.794c-12.417-16.032-30.114-14.474-38.452-3-8.338 11.474-11.203 29.968 2.671 51.895-14.684 22.073-11.009 40.421-2.671 51.894 8.338 11.474 23.606 14.179 38.452-3 3.754-4.343 11.059-14.995 11.059-14.995h357V137h357s7.305 10.652 11.059 14.996c14.846 17.178 30.114 14.473 38.452 3 8.338-11.474 12.013-29.822-2.671-51.895 13.874-21.927 11.009-40.421 2.671-51.895-8.338-11.474-26.035-13.032-38.452 3C917.503 58.796 910 70 910 70H553" style="fill:#fff;stroke:#000;stroke-width:3.56px" transform="rotate(45 58.598 103.435) scale(.85784 .69445)"/><path d="M553 69.862H196s-7.503-11.204-11.059-15.794c-12.417-16.032-30.114-14.474-38.452-3-8.338 11.474-11.203 29.968 2.671 51.895-14.684 22.073-11.009 40.421-2.671 51.894 8.338 11.474 23.606 14.179 38.452-3 3.754-4.343 11.059-14.995 11.059-14.995h357V137h357s7.305 10.652 11.059 14.996c14.846 17.178 30.114 14.473 38.452 3 8.338-11.474 12.013-29.822-2.671-51.895 13.874-21.927 11.009-40.421 2.671-51.895-8.338-11.474-26.035-13.032-38.452 3C917.503 58.796 910 70 910 70H553" style="fill:#fff;stroke:#000;stroke-width:3.56px" transform="rotate(-45 790.837 343.258) scale(.85784 .69445)"/><path d="m375 0-65.845 375h132.64L375 0Z"/><path d="M750 374.525 375 308.68V441.32l375-66.794Z"/><path d="m375.951 750 65.845-375h-132.64l66.795 375Z"/><path d="m0 375.472 375 65.844V308.678L0 375.472Z"/><ellipse cx="536.589" cy="663.22" rx="105.589" ry="18.22" style="stroke:#000;stroke-width:3.93px" transform="matrix(.72017 0 0 .69444 -11.087 0)"/><path d="M536.427 762s62.426-1 88.426-17c13.679-8.417 26.121-42.226 35-53 8.879-10.774 12.115-25.803-2-31.047-14.114-5.243-56.772 19.26-75 23.047-19.111 3.97-46.426 5-46.426 5s-27.685-1.03-46.427-5c-18.213-3.858-60.885-28.29-75-23.047-14.115 5.244-10.879 20.273-2 31.047 8.879 10.774 21.322 44.583 35 53 26 16 88.427 17 88.427 17" style="fill:#fff;stroke:#000;stroke-width:4px" transform="matrix(.69444 0 0 .69444 2.957 -5.535)"/><path d="m537.427 673 3.257 35L544 673h-6.573Z" style="stroke:#000;stroke-width:4.22px" transform="matrix(.6587 0 0 .6587 19.776 23.926)"/><path d="M514.783 670.62 518 692l-8.217-21 5-.38Z" style="stroke:#000;stroke-width:3.27px" transform="matrix(-.6587 0 0 1.00662 732.493 -208.263)"/><path d="m519 672-1 20-4-21 5 1Z" style="stroke:#000;stroke-width:3.27px" transform="matrix(-.6587 0 0 1.00662 750.278 -209.928)"/><path d="m519 672-1 20-4-21 5 1Z" style="stroke:#000;stroke-width:3.05px" transform="matrix(-.52696 0 0 1.1744 701.007 -331.406)"/><path d="M520.318 672 518 692l-4-21 6.318 1Z" style="stroke:#000;stroke-width:3.46px" transform="matrix(-.52696 0 0 1.00662 716.815 -223.362)"/><path d="M521.109 672 518 692l-4-21 7.109 1Z" style="stroke:#000;stroke-width:3.27px" transform="matrix(.6587 0 0 1.00662 18.458 -208.263)"/><path d="m519 672-1 20-4-21 5 1Z" style="stroke:#000;stroke-width:3.27px" transform="matrix(.6587 0 0 1.00662 .673 -209.928)"/><path d="m519 672-1 20-4-21 5 1Z" style="stroke:#000;stroke-width:3.05px" transform="matrix(.52696 0 0 1.1744 49.944 -331.406)"/><path d="m519 672-1 20-4-21 5 1Z" style="stroke:#000;stroke-width:3.46px" transform="matrix(.52696 0 0 1.00662 34.136 -223.362)"/><path d="M709 368.523c-41.326-22.032-62.568-46.433-150.356-46.433-79.505 0-151.644 46.433-151.644 46.433s-12.912 46.22-24 82.477c-11.088 36.257-13.968 58.09 4.249 89 18.217 30.91 40.969 76.821 60.988 82 20.018 5.179 60.43 18.192 109.763 18.192 49.333 0 89.745-13.013 109.763-18.192 20.019-5.179 42.771-51.09 60.988-82 18.217-30.91 15.337-52.743 4.249-89-11.088-36.257-24-82.477-24-82.477" style="fill:#fff;stroke:#000;stroke-width:3.56px" transform="matrix(.81728 0 0 .73996 -81.093 -11.252)"/><path d="M540.684 175C622.549 175 706.26 277.603 741 302.5c30 21.5 27 27.5-7 31.5-46.12 5.426-120.12 80.847-194 82-73.88-1.153-212-85-212-85s-24.154-3.306 10.37-28.5c30.148-22 118.934-127.5 200.798-127.5" style="fill:#a53232;stroke:#000;stroke-width:4px" transform="matrix(.69444 0 0 .69444 0 12.5)"/><path d="M338 430c-234-8-42.577-100.184.37-127.5 42.948-27.316 39.612-70.124 87.63-69.5 24.03.312 67.89 134 113.925 134 45.956 0 94.086-133.688 118.074-134 48.017-.624 44.682 42.184 87.629 69.5C788.576 329.816 981 419 742 430c0-39.859-51.261-10-202.074-10C389.114 420 338 386.814 338 430Z" style="fill:#fff;stroke:#000;stroke-width:4px" transform="matrix(.69444 0 0 .69444 0 12.5)"/><path d="M334.926 422.84c-234-8-39.503-93.024 3.444-120.34 42.948-27.316 39.618-68.502 87.63-69.5 15.704-.326 63.576 133.559 113.598 133.814 49.247.251 100.634-133.125 118.401-133.814 47.985-1.862 44.682 42.184 87.629 69.5 42.948 27.316 238.814 109.34-.186 120.34 0-39.859-54.703-2.84-205.516-2.84-150.812 0-205-40.346-205 2.84Z" style="fill:#a00b0b;stroke:#000;stroke-width:4px" transform="translate(7.087 22.848) scale(.68173)"/><path d="m537.427 673 3.257 33.946L544 673h-6.573Z" style="stroke:#000;stroke-width:4.22px" transform="matrix(.6587 0 0 -.6587 19.304 906.637)"/><path d="m519 672-1 20-4-21 5 1Z" style="stroke:#000;stroke-width:3.27px" transform="matrix(-.6587 0 0 -1.00662 732.02 1136.742)"/><path d="m519 672-1 20-4-21 5 1Z" style="stroke:#000;stroke-width:3.27px" transform="matrix(-.6587 0 0 -1.00662 749.805 1135.63)"/><path d="M521.636 672 518 690.226l-5.318-18.043 8.954-.183Z" style="stroke:#000;stroke-width:3.05px" transform="matrix(-.52696 0 0 -1.1744 700.534 1245.303)"/><path d="m519 672-1 20-4-21 5 1Z" style="stroke:#000;stroke-width:3.46px" transform="matrix(-.52696 0 0 -1.00662 716.343 1128.925)"/><path d="m519 672-1 19.31-7.163-20.31 8.163 1Z" style="stroke:#000;stroke-width:3.27px" transform="matrix(.6587 0 0 -1.00662 17.986 1136.048)"/><path d="m519 672-1 20-6.109-21 7.109 1Z" style="stroke:#000;stroke-width:3.27px" transform="matrix(.6587 0 0 -1.00662 .201 1135.63)"/><path d="m519 672-1 18.226L514 671l5 1Z" style="stroke:#000;stroke-width:3.05px" transform="matrix(.52696 0 0 -1.1744 49.472 1245.997)"/><path d="m519 672-1 21.38-6.636-22.38 7.636 1Z" style="stroke:#000;stroke-width:3.46px" transform="matrix(.52696 0 0 -1.00662 33.663 1128.925)"/><path d="M541.791 605.085s20.777 8.502 26.135 1c10-14-3.192-22.959-5-32-9-45-22.926-41.1-22.926-41.1l-.074-.085S526 529 517 574c-1.808 9.041-15 18-5 32 5.359 7.502 26.135-1 26.135-1" style="stroke:#000;stroke-width:4px" transform="matrix(.69444 0 0 .69444 0 -.694)"/><path d="M375 466s14.761-26.353 43-26c28.239.353 63.463 12.726 68.112 32 4.649 19.274-.302 41.803-11.112 49.215-10.81 7.412-67.862 10.04-79 0-11.138-10.04-24.159-41.821-21-55.215Z" style="stroke:#000;stroke-width:4px" transform="matrix(.69444 0 0 .69444 5.026 3.544)"/><path d="M375 466s14.761-26.353 43-26c28.239.353 63.463 12.726 68.112 32 4.649 19.274-.302 41.803-11.112 49.215-10.81 7.412-67.862 10.04-79 0-11.138-10.04-24.159-41.821-21-55.215Z" style="stroke:#000;stroke-width:4px" transform="matrix(-.69444 0 0 .69444 744.868 3.544)"/><text x="1199.59" y="760.062" style="font-family:'BodoniSvtyTwoITCTT-Book','Bodoni 72';font-size:96px;fill:#fff" transform="matrix(.69444 0 0 .69444 -496.415 -323.035)">P<tspan x="1257.57" y="760.062">B</tspan></text><text x="1199.59" y="760.062" style="font-family:'BodoniSvtyTwoITCTT-Book','Bodoni 72';font-size:72px;fill:#fff" transform="matrix(.69444 0 0 .69444 -408.382 -260.642)">&apos;<tspan x="1232.42px 1278px" y="760.062px 760.062px">23</tspan></text><text x="241.176" y="647.26" style="font-family:'BodoniSvtyTwoITCTT-Book','Bodoni 72';font-size:32px;fill:#3c0000" transform="rotate(33.783 285.892 563.544)">W</text><text x="265.63" y="663.235" style="font-family:'BodoniSvtyTwoITCTT-Book','Bodoni 72';font-size:32px;fill:#3c0000" transform="rotate(29.922 319.102 570.764)">I</text><text x="274.251" y="668.324" style="font-family:'BodoniSvtyTwoITCTT-Book','Bodoni 72';font-size:32px;fill:#3c0000" transform="rotate(27.081 335.724 567.852)">T</text><text x="290.949" y="676.943" style="font-family:'BodoniSvtyTwoITCTT-Book','Bodoni 72';font-size:32px;fill:#3c0000" transform="rotate(22.963 367.452 561.441)">H</text><text x="317.527" y="687.827" style="font-family:'BodoniSvtyTwoITCTT-Book','Bodoni 72';font-size:32px;fill:#3c0000" transform="rotate(17.536 424.455 541.898)">A</text><text x="335.879" y="693.666" style="font-family:'BodoniSvtyTwoITCTT-Book','Bodoni 72';font-size:32px;fill:#3c0000" transform="rotate(13.616 479.72 510.826)">C</text><text x="356.187" y="698.655" style="font-family:'BodoniSvtyTwoITCTT-Book','Bodoni 72';font-size:32px;fill:#3c0000" transform="rotate(9.103 581.634 434.209)">M</text><text x="497.925" y="692.236" style="font-family:'BodoniSvtyTwoITCTT-Book','Bodoni 72';font-size:32px;fill:#3c0000" transform="rotate(-18.655 359.706 791.456)">R</text><text x="515.734" y="686.203" style="font-family:'BodoniSvtyTwoITCTT-Book','Bodoni 72';font-size:32px;fill:#3c0000" transform="rotate(-22.085 396.312 766.626)">|</text><text x="531.197" y="679.927" style="font-family:'BodoniSvtyTwoITCTT-Book','Bodoni 72';font-size:32px;fill:#3c0000" transform="rotate(-25.403 425.18 746.946)">P</text></svg>