<svg clip-rule="evenodd" fill-rule="evenodd" stroke-linecap="round" stroke-linejoin="round" stroke-miterlimit="1.5" version="1.1" viewBox="0 0 750 750" xml:space="preserve" xmlns="http://www.w3.org/2000/svg" xmlns:serif="http://www.serif.com/">
    <g transform="matrix(.69444 0 0 .69444 -7.1054e-15 0)">
        <g transform="translate(99.555 98.87)">
            <circle cx="441.13" cy="441.13" r="441.13" fill="#ffc12f" stroke="#000" stroke-width="4px"/>
        </g>
        
            <circle cx="540.68" cy="540" r="365" fill="#fff19f" stroke="#000" stroke-width="4px"/>
        
        
            
                <g transform="matrix(.87348 .87348 -.70711 .70711 130.04 -16.041)">
                    <path d="m553 69.862h-357s-7.503-11.204-11.059-15.794c-12.417-16.032-30.114-14.474-38.452-3s-11.203 29.968 2.671 51.895c-14.684 22.073-11.009 40.421-2.671 51.894 8.338 11.474 23.606 14.179 38.452-3 3.754-4.343 11.059-14.995 11.059-14.995h357v0.138h357s7.305 10.652 11.059 14.996c14.846 17.178 30.114 14.473 38.452 3 8.338-11.474 12.013-29.822-2.671-51.895 13.874-21.927 11.009-40.421 2.671-51.895s-26.035-13.032-38.452 3c-3.556 4.59-11.059 15.794-11.059 15.794h-357" fill="#fff" stroke="#000" stroke-width="3.56px"/>
                </g>
                <g transform="matrix(.87348 -.87348 .70711 .70711 -15.972 950.03)">
                    <path d="m553 69.862h-357s-7.503-11.204-11.059-15.794c-12.417-16.032-30.114-14.474-38.452-3s-11.203 29.968 2.671 51.895c-14.684 22.073-11.009 40.421-2.671 51.894 8.338 11.474 23.606 14.179 38.452-3 3.754-4.343 11.059-14.995 11.059-14.995h357v0.138h357s7.305 10.652 11.059 14.996c14.846 17.178 30.114 14.473 38.452 3 8.338-11.474 12.013-29.822-2.671-51.895 13.874-21.927 11.009-40.421 2.671-51.895s-26.035-13.032-38.452 3c-3.556 4.59-11.059 15.794-11.059 15.794h-357" fill="#fff" stroke="#000" stroke-width="3.56px"/>
                </g>
            
            <path d="m540-0-94.816 540h191l-96.184-540z"/>
            <g transform="matrix(6.1232e-17 1 -1 6.1232e-17 1080 -.68434)">
                <path d="m540-0-94.816 540h191l-96.184-540z"/>
            </g>
            <g transform="matrix(-1 1.2246e-16 -1.2246e-16 -1 1081.4 1080)">
                <path d="m540-0-94.816 540h191l-96.184-540z"/>
            </g>
            <g transform="matrix(-1.837e-16 -1 1 -1.837e-16 1.1369e-13 1080.7)">
                <path d="m540-0-94.816 540h191l-96.184-540z"/>
            </g>
        
    </g>
    <g transform="matrix(.69444 0 0 .69444 -7.1054e-15 0)" serif:id="MMXXIII with acm reflections projections">
        <g transform="matrix(6.0378 35.49 -35.49 6.0378 126.5 596.56)">
            <path d="m0.788-7e-3c0 7e-3 -7e-3 0.01-0.02 0.01h-7e-3c-0.015 0-0.04 0-0.077-1e-3s-0.065-1e-3 -0.083-1e-3c-7e-3 0-0.023 0-0.046 1e-3h-0.117c-9e-3 0-0.014-3e-3 -0.014-9e-3s5e-3 -9e-3 0.014-9e-3l0.034 1e-3c0.031 1e-3 0.049-5e-3 0.056-0.016 2e-3 -3e-3 3e-3 -0.023 3e-3 -0.06l-1e-3 -0.542c-0.021 0.055-0.049 0.143-0.084 0.264l-0.087 0.306c-0.011 0.037-0.019 0.056-0.026 0.056s-0.014-9e-3 -0.02-0.028c-2e-3 -6e-3 -0.023-0.07-0.064-0.192-0.015-0.046-0.057-0.175-0.125-0.387v0.517c0 0.03 0 0.048 1e-3 0.053 1e-3 6e-3 4e-3 0.011 9e-3 0.015 0.01 9e-3 0.027 0.013 0.051 0.012s0.036 3e-3 0.036 0.011c0 5e-3 -5e-3 7e-3 -0.015 7e-3l-0.089-2e-3c-0.015-1e-3 -0.033 0-0.053 1e-3 -0.027 1e-3 -0.045 2e-3 -0.054 2e-3 -0.014 0-0.021-3e-3 -0.021-9e-3 0-5e-3 6e-3 -8e-3 0.017-8e-3 0.027 0 0.043 0 0.048-1e-3 0.021-3e-3 0.033-0.01 0.036-0.023 2e-3 -8e-3 3e-3 -0.025 3e-3 -0.05v-0.477c0-0.053-3e-3 -0.085-9e-3 -0.094-7e-3 -9e-3 -0.031-0.013-0.072-0.013-0.011 0-0.016-3e-3 -0.016-9e-3 0-7e-3 6e-3 -0.01 0.017-9e-3l0.027 1e-3 0.189-1e-3c2e-3 0 6e-3 0 0.011 1e-3 0.057 0.185 0.105 0.338 0.144 0.46l0.135-0.461h0.021l0.132 1e-3h0.017c0.01-1e-3 0.019-1e-3 0.027-1e-3h0.046c0.013 0 0.02 3e-3 0.02 9e-3 0 7e-3 -4e-3 0.01-0.012 9e-3l-0.023-1e-3c-0.028-1e-3 -0.047 1e-3 -0.056 8e-3 -0.01 7e-3 -0.015 0.02-0.015 0.039 0 5e-3 0 0.017 1e-3 0.035s1e-3 0.102 1e-3 0.251v0.279c0 0.024 6e-3 0.038 0.019 0.041 0.012 4e-3 0.03 6e-3 0.055 5e-3 0.024-1e-3 0.036 2e-3 0.036 9e-3z" fill="#3c0000" fill-opacity=".69" fill-rule="nonzero"/>
        </g>
        <g transform="matrix(9.3785 34.757 -34.757 9.3785 133.63 635.26)">
            <path d="m0.788-7e-3c0 7e-3 -7e-3 0.01-0.02 0.01h-7e-3c-0.015 0-0.04 0-0.077-1e-3s-0.065-1e-3 -0.083-1e-3c-7e-3 0-0.023 0-0.046 1e-3h-0.117c-9e-3 0-0.014-3e-3 -0.014-9e-3s5e-3 -9e-3 0.014-9e-3l0.034 1e-3c0.031 1e-3 0.049-5e-3 0.056-0.016 2e-3 -3e-3 3e-3 -0.023 3e-3 -0.06l-1e-3 -0.542c-0.021 0.055-0.049 0.143-0.084 0.264l-0.087 0.306c-0.011 0.037-0.019 0.056-0.026 0.056s-0.014-9e-3 -0.02-0.028c-2e-3 -6e-3 -0.023-0.07-0.064-0.192-0.015-0.046-0.057-0.175-0.125-0.387v0.517c0 0.03 0 0.048 1e-3 0.053 1e-3 6e-3 4e-3 0.011 9e-3 0.015 0.01 9e-3 0.027 0.013 0.051 0.012s0.036 3e-3 0.036 0.011c0 5e-3 -5e-3 7e-3 -0.015 7e-3l-0.089-2e-3c-0.015-1e-3 -0.033 0-0.053 1e-3 -0.027 1e-3 -0.045 2e-3 -0.054 2e-3 -0.014 0-0.021-3e-3 -0.021-9e-3 0-5e-3 6e-3 -8e-3 0.017-8e-3 0.027 0 0.043 0 0.048-1e-3 0.021-3e-3 0.033-0.01 0.036-0.023 2e-3 -8e-3 3e-3 -0.025 3e-3 -0.05v-0.477c0-0.053-3e-3 -0.085-9e-3 -0.094-7e-3 -9e-3 -0.031-0.013-0.072-0.013-0.011 0-0.016-3e-3 -0.016-9e-3 0-7e-3 6e-3 -0.01 0.017-9e-3l0.027 1e-3 0.189-1e-3c2e-3 0 6e-3 0 0.011 1e-3 0.057 0.185 0.105 0.338 0.144 0.46l0.135-0.461h0.021l0.132 1e-3h0.017c0.01-1e-3 0.019-1e-3 0.027-1e-3h0.046c0.013 0 0.02 3e-3 0.02 9e-3 0 7e-3 -4e-3 0.01-0.012 9e-3l-0.023-1e-3c-0.028-1e-3 -0.047 1e-3 -0.056 8e-3 -0.01 7e-3 -0.015 0.02-0.015 0.039 0 5e-3 0 0.017 1e-3 0.035s1e-3 0.102 1e-3 0.251v0.279c0 0.024 6e-3 0.038 0.019 0.041 0.012 4e-3 0.03 6e-3 0.055 5e-3 0.024-1e-3 0.036 2e-3 0.036 9e-3z" fill="#3c0000" fill-opacity=".69" fill-rule="nonzero"/>
        </g>
        <g transform="matrix(12.549 33.742 -33.742 12.549 144.5 673.26)">
            <path d="m0.71-0.01c0 7e-3 -9e-3 0.01-0.028 0.01-3e-3 -0-7e-3 -0-0.014-1e-3h-0.186c-0.032 0-0.057 0-0.076 1e-3s-0.035 1e-3 -0.049 1e-3c-9e-3 0-0.014-3e-3 -0.014-0.01 0-5e-3 3e-3 -9e-3 0.01-0.01s0.03-1e-3 0.069-1e-3c0.018 0 0.027-5e-3 0.027-0.015 0-9e-3 -0.013-0.036-0.039-0.081-0.021-0.037-0.052-0.093-0.093-0.167-3e-3 -5e-3 -7e-3 -0.012-0.013-0.022-0.023 0.035-0.056 0.086-0.097 0.153-0.042 0.067-0.063 0.105-0.063 0.114 0 0.011 6e-3 0.016 0.019 0.017 8e-3 1e-3 0.029 1e-3 0.063 2e-3 0.011 0 0.016 3e-3 0.016 9e-3 0 8e-3 -9e-3 0.012-0.026 0.012l-0.112-2e-3h-0.01c-7e-3 1e-3 -0.013 1e-3 -0.019 1e-3l-0.059 1e-3c-0.013 0-0.02-3e-3 -0.02-9e-3 0-5e-3 6e-3 -8e-3 0.019-9e-3 0.035-2e-3 0.061-0.01 0.08-0.024 0.018-0.013 0.038-0.04 0.061-0.081 7e-3 -0.013 0.019-0.032 0.035-0.057 0.048-0.075 0.08-0.126 0.097-0.154-0.01-0.02-0.033-0.063-0.069-0.129l-0.058-0.108c-0.023-0.043-0.038-0.07-0.045-0.08-7e-3 -9e-3 -0.017-0.016-0.029-0.021-3e-3 -1e-3 -0.023-2e-3 -0.06-4e-3 -0.01 0-0.015-3e-3 -0.015-8e-3 0-7e-3 8e-3 -0.01 0.024-0.01 2e-3 0 8e-3 0 0.017 1e-3s0.018 1e-3 0.025 1e-3l0.153 2e-3c0.025 0 0.052-1e-3 0.083-2e-3 0.013-1e-3 0.024-1e-3 0.033-1e-3h9e-3c0.011 0 0.016 3e-3 0.016 9e-3 0 5e-3 -2e-3 8e-3 -7e-3 9e-3s-0.016 2e-3 -0.035 2e-3c-0.033 0-0.049 8e-3 -0.049 0.023 0 0.01 0.017 0.046 0.05 0.108 0.011 0.02 0.029 0.052 0.054 0.097 0.087-0.121 0.131-0.192 0.131-0.212 0-0.013-0.012-0.019-0.037-0.019h-0.025c-9e-3 0-0.013-3e-3 -0.013-8e-3 0-3e-3 1e-3 -6e-3 4e-3 -8e-3 3e-3 -1e-3 9e-3 -2e-3 0.02-2e-3 0.01 0 0.025 0 0.045 1e-3s0.035 2e-3 0.045 2e-3c0.023 0 0.044-1e-3 0.061-2e-3 9e-3 -1e-3 0.017-1e-3 0.024-1e-3 0.013 0 0.019 3e-3 0.019 0.01 0 5e-3 -0.01 7e-3 -0.031 8e-3 -0.03 1e-3 -0.05 5e-3 -0.06 0.012-0.011 8e-3 -0.028 0.031-0.051 0.07-0.021 0.035-0.04 0.065-0.057 0.089l-0.061 0.088c0.049 0.087 0.109 0.2 0.181 0.338 0.014 0.027 0.027 0.044 0.038 0.049 0.01 6e-3 0.034 9e-3 0.069 8e-3 0.015 0 0.023 3e-3 0.023 0.01z" fill="#3c0000" fill-opacity=".69" fill-rule="nonzero"/>
        </g>
        <g transform="matrix(15.462 32.51 -32.51 15.462 157.65 707.22)">
            <path d="m0.71-0.01c0 7e-3 -9e-3 0.01-0.028 0.01-3e-3 -0-7e-3 -0-0.014-1e-3h-0.186c-0.032 0-0.057 0-0.076 1e-3s-0.035 1e-3 -0.049 1e-3c-9e-3 0-0.014-3e-3 -0.014-0.01 0-5e-3 3e-3 -9e-3 0.01-0.01s0.03-1e-3 0.069-1e-3c0.018 0 0.027-5e-3 0.027-0.015 0-9e-3 -0.013-0.036-0.039-0.081-0.021-0.037-0.052-0.093-0.093-0.167-3e-3 -5e-3 -7e-3 -0.012-0.013-0.022-0.023 0.035-0.056 0.086-0.097 0.153-0.042 0.067-0.063 0.105-0.063 0.114 0 0.011 6e-3 0.016 0.019 0.017 8e-3 1e-3 0.029 1e-3 0.063 2e-3 0.011 0 0.016 3e-3 0.016 9e-3 0 8e-3 -9e-3 0.012-0.026 0.012l-0.112-2e-3h-0.01c-7e-3 1e-3 -0.013 1e-3 -0.019 1e-3l-0.059 1e-3c-0.013 0-0.02-3e-3 -0.02-9e-3 0-5e-3 6e-3 -8e-3 0.019-9e-3 0.035-2e-3 0.061-0.01 0.08-0.024 0.018-0.013 0.038-0.04 0.061-0.081 7e-3 -0.013 0.019-0.032 0.035-0.057 0.048-0.075 0.08-0.126 0.097-0.154-0.01-0.02-0.033-0.063-0.069-0.129l-0.058-0.108c-0.023-0.043-0.038-0.07-0.045-0.08-7e-3 -9e-3 -0.017-0.016-0.029-0.021-3e-3 -1e-3 -0.023-2e-3 -0.06-4e-3 -0.01 0-0.015-3e-3 -0.015-8e-3 0-7e-3 8e-3 -0.01 0.024-0.01 2e-3 0 8e-3 0 0.017 1e-3s0.018 1e-3 0.025 1e-3l0.153 2e-3c0.025 0 0.052-1e-3 0.083-2e-3 0.013-1e-3 0.024-1e-3 0.033-1e-3h9e-3c0.011 0 0.016 3e-3 0.016 9e-3 0 5e-3 -2e-3 8e-3 -7e-3 9e-3s-0.016 2e-3 -0.035 2e-3c-0.033 0-0.049 8e-3 -0.049 0.023 0 0.01 0.017 0.046 0.05 0.108 0.011 0.02 0.029 0.052 0.054 0.097 0.087-0.121 0.131-0.192 0.131-0.212 0-0.013-0.012-0.019-0.037-0.019h-0.025c-9e-3 0-0.013-3e-3 -0.013-8e-3 0-3e-3 1e-3 -6e-3 4e-3 -8e-3 3e-3 -1e-3 9e-3 -2e-3 0.02-2e-3 0.01 0 0.025 0 0.045 1e-3s0.035 2e-3 0.045 2e-3c0.023 0 0.044-1e-3 0.061-2e-3 9e-3 -1e-3 0.017-1e-3 0.024-1e-3 0.013 0 0.019 3e-3 0.019 0.01 0 5e-3 -0.01 7e-3 -0.031 8e-3 -0.03 1e-3 -0.05 5e-3 -0.06 0.012-0.011 8e-3 -0.028 0.031-0.051 0.07-0.021 0.035-0.04 0.065-0.057 0.089l-0.061 0.088c0.049 0.087 0.109 0.2 0.181 0.338 0.014 0.027 0.027 0.044 0.038 0.049 0.01 6e-3 0.034 9e-3 0.069 8e-3 0.015 0 0.023 3e-3 0.023 0.01z" fill="#3c0000" fill-opacity=".69" fill-rule="nonzero"/>
        </g>
        <g transform="matrix(17.775 31.306 -31.306 17.775 174.06 740.21)">
            <path d="m0.326-7e-3c0 5e-3 -4e-3 8e-3 -0.013 8e-3 -5e-3 0-9e-3 0-0.013-1e-3 -0.04-2e-3 -0.074-3e-3 -0.103-3e-3 -0.03 0-0.074 1e-3 -0.132 3e-3 -0.019 1e-3 -0.034 1e-3 -0.043 1e-3 -0.01 0-0.015-3e-3 -0.015-9e-3 0-3e-3 2e-3 -5e-3 6e-3 -6e-3 3e-3 -1e-3 0.016-1e-3 0.038-2e-3 0.021-4e-3 0.033-0.01 0.036-0.019 3e-3 -8e-3 5e-3 -0.035 5e-3 -0.08v-0.518c-1e-3 -0.012-1e-3 -0.018-1e-3 -0.017 0-0.017-0.017-0.025-0.05-0.025-0.019 0-0.028-2e-3 -0.028-7e-3s1e-3 -7e-3 4e-3 -8e-3 0.011-1e-3 0.026-1e-3c-7e-3 0 5e-3 0 0.036 1e-3s0.057 1e-3 0.079 1e-3h0.051c0.011 0 0.026-1e-3 0.046-2e-3 0.019-1e-3 0.033-1e-3 0.041-1e-3h0.01c9e-3 0 0.013 3e-3 0.013 8e-3 0 4e-3 -1e-3 6e-3 -4e-3 7e-3s-0.014 2e-3 -0.031 3e-3c-0.021 1e-3 -0.033 6e-3 -0.038 0.013l-3e-3 0.019v0.565c0 0.029 3e-3 0.046 0.01 0.051 6e-3 5e-3 0.027 9e-3 0.064 0.011 6e-3 1e-3 9e-3 3e-3 9e-3 8e-3z" fill="#3c0000" fill-opacity=".69" fill-rule="nonzero"/>
        </g>
        <g transform="matrix(19.549 30.23 -30.23 19.549 186.24 760.95)">
            <path d="m0.326-7e-3c0 5e-3 -4e-3 8e-3 -0.013 8e-3 -5e-3 0-9e-3 0-0.013-1e-3 -0.04-2e-3 -0.074-3e-3 -0.103-3e-3 -0.03 0-0.074 1e-3 -0.132 3e-3 -0.019 1e-3 -0.034 1e-3 -0.043 1e-3 -0.01 0-0.015-3e-3 -0.015-9e-3 0-3e-3 2e-3 -5e-3 6e-3 -6e-3 3e-3 -1e-3 0.016-1e-3 0.038-2e-3 0.021-4e-3 0.033-0.01 0.036-0.019 3e-3 -8e-3 5e-3 -0.035 5e-3 -0.08v-0.518c-1e-3 -0.012-1e-3 -0.018-1e-3 -0.017 0-0.017-0.017-0.025-0.05-0.025-0.019 0-0.028-2e-3 -0.028-7e-3s1e-3 -7e-3 4e-3 -8e-3 0.011-1e-3 0.026-1e-3c-7e-3 0 5e-3 0 0.036 1e-3s0.057 1e-3 0.079 1e-3h0.051c0.011 0 0.026-1e-3 0.046-2e-3 0.019-1e-3 0.033-1e-3 0.041-1e-3h0.01c9e-3 0 0.013 3e-3 0.013 8e-3 0 4e-3 -1e-3 6e-3 -4e-3 7e-3s-0.014 2e-3 -0.031 3e-3c-0.021 1e-3 -0.033 6e-3 -0.038 0.013l-3e-3 0.019v0.565c0 0.029 3e-3 0.046 0.01 0.051 6e-3 5e-3 0.027 9e-3 0.064 0.011 6e-3 1e-3 9e-3 3e-3 9e-3 8e-3z" fill="#3c0000" fill-opacity=".69" fill-rule="nonzero"/>
        </g>
        <g transform="matrix(21.261 29.051 -29.051 21.261 199.65 781.05)">
            <path d="m0.326-7e-3c0 5e-3 -4e-3 8e-3 -0.013 8e-3 -5e-3 0-9e-3 0-0.013-1e-3 -0.04-2e-3 -0.074-3e-3 -0.103-3e-3 -0.03 0-0.074 1e-3 -0.132 3e-3 -0.019 1e-3 -0.034 1e-3 -0.043 1e-3 -0.01 0-0.015-3e-3 -0.015-9e-3 0-3e-3 2e-3 -5e-3 6e-3 -6e-3 3e-3 -1e-3 0.016-1e-3 0.038-2e-3 0.021-4e-3 0.033-0.01 0.036-0.019 3e-3 -8e-3 5e-3 -0.035 5e-3 -0.08v-0.518c-1e-3 -0.012-1e-3 -0.018-1e-3 -0.017 0-0.017-0.017-0.025-0.05-0.025-0.019 0-0.028-2e-3 -0.028-7e-3s1e-3 -7e-3 4e-3 -8e-3 0.011-1e-3 0.026-1e-3c-7e-3 0 5e-3 0 0.036 1e-3s0.057 1e-3 0.079 1e-3h0.051c0.011 0 0.026-1e-3 0.046-2e-3 0.019-1e-3 0.033-1e-3 0.041-1e-3h0.01c9e-3 0 0.013 3e-3 0.013 8e-3 0 4e-3 -1e-3 6e-3 -4e-3 7e-3s-0.014 2e-3 -0.031 3e-3c-0.021 1e-3 -0.033 6e-3 -0.038 0.013l-3e-3 0.019v0.565c0 0.029 3e-3 0.046 0.01 0.051 6e-3 5e-3 0.027 9e-3 0.064 0.011 6e-3 1e-3 9e-3 3e-3 9e-3 8e-3z" fill="#3c0000" fill-opacity=".69" fill-rule="nonzero"/>
        </g>
        <g transform="matrix(24.59 17.185 -17.185 24.59 291.48 872.62)">
            <path d="m0.935-0.683c0 5e-3 -5e-3 8e-3 -0.015 9e-3 -0.03 1e-3 -0.049 5e-3 -0.057 0.01-8e-3 6e-3 -0.017 0.023-0.027 0.051-6e-3 0.015-0.015 0.039-0.027 0.07-9e-3 0.026-0.022 0.066-0.041 0.12-9e-3 0.025-0.023 0.064-0.042 0.115l-0.049 0.137c-0.035 0.097-0.054 0.152-0.058 0.167-3e-3 9e-3 -6e-3 0.013-9e-3 0.013-4e-3 0-7e-3 -3e-3 -0.01-0.01-3e-3 -6e-3 -0.01-0.029-0.023-0.068-0.017-0.052-0.041-0.117-0.073-0.194l-0.034-0.082c-0.067 0.143-0.115 0.256-0.144 0.34-3e-3 9e-3 -7e-3 0.013-0.011 0.013-3e-3 0-0.011-0.018-0.025-0.053l-0.122-0.318c-0.029-0.08-0.067-0.175-0.113-0.286-5e-3 -0.012-0.012-0.019-0.023-0.022-6e-3 -2e-3 -0.018-3e-3 -0.035-3e-3s-0.026-3e-3 -0.026-9e-3c0-5e-3 5e-3 -8e-3 0.014-8e-3h0.033c0.023 1e-3 0.043 1e-3 0.06 1e-3h0.038l0.101-2e-3c3e-3 0 9e-3 0 0.017-1e-3h0.014c9e-3 0 0.013 3e-3 0.013 0.01 0 6e-3 -0.011 9e-3 -0.032 8e-3 -0.011 0-0.017 3e-3 -0.017 9e-3 0 3e-3 1e-3 6e-3 2e-3 9e-3 0.015 0.041 0.037 0.101 0.067 0.182l0.103 0.266 0.07-0.16c-0.01-0.029-0.029-0.082-0.058-0.158-5e-3 -0.012-0.013-0.03-0.022-0.055-2e-3 -6e-3 -5e-3 -0.015-0.01-0.028-0.011-0.031-0.021-0.049-0.028-0.056-7e-3 -6e-3 -0.023-9e-3 -0.046-9e-3 -7e-3 -1e-3 -0.01-4e-3 -0.01-9e-3 0-6e-3 6e-3 -9e-3 0.019-9e-3 -2e-3 0 2e-3 0 0.011 1e-3s0.023 1e-3 0.044 1e-3l0.349-1e-3c0.013-1e-3 0.019 2e-3 0.019 9e-3 0 5e-3 -5e-3 8e-3 -0.015 8e-3 -0.047-1e-3 -0.075 7e-3 -0.082 0.024-0.011 0.018-0.035 0.069-0.071 0.153 0.023 0.06 0.061 0.155 0.112 0.285 0.011-0.027 0.022-0.058 0.034-0.091 0.011-0.028 0.028-0.076 0.052-0.143 0.015-0.045 0.028-0.081 0.039-0.109 0.018-0.047 0.027-0.078 0.027-0.092 0-0.013-7e-3 -0.022-0.02-0.025-5e-3 -1e-3 -0.017-2e-3 -0.036-2e-3 -0.011 0-0.016-3e-3 -0.016-8e-3s5e-3 -8e-3 0.015-8e-3l0.079 2e-3c0.034 1e-3 0.06 0 0.077-2e-3h8e-3c7e-3 0 0.01 3e-3 0.01 8e-3zm-0.343 0.035c0-0.018-0.016-0.027-0.048-0.027-0.033 0-0.049 6e-3 -0.049 0.018 0 0.017 0.016 0.059 0.048 0.128 0.033-0.068 0.049-0.108 0.049-0.119z" fill="#3c0000" fill-opacity=".69" fill-rule="nonzero"/>
        </g>
        <g transform="matrix(25.682 15.506 -15.506 25.682 321.62 892.97)">
            <path d="m0.326-7e-3c0 5e-3 -4e-3 8e-3 -0.013 8e-3 -5e-3 0-9e-3 0-0.013-1e-3 -0.04-2e-3 -0.074-3e-3 -0.103-3e-3 -0.03 0-0.074 1e-3 -0.132 3e-3 -0.019 1e-3 -0.034 1e-3 -0.043 1e-3 -0.01 0-0.015-3e-3 -0.015-9e-3 0-3e-3 2e-3 -5e-3 6e-3 -6e-3 3e-3 -1e-3 0.016-1e-3 0.038-2e-3 0.021-4e-3 0.033-0.01 0.036-0.019 3e-3 -8e-3 5e-3 -0.035 5e-3 -0.08v-0.518c-1e-3 -0.012-1e-3 -0.018-1e-3 -0.017 0-0.017-0.017-0.025-0.05-0.025-0.019 0-0.028-2e-3 -0.028-7e-3s1e-3 -7e-3 4e-3 -8e-3 0.011-1e-3 0.026-1e-3c-7e-3 0 5e-3 0 0.036 1e-3s0.057 1e-3 0.079 1e-3h0.051c0.011 0 0.026-1e-3 0.046-2e-3 0.019-1e-3 0.033-1e-3 0.041-1e-3h0.01c9e-3 0 0.013 3e-3 0.013 8e-3 0 4e-3 -1e-3 6e-3 -4e-3 7e-3s-0.014 2e-3 -0.031 3e-3c-0.021 1e-3 -0.033 6e-3 -0.038 0.013l-3e-3 0.019v0.565c0 0.029 3e-3 0.046 0.01 0.051 6e-3 5e-3 0.027 9e-3 0.064 0.011 6e-3 1e-3 9e-3 3e-3 9e-3 8e-3z" fill="#3c0000" fill-opacity=".69" fill-rule="nonzero"/>
        </g>
        <g transform="matrix(26.525 14.016 -14.016 26.525 338.64 903.05)">
            <path d="m0.592-0.506c0 5e-3 -2e-3 8e-3 -7e-3 8e-3 -7e-3 0-0.014-0.013-0.02-0.039-0.012-0.051-0.029-0.086-0.05-0.105s-0.055-0.028-0.102-0.028c-0.018 0-0.034 1e-3 -0.047 2e-3l1e-3 0.608c1e-3 0.017 5e-3 0.027 0.014 0.032s0.032 9e-3 0.07 0.012c7e-3 1e-3 0.011 4e-3 0.011 9e-3 0 7e-3 -5e-3 0.01-0.016 0.01-2e-3 0-7e-3 0-0.015-1e-3 -0.01-1e-3 -0.018-1e-3 -0.025-1e-3l-0.103-3e-3 -0.17 3e-3c-9e-3 0-0.014-3e-3 -0.014-8e-3 0-4e-3 1e-3 -6e-3 4e-3 -7e-3s0.014-1e-3 0.033-2e-3c0.037-1e-3 0.056-0.01 0.059-0.026 1e-3 -9e-3 2e-3 -0.076 2e-3 -0.203v-0.423c-7e-3 -1e-3 -0.016-1e-3 -0.026-1e-3 -0.053 0-0.092 0.01-0.116 0.029-0.025 0.02-0.041 0.055-0.048 0.105-5e-3 0.029-0.011 0.044-0.018 0.044-6e-3 0-9e-3 -4e-3 -9e-3 -0.012 0-5e-3 1e-3 -0.024 4e-3 -0.055 5e-3 -0.065 9e-3 -0.11 0.01-0.134h0.015l0.073-1e-3c2e-3 0 0.025 1e-3 0.07 2e-3 0.044 1e-3 0.1 2e-3 0.169 2e-3 0.038 0 0.072 0 0.102-1e-3s0.057-1e-3 0.082-1e-3c0.022 0 0.039-1e-3 0.05-2e-3 2e-3 0.043 7e-3 0.099 0.015 0.166 1e-3 0.011 2e-3 0.018 2e-3 0.021z" fill="#3c0000" fill-opacity=".69" fill-rule="nonzero"/>
        </g>
        <g transform="matrix(27.443 12.12 -12.12 27.443 362.56 915.4)">
            <path d="m0.727-0c0 4e-3 -3e-3 6e-3 -9e-3 6e-3 -5e-3 0-9e-3 0-0.013-1e-3 -0.023-4e-3 -0.089-6e-3 -0.196-6e-3 -0.01 0-0.025 0-0.046 1e-3l-0.031 1e-3c-0.021 1e-3 -0.031-2e-3 -0.031-8e-3 0-5e-3 8e-3 -8e-3 0.025-9e-3 0.015-1e-3 0.028-4e-3 0.039-9e-3 0.01-4e-3 0.016-0.01 0.016-0.017 1e-3 -4e-3 1e-3 -0.015 2e-3 -0.033l1e-3 -0.05v-0.232l-0.206 1e-3c-0.012 0-0.024 0-0.035-1e-3l2e-3 0.309c1e-3 0.017 0.014 0.028 0.04 0.031 0.021 3e-3 0.033 4e-3 0.036 5e-3s5e-3 4e-3 5e-3 7e-3c0 4e-3 -3e-3 6e-3 -0.01 6e-3 -9e-3 0-0.032-1e-3 -0.069-2e-3s-0.053-2e-3 -0.047-2e-3c-4e-3 0-0.025 1e-3 -0.061 2e-3 -0.038 2e-3 -0.073 3e-3 -0.106 3e-3h-0.01c-0.012 0-0.018-3e-3 -0.018-9e-3 0-5e-3 5e-3 -8e-3 0.014-8e-3 0.031 0 0.053-4e-3 0.065-0.012 5e-3 -3e-3 8e-3 -0.021 8e-3 -0.053v-0.552c0-0.021-6e-3 -0.034-0.017-0.039-0.011-4e-3 -0.03-6e-3 -0.055-6e-3 -9e-3 0-0.013-3e-3 -0.013-8e-3 0-3e-3 4e-3 -5e-3 0.011-6e-3 -3e-3 0 0.022 0 0.075 1e-3l0.124 1e-3c0.025 0 0.051-1e-3 0.076-2e-3 0.011-1e-3 0.018-1e-3 0.02-1e-3 9e-3 0 0.014 3e-3 0.014 0.01 0 5e-3 -2e-3 7e-3 -5e-3 8e-3 -4e-3 1e-3 -0.016 2e-3 -0.035 3e-3 -0.02 1e-3 -0.032 5e-3 -0.037 0.012-5e-3 8e-3 -7e-3 0.022-7e-3 0.042v0.236l0.024 1e-3c0.067 3e-3 0.139 2e-3 0.217-2e-3v-0.223c0-0.045-0.017-0.068-0.051-0.068-0.023 0-0.034-3e-3 -0.034-0.01 0-6e-3 4e-3 -9e-3 0.013-9e-3h0.01c0.011 0 0.03 0 0.057 1e-3s0.056 2e-3 0.088 2e-3h0.076l0.074-3e-3c7e-3 0 0.01 2e-3 0.01 6e-3 0 5e-3 -0.012 8e-3 -0.037 0.01s-0.04 7e-3 -0.046 0.015c-6e-3 9e-3 -9e-3 0.03-9e-3 0.063v0.492c0 0.043 6e-3 0.069 0.017 0.078s0.029 0.015 0.056 0.016c0.013 1e-3 0.019 5e-3 0.019 0.012z" fill="#3c0000" fill-opacity=".69" fill-rule="nonzero"/>
        </g>
        <g transform="matrix(28.604 9.0448 -9.0448 28.604 404.99 932.68)">
            <path d="m0.685-0.01c0 5e-3 -2e-3 8e-3 -7e-3 9e-3 -5e-3 2e-3 -0.018 2e-3 -0.039 2e-3 -5e-3 0-0.02 0-0.045-1e-3 -0.049-1e-3 -0.083-2e-3 -0.102-2e-3 -0.022 0-0.041 0-0.058 1e-3 -0.033 1e-3 -0.056 2e-3 -0.068 2e-3 -0.018 0-0.027-3e-3 -0.027-0.01s0.019-0.01 0.057-0.011c9e-3 0 0.016-1e-3 0.021-2e-3 0.011-1e-3 0.016-5e-3 0.016-0.012 0-3e-3 -4e-3 -0.017-0.012-0.042l-0.021-0.065c-4e-3 -0.015-0.013-0.042-0.026-0.081h-0.018l-0.078-1e-3c-0.028-1e-3 -0.058 0-0.089 1e-3 -6e-3 0.013-0.017 0.043-0.034 0.09l-0.022 0.065c-3e-3 0.01-5e-3 0.018-5e-3 0.024 0 0.011 7e-3 0.019 0.022 0.022 3e-3 1e-3 0.02 2e-3 0.049 4e-3 9e-3 1e-3 0.014 4e-3 0.014 9e-3 0 6e-3 -6e-3 9e-3 -0.018 9e-3l-0.165-1e-3c-4e-3 1e-3 -8e-3 1e-3 -0.013 1e-3 -9e-3 0-0.014-3e-3 -0.014-0.01 0-4e-3 0.01-7e-3 0.031-8e-3 0.027-1e-3 0.044-6e-3 0.051-0.015s0.019-0.037 0.036-0.084c0.013-0.033 0.031-0.083 0.055-0.148l0.121-0.333c6e-3 -0.015 0.014-0.038 0.025-0.069 7e-3 -0.023 0.013-0.034 0.017-0.034s0.011 0.015 0.022 0.046c0.013 0.039 0.072 0.195 0.176 0.466 0.013 0.035 0.027 0.07 0.04 0.106 0.011 0.031 0.023 0.049 0.034 0.056 9e-3 5e-3 0.029 8e-3 0.062 7e-3 8e-3 0 0.012 3e-3 0.012 9e-3zm-0.318-0.234c-1e-3 -2e-3 -3e-3 -8e-3 -7e-3 -0.019-0.027-0.077-0.046-0.132-0.058-0.163-3e-3 -9e-3 -8e-3 -0.021-0.014-0.038l-6e-3 -0.018c-0.012 0.029-0.027 0.068-0.044 0.119-0.019 0.057-0.033 0.096-0.042 0.119 6e-3 0 0.013 0 0.022-1e-3h0.078c0.015 0 0.039 0 0.071 1e-3z" fill="#3c0000" fill-opacity=".69" fill-rule="nonzero"/>
        </g>
        <g transform="matrix(29.168 7.0167 -7.0167 29.168 433.4 941.3)">
            <path d="m0.601-0.219-1e-3 0.017c0 3e-3 -2e-3 0.024-5e-3 0.063-3e-3 0.029-4e-3 0.052-4e-3 0.068 0 0.02 0 0.037 1e-3 0.05 1e-3 5e-3 1e-3 0.01 1e-3 0.017s-2e-3 0.011-5e-3 0.011-7e-3 -3e-3 -0.011-0.01c-0.015-0.024-0.03-0.04-0.047-0.047-0.05 0.043-0.104 0.064-0.161 0.064-0.087 0-0.164-0.033-0.231-0.098-0.071-0.069-0.106-0.157-0.106-0.262 0-0.102 0.032-0.187 0.096-0.256 0.063-0.068 0.143-0.102 0.238-0.102 0.044 0 0.083 0.01 0.118 0.03 0.02 0.011 0.035 0.017 0.044 0.017 0.014 0 0.027-6e-3 0.039-0.019 9e-3 -9e-3 0.014-0.014 0.016-0.014 3e-3 0 4e-3 2e-3 4e-3 7e-3 0 2e-3 0 5e-3 -1e-3 9e-3 -4e-3 0.023-6e-3 0.051-6e-3 0.084 0 3e-3 0 0.017 1e-3 0.041v0.069c0 0.012-3e-3 0.018-0.01 0.018-5e-3 0-0.011-0.013-0.016-0.039-0.024-0.12-0.079-0.18-0.165-0.18-0.068 0-0.117 0.044-0.148 0.132-0.021 0.06-0.032 0.132-0.032 0.216 0 0.125 0.025 0.216 0.076 0.274 0.027 0.031 0.062 0.046 0.105 0.046 0.094 0 0.156-0.063 0.185-0.188 5e-3 -0.021 0.01-0.031 0.016-0.031 7e-3 0 0.01 4e-3 9e-3 0.013z" fill="#3c0000" fill-opacity=".69" fill-rule="nonzero"/>
        </g>
        <g transform="matrix(29.606 4.8454 -4.8454 29.606 460.98 947.66)">
            <path d="m0.788-7e-3c0 7e-3 -7e-3 0.01-0.02 0.01h-7e-3c-0.015 0-0.04 0-0.077-1e-3s-0.065-1e-3 -0.083-1e-3c-7e-3 0-0.023 0-0.046 1e-3h-0.117c-9e-3 0-0.014-3e-3 -0.014-9e-3s5e-3 -9e-3 0.014-9e-3l0.034 1e-3c0.031 1e-3 0.049-5e-3 0.056-0.016 2e-3 -3e-3 3e-3 -0.023 3e-3 -0.06l-1e-3 -0.542c-0.021 0.055-0.049 0.143-0.084 0.264l-0.087 0.306c-0.011 0.037-0.019 0.056-0.026 0.056s-0.014-9e-3 -0.02-0.028c-2e-3 -6e-3 -0.023-0.07-0.064-0.192-0.015-0.046-0.057-0.175-0.125-0.387v0.517c0 0.03 0 0.048 1e-3 0.053 1e-3 6e-3 4e-3 0.011 9e-3 0.015 0.01 9e-3 0.027 0.013 0.051 0.012s0.036 3e-3 0.036 0.011c0 5e-3 -5e-3 7e-3 -0.015 7e-3l-0.089-2e-3c-0.015-1e-3 -0.033 0-0.053 1e-3 -0.027 1e-3 -0.045 2e-3 -0.054 2e-3 -0.014 0-0.021-3e-3 -0.021-9e-3 0-5e-3 6e-3 -8e-3 0.017-8e-3 0.027 0 0.043 0 0.048-1e-3 0.021-3e-3 0.033-0.01 0.036-0.023 2e-3 -8e-3 3e-3 -0.025 3e-3 -0.05v-0.477c0-0.053-3e-3 -0.085-9e-3 -0.094-7e-3 -9e-3 -0.031-0.013-0.072-0.013-0.011 0-0.016-3e-3 -0.016-9e-3 0-7e-3 6e-3 -0.01 0.017-9e-3l0.027 1e-3 0.189-1e-3c2e-3 0 6e-3 0 0.011 1e-3 0.057 0.185 0.105 0.338 0.144 0.46l0.135-0.461h0.021l0.132 1e-3h0.017c0.01-1e-3 0.019-1e-3 0.027-1e-3h0.046c0.013 0 0.02 3e-3 0.02 9e-3 0 7e-3 -4e-3 0.01-0.012 9e-3l-0.023-1e-3c-0.028-1e-3 -0.047 1e-3 -0.056 8e-3 -0.01 7e-3 -0.015 0.02-0.015 0.039 0 5e-3 0 0.017 1e-3 0.035s1e-3 0.102 1e-3 0.251v0.279c0 0.024 6e-3 0.038 0.019 0.041 0.012 4e-3 0.03 6e-3 0.055 5e-3 0.024-1e-3 0.036 2e-3 0.036 9e-3z" fill="#3c0000" fill-opacity=".69" fill-rule="nonzero"/>
        </g>
        <g transform="matrix(21.741 -3.3653 3.3653 21.741 596.42 949.23)">
            <path d="m0.646-0.039c0 0.037-0.024 0.056-0.073 0.056-0.061 0-0.11-0.019-0.147-0.058-0.029-0.03-0.045-0.062-0.049-0.096l-0.01-0.082c-7e-3 -0.052-0.019-0.088-0.036-0.109-0.018-0.021-0.047-0.031-0.086-0.03v0.227c0 0.053 0 0.081 1e-3 0.085 0 0.011 5e-3 0.019 0.014 0.023 9e-3 5e-3 0.027 7e-3 0.053 7e-3 0.016 0 0.024 3e-3 0.024 9e-3 0 5e-3 -4e-3 8e-3 -0.012 8e-3l-0.097-1e-3h-0.016c-0.012 1e-3 -0.023 1e-3 -0.034 1e-3h-0.072c-7e-3 0-0.014 0-0.023-1e-3h-0.014l-0.046 1e-3c-9e-3 0-0.014-3e-3 -0.014-8e-3 0-6e-3 0.014-0.01 0.041-0.011 0.023-1e-3 0.036-7e-3 0.04-0.016 2e-3 -5e-3 3e-3 -0.019 3e-3 -0.042v-0.515c0-0.035-1e-3 -0.055-2e-3 -0.062-1e-3 -6e-3 -6e-3 -0.011-0.013-0.014-9e-3 -4e-3 -0.024-6e-3 -0.045-6e-3 -0.015 0-0.022-3e-3 -0.022-9e-3 0-5e-3 3e-3 -8e-3 9e-3 -9e-3s0.022-1e-3 0.048-1e-3h0.018c0.012 1e-3 0.024 1e-3 0.035 1e-3h0.033c1e-3 0 8e-3 0 0.021-1e-3h0.094c0.093 0 0.157 7e-3 0.191 0.022 0.027 0.011 0.048 0.029 0.064 0.052s0.024 0.049 0.024 0.077c0 0.064-0.033 0.111-0.1 0.142-0.029 0.013-0.073 0.023-0.13 0.03l-1e-3 6e-3c0.073 5e-3 0.125 0.024 0.158 0.057 0.033 0.034 0.052 0.089 0.059 0.164 5e-3 0.06 0.014 0.097 0.025 0.112s0.023 0.023 0.035 0.023c0.01 0 0.015-3e-3 0.015-8e-3 0-3e-3 -4e-3 -6e-3 -0.011-0.011-8e-3 -5e-3 -0.012-0.011-0.012-0.02 0-0.018 0.01-0.027 0.03-0.027s0.03 0.011 0.03 0.034zm-0.253-0.505c0-0.086-0.034-0.129-0.102-0.129-0.022 0-0.036 7e-3 -0.041 0.022-3e-3 9e-3 -5e-3 0.046-5e-3 0.109v0.166c0.052 1e-3 0.09-0.012 0.113-0.039s0.035-0.07 0.035-0.129z" fill="#3c0000" fill-opacity=".69" fill-rule="nonzero"/>
        </g>
        <g transform="matrix(21.552 -4.4172 4.4172 21.552 616.98 945.86)">
            <path d="m0.571-0.175c0 1e-3 0 0.032-1e-3 0.093-1e-3 0.032-1e-3 0.055-1e-3 0.069-1e-3 0.014-1e-3 0.021-1e-3 0.02-0.176-8e-3 -0.33-0.01-0.462-7e-3l-0.084 2e-3c-0.012 0-0.018-3e-3 -0.018-8e-3 0-4e-3 2e-3 -6e-3 5e-3 -7e-3s0.013-2e-3 0.03-3e-3c0.031-2e-3 0.048-0.011 0.051-0.027 1e-3 -9e-3 2e-3 -0.018 2e-3 -0.029v-0.507c0-0.04 0-0.062-1e-3 -0.066-1e-3 -0.011-4e-3 -0.018-0.01-0.022s-0.018-6e-3 -0.037-6e-3c-0.021 0-0.031-3e-3 -0.031-9e-3 0-7e-3 9e-3 -0.01 0.028-0.01 0.018 0 0.043 0 0.076-1e-3 0.123-3e-3 0.223-3e-3 0.301-2e-3l0.068 1e-3c0.015 0 0.033-1e-3 0.054-4e-3l9e-3 0.109c3e-3 0.035 5e-3 0.056 5e-3 0.064 0 7e-3 -3e-3 0.01-0.01 0.01s-0.011-9e-3 -0.013-0.026c-6e-3 -0.046-0.024-0.079-0.055-0.101-0.032-0.021-0.077-0.031-0.138-0.031-0.019 0-0.051 1e-3 -0.096 3e-3v0.295c0.073 1e-3 0.12-5e-3 0.139-0.016s0.031-0.039 0.038-0.085c3e-3 -0.025 8e-3 -0.037 0.015-0.037 6e-3 0 9e-3 6e-3 9e-3 0.018s-1e-3 0.037-3e-3 0.074c-1e-3 0.013-1e-3 0.03-1e-3 0.051 0 0.057 1e-3 0.101 2e-3 0.13 1e-3 4e-3 1e-3 9e-3 1e-3 0.015 0 8e-3 -3e-3 0.012-9e-3 0.012-5e-3 0-8e-3 -2e-3 -9e-3 -5e-3s-3e-3 -0.013-6e-3 -0.032c-7e-3 -0.047-0.016-0.077-0.027-0.089-0.012-0.011-0.039-0.017-0.081-0.017h-0.068v0.337l0.064-1e-3c0.073-1e-3 0.118-3e-3 0.134-5e-3 0.02-3e-3 0.039-0.01 0.058-0.022 0.017-0.013 0.028-0.028 0.035-0.043 6e-3 -0.015 0.013-0.044 0.02-0.085 2e-3 -0.01 5e-3 -0.015 0.01-0.015s8e-3 5e-3 8e-3 0.015z" fill="#3c0000" fill-opacity=".69" fill-rule="nonzero"/>
        </g>
        <g transform="matrix(21.314 -5.4516 5.4516 21.314 636.47 941.69)">
            <path d="m0.557-0.519c0 5e-3 -2e-3 8e-3 -7e-3 8e-3 -4e-3 0-7e-3 -2e-3 -8e-3 -5e-3 -2e-3 -3e-3 -5e-3 -0.015-0.01-0.034-0.013-0.053-0.039-0.089-0.077-0.107-0.023-0.011-0.063-0.016-0.121-0.016-0.027 0-0.057 1e-3 -0.092 3e-3v0.306h0.029c0.063 0 0.102-7e-3 0.118-0.02 0.015-0.013 0.027-0.05 0.035-0.111 1e-3 -9e-3 5e-3 -0.013 0.01-0.013s8e-3 5e-3 8e-3 0.015c0-3e-3 0 1e-3 -1e-3 0.013-1e-3 0.013-1e-3 0.033-1e-3 0.061v0.065c0 0.047 0 0.077 1e-3 0.092s1e-3 0.028 1e-3 0.039-3e-3 0.016-9e-3 0.016c-9e-3 0-0.014-0.011-0.015-0.032-3e-3 -0.049-0.015-0.08-0.036-0.095-0.01-7e-3 -0.028-0.011-0.053-0.011-0.034 0-0.063 0-0.087 1e-3v0.242c0 0.043 3e-3 0.068 0.01 0.075s0.03 0.011 0.069 0.011c0.012 0 0.018 3e-3 0.018 8e-3 0 6e-3 -6e-3 9e-3 -0.019 9e-3 -0.015 0-0.032 0-0.053-1e-3 -0.041-1e-3 -0.088-2e-3 -0.14-2e-3 -0.037 0-0.069 1e-3 -0.097 3e-3 -4e-3 1e-3 -9e-3 1e-3 -0.014 1e-3 -8e-3 0-0.012-3e-3 -0.012-9e-3s0.011-9e-3 0.032-0.01c0.031-1e-3 0.049-9e-3 0.052-0.022 3e-3 -5e-3 4e-3 -0.015 4e-3 -0.028l-1e-3 -0.58c-1e-3 -9e-3 -5e-3 -0.016-0.011-0.019-7e-3 -3e-3 -0.019-6e-3 -0.038-7e-3s-0.029-4e-3 -0.029-9e-3c0-7e-3 7e-3 -0.01 0.02-0.01h0.019c3e-3 0 0.028 0 0.076-1e-3 0.053-1e-3 0.1-2e-3 0.141-2e-3 0.061-1e-3 0.112-1e-3 0.154 0l0.069 1e-3c0.011 0 0.027-1e-3 0.048-3e-3 5e-3 0.08 0.011 0.135 0.016 0.166 1e-3 4e-3 1e-3 8e-3 1e-3 0.012z" fill="#3c0000" fill-opacity=".69" fill-rule="nonzero"/>
        </g>
        <g transform="matrix(21.035 -6.4456 6.4456 21.035 655.03 936.78)">
            <path d="m0.557-0.169c0 0.013 0 0.023-1e-3 0.032-3e-3 0.029-4e-3 0.053-3e-3 0.071l1e-3 0.071c-0.085-3e-3 -0.24-5e-3 -0.463-5e-3h-0.042c-0.029-0-0.044-3e-3 -0.044-8e-3s5e-3 -8e-3 0.014-8e-3c0.033-1e-3 0.055-5e-3 0.064-0.014 6e-3 -5e-3 9e-3 -0.021 9e-3 -0.048l-1e-3 -0.542c0-0.023-2e-3 -0.037-6e-3 -0.042-8e-3 -0.01-0.02-0.015-0.037-0.014l-0.025 1e-3c-7e-3 0-0.011-3e-3 -0.011-8e-3s5e-3 -8e-3 0.014-8e-3c5e-3 0 0.011 0 0.016 1e-3h0.254c3e-3 -1e-3 7e-3 -1e-3 0.011-1e-3 7e-3 0 0.01 3e-3 0.01 8e-3 0 6e-3 -9e-3 9e-3 -0.026 9e-3 -0.025 0-0.039 3e-3 -0.043 9e-3 -5e-3 6e-3 -7e-3 0.032-7e-3 0.079v0.238c0 0.049 1e-3 0.158 4e-3 0.327 0.013 1e-3 0.027 1e-3 0.043 1e-3 0.07 0 0.118-3e-3 0.145-8e-3 0.042-9e-3 0.071-0.03 0.086-0.064 8e-3 -0.017 0.015-0.045 0.022-0.083 2e-3 -0.011 5e-3 -0.016 9e-3 -0.016 5e-3 0 7e-3 7e-3 7e-3 0.022z" fill="#3c0000" fill-opacity=".69" fill-rule="nonzero"/>
        </g>
        <g transform="matrix(20.704 -7.4381 7.4381 20.704 673.46 930.96)">
            <path d="m0.571-0.175c0 1e-3 0 0.032-1e-3 0.093-1e-3 0.032-1e-3 0.055-1e-3 0.069-1e-3 0.014-1e-3 0.021-1e-3 0.02-0.176-8e-3 -0.33-0.01-0.462-7e-3l-0.084 2e-3c-0.012 0-0.018-3e-3 -0.018-8e-3 0-4e-3 2e-3 -6e-3 5e-3 -7e-3s0.013-2e-3 0.03-3e-3c0.031-2e-3 0.048-0.011 0.051-0.027 1e-3 -9e-3 2e-3 -0.018 2e-3 -0.029v-0.507c0-0.04 0-0.062-1e-3 -0.066-1e-3 -0.011-4e-3 -0.018-0.01-0.022s-0.018-6e-3 -0.037-6e-3c-0.021 0-0.031-3e-3 -0.031-9e-3 0-7e-3 9e-3 -0.01 0.028-0.01 0.018 0 0.043 0 0.076-1e-3 0.123-3e-3 0.223-3e-3 0.301-2e-3l0.068 1e-3c0.015 0 0.033-1e-3 0.054-4e-3l9e-3 0.109c3e-3 0.035 5e-3 0.056 5e-3 0.064 0 7e-3 -3e-3 0.01-0.01 0.01s-0.011-9e-3 -0.013-0.026c-6e-3 -0.046-0.024-0.079-0.055-0.101-0.032-0.021-0.077-0.031-0.138-0.031-0.019 0-0.051 1e-3 -0.096 3e-3v0.295c0.073 1e-3 0.12-5e-3 0.139-0.016s0.031-0.039 0.038-0.085c3e-3 -0.025 8e-3 -0.037 0.015-0.037 6e-3 0 9e-3 6e-3 9e-3 0.018s-1e-3 0.037-3e-3 0.074c-1e-3 0.013-1e-3 0.03-1e-3 0.051 0 0.057 1e-3 0.101 2e-3 0.13 1e-3 4e-3 1e-3 9e-3 1e-3 0.015 0 8e-3 -3e-3 0.012-9e-3 0.012-5e-3 0-8e-3 -2e-3 -9e-3 -5e-3s-3e-3 -0.013-6e-3 -0.032c-7e-3 -0.047-0.016-0.077-0.027-0.089-0.012-0.011-0.039-0.017-0.081-0.017h-0.068v0.337l0.064-1e-3c0.073-1e-3 0.118-3e-3 0.134-5e-3 0.02-3e-3 0.039-0.01 0.058-0.022 0.017-0.013 0.028-0.028 0.035-0.043 6e-3 -0.015 0.013-0.044 0.02-0.085 2e-3 -0.01 5e-3 -0.015 0.01-0.015s8e-3 5e-3 8e-3 0.015z" fill="#3c0000" fill-opacity=".69" fill-rule="nonzero"/>
        </g>
        <g transform="matrix(20.307 -8.4627 8.4627 20.307 692.07 924.1)">
            <path d="m0.601-0.219-1e-3 0.017c0 3e-3 -2e-3 0.024-5e-3 0.063-3e-3 0.029-4e-3 0.052-4e-3 0.068 0 0.02 0 0.037 1e-3 0.05 1e-3 5e-3 1e-3 0.01 1e-3 0.017s-2e-3 0.011-5e-3 0.011-7e-3 -3e-3 -0.011-0.01c-0.015-0.024-0.03-0.04-0.047-0.047-0.05 0.043-0.104 0.064-0.161 0.064-0.087 0-0.164-0.033-0.231-0.098-0.071-0.069-0.106-0.157-0.106-0.262 0-0.102 0.032-0.187 0.096-0.256 0.063-0.068 0.143-0.102 0.238-0.102 0.044 0 0.083 0.01 0.118 0.03 0.02 0.011 0.035 0.017 0.044 0.017 0.014 0 0.027-6e-3 0.039-0.019 9e-3 -9e-3 0.014-0.014 0.016-0.014 3e-3 0 4e-3 2e-3 4e-3 7e-3 0 2e-3 0 5e-3 -1e-3 9e-3 -4e-3 0.023-6e-3 0.051-6e-3 0.084 0 3e-3 0 0.017 1e-3 0.041v0.069c0 0.012-3e-3 0.018-0.01 0.018-5e-3 0-0.011-0.013-0.016-0.039-0.024-0.12-0.079-0.18-0.165-0.18-0.068 0-0.117 0.044-0.148 0.132-0.021 0.06-0.032 0.132-0.032 0.216 0 0.125 0.025 0.216 0.076 0.274 0.027 0.031 0.062 0.046 0.105 0.046 0.094 0 0.156-0.063 0.185-0.188 5e-3 -0.021 0.01-0.031 0.016-0.031 7e-3 0 0.01 4e-3 9e-3 0.013z" fill="#3c0000" fill-opacity=".69" fill-rule="nonzero"/>
        </g>
        <g transform="matrix(19.864 -9.4565 9.4565 19.864 711.17 915.94)">
            <path d="m0.592-0.506c0 5e-3 -2e-3 8e-3 -7e-3 8e-3 -7e-3 0-0.014-0.013-0.02-0.039-0.012-0.051-0.029-0.086-0.05-0.105s-0.055-0.028-0.102-0.028c-0.018 0-0.034 1e-3 -0.047 2e-3l1e-3 0.608c1e-3 0.017 5e-3 0.027 0.014 0.032s0.032 9e-3 0.07 0.012c7e-3 1e-3 0.011 4e-3 0.011 9e-3 0 7e-3 -5e-3 0.01-0.016 0.01-2e-3 0-7e-3 0-0.015-1e-3 -0.01-1e-3 -0.018-1e-3 -0.025-1e-3l-0.103-3e-3 -0.17 3e-3c-9e-3 0-0.014-3e-3 -0.014-8e-3 0-4e-3 1e-3 -6e-3 4e-3 -7e-3s0.014-1e-3 0.033-2e-3c0.037-1e-3 0.056-0.01 0.059-0.026 1e-3 -9e-3 2e-3 -0.076 2e-3 -0.203v-0.423c-7e-3 -1e-3 -0.016-1e-3 -0.026-1e-3 -0.053 0-0.092 0.01-0.116 0.029-0.025 0.02-0.041 0.055-0.048 0.105-5e-3 0.029-0.011 0.044-0.018 0.044-6e-3 0-9e-3 -4e-3 -9e-3 -0.012 0-5e-3 1e-3 -0.024 4e-3 -0.055 5e-3 -0.065 9e-3 -0.11 0.01-0.134h0.015l0.073-1e-3c2e-3 0 0.025 1e-3 0.07 2e-3 0.044 1e-3 0.1 2e-3 0.169 2e-3 0.038 0 0.072 0 0.102-1e-3s0.057-1e-3 0.082-1e-3c0.022 0 0.039-1e-3 0.05-2e-3 2e-3 0.043 7e-3 0.099 0.015 0.166 1e-3 0.011 2e-3 0.018 2e-3 0.021z" fill="#3c0000" fill-opacity=".69" fill-rule="nonzero"/>
        </g>
        <g transform="matrix(19.453 -10.274 10.274 19.453 729.12 907.17)">
            <path d="m0.326-7e-3c0 5e-3 -4e-3 8e-3 -0.013 8e-3 -5e-3 0-9e-3 0-0.013-1e-3 -0.04-2e-3 -0.074-3e-3 -0.103-3e-3 -0.03 0-0.074 1e-3 -0.132 3e-3 -0.019 1e-3 -0.034 1e-3 -0.043 1e-3 -0.01 0-0.015-3e-3 -0.015-9e-3 0-3e-3 2e-3 -5e-3 6e-3 -6e-3 3e-3 -1e-3 0.016-1e-3 0.038-2e-3 0.021-4e-3 0.033-0.01 0.036-0.019 3e-3 -8e-3 5e-3 -0.035 5e-3 -0.08v-0.518c-1e-3 -0.012-1e-3 -0.018-1e-3 -0.017 0-0.017-0.017-0.025-0.05-0.025-0.019 0-0.028-2e-3 -0.028-7e-3s1e-3 -7e-3 4e-3 -8e-3 0.011-1e-3 0.026-1e-3c-7e-3 0 5e-3 0 0.036 1e-3s0.057 1e-3 0.079 1e-3h0.051c0.011 0 0.026-1e-3 0.046-2e-3 0.019-1e-3 0.033-1e-3 0.041-1e-3h0.01c9e-3 0 0.013 3e-3 0.013 8e-3 0 4e-3 -1e-3 6e-3 -4e-3 7e-3s-0.014 2e-3 -0.031 3e-3c-0.021 1e-3 -0.033 6e-3 -0.038 0.013l-3e-3 0.019v0.565c0 0.029 3e-3 0.046 0.01 0.051 6e-3 5e-3 0.027 9e-3 0.064 0.011 6e-3 1e-3 9e-3 3e-3 9e-3 8e-3z" fill="#3c0000" fill-opacity=".69" fill-rule="nonzero"/>
        </g>
        <g transform="matrix(18.976 -11.132 11.132 18.976 741.7 900.46)">
            <path d="m0.678-0.345c0 0.1-0.031 0.184-0.093 0.253-0.063 0.069-0.139 0.104-0.23 0.104-0.089 0-0.165-0.035-0.228-0.105s-0.095-0.154-0.095-0.253c0-0.101 0.032-0.186 0.095-0.254s0.141-0.102 0.234-0.102c0.09 0 0.165 0.034 0.226 0.102 0.061 0.069 0.091 0.154 0.091 0.255zm-0.176 0.016c0-0.133-0.016-0.231-0.047-0.294-0.021-0.041-0.053-0.062-0.098-0.062s-0.081 0.029-0.108 0.087-0.041 0.136-0.041 0.233c0 0.141 0.024 0.247 0.072 0.317 0.02 0.029 0.049 0.044 0.087 0.044 0.044 0 0.075-0.021 0.093-0.063 0.028-0.065 0.042-0.153 0.042-0.262z" fill="#3c0000" fill-opacity=".69" fill-rule="nonzero"/>
        </g>
        <g transform="matrix(18.372 -12.102 12.102 18.372 760.87 888.98)">
            <path d="m0.667-0.681c0 3e-3 -2e-3 5e-3 -7e-3 6e-3s-0.023 2e-3 -0.054 3e-3c-0.018 1e-3 -0.028 4e-3 -0.031 0.011-3e-3 4e-3 -4e-3 0.025-3e-3 0.064l1e-3 0.116c1e-3 0.077 1e-3 0.178 1e-3 0.303v0.17c0 0.011-2e-3 0.017-7e-3 0.017-7e-3 0-0.056-0.055-0.145-0.166-0.09-0.11-0.189-0.236-0.296-0.378v0.074c0 0.025 0 0.047 1e-3 0.066v0.345c0 0.014 4e-3 0.023 0.013 0.026 0.014 5e-3 0.03 8e-3 0.049 8e-3 0.022 0 0.034 2e-3 0.037 5e-3 1e-3 1e-3 1e-3 2e-3 1e-3 4e-3 0 5e-3 -5e-3 8e-3 -0.015 8e-3 -6e-3 0-0.011 0-0.015-1e-3 -0.04-1e-3 -0.065-2e-3 -0.075-2e-3 -0.023 0-0.054 1e-3 -0.092 2e-3 -0.019 1e-3 -0.027 1e-3 -0.024 1e-3 -0.01 0-0.015-3e-3 -0.015-8e-3s0.015-8e-3 0.044-0.01c0.034-3e-3 0.054-8e-3 0.059-0.016 3e-3 -5e-3 5e-3 -0.029 5e-3 -0.072v-0.411c0-0.042-1e-3 -0.067-2e-3 -0.076-4e-3 -0.029-0.016-0.051-0.035-0.064-0.015-0.01-0.042-0.016-0.082-0.017-0.011-1e-3 -0.016-4e-3 -0.016-9e-3 0-6e-3 5e-3 -9e-3 0.014-9e-3 4e-3 0 0.018 1e-3 0.043 2e-3 0.012 1e-3 0.03 1e-3 0.054 1e-3 0.049 0 0.089-1e-3 0.12-2e-3l0.351 0.451v-0.396c0-0.016-3e-3 -0.026-8e-3 -0.031-5e-3 -4e-3 -0.017-6e-3 -0.034-7e-3l-0.043-2e-3c-8e-3 -1e-3 -0.012-3e-3 -0.012-7e-3 0-5e-3 6e-3 -8e-3 0.018-8e-3h0.022c4e-3 0 0.011 0 0.02-1e-3h0.023c0.067 0 0.107 0 0.118 1e-3s0.017 4e-3 0.017 9e-3z" fill="#3c0000" fill-opacity=".69" fill-rule="nonzero"/>
        </g>
        <g transform="matrix(17.773 -12.966 12.966 17.773 778.6 877.04)">
            <path d="m0.471-0.197c0 0.061-0.021 0.111-0.064 0.15-0.043 0.04-0.098 0.06-0.165 0.06-0.041 0-0.097-0.014-0.168-0.041-5e-3 -2e-3 -0.01-3e-3 -0.014-3e-3 -0.011 0-0.02 0.012-0.026 0.036-2e-3 7e-3 -5e-3 0.011-8e-3 0.011-5e-3 0-8e-3 -5e-3 -8e-3 -0.014s2e-3 -0.024 5e-3 -0.046c3e-3 -0.018 4e-3 -0.039 4e-3 -0.063 0-0.019 0-0.035-1e-3 -0.046-1e-3 -0.023-2e-3 -0.036-2e-3 -0.04 0-0.011 3e-3 -0.016 0.01-0.016s0.013 0.014 0.018 0.043c9e-3 0.049 0.03 0.088 0.063 0.115 0.035 0.029 0.073 0.044 0.114 0.044 0.036 0 0.066-0.011 0.091-0.034s0.037-0.05 0.037-0.083c0-0.028-8e-3 -0.05-0.024-0.067-0.012-0.012-0.051-0.036-0.116-0.071-0.073-0.039-0.122-0.077-0.148-0.116-0.024-0.035-0.036-0.077-0.036-0.126 0-0.057 0.02-0.105 0.061-0.143 0.041-0.037 0.092-0.056 0.154-0.056 0.033 0 0.069 8e-3 0.107 0.024 0.013 5e-3 0.022 8e-3 0.027 8e-3 0.01 0 0.017-9e-3 0.02-0.026 1e-3 -6e-3 4e-3 -9e-3 9e-3 -9e-3 7e-3 0 0.01 4e-3 0.01 0.013 0 3e-3 -1e-3 0.013-2e-3 0.028s-2e-3 0.028-2e-3 0.038c0 0.035 1e-3 0.064 4e-3 0.088 1e-3 2e-3 1e-3 5e-3 1e-3 8e-3 0 6e-3 -3e-3 9e-3 -8e-3 9e-3 -6e-3 0-0.012-0.011-0.018-0.032s-0.016-0.042-0.031-0.064c-0.016-0.021-0.031-0.036-0.046-0.045-0.02-0.012-0.043-0.018-0.07-0.018-0.037 0-0.067 9e-3 -0.089 0.027s-0.033 0.043-0.033 0.074c0 0.027 0.01 0.051 0.031 0.072s0.06 0.048 0.119 0.081c0.072 0.04 0.12 0.072 0.143 0.096 0.034 0.035 0.051 0.08 0.051 0.134z" fill="#3c0000" fill-opacity=".69" fill-rule="nonzero"/>
        </g>
        <g transform="matrix(13.076 -17.692 17.692 13.076 868.64 790.01)">
            <path d="m0.55-0.532c0 0.057-0.021 0.103-0.064 0.138s-0.099 0.053-0.17 0.053c-0.018 0-0.043-2e-3 -0.076-7e-3v0.256c0 0.037 3e-3 0.058 8e-3 0.064 5e-3 7e-3 0.023 0.011 0.055 0.012 0.018-1e-3 0.027 2e-3 0.027 9e-3 0 6e-3 -5e-3 9e-3 -0.016 9e-3h-0.015c-3e-3 0-0.019 0-0.046-1e-3 -0.028-1e-3 -0.057-1e-3 -0.086-1e-3l-0.117 1e-3c-0.022 0-0.035-1e-3 -0.038-2e-3s-5e-3 -3e-3 -5e-3 -6e-3c0-5e-3 5e-3 -8e-3 0.016-8e-3 0.033-1e-3 0.052-4e-3 0.059-9e-3 6e-3 -5e-3 9e-3 -0.021 9e-3 -0.046v-0.514c0-0.043-2e-3 -0.068-5e-3 -0.077s-0.02-0.013-0.051-0.013c-0.018 0-0.027-3e-3 -0.027-8e-3 0-6e-3 8e-3 -9e-3 0.025-9e-3l0.286-1e-3c0.07 0 0.122 0.011 0.157 0.032 0.049 0.031 0.074 0.073 0.074 0.128zm-0.161 6e-3c0-0.099-0.031-0.148-0.093-0.148-0.037 0-0.056 0.016-0.056 0.049v0.262c0.027 0 0.046-1e-3 0.056-3e-3 0.019-3e-3 0.036-0.011 0.05-0.023 0.029-0.025 0.043-0.071 0.043-0.137z" fill="#3c0000" fill-opacity=".69" fill-rule="nonzero"/>
        </g>
        <g transform="matrix(12.195 -18.31 18.31 12.195 879.93 774.49)">
            <path d="m0.646-0.039c0 0.037-0.024 0.056-0.073 0.056-0.061 0-0.11-0.019-0.147-0.058-0.029-0.03-0.045-0.062-0.049-0.096l-0.01-0.082c-7e-3 -0.052-0.019-0.088-0.036-0.109-0.018-0.021-0.047-0.031-0.086-0.03v0.227c0 0.053 0 0.081 1e-3 0.085 0 0.011 5e-3 0.019 0.014 0.023 9e-3 5e-3 0.027 7e-3 0.053 7e-3 0.016 0 0.024 3e-3 0.024 9e-3 0 5e-3 -4e-3 8e-3 -0.012 8e-3l-0.097-1e-3h-0.016c-0.012 1e-3 -0.023 1e-3 -0.034 1e-3h-0.072c-7e-3 0-0.014 0-0.023-1e-3h-0.014l-0.046 1e-3c-9e-3 0-0.014-3e-3 -0.014-8e-3 0-6e-3 0.014-0.01 0.041-0.011 0.023-1e-3 0.036-7e-3 0.04-0.016 2e-3 -5e-3 3e-3 -0.019 3e-3 -0.042v-0.515c0-0.035-1e-3 -0.055-2e-3 -0.062-1e-3 -6e-3 -6e-3 -0.011-0.013-0.014-9e-3 -4e-3 -0.024-6e-3 -0.045-6e-3 -0.015 0-0.022-3e-3 -0.022-9e-3 0-5e-3 3e-3 -8e-3 9e-3 -9e-3s0.022-1e-3 0.048-1e-3h0.018c0.012 1e-3 0.024 1e-3 0.035 1e-3h0.033c1e-3 0 8e-3 0 0.021-1e-3h0.094c0.093 0 0.157 7e-3 0.191 0.022 0.027 0.011 0.048 0.029 0.064 0.052s0.024 0.049 0.024 0.077c0 0.064-0.033 0.111-0.1 0.142-0.029 0.013-0.073 0.023-0.13 0.03l-1e-3 6e-3c0.073 5e-3 0.125 0.024 0.158 0.057 0.033 0.034 0.052 0.089 0.059 0.164 5e-3 0.06 0.014 0.097 0.025 0.112s0.023 0.023 0.035 0.023c0.01 0 0.015-3e-3 0.015-8e-3 0-3e-3 -4e-3 -6e-3 -0.011-0.011-8e-3 -5e-3 -0.012-0.011-0.012-0.02 0-0.018 0.01-0.027 0.03-0.027s0.03 0.011 0.03 0.034zm-0.253-0.505c0-0.086-0.034-0.129-0.102-0.129-0.022 0-0.036 7e-3 -0.041 0.022-3e-3 9e-3 -5e-3 0.046-5e-3 0.109v0.166c0.052 1e-3 0.09-0.012 0.113-0.039s0.035-0.07 0.035-0.129z" fill="#3c0000" fill-opacity=".69" fill-rule="nonzero"/>
        </g>
        <g transform="matrix(11.232 -18.917 18.917 11.232 891.34 757.1)">
            <path d="m0.678-0.345c0 0.1-0.031 0.184-0.093 0.253-0.063 0.069-0.139 0.104-0.23 0.104-0.089 0-0.165-0.035-0.228-0.105s-0.095-0.154-0.095-0.253c0-0.101 0.032-0.186 0.095-0.254s0.141-0.102 0.234-0.102c0.09 0 0.165 0.034 0.226 0.102 0.061 0.069 0.091 0.154 0.091 0.255zm-0.176 0.016c0-0.133-0.016-0.231-0.047-0.294-0.021-0.041-0.053-0.062-0.098-0.062s-0.081 0.029-0.108 0.087-0.041 0.136-0.041 0.233c0 0.141 0.024 0.247 0.072 0.317 0.02 0.029 0.049 0.044 0.087 0.044 0.044 0 0.075-0.021 0.093-0.063 0.028-0.065 0.042-0.153 0.042-0.262z" fill="#3c0000" fill-opacity=".69" fill-rule="nonzero"/>
        </g>
        <g transform="matrix(10.341 -19.418 19.418 10.341 902.6 737.68)">
            <path d="m0.406-0.683c0 6e-3 -4e-3 9e-3 -0.012 9e-3h-1e-3c-7e-3 -1e-3 -0.015-1e-3 -0.025-1e-3 -0.022 0-0.035 4e-3 -0.039 0.013-2e-3 3e-3 -3e-3 0.023-3e-3 0.058v0.449c0 0.075-3e-3 0.123-9e-3 0.146-9e-3 0.035-0.039 0.069-0.088 0.102-0.039 0.027-0.078 0.04-0.117 0.04-0.031 0-0.057-8e-3 -0.076-0.024s-0.029-0.037-0.029-0.063c0-0.02 7e-3 -0.036 0.02-0.05 0.013-0.013 0.029-0.019 0.049-0.019 0.017 0 0.032 6e-3 0.044 0.017 0.011 0.011 0.017 0.026 0.017 0.043s-7e-3 0.035-0.021 0.054c-4e-3 5e-3 -6e-3 0.01-6e-3 0.014 0 7e-3 6e-3 0.011 0.018 0.011 0.03 0 0.047-0.027 0.05-0.081 1e-3 -0.011 1e-3 -0.086 1e-3 -0.225v-0.439c-1e-3 -0.011-1e-3 -0.016-1e-3 -0.016-1e-3 -0.011-6e-3 -0.019-0.014-0.023-8e-3 -3e-3 -0.024-5e-3 -0.048-6e-3 -0.015-1e-3 -0.024-1e-3 -0.027-2e-3s-4e-3 -3e-3 -4e-3 -7e-3c0-6e-3 5e-3 -9e-3 0.015-9e-3l0.125 1e-3c-1e-3 0 0.013 0 0.041-1e-3 0.031-1e-3 0.062-1e-3 0.094-1e-3h0.029c0.011 0 0.017 3e-3 0.017 0.01z" fill="#3c0000" fill-opacity=".69" fill-rule="nonzero"/>
        </g>
        <g transform="matrix(9.483 -19.851 19.851 9.483 910.11 723.33)">
            <path d="m0.571-0.175c0 1e-3 0 0.032-1e-3 0.093-1e-3 0.032-1e-3 0.055-1e-3 0.069-1e-3 0.014-1e-3 0.021-1e-3 0.02-0.176-8e-3 -0.33-0.01-0.462-7e-3l-0.084 2e-3c-0.012 0-0.018-3e-3 -0.018-8e-3 0-4e-3 2e-3 -6e-3 5e-3 -7e-3s0.013-2e-3 0.03-3e-3c0.031-2e-3 0.048-0.011 0.051-0.027 1e-3 -9e-3 2e-3 -0.018 2e-3 -0.029v-0.507c0-0.04 0-0.062-1e-3 -0.066-1e-3 -0.011-4e-3 -0.018-0.01-0.022s-0.018-6e-3 -0.037-6e-3c-0.021 0-0.031-3e-3 -0.031-9e-3 0-7e-3 9e-3 -0.01 0.028-0.01 0.018 0 0.043 0 0.076-1e-3 0.123-3e-3 0.223-3e-3 0.301-2e-3l0.068 1e-3c0.015 0 0.033-1e-3 0.054-4e-3l9e-3 0.109c3e-3 0.035 5e-3 0.056 5e-3 0.064 0 7e-3 -3e-3 0.01-0.01 0.01s-0.011-9e-3 -0.013-0.026c-6e-3 -0.046-0.024-0.079-0.055-0.101-0.032-0.021-0.077-0.031-0.138-0.031-0.019 0-0.051 1e-3 -0.096 3e-3v0.295c0.073 1e-3 0.12-5e-3 0.139-0.016s0.031-0.039 0.038-0.085c3e-3 -0.025 8e-3 -0.037 0.015-0.037 6e-3 0 9e-3 6e-3 9e-3 0.018s-1e-3 0.037-3e-3 0.074c-1e-3 0.013-1e-3 0.03-1e-3 0.051 0 0.057 1e-3 0.101 2e-3 0.13 1e-3 4e-3 1e-3 9e-3 1e-3 0.015 0 8e-3 -3e-3 0.012-9e-3 0.012-5e-3 0-8e-3 -2e-3 -9e-3 -5e-3s-3e-3 -0.013-6e-3 -0.032c-7e-3 -0.047-0.016-0.077-0.027-0.089-0.012-0.011-0.039-0.017-0.081-0.017h-0.068v0.337l0.064-1e-3c0.073-1e-3 0.118-3e-3 0.134-5e-3 0.02-3e-3 0.039-0.01 0.058-0.022 0.017-0.013 0.028-0.028 0.035-0.043 6e-3 -0.015 0.013-0.044 0.02-0.085 2e-3 -0.01 5e-3 -0.015 0.01-0.015s8e-3 5e-3 8e-3 0.015z" fill="#3c0000" fill-opacity=".69" fill-rule="nonzero"/>
        </g>
        <g transform="matrix(8.4802 -20.3 20.3 8.4802 918.52 705.33)">
            <path d="m0.601-0.219-1e-3 0.017c0 3e-3 -2e-3 0.024-5e-3 0.063-3e-3 0.029-4e-3 0.052-4e-3 0.068 0 0.02 0 0.037 1e-3 0.05 1e-3 5e-3 1e-3 0.01 1e-3 0.017s-2e-3 0.011-5e-3 0.011-7e-3 -3e-3 -0.011-0.01c-0.015-0.024-0.03-0.04-0.047-0.047-0.05 0.043-0.104 0.064-0.161 0.064-0.087 0-0.164-0.033-0.231-0.098-0.071-0.069-0.106-0.157-0.106-0.262 0-0.102 0.032-0.187 0.096-0.256 0.063-0.068 0.143-0.102 0.238-0.102 0.044 0 0.083 0.01 0.118 0.03 0.02 0.011 0.035 0.017 0.044 0.017 0.014 0 0.027-6e-3 0.039-0.019 9e-3 -9e-3 0.014-0.014 0.016-0.014 3e-3 0 4e-3 2e-3 4e-3 7e-3 0 2e-3 0 5e-3 -1e-3 9e-3 -4e-3 0.023-6e-3 0.051-6e-3 0.084 0 3e-3 0 0.017 1e-3 0.041v0.069c0 0.012-3e-3 0.018-0.01 0.018-5e-3 0-0.011-0.013-0.016-0.039-0.024-0.12-0.079-0.18-0.165-0.18-0.068 0-0.117 0.044-0.148 0.132-0.021 0.06-0.032 0.132-0.032 0.216 0 0.125 0.025 0.216 0.076 0.274 0.027 0.031 0.062 0.046 0.105 0.046 0.094 0 0.156-0.063 0.185-0.188 5e-3 -0.021 0.01-0.031 0.016-0.031 7e-3 0 0.01 4e-3 9e-3 0.013z" fill="#3c0000" fill-opacity=".69" fill-rule="nonzero"/>
        </g>
        <g transform="matrix(7.462 -20.696 20.696 7.462 926.38 686.06)">
            <path d="m0.592-0.506c0 5e-3 -2e-3 8e-3 -7e-3 8e-3 -7e-3 0-0.014-0.013-0.02-0.039-0.012-0.051-0.029-0.086-0.05-0.105s-0.055-0.028-0.102-0.028c-0.018 0-0.034 1e-3 -0.047 2e-3l1e-3 0.608c1e-3 0.017 5e-3 0.027 0.014 0.032s0.032 9e-3 0.07 0.012c7e-3 1e-3 0.011 4e-3 0.011 9e-3 0 7e-3 -5e-3 0.01-0.016 0.01-2e-3 0-7e-3 0-0.015-1e-3 -0.01-1e-3 -0.018-1e-3 -0.025-1e-3l-0.103-3e-3 -0.17 3e-3c-9e-3 0-0.014-3e-3 -0.014-8e-3 0-4e-3 1e-3 -6e-3 4e-3 -7e-3s0.014-1e-3 0.033-2e-3c0.037-1e-3 0.056-0.01 0.059-0.026 1e-3 -9e-3 2e-3 -0.076 2e-3 -0.203v-0.423c-7e-3 -1e-3 -0.016-1e-3 -0.026-1e-3 -0.053 0-0.092 0.01-0.116 0.029-0.025 0.02-0.041 0.055-0.048 0.105-5e-3 0.029-0.011 0.044-0.018 0.044-6e-3 0-9e-3 -4e-3 -9e-3 -0.012 0-5e-3 1e-3 -0.024 4e-3 -0.055 5e-3 -0.065 9e-3 -0.11 0.01-0.134h0.015l0.073-1e-3c2e-3 0 0.025 1e-3 0.07 2e-3 0.044 1e-3 0.1 2e-3 0.169 2e-3 0.038 0 0.072 0 0.102-1e-3s0.057-1e-3 0.082-1e-3c0.022 0 0.039-1e-3 0.05-2e-3 2e-3 0.043 7e-3 0.099 0.015 0.166 1e-3 0.011 2e-3 0.018 2e-3 0.021z" fill="#3c0000" fill-opacity=".69" fill-rule="nonzero"/>
        </g>
        <g transform="matrix(6.5963 -20.988 20.988 6.5963 932.92 667.31)">
            <path d="m0.326-7e-3c0 5e-3 -4e-3 8e-3 -0.013 8e-3 -5e-3 0-9e-3 0-0.013-1e-3 -0.04-2e-3 -0.074-3e-3 -0.103-3e-3 -0.03 0-0.074 1e-3 -0.132 3e-3 -0.019 1e-3 -0.034 1e-3 -0.043 1e-3 -0.01 0-0.015-3e-3 -0.015-9e-3 0-3e-3 2e-3 -5e-3 6e-3 -6e-3 3e-3 -1e-3 0.016-1e-3 0.038-2e-3 0.021-4e-3 0.033-0.01 0.036-0.019 3e-3 -8e-3 5e-3 -0.035 5e-3 -0.08v-0.518c-1e-3 -0.012-1e-3 -0.018-1e-3 -0.017 0-0.017-0.017-0.025-0.05-0.025-0.019 0-0.028-2e-3 -0.028-7e-3s1e-3 -7e-3 4e-3 -8e-3 0.011-1e-3 0.026-1e-3c-7e-3 0 5e-3 0 0.036 1e-3s0.057 1e-3 0.079 1e-3h0.051c0.011 0 0.026-1e-3 0.046-2e-3 0.019-1e-3 0.033-1e-3 0.041-1e-3h0.01c9e-3 0 0.013 3e-3 0.013 8e-3 0 4e-3 -1e-3 6e-3 -4e-3 7e-3s-0.014 2e-3 -0.031 3e-3c-0.021 1e-3 -0.033 6e-3 -0.038 0.013l-3e-3 0.019v0.565c0 0.029 3e-3 0.046 0.01 0.051 6e-3 5e-3 0.027 9e-3 0.064 0.011 6e-3 1e-3 9e-3 3e-3 9e-3 8e-3z" fill="#3c0000" fill-opacity=".69" fill-rule="nonzero"/>
        </g>
        <g transform="matrix(5.6403 -21.265 21.265 5.6403 937.17 653.58)">
            <path d="m0.678-0.345c0 0.1-0.031 0.184-0.093 0.253-0.063 0.069-0.139 0.104-0.23 0.104-0.089 0-0.165-0.035-0.228-0.105s-0.095-0.154-0.095-0.253c0-0.101 0.032-0.186 0.095-0.254s0.141-0.102 0.234-0.102c0.09 0 0.165 0.034 0.226 0.102 0.061 0.069 0.091 0.154 0.091 0.255zm-0.176 0.016c0-0.133-0.016-0.231-0.047-0.294-0.021-0.041-0.053-0.062-0.098-0.062s-0.081 0.029-0.108 0.087-0.041 0.136-0.041 0.233c0 0.141 0.024 0.247 0.072 0.317 0.02 0.029 0.049 0.044 0.087 0.044 0.044 0 0.075-0.021 0.093-0.063 0.028-0.065 0.042-0.153 0.042-0.262z" fill="#3c0000" fill-opacity=".69" fill-rule="nonzero"/>
        </g>
        <g transform="matrix(4.5205 -21.531 21.531 4.5205 942.7 631.97)">
            <path d="m0.667-0.681c0 3e-3 -2e-3 5e-3 -7e-3 6e-3s-0.023 2e-3 -0.054 3e-3c-0.018 1e-3 -0.028 4e-3 -0.031 0.011-3e-3 4e-3 -4e-3 0.025-3e-3 0.064l1e-3 0.116c1e-3 0.077 1e-3 0.178 1e-3 0.303v0.17c0 0.011-2e-3 0.017-7e-3 0.017-7e-3 0-0.056-0.055-0.145-0.166-0.09-0.11-0.189-0.236-0.296-0.378v0.074c0 0.025 0 0.047 1e-3 0.066v0.345c0 0.014 4e-3 0.023 0.013 0.026 0.014 5e-3 0.03 8e-3 0.049 8e-3 0.022 0 0.034 2e-3 0.037 5e-3 1e-3 1e-3 1e-3 2e-3 1e-3 4e-3 0 5e-3 -5e-3 8e-3 -0.015 8e-3 -6e-3 0-0.011 0-0.015-1e-3 -0.04-1e-3 -0.065-2e-3 -0.075-2e-3 -0.023 0-0.054 1e-3 -0.092 2e-3 -0.019 1e-3 -0.027 1e-3 -0.024 1e-3 -0.01 0-0.015-3e-3 -0.015-8e-3s0.015-8e-3 0.044-0.01c0.034-3e-3 0.054-8e-3 0.059-0.016 3e-3 -5e-3 5e-3 -0.029 5e-3 -0.072v-0.411c0-0.042-1e-3 -0.067-2e-3 -0.076-4e-3 -0.029-0.016-0.051-0.035-0.064-0.015-0.01-0.042-0.016-0.082-0.017-0.011-1e-3 -0.016-4e-3 -0.016-9e-3 0-6e-3 5e-3 -9e-3 0.014-9e-3 4e-3 0 0.018 1e-3 0.043 2e-3 0.012 1e-3 0.03 1e-3 0.054 1e-3 0.049 0 0.089-1e-3 0.12-2e-3l0.351 0.451v-0.396c0-0.016-3e-3 -0.026-8e-3 -0.031-5e-3 -4e-3 -0.017-6e-3 -0.034-7e-3l-0.043-2e-3c-8e-3 -1e-3 -0.012-3e-3 -0.012-7e-3 0-5e-3 6e-3 -8e-3 0.018-8e-3h0.022c4e-3 0 0.011 0 0.02-1e-3h0.023c0.067 0 0.107 0 0.118 1e-3s0.017 4e-3 0.017 9e-3z" fill="#3c0000" fill-opacity=".69" fill-rule="nonzero"/>
        </g>
        <g transform="matrix(3.4765 -21.724 21.724 3.4765 946.88 611)">
            <path d="m0.471-0.197c0 0.061-0.021 0.111-0.064 0.15-0.043 0.04-0.098 0.06-0.165 0.06-0.041 0-0.097-0.014-0.168-0.041-5e-3 -2e-3 -0.01-3e-3 -0.014-3e-3 -0.011 0-0.02 0.012-0.026 0.036-2e-3 7e-3 -5e-3 0.011-8e-3 0.011-5e-3 0-8e-3 -5e-3 -8e-3 -0.014s2e-3 -0.024 5e-3 -0.046c3e-3 -0.018 4e-3 -0.039 4e-3 -0.063 0-0.019 0-0.035-1e-3 -0.046-1e-3 -0.023-2e-3 -0.036-2e-3 -0.04 0-0.011 3e-3 -0.016 0.01-0.016s0.013 0.014 0.018 0.043c9e-3 0.049 0.03 0.088 0.063 0.115 0.035 0.029 0.073 0.044 0.114 0.044 0.036 0 0.066-0.011 0.091-0.034s0.037-0.05 0.037-0.083c0-0.028-8e-3 -0.05-0.024-0.067-0.012-0.012-0.051-0.036-0.116-0.071-0.073-0.039-0.122-0.077-0.148-0.116-0.024-0.035-0.036-0.077-0.036-0.126 0-0.057 0.02-0.105 0.061-0.143 0.041-0.037 0.092-0.056 0.154-0.056 0.033 0 0.069 8e-3 0.107 0.024 0.013 5e-3 0.022 8e-3 0.027 8e-3 0.01 0 0.017-9e-3 0.02-0.026 1e-3 -6e-3 4e-3 -9e-3 9e-3 -9e-3 7e-3 0 0.01 4e-3 0.01 0.013 0 3e-3 -1e-3 0.013-2e-3 0.028s-2e-3 0.028-2e-3 0.038c0 0.035 1e-3 0.064 4e-3 0.088 1e-3 2e-3 1e-3 5e-3 1e-3 8e-3 0 6e-3 -3e-3 9e-3 -8e-3 9e-3 -6e-3 0-0.012-0.011-0.018-0.032s-0.016-0.042-0.031-0.064c-0.016-0.021-0.031-0.036-0.046-0.045-0.02-0.012-0.043-0.018-0.07-0.018-0.037 0-0.067 9e-3 -0.089 0.027s-0.033 0.043-0.033 0.074c0 0.027 0.01 0.051 0.031 0.072s0.06 0.048 0.119 0.081c0.072 0.04 0.12 0.072 0.143 0.096 0.034 0.035 0.051 0.08 0.051 0.134z" fill="#3c0000" fill-opacity=".69" fill-rule="nonzero"/>
        </g>
    </g>
    <g transform="matrix(.69444 0 0 .69444 -25.694 -25.694)">
        <g transform="matrix(38.993 -27.992 27.992 38.993 341.96 271.84)">
            <path d="m0.55-0.532c0 0.057-0.021 0.103-0.064 0.138s-0.099 0.053-0.17 0.053c-0.018 0-0.043-2e-3 -0.076-7e-3v0.256c0 0.037 3e-3 0.058 8e-3 0.064 5e-3 7e-3 0.023 0.011 0.055 0.012 0.018-1e-3 0.027 2e-3 0.027 9e-3 0 6e-3 -5e-3 9e-3 -0.016 9e-3h-0.015c-3e-3 0-0.019 0-0.046-1e-3 -0.028-1e-3 -0.057-1e-3 -0.086-1e-3l-0.117 1e-3c-0.022 0-0.035-1e-3 -0.038-2e-3s-5e-3 -3e-3 -5e-3 -6e-3c0-5e-3 5e-3 -8e-3 0.016-8e-3 0.033-1e-3 0.052-4e-3 0.059-9e-3 6e-3 -5e-3 9e-3 -0.021 9e-3 -0.046v-0.514c0-0.043-2e-3 -0.068-5e-3 -0.077s-0.02-0.013-0.051-0.013c-0.018 0-0.027-3e-3 -0.027-8e-3 0-6e-3 8e-3 -9e-3 0.025-9e-3l0.286-1e-3c0.07 0 0.122 0.011 0.157 0.032 0.049 0.031 0.074 0.073 0.074 0.128zm-0.161 6e-3c0-0.099-0.031-0.148-0.093-0.148-0.037 0-0.056 0.016-0.056 0.049v0.262c0.027 0 0.046-1e-3 0.056-3e-3 0.019-3e-3 0.036-0.011 0.05-0.023 0.029-0.025 0.043-0.071 0.043-0.137z" fill="#3c0000" fill-opacity=".69" fill-rule="nonzero"/>
        </g>
        <g transform="matrix(42.251 -22.778 22.778 42.251 381.26 245.12)">
            <path d="m0.631-0.682c0 5e-3 -0.011 8e-3 -0.034 9e-3 -0.028 1e-3 -0.045 5e-3 -0.051 0.014-2e-3 3e-3 -3e-3 8e-3 -4e-3 0.017v0.423c0 0.157-0.075 0.236-0.226 0.236-0.077 0-0.137-0.024-0.18-0.071-0.032-0.035-0.048-0.098-0.048-0.188v-0.384c0-0.021-3e-3 -0.034-0.01-0.039s-0.028-8e-3 -0.063-0.011c-7e-3 -1e-3 -0.011-3e-3 -0.011-8e-3 0-6e-3 6e-3 -9e-3 0.018-9e-3h8e-3c6e-3 1e-3 0.011 1e-3 0.015 1e-3l0.062 1e-3c0.059 1e-3 0.102 1e-3 0.13 0 0.037-1e-3 0.052-1e-3 0.044-1e-3h0.021c0.011 0 0.017 3e-3 0.017 0.01 0 6e-3 -0.01 9e-3 -0.031 9e-3 -0.029 0-0.045 5e-3 -0.047 0.016-1e-3 7e-3 -2e-3 0.014-2e-3 0.021v0.374c0 0.054 1e-3 0.088 3e-3 0.103 5e-3 0.043 0.017 0.075 0.037 0.094 0.025 0.024 0.057 0.036 0.097 0.036 0.045 0 0.079-0.015 0.1-0.044 0.026-0.035 0.039-0.099 0.039-0.19v-0.33c0-6e-3 0-0.014 1e-3 -0.023v-0.017c0-0.017-5e-3 -0.029-0.015-0.034-7e-3 -4e-3 -0.02-6e-3 -0.039-6e-3 -0.024-1e-3 -0.036-5e-3 -0.036-0.012 0-5e-3 5e-3 -8e-3 0.014-8e-3 0.01 0 0.025 0 0.044 1e-3s0.034 2e-3 0.044 2e-3c1e-3 0 6e-3 0 0.017-1e-3h0.055c0.021 0 0.031 3e-3 0.031 9e-3z" fill="#3c0000" fill-opacity=".69" fill-rule="nonzero"/>
        </g>
        <g transform="matrix(44.777 -17.293 17.293 44.777 426.19 222.46)">
            <path d="m0.548-0.213c0 3e-3 -4e-3 0.026-0.011 0.071-5e-3 0.033-0.012 0.081-0.02 0.144-0.015-1e-3 -0.032-2e-3 -0.053-2e-3h-0.344c-0.021-0-0.038 1e-3 -0.053 2e-3 -0.019 2e-3 -0.037 3e-3 -0.053 3e-3 -9e-3 0-0.013-2e-3 -0.013-7e-3 0-3e-3 1e-3 -6e-3 4e-3 -0.01 0.013-0.02 0.039-0.066 0.077-0.138l0.212-0.392c0.032-0.057 0.053-0.098 0.063-0.122-0.016-1e-3 -0.046-2e-3 -0.09-2e-3 -0.062 0-0.108 0.013-0.138 0.039-0.033 0.029-0.058 0.068-0.075 0.115-4e-3 0.012-9e-3 0.018-0.014 0.018s-8e-3 -3e-3 -8e-3 -9e-3c0-4e-3 1e-3 -8e-3 3e-3 -0.013 5e-3 -0.025 0.018-0.085 0.037-0.179 0.036 5e-3 0.118 7e-3 0.247 7e-3 0.047 0 0.092-1e-3 0.137-4e-3 0.022-1e-3 0.036-2e-3 0.042-2e-3 0.01 0 0.019 0 0.027 1e-3 -3e-3 0.015-0.017 0.044-0.04 0.087-0.031 0.055-0.076 0.137-0.137 0.248-8e-3 0.015-0.069 0.127-0.182 0.336 0.077 0 0.12 0 0.131-1e-3 0.057-2e-3 0.101-9e-3 0.13-0.021 0.046-0.019 0.08-0.074 0.101-0.165 2e-3 -0.01 6e-3 -0.015 0.012-0.015 5e-3 0 8e-3 4e-3 8e-3 0.011z" fill="#3c0000" fill-opacity=".69" fill-rule="nonzero"/>
        </g>
        <g transform="matrix(46.55 -11.709 11.709 46.55 470.15 206.81)">
            <path d="m0.548-0.213c0 3e-3 -4e-3 0.026-0.011 0.071-5e-3 0.033-0.012 0.081-0.02 0.144-0.015-1e-3 -0.032-2e-3 -0.053-2e-3h-0.344c-0.021-0-0.038 1e-3 -0.053 2e-3 -0.019 2e-3 -0.037 3e-3 -0.053 3e-3 -9e-3 0-0.013-2e-3 -0.013-7e-3 0-3e-3 1e-3 -6e-3 4e-3 -0.01 0.013-0.02 0.039-0.066 0.077-0.138l0.212-0.392c0.032-0.057 0.053-0.098 0.063-0.122-0.016-1e-3 -0.046-2e-3 -0.09-2e-3 -0.062 0-0.108 0.013-0.138 0.039-0.033 0.029-0.058 0.068-0.075 0.115-4e-3 0.012-9e-3 0.018-0.014 0.018s-8e-3 -3e-3 -8e-3 -9e-3c0-4e-3 1e-3 -8e-3 3e-3 -0.013 5e-3 -0.025 0.018-0.085 0.037-0.179 0.036 5e-3 0.118 7e-3 0.247 7e-3 0.047 0 0.092-1e-3 0.137-4e-3 0.022-1e-3 0.036-2e-3 0.042-2e-3 0.01 0 0.019 0 0.027 1e-3 -3e-3 0.015-0.017 0.044-0.04 0.087-0.031 0.055-0.076 0.137-0.137 0.248-8e-3 0.015-0.069 0.127-0.182 0.336 0.077 0 0.12 0 0.131-1e-3 0.057-2e-3 0.101-9e-3 0.13-0.021 0.046-0.019 0.08-0.074 0.101-0.165 2e-3 -0.01 6e-3 -0.015 0.012-0.015 5e-3 0 8e-3 4e-3 8e-3 0.011z" fill="#3c0000" fill-opacity=".69" fill-rule="nonzero"/>
        </g>
        <g transform="matrix(47.632 -5.9288 5.9288 47.632 515.68 196.63)">
            <path d="m0.557-0.169c0 0.013 0 0.023-1e-3 0.032-3e-3 0.029-4e-3 0.053-3e-3 0.071l1e-3 0.071c-0.085-3e-3 -0.24-5e-3 -0.463-5e-3h-0.042c-0.029-0-0.044-3e-3 -0.044-8e-3s5e-3 -8e-3 0.014-8e-3c0.033-1e-3 0.055-5e-3 0.064-0.014 6e-3 -5e-3 9e-3 -0.021 9e-3 -0.048l-1e-3 -0.542c0-0.023-2e-3 -0.037-6e-3 -0.042-8e-3 -0.01-0.02-0.015-0.037-0.014l-0.025 1e-3c-7e-3 0-0.011-3e-3 -0.011-8e-3s5e-3 -8e-3 0.014-8e-3c5e-3 0 0.011 0 0.016 1e-3h0.254c3e-3 -1e-3 7e-3 -1e-3 0.011-1e-3 7e-3 0 0.01 3e-3 0.01 8e-3 0 6e-3 -9e-3 9e-3 -0.026 9e-3 -0.025 0-0.039 3e-3 -0.043 9e-3 -5e-3 6e-3 -7e-3 0.032-7e-3 0.079v0.238c0 0.049 1e-3 0.158 4e-3 0.327 0.013 1e-3 0.027 1e-3 0.043 1e-3 0.07 0 0.118-3e-3 0.145-8e-3 0.042-9e-3 0.071-0.03 0.086-0.064 8e-3 -0.017 0.015-0.045 0.022-0.083 2e-3 -0.011 5e-3 -0.016 9e-3 -0.016 5e-3 0 7e-3 7e-3 7e-3 0.022z" fill="#3c0000" fill-opacity=".69" fill-rule="nonzero"/>
        </g>
        <g transform="matrix(48 -.038056 .038056 48 562.89 192.01)">
            <path d="m0.571-0.175c0 1e-3 0 0.032-1e-3 0.093-1e-3 0.032-1e-3 0.055-1e-3 0.069-1e-3 0.014-1e-3 0.021-1e-3 0.02-0.176-8e-3 -0.33-0.01-0.462-7e-3l-0.084 2e-3c-0.012 0-0.018-3e-3 -0.018-8e-3 0-4e-3 2e-3 -6e-3 5e-3 -7e-3s0.013-2e-3 0.03-3e-3c0.031-2e-3 0.048-0.011 0.051-0.027 1e-3 -9e-3 2e-3 -0.018 2e-3 -0.029v-0.507c0-0.04 0-0.062-1e-3 -0.066-1e-3 -0.011-4e-3 -0.018-0.01-0.022s-0.018-6e-3 -0.037-6e-3c-0.021 0-0.031-3e-3 -0.031-9e-3 0-7e-3 9e-3 -0.01 0.028-0.01 0.018 0 0.043 0 0.076-1e-3 0.123-3e-3 0.223-3e-3 0.301-2e-3l0.068 1e-3c0.015 0 0.033-1e-3 0.054-4e-3l9e-3 0.109c3e-3 0.035 5e-3 0.056 5e-3 0.064 0 7e-3 -3e-3 0.01-0.01 0.01s-0.011-9e-3 -0.013-0.026c-6e-3 -0.046-0.024-0.079-0.055-0.101-0.032-0.021-0.077-0.031-0.138-0.031-0.019 0-0.051 1e-3 -0.096 3e-3v0.295c0.073 1e-3 0.12-5e-3 0.139-0.016s0.031-0.039 0.038-0.085c3e-3 -0.025 8e-3 -0.037 0.015-0.037 6e-3 0 9e-3 6e-3 9e-3 0.018s-1e-3 0.037-3e-3 0.074c-1e-3 0.013-1e-3 0.03-1e-3 0.051 0 0.057 1e-3 0.101 2e-3 0.13 1e-3 4e-3 1e-3 9e-3 1e-3 0.015 0 8e-3 -3e-3 0.012-9e-3 0.012-5e-3 0-8e-3 -2e-3 -9e-3 -5e-3s-3e-3 -0.013-6e-3 -0.032c-7e-3 -0.047-0.016-0.077-0.027-0.089-0.012-0.011-0.039-0.017-0.081-0.017h-0.068v0.337l0.064-1e-3c0.073-1e-3 0.118-3e-3 0.134-5e-3 0.02-3e-3 0.039-0.01 0.058-0.022 0.017-0.013 0.028-0.028 0.035-0.043 6e-3 -0.015 0.013-0.044 0.02-0.085 2e-3 -0.01 5e-3 -0.015 0.01-0.015s8e-3 5e-3 8e-3 0.015z" fill="#fff" fill-rule="nonzero"/>
        </g>
        <g transform="matrix(47.621 6.0227 -6.0227 47.621 611.78 193.3)">
            <path d="m0.574-0.18c0 0.041-0.013 0.077-0.038 0.106-0.025 0.03-0.06 0.05-0.105 0.06-0.035 8e-3 -0.069 0.013-0.1 0.014s-0.123 2e-3 -0.276 2e-3c-0.021 0-0.034 0-0.038-1e-3s-6e-3 -3e-3 -6e-3 -7e-3c0-6e-3 0.011-9e-3 0.033-9e-3 0.021 0 0.035-3e-3 0.04-0.01 5e-3 -6e-3 8e-3 -0.021 8e-3 -0.046l-1e-3 -0.572c0-0.019-0.015-0.029-0.046-0.03-0.023-1e-3 -0.035-4e-3 -0.035-9e-3 0-6e-3 7e-3 -9e-3 0.022-9e-3 0.014 1e-3 0.028 2e-3 0.041 2e-3h0.24c0.154 0 0.231 0.053 0.231 0.158 0 0.087-0.057 0.141-0.172 0.162l-2e-3 4e-3c0.067 0.014 0.114 0.032 0.14 0.053 0.043 0.035 0.064 0.079 0.064 0.132zm-0.178-0.347c0-0.097-0.03-0.145-0.09-0.145-0.021 0-0.036 1e-3 -0.043 3e-3 -0.015 5e-3 -0.022 0.015-0.022 0.031v0.264c0.059 0 0.1-0.01 0.122-0.031s0.033-0.061 0.033-0.122zm0.018 0.342c0-0.094-0.027-0.149-0.081-0.164-0.021-6e-3 -0.052-9e-3 -0.092-9e-3l2e-3 0.058c0 0.017-1e-3 0.04-2e-3 0.071-1e-3 0.015-1e-3 0.044-1e-3 0.086 0 0.072 2e-3 0.11 6e-3 0.115 5e-3 7e-3 0.02 0.011 0.045 0.011 0.082 0 0.123-0.056 0.123-0.168z" fill="#3c0000" fill-opacity=".69" fill-rule="nonzero"/>
        </g>
        <g transform="matrix(46.345 12.496 -12.496 46.345 661.39 200.93)">
            <path d="m0.685-0.01c0 5e-3 -2e-3 8e-3 -7e-3 9e-3 -5e-3 2e-3 -0.018 2e-3 -0.039 2e-3 -5e-3 0-0.02 0-0.045-1e-3 -0.049-1e-3 -0.083-2e-3 -0.102-2e-3 -0.022 0-0.041 0-0.058 1e-3 -0.033 1e-3 -0.056 2e-3 -0.068 2e-3 -0.018 0-0.027-3e-3 -0.027-0.01s0.019-0.01 0.057-0.011c9e-3 0 0.016-1e-3 0.021-2e-3 0.011-1e-3 0.016-5e-3 0.016-0.012 0-3e-3 -4e-3 -0.017-0.012-0.042l-0.021-0.065c-4e-3 -0.015-0.013-0.042-0.026-0.081h-0.018l-0.078-1e-3c-0.028-1e-3 -0.058 0-0.089 1e-3 -6e-3 0.013-0.017 0.043-0.034 0.09l-0.022 0.065c-3e-3 0.01-5e-3 0.018-5e-3 0.024 0 0.011 7e-3 0.019 0.022 0.022 3e-3 1e-3 0.02 2e-3 0.049 4e-3 9e-3 1e-3 0.014 4e-3 0.014 9e-3 0 6e-3 -6e-3 9e-3 -0.018 9e-3l-0.165-1e-3c-4e-3 1e-3 -8e-3 1e-3 -0.013 1e-3 -9e-3 0-0.014-3e-3 -0.014-0.01 0-4e-3 0.01-7e-3 0.031-8e-3 0.027-1e-3 0.044-6e-3 0.051-0.015s0.019-0.037 0.036-0.084c0.013-0.033 0.031-0.083 0.055-0.148l0.121-0.333c6e-3 -0.015 0.014-0.038 0.025-0.069 7e-3 -0.023 0.013-0.034 0.017-0.034s0.011 0.015 0.022 0.046c0.013 0.039 0.072 0.195 0.176 0.466 0.013 0.035 0.027 0.07 0.04 0.106 0.011 0.031 0.023 0.049 0.034 0.056 9e-3 5e-3 0.029 8e-3 0.062 7e-3 8e-3 0 0.012 3e-3 0.012 9e-3zm-0.318-0.234c-1e-3 -2e-3 -3e-3 -8e-3 -7e-3 -0.019-0.027-0.077-0.046-0.132-0.058-0.163-3e-3 -9e-3 -8e-3 -0.021-0.014-0.038l-6e-3 -0.018c-0.012 0.029-0.027 0.068-0.044 0.119-0.019 0.057-0.033 0.096-0.042 0.119 6e-3 0 0.013 0 0.022-1e-3h0.078c0.015 0 0.039 0 0.071 1e-3z" fill="#3c0000" fill-opacity=".69" fill-rule="nonzero"/>
        </g>
        <g transform="matrix(44.232 18.642 -18.642 44.232 712.32 216.18)">
            <path d="m0.667-0.681c0 3e-3 -2e-3 5e-3 -7e-3 6e-3s-0.023 2e-3 -0.054 3e-3c-0.018 1e-3 -0.028 4e-3 -0.031 0.011-3e-3 4e-3 -4e-3 0.025-3e-3 0.064l1e-3 0.116c1e-3 0.077 1e-3 0.178 1e-3 0.303v0.17c0 0.011-2e-3 0.017-7e-3 0.017-7e-3 0-0.056-0.055-0.145-0.166-0.09-0.11-0.189-0.236-0.296-0.378v0.074c0 0.025 0 0.047 1e-3 0.066v0.345c0 0.014 4e-3 0.023 0.013 0.026 0.014 5e-3 0.03 8e-3 0.049 8e-3 0.022 0 0.034 2e-3 0.037 5e-3 1e-3 1e-3 1e-3 2e-3 1e-3 4e-3 0 5e-3 -5e-3 8e-3 -0.015 8e-3 -6e-3 0-0.011 0-0.015-1e-3 -0.04-1e-3 -0.065-2e-3 -0.075-2e-3 -0.023 0-0.054 1e-3 -0.092 2e-3 -0.019 1e-3 -0.027 1e-3 -0.024 1e-3 -0.01 0-0.015-3e-3 -0.015-8e-3s0.015-8e-3 0.044-0.01c0.034-3e-3 0.054-8e-3 0.059-0.016 3e-3 -5e-3 5e-3 -0.029 5e-3 -0.072v-0.411c0-0.042-1e-3 -0.067-2e-3 -0.076-4e-3 -0.029-0.016-0.051-0.035-0.064-0.015-0.01-0.042-0.016-0.082-0.017-0.011-1e-3 -0.016-4e-3 -0.016-9e-3 0-6e-3 5e-3 -9e-3 0.014-9e-3 4e-3 0 0.018 1e-3 0.043 2e-3 0.012 1e-3 0.03 1e-3 0.054 1e-3 0.049 0 0.089-1e-3 0.12-2e-3l0.351 0.451v-0.396c0-0.016-3e-3 -0.026-8e-3 -0.031-5e-3 -4e-3 -0.017-6e-3 -0.034-7e-3l-0.043-2e-3c-8e-3 -1e-3 -0.012-3e-3 -0.012-7e-3 0-5e-3 6e-3 -8e-3 0.018-8e-3h0.022c4e-3 0 0.011 0 0.02-1e-3h0.023c0.067 0 0.107 0 0.118 1e-3s0.017 4e-3 0.017 9e-3z" fill="#3c0000" fill-opacity=".69" fill-rule="nonzero"/>
        </g>
        <g transform="matrix(41.166 24.685 -24.685 41.166 759.97 237.81)">
            <path d="m0.679-0.216c0 7e-3 -0.013 0.01-0.038 9e-3 -0.03-1e-3 -0.046 6e-3 -0.048 0.02-1e-3 8e-3 -2e-3 0.034-2e-3 0.079 0 0.015 0 0.029 1e-3 0.041-0.079 0.054-0.155 0.081-0.227 0.081-0.095 0-0.174-0.033-0.237-0.1-0.064-0.067-0.096-0.15-0.096-0.249 0-0.105 0.033-0.193 0.098-0.263s0.147-0.105 0.246-0.105c0.041 0 0.083 0.01 0.126 0.03 0.016 7e-3 0.027 0.011 0.033 0.011 0.011 0 0.02-8e-3 0.027-0.024 3e-3 -8e-3 7e-3 -0.012 0.011-0.012 5e-3 0 7e-3 3e-3 7e-3 0.01 0 1e-3 -1e-3 0.015-3e-3 0.04-1e-3 8e-3 -1e-3 0.027-1e-3 0.057 0 0.023 1e-3 0.046 2e-3 0.069s2e-3 0.035 2e-3 0.035c0 0.013-3e-3 0.019-0.01 0.019-9e-3 0-0.016-0.013-0.019-0.04-8e-3 -0.059-0.027-0.105-0.058-0.139-0.023-0.025-0.054-0.037-0.095-0.037-0.126 0-0.189 0.112-0.189 0.336 0 0.139 0.021 0.236 0.062 0.291 0.026 0.035 0.061 0.052 0.104 0.052 0.055 0 0.082-0.035 0.082-0.104 0-0.052-2e-3 -0.081-6e-3 -0.088-5e-3 -6e-3 -0.016-9e-3 -0.034-9e-3h-0.025c-0.014 0-0.021-3e-3 -0.021-9e-3s6e-3 -9e-3 0.017-9e-3c0.023 0 0.053 0 0.088 1e-3l0.064 1e-3c0.013 0 0.033-1e-3 0.061-2e-3 0.027-1e-3 0.045-1e-3 0.053-1e-3h0.013c8e-3 0 0.012 3e-3 0.012 9e-3z" fill="#3c0000" fill-opacity=".69" fill-rule="nonzero"/>
        </g>
    </g>
    <g transform="matrix(.69444 0 0 .69444 -7.1054e-15 0)">
        <g transform="matrix(1.037 0 0 1 -15.965 0)">
            <ellipse cx="536.59" cy="663.22" rx="105.59" ry="18.22" stroke="#000" stroke-width="3.93px"/>
        </g>
        <g transform="translate(4.2577 -7.9701)">
            <path d="m536.43 762s62.426-1 88.426-17c13.679-8.417 26.121-42.226 35-53s12.115-25.803-2-31.047c-14.114-5.243-56.772 19.26-75 23.047-19.111 3.97-46.426 5-46.426 5s-27.685-1.03-46.427-5c-18.213-3.858-60.885-28.29-75-23.047-14.115 5.244-10.879 20.273-2 31.047s21.322 44.583 35 53c26 16 88.427 17 88.427 17" fill="#fff" stroke="#000" stroke-width="4px"/>
        </g>
        <g transform="matrix(-.94853 0 0 1.4495 1054.8 -299.9)">
            <g transform="matrix(-1 0 0 .65437 1082 230.66)">
                <path d="m537.43 673 3.257 35 3.316-35h-6.573z" stroke="#000" stroke-width="4.22px"/>
            </g>
            <path d="m514.78 670.62 3.217 21.38-8.217-21 5-0.38z" stroke="#000" stroke-width="3.27px"/>
            <g transform="translate(-27 -1.6544)">
                <path d="m519 672-1 20-4-21 5 1z" stroke="#000" stroke-width="3.27px"/>
            </g>
            <g transform="matrix(.8 0 0 1.1667 47.8 -122.33)">
                <path d="m519 672-1 20-4-21 5 1z" stroke="#000" stroke-width="3.05px"/>
            </g>
            <g transform="matrix(.8 0 0 1 23.8 -15)">
                <path d="m520.32 672-2.318 20-4-21 6.318 1z" stroke="#000" stroke-width="3.46px"/>
            </g>
            <g transform="matrix(-1,0,0,1,1084,0)">
                <path d="m521.11 672-3.109 20-4-21 7.109 1z" stroke="#000" stroke-width="3.27px"/>
            </g>
            <g transform="matrix(-1 0 0 1 1111 -1.6544)">
                <path d="m519 672-1 20-4-21 5 1z" stroke="#000" stroke-width="3.27px"/>
            </g>
            <g transform="matrix(-.8 0 0 1.1667 1036.2 -122.33)">
                <path d="m519 672-1 20-4-21 5 1z" stroke="#000" stroke-width="3.05px"/>
            </g>
            <g transform="matrix(-.8 0 0 1 1060.2 -15)">
                <path d="m519 672-1 20-4-21 5 1z" stroke="#000" stroke-width="3.46px"/>
            </g>
        </g>
        <g transform="matrix(1.1769 0 0 1.0656 -116.77 -16.203)">
            <path d="m709 368.52c-41.326-22.032-62.568-46.433-150.36-46.433-79.505 0-151.64 46.433-151.64 46.433s-12.912 46.22-24 82.477-13.968 58.09 4.249 89 40.969 76.821 60.988 82c20.018 5.179 60.43 18.192 109.76 18.192s89.745-13.013 109.76-18.192c20.019-5.179 42.771-51.09 60.988-82s15.337-52.743 4.249-89-24-82.477-24-82.477" fill="#fff" stroke="#000" stroke-width="3.56px"/>
        </g>
        <g transform="translate(0 18)" serif:id="hat middle">
            <path d="m540.68 175c81.865 0 165.58 102.6 200.32 127.5 30 21.5 27 27.5-7 31.5-46.12 5.426-120.12 80.847-194 82-73.88-1.153-212-85-212-85s-24.154-3.306 10.37-28.5c30.148-22 118.93-127.5 200.8-127.5" fill="#a53232" stroke="#000" stroke-width="4px"/>
        </g>
        <g transform="translate(0 18)" serif:id="hat front">
            <path d="m338 430c-234-8-42.577-100.18 0.37-127.5 42.948-27.316 39.612-70.124 87.63-69.5 24.03 0.312 67.89 134 113.92 134 45.956 0 94.086-133.69 118.07-134 48.017-0.624 44.682 42.184 87.629 69.5 42.948 27.316 235.37 116.5-3.628 127.5 0-39.859-51.261-10-202.07-10-150.81 0-201.93-33.186-201.93 10z" fill="#fff" stroke="#000" stroke-width="4px"/>
            <g transform="matrix(.98169 0 0 .98169 10.205 14.901)">
                <path d="m334.93 422.84c-234-8-39.503-93.024 3.444-120.34 42.948-27.316 39.618-68.502 87.63-69.5 15.704-0.326 63.576 133.56 113.6 133.81 49.247 0.251 100.63-133.12 118.4-133.81 47.985-1.862 44.682 42.184 87.629 69.5 42.948 27.316 238.81 109.34-0.186 120.34 0-39.859-54.703-2.84-205.52-2.84-150.81 0-205-40.346-205 2.84z" fill="#a00b0b" stroke="#000" stroke-width="4px"/>
            </g>
        </g>
        <g transform="matrix(-.94853 0 0 -1.4495 1054.1 1604.9)" serif:id="teeth">
            <g transform="matrix(-1 0 0 .65437 1082 206.52)">
                <path d="m537.43 673 3.257 33.946 3.316-33.946h-6.573z" stroke="#000" stroke-width="4.22px"/>
            </g>
            <g transform="translate(0 -22.076)">
                <path d="m519 672-1 20-4-21 5 1z" stroke="#000" stroke-width="3.27px"/>
            </g>
            <g transform="translate(-27 -20.971)">
                <path d="m519 672-1 20-4-21 5 1z" stroke="#000" stroke-width="3.27px"/>
            </g>
            <g transform="matrix(.8 0 0 1.1667 47.8 -129.92)">
                <path d="m521.64 672-3.636 18.226-5.318-18.043 8.954-0.183z" stroke="#000" stroke-width="3.05px"/>
            </g>
            <g transform="matrix(.8 0 0 1 23.8 -14.31)">
                <path d="m519 672-1 20-4-21 5 1z" stroke="#000" stroke-width="3.46px"/>
            </g>
            <g transform="matrix(-1 0 0 1 1084 -21.386)">
                <path d="m519 672-1 19.31-7.163-20.31 8.163 1z" stroke="#000" stroke-width="3.27px"/>
            </g>
            <g transform="matrix(-1 0 0 1 1111 -20.971)">
                <path d="m519 672-1 20-6.109-21 7.109 1z" stroke="#000" stroke-width="3.27px"/>
            </g>
            <g transform="matrix(-.8 0 0 1.1667 1036.2 -130.61)">
                <path d="m519 672-1 18.226-4-19.226 5 1z" stroke="#000" stroke-width="3.05px"/>
            </g>
            <g transform="matrix(-.8 0 0 1 1060.2 -14.31)">
                <path d="m519 672-1 21.38-6.636-22.38 7.636 1z" stroke="#000" stroke-width="3.46px"/>
            </g>
        </g>
        <g transform="translate(0 -1)">
            <path d="m541.79 605.08s20.777 8.502 26.135 1c10-14-3.192-22.959-5-32-9-45-22.926-41.1-22.926-41.1l-0.074-0.085s-13.926-3.9-22.926 41.1c-1.808 9.041-15 18-5 32 5.359 7.502 26.135-1 26.135-1" stroke="#000" stroke-width="4px"/>
        </g>
        <g transform="translate(7.2379 5.1037)" serif:id="left eye">
            <path d="m375 466s14.761-26.353 43-26 63.463 12.726 68.112 32-0.302 41.803-11.112 49.215-67.862 10.04-79 0-24.159-41.821-21-55.215z" stroke="#000" stroke-width="4px"/>
        </g>
        <g transform="matrix(-1 0 0 1 1072.6 5.1037)" serif:id="right eye">
            <path d="m375 466s14.761-26.353 43-26 63.463 12.726 68.112 32-0.302 41.803-11.112 49.215-67.862 10.04-79 0-24.159-41.821-21-55.215z" stroke="#000" stroke-width="4px"/>
        </g>
    </g>
</svg>
