<svg clip-rule="evenodd" fill-rule="evenodd" stroke-linecap="round" stroke-linejoin="round" stroke-miterlimit="1.5" viewBox="0 0 750 750" xml:space="preserve" xmlns="http://www.w3.org/2000/svg"><g transform="scale(.69444)"><circle cx="441.13" cy="441.13" r="441.13" fill="#ffc12f" stroke="#000" stroke-width="4" transform="translate(99.555 98.87)"/><circle cx="540.68" cy="540" r="365" fill="#fff19f" stroke="#000" stroke-width="4"/><path d="M553 69.862H196s-7.503-11.204-11.059-15.794c-12.417-16.032-30.114-14.474-38.452-3s-11.203 29.968 2.671 51.895c-14.684 22.073-11.009 40.421-2.671 51.894 8.338 11.474 23.606 14.179 38.452-3 3.754-4.343 11.059-14.995 11.059-14.995h357V137h357s7.305 10.652 11.059 14.996c14.846 17.178 30.114 14.473 38.452 3 8.338-11.474 12.013-29.822-2.671-51.895 13.874-21.927 11.009-40.421 2.671-51.895s-26.035-13.032-38.452 3C917.503 58.796 910 70 910 70H553" fill="#fff" stroke="#000" stroke-width="3.56" transform="rotate(45 84.384 148.952) scale(1.23529 1)"/><path d="M553 69.862H196s-7.503-11.204-11.059-15.794c-12.417-16.032-30.114-14.474-38.452-3s-11.203 29.968 2.671 51.895c-14.684 22.073-11.009 40.421-2.671 51.894 8.338 11.474 23.606 14.179 38.452-3 3.754-4.343 11.059-14.995 11.059-14.995h357V137h357s7.305 10.652 11.059 14.996c14.846 17.178 30.114 14.473 38.452 3 8.338-11.474 12.013-29.822-2.671-51.895 13.874-21.927 11.009-40.421 2.671-51.895s-26.035-13.032-38.452 3C917.503 58.796 910 70 910 70H553" fill="#fff" stroke="#000" stroke-width="3.56" transform="rotate(-45 1138.802 494.299) scale(1.23529 1)"/><path d="m540 0-94.816 540h191L540 0z"/><path d="M1080 539.316 540 444.5v191l540-96.184z"/><path d="m541.4 1080 94.816-540h-191l96.184 540z"/><path d="m0 540.7 540 94.816v-191L0 540.7z"/></g><path d="M91.323 433.667c-.172.029-.276-.131-.33-.451l-.03-.173c-.062-.37-.167-.986-.298-1.902s-.248-1.606-.323-2.05c-.03-.172-.096-.566-.218-1.13l-.49-2.883c-.038-.221.015-.357.163-.382s.243.085.28.307l.118.842c.106.768.33 1.187.63 1.313.082.037.579-.022 1.49-.178l13.355-2.297c-1.444-.287-3.73-.608-6.86-.963l-7.905-.861c-.958-.116-1.46-.234-1.49-.406s.164-.383.607-.61c.14-.075 1.628-.86 4.463-2.383 1.071-.562 4.074-2.138 9.014-4.703l-12.742 2.167c-.74.126-1.183.202-1.302.247a.593.593 0 0 0-.332.285c-.18.284-.207.72-.082 1.307s.077.9-.12.934c-.123.02-.193-.094-.235-.34l-.324-2.203c-.038-.373-.138-.813-.247-1.302-.138-.66-.238-1.1-.276-1.322-.058-.345-.014-.53.134-.555.123-.021.222.114.269.385.113.666.18 1.06.225 1.179.162.505.385.771.718.79.206.016.629-.03 1.245-.135l11.756-2c1.306-.222 2.082-.43 2.279-.616.192-.21.19-.818.019-1.829-.047-.271.006-.407.154-.432.173-.03.272.106.293.381l.089.67.817 4.654c.008.049.025.148.021.275-4.32 2.18-7.89 4.005-10.733 5.478l11.928 1.394.088.518.529 3.257.071.419c.067.242.104.464.138.661l.193 1.134c.054.32.01.505-.138.53-.173.03-.263-.056-.272-.258l-.072-.57c-.093-.695-.222-1.155-.432-1.347-.214-.217-.556-.286-1.024-.206-.123.02-.42.07-.859.171s-2.51.452-6.181 1.077l-6.877 1.17c-.591.1-.91.307-.93.64-.049.313-.022.765.107 1.377.125.587.102.895-.07.925zM98.1 460.124c-.17.046-.288-.104-.373-.418l-.045-.169c-.098-.362-.26-.965-.477-1.865s-.4-1.575-.517-2.01c-.046-.168-.15-.555-.324-1.103l-.762-2.824c-.058-.217-.018-.358.126-.397s.25.062.309.28l.197.827c.178.755.44 1.15.751 1.247.085.029.575-.077 1.468-.318l13.075-3.554c-1.464-.149-3.77-.252-6.919-.308l-7.952-.107c-.965-.025-1.476-.094-1.521-.263s.126-.397.545-.665c.132-.088 1.54-1.011 4.218-2.795 1.012-.662 3.852-2.516 8.527-5.538l-12.48 3.367c-.723.196-1.158.313-1.272.37a.593.593 0 0 0-.303.314c-.152.3-.138.737.042 1.31s.162.888-.03.94c-.122.033-.202-.075-.267-.316l-.532-2.162c-.073-.368-.215-.796-.37-1.272-.2-.645-.34-1.073-.4-1.29-.09-.339-.063-.527.081-.566.121-.033.233.093.304.358.176.652.28 1.038.337 1.152.21.487.456.732.79.72.206-.005.622-.091 1.226-.254l11.513-3.107c1.28-.345 2.032-.626 2.21-.829.172-.228.112-.833-.155-1.823-.072-.265-.032-.405.113-.444.17-.046.28.08.328.351l.152.659 1.255 4.555c.013.048.039.145.047.272-4.094 2.58-7.474 4.736-10.165 6.471l12.007.257.136.506.836 3.193.11.41c.09.235.149.452.2.645l.3 1.11c.085.315.058.503-.087.542-.169.046-.267-.031-.295-.23l-.126-.563c-.158-.682-.33-1.128-.558-1.3-.234-.195-.58-.23-1.039-.107-.12.032-.41.11-.838.252s-2.455.688-6.052 1.659l-6.734 1.817c-.58.156-.878.392-.866.725-.018.316.05.764.238 1.36.18.573.186.882.017.928zM106.768 484.088c-.164.061-.313-.124-.478-.569-.026-.07-.061-.164-.099-.337l-1.62-4.358c-.28-.75-.497-1.336-.686-1.772s-.329-.811-.45-1.14c-.08-.21-.052-.354.112-.415.117-.043.237-.008.321.148s.285.694.625 1.608c.157.421.352.589.587.502.21-.079.73-.619 1.558-1.62.684-.815 1.726-2.03 3.102-3.635.091-.114.22-.268.402-.496a138.3 138.3 0 0 0-4.43-.94c-1.936-.4-3.01-.56-3.22-.482-.258.096-.323.28-.233.593.046.196.23.688.502 1.494.096.257.07.4-.071.453-.188.07-.36-.106-.508-.505l-.93-2.641-.086-.235a3.188 3.188 0 0 1-.19-.436l-.537-1.374c-.113-.305-.104-.495.037-.547.117-.044.24.07.376.367.352.802.766 1.342 1.26 1.665.461.309 1.268.542 2.43.724.365.05.915.166 1.64.323 2.176.471 3.65.776 4.454.93.381-.408 1.188-1.321 2.421-2.74l2.025-2.3c.807-.914 1.31-1.5 1.483-1.752.15-.242.226-.538.239-.862-.003-.08-.154-.557-.43-1.441-.086-.235-.06-.378.058-.421.164-.061.304.1.443.475.018.047.07.187.125.407s.133.43.194.594l1.287 3.603c.218.586.476 1.21.77 1.927.137.296.232.554.31.765l.08.21c.095.258.068.402-.072.454-.117.044-.205.023-.272-.086s-.186-.357-.352-.802c-.287-.774-.614-1.079-.966-.948-.234.087-.93.8-2.095 2.113-.373.432-.965 1.132-1.802 2.11 3.593.984 5.64 1.397 6.11 1.222.304-.113.34-.446.122-1.032l-.218-.586c-.078-.21-.043-.33.074-.374a.227.227 0 0 1 .222.024c.05.061.126.193.222.451.087.234.218.586.368 1.063s.259.838.346 1.072c.2.539.407 1.022.578 1.412.102.202.172.39.233.554.113.304.095.47-.07.532-.116.043-.25-.173-.457-.657-.285-.694-.553-1.128-.804-1.301-.283-.188-.97-.386-2.084-.585a36.075 36.075 0 0 1-2.583-.56l-2.593-.663c-1.612 1.907-3.737 4.297-6.343 7.187-.51.563-.795 1.016-.817 1.318-.053.286.086.875.414 1.686.13.352.13.565-.034.626zM117.328 507.044c-.158.075-.323-.096-.527-.525a2.2 2.2 0 0 1-.127-.327l-1.998-4.2c-.343-.722-.612-1.286-.838-1.704s-.399-.78-.549-1.096c-.096-.203-.082-.348.076-.423.112-.054.235-.029.333.118s.344.667.763 1.547c.193.407.403.556.629.449.203-.097.673-.68 1.41-1.75.61-.872 1.54-2.173 2.771-3.893.081-.122.196-.287.357-.53-1.037-.143-2.542-.34-4.495-.547-1.964-.229-3.047-.295-3.25-.198-.249.118-.297.307-.18.611.063.192.289.666.631 1.444.118.248.104.394-.031.458-.18.086-.368-.074-.55-.458l-1.158-2.55-.107-.226c-.098-.147-.162-.283-.227-.418l-.656-1.321c-.14-.294-.147-.484-.011-.549.112-.053.245.05.407.333.42.768.88 1.27 1.4 1.548.487.267 1.312.429 2.484.508.369.018.927.085 1.663.178 2.209.278 3.703.453 4.518.536.344-.44 1.068-1.421 2.172-2.943l1.815-2.469c.724-.98 1.172-1.61 1.323-1.875.128-.255.179-.555.163-.88-.01-.079-.202-.54-.554-1.398-.108-.225-.094-.37.02-.424.157-.075.311.073.483.434.021.045.086.18.16.395s.17.417.246.575l1.597 3.476c.269.564.581 1.163.937 1.852.162.283.28.531.377.734l.096.203c.118.249.104.394-.031.458-.113.054-.202.041-.279-.061s-.217-.34-.42-.769c-.355-.745-.707-1.02-1.046-.86-.226.108-.856.879-1.901 2.29-.334.462-.863 1.212-1.61 2.26 3.666.665 5.74.896 6.192.681.294-.14.3-.475.032-1.04l-.268-.564c-.097-.203-.072-.325.04-.379a.227.227 0 0 1 .224.004c.055.057.142.182.26.43.108.226.269.565.46 1.027s.331.812.439 1.038c.247.519.495.982.7 1.355.12.193.205.373.28.531.14.294.136.462-.022.537-.112.053-.265-.15-.513-.614-.345-.667-.65-1.075-.915-1.226-.299-.162-1-.3-2.128-.4a36.075 36.075 0 0 1-2.621-.331l-2.642-.432c-1.438 2.04-3.345 4.608-5.687 7.715-.46.606-.704 1.082-.699 1.384-.028.29.162.865.56 1.644.162.339.18.551.022.627zM125.05 521.032c-.108.062-.223.012-.334-.184-.062-.108-.111-.195-.139-.295a52.37 52.37 0 0 0-1.206-2.276c-.37-.652-.935-1.596-1.694-2.832-.257-.401-.442-.727-.553-.923-.123-.217-.12-.363.01-.437.066-.037.134-.018.205.056.059.053.22.336.513.802.346.407.624.594.857.548.211-.034.823-.324 1.801-.879l11.261-6.394c.249-.17.38-.244.358-.232.37-.21.333-.678-.074-1.395-.235-.413-.302-.634-.194-.695s.165-.065.224-.012.157.227.342.553c-.086-.152.062.108.423.795s.682 1.251.953 1.73l.63 1.108c.136.24.343.553.611.976.257.4.43.705.528.879l.124.217c.11.196.095.32-.014.381-.087.05-.143.053-.201 0s-.217-.28-.448-.637c-.281-.444-.538-.643-.752-.666l-.45.17-12.283 6.974c-.63.358-.963.633-.986.847-.034.192.138.698.551 1.527.053.143.046.233-.063.294zM133.905 535.183c-.105.068-.222.024-.344-.165a1.32 1.32 0 0 1-.156-.286 52.37 52.37 0 0 0-1.335-2.203c-.407-.63-1.026-1.54-1.855-2.73-.279-.386-.483-.7-.605-.89-.136-.21-.14-.355-.015-.437.063-.04.133-.025.208.045.062.05.238.322.558.77.369.387.658.558.887.498.209-.045.803-.37 1.748-.98l10.874-7.033c.238-.184.364-.265.343-.252.357-.23.294-.696-.154-1.389-.258-.399-.338-.615-.233-.683s.16-.074.222-.024.17.217.374.532c-.095-.147.068.105.468.77s.753 1.21 1.052 1.671l.692 1.071c.15.231.374.532.666.939.28.385.47.679.578.847l.136.21c.122.189.113.313.008.381-.084.054-.14.06-.201.011s-.232-.267-.484-.61c-.306-.427-.574-.611-.789-.621l-.44.195-11.86 7.67c-.609.394-.925.688-.935.902-.024.194.178.69.638 1.493.06.14.06.23-.046.298zM143.6 548.866c-.101.074-.221.037-.354-.144-.074-.101-.133-.182-.172-.277a52.37 52.37 0 0 0-1.46-2.123 103.865 103.865 0 0 0-2.01-2.618c-.3-.369-.522-.671-.654-.853-.148-.202-.161-.347-.04-.436.06-.044.13-.033.21.033.064.046.256.308.6.737.391.365.69.518.916.446.205-.058.78-.416 1.687-1.08l10.45-7.649c.228-.197.349-.285.329-.27.343-.252.253-.713-.234-1.379-.28-.383-.373-.594-.272-.668s.156-.083.22-.037.183.207.404.51c-.103-.142.074.1.512.74s.82 1.165 1.146 1.61l.753 1.028c.162.222.404.51.72.899.3.368.507.65.625.812l.147.202c.133.181.132.306.031.38-.08.06-.136.068-.2.023s-.247-.253-.519-.581c-.33-.41-.608-.578-.823-.575l-.427.22-11.399 8.342c-.585.428-.884.74-.881.955-.012.194.217.677.723 1.453.068.136.072.226-.029.3zM226.533 605.477c-.06.086-.181.077-.364-.025-.524-.34-.896-.5-1.093-.51-.208.008-.564.19-1.07.55-.28.184-.72.486-1.296.872-.464.337-1.163.865-2.132 1.56-.452.32-1.157.819-2.09 1.463l-2.471 1.754c-1.756 1.24-2.736 1.952-2.984 2.16-.158.118-.257.15-.309.115-.068-.048-.083-.135-.05-.29.02-.139.174-.615.418-1.436.33-1.091.696-2.487 1.068-4.184l.398-1.806c-2.85 1.642-5.018 2.999-6.516 4.087-.159.118-.275.139-.343.091-.051-.036.027-.439.206-1.203l1.711-6.887c.46-1.712.945-3.787 1.484-6.232.058-.264.022-.468-.13-.65-.08-.106-.272-.266-.562-.469s-.409-.361-.337-.464c.06-.085.18-.077.335.03l.563.394c.38.292.722.53 1.013.733l.649.454 1.748 1.171c.051.036.154.108.302.186l.24.167c.153.107.186.206.102.326-.071.102-.295.022-.642-.245-.188-.132-.326-.152-.397-.05a.608.608 0 0 0-.074.178c-.233.88-.573 2.166-1.028 3.907l-1.415 5.772 3.105-1.897c.175-.614.483-1.746.895-3.39.058-.265.136-.668.28-1.202.038-.126.094-.316.164-.597.182-.661.226-1.088.19-1.29-.048-.187-.285-.429-.678-.703-.108-.101-.123-.188-.063-.273.071-.103.21-.083.431.073-.034-.024.035.023.176.148s.381.292.74.542l5.971 4.148c.234.138.3.26.217.38-.06.086-.18.077-.351-.042-.79-.578-1.365-.775-1.687-.569-.403.176-1.421.76-3.038 1.766-.324 1.299-.808 3.374-1.489 6.203.51-.33 1.068-.728 1.667-1.148.522-.347 1.385-.964 2.594-1.822a46.872 46.872 0 0 1 1.967-1.395c.868-.588 1.392-1.01 1.559-1.25.155-.221.143-.458-.043-.665-.074-.077-.267-.237-.591-.464-.188-.13-.238-.242-.178-.327s.181-.077.352.042l1.325.977c.569.423 1.025.716 1.339.885l.136.095c.12.084.135.171.076.256zm-6.275-3.495c.215-.308.049-.652-.498-1.034-.563-.394-.908-.482-1.051-.278-.203.29-.431 1.199-.708 2.759 1.375-.767 2.125-1.26 2.257-1.447zM229.235 623.5c-.054.089-.157.1-.318.002-.089-.054-.16-.097-.22-.158a43.641 43.641 0 0 0-1.805-1.162 86.555 86.555 0 0 0-2.387-1.368c-.35-.187-.617-.348-.778-.445-.178-.108-.235-.215-.17-.322.032-.054.09-.068.171-.043.065.015.297.155.7.374.417.155.696.177.846.049.14-.11.466-.57.95-1.373l5.579-9.239c.111-.224.176-.331.165-.314.183-.303-.034-.628-.623-.984-.338-.204-.477-.337-.424-.426s.094-.114.158-.1.207.1.474.262c-.124-.075.09.054.632.406s1.005.631 1.398.868l.91.55c.196.118.474.262.841.46.35.186.6.337.742.423l.179.108c.16.096.2.193.145.282-.043.072-.082.096-.146.082s-.272-.115-.586-.28c-.385-.209-.653-.249-.817-.178l-.258.307-6.084 10.076c-.313.518-.442.853-.371 1.018.053.153.385.45 1.023.885.096.082.128.15.074.24zM250.995 623.556c-.049.092-.115.128-.207.079-.129-.068-.131-.376.011-.913.276-1.056.303-1.867.101-2.421s-.74-1.051-1.606-1.509a12.61 12.61 0 0 0-.885-.42l-5.9 11.209c-.147.323-.17.546-.053.726s.502.477 1.172.902c.12.087.164.18.115.273-.068.129-.19.135-.392.028a2.385 2.385 0 0 1-.266-.164 4.907 4.907 0 0 0-.451-.262l-1.868-1.058-3.16-1.599c-.166-.088-.23-.192-.18-.284.038-.073.076-.1.141-.09s.268.118.627.285c.692.341 1.13.36 1.34.095.106-.156.777-1.38 2.013-3.72l4.117-7.791a4.192 4.192 0 0 0-.47-.272c-.975-.516-1.791-.711-2.418-.595-.655.125-1.29.614-1.906 1.467-.375.486-.631.704-.76.635-.11-.058-.127-.16-.049-.308.049-.092.252-.433.609-.974.725-1.149 1.236-1.939 1.488-2.371l.277.146 1.354.692c.037.02.45.262 1.27.718.8.447 1.823 1.01 3.094 1.682.7.37 1.326.7 1.888.974s1.06.536 1.52.78c.406.214.728.361.94.45a49.963 49.963 0 0 0-1.339 3.203c-.088.213-.138.351-.167.407zM265.631 641.81c-.034.075-.108.088-.222.038a1.1 1.1 0 0 1-.24-.129c-.404-.27-1.645-.863-3.684-1.764-.19-.084-.477-.21-.885-.368l-.6-.242c-.408-.157-.573-.299-.523-.413.042-.095.22-.085.552.039.295.107.568.16.82.157.224.008.388-.056.447-.19.053-.067.146-.277.316-.612l.44-.944 1.953-4.422-3.935-1.714c-.228-.101-.457-.202-.658-.314l-2.563 5.906c-.124.332.031.651.502.927.375.234.595.354.644.398s.061.119.036.176c-.034.076-.108.089-.241.03-.172-.076-.601-.288-1.298-.619s-.993-.484-.88-.433c-.075-.034-.484-.192-1.178-.476a41.989 41.989 0 0 1-2.046-.835l-.19-.084c-.229-.1-.318-.209-.268-.323.042-.095.163-.11.335-.035.59.261 1.043.37 1.34.319.12-.015.328-.333.598-.943l4.646-10.52c.177-.4.172-.698.004-.886-.176-.169-.521-.367-.998-.577-.171-.076-.222-.167-.18-.262.025-.057.118-.062.26-.022-.057-.025.42.185 1.421.65l2.355 1.063c.476.21.98.41 1.465.602.218.073.351.132.39.149.171.076.241.175.182.308-.042.096-.097.117-.163.11-.084-.014-.321-.096-.692-.237-.39-.149-.652-.174-.806-.082-.163.11-.318.36-.487.741l-1.986 4.498.449.22c1.251.622 2.632 1.209 4.152 1.789l1.877-4.25c.379-.857.248-1.439-.4-1.725-.438-.194-.622-.343-.563-.477.05-.114.152-.138.323-.062l.19.084c.21.093.572.253 1.079.5s1.05.509 1.66.778l1.448.64 1.436.565c.133.06.173.123.14.199-.042.095-.296.051-.79-.121s-.82-.203-1.002-.101c-.19.12-.424.496-.702 1.125l-4.141 9.376c-.362.82-.467 1.365-.333 1.63s.427.53.933.776c.24.128.32.255.261.388zM294.91 651.794c-.03.1-.09.147-.195.135-.112.008-.37-.073-.787-.205-.1-.032-.397-.126-.888-.303-.967-.327-1.636-.56-2.013-.68a21.431 21.431 0 0 0-1.159-.345c-.661-.187-1.125-.312-1.363-.387-.357-.113-.517-.23-.473-.368s.44-.08 1.2.14c.18.056.325.08.43.092.225.049.35 0 .394-.138.019-.06.027-.363.025-.91l-.009-1.423c.015-.323.006-.916-.007-1.772l-.358-.113-1.543-.51c-.55-.196-1.152-.364-1.774-.54-.2.221-.608.748-1.24 1.575l-.846 1.153c-.122.18-.212.326-.25.445-.07.219.02.422.299.575.053.039.384.166.948.388.172.076.253.167.221.266-.037.12-.175.141-.414.066l-3.27-1.056a1.1 1.1 0 0 1-.265-.062c-.18-.057-.26-.148-.216-.287.026-.08.243-.076.666.036.543.15.912.157 1.108.023s.61-.616 1.242-1.443c.466-.574 1.137-1.454 2.022-2.594l4.496-5.855c.213-.26.516-.667.93-1.213.283-.413.471-.594.55-.57s.125.368.149 1.053c.013.856.205 4.326.569 10.362.038.777.097 1.56.129 2.357.023.685.149 1.117.323 1.326.148.155.526.34 1.188.528.159.05.22.135.182.254zm-4.846-6.645c-.007-.046-.01-.178-.02-.422-.053-1.699-.085-2.91-.128-3.602-.003-.197-.027-.467-.04-.843l-.006-.395c-.42.5-.963 1.181-1.621 2.088a56.052 56.052 0 0 1-1.582 2.1c.12.037.258.081.443.118l1.55.49c.298.094.774.245 1.404.466zM314.21 652.169l-.102.34c-.015.06-.158.476-.408 1.251a14.146 14.146 0 0 0-.413 1.358c-.097.405-.18.75-.223 1.018-.004.106-.029.207-.063.349s-.094.213-.155.198-.127-.095-.174-.256c-.187-.56-.412-.956-.723-1.18-1.222.626-2.418.789-3.573.511-1.762-.424-3.16-1.468-4.201-3.11-1.102-1.744-1.382-3.697-.87-5.824.496-2.066 1.559-3.632 3.191-4.718 1.608-1.07 3.394-1.369 5.318-.906.891.214 1.633.607 2.244 1.183.352.32.626.514.809.558.283.069.576.01.882-.194.226-.139.352-.216.392-.206.061.015.072.06.047.161-.01.04-.024.101-.064.178-.193.446-.37 1.003-.53 1.672-.015.06-.084.344-.18.835l-.336 1.398c-.059.243-.149.35-.29.316-.102-.025-.16-.317-.135-.868.099-2.548-.723-4.031-2.465-4.45-1.377-.332-2.584.32-3.64 1.952-.719 1.113-1.292 2.518-1.701 4.22-.61 2.532-.547 4.497.204 5.92.396.76 1.032 1.234 1.903 1.443 1.904.458 3.466-.516 4.663-2.906.203-.401.353-.58.475-.55.142.034.183.13.119.307zM336.347 660.6c-.023.145-.177.183-.444.139l-.144-.024c-.309-.05-.823-.134-1.58-.28s-1.333-.239-1.703-.3c-.144-.023-.473-.077-.95-.133l-2.405-.394c-.185-.03-.277-.109-.257-.232s.133-.168.318-.138l.696.135c.634.125 1.024.062 1.205-.14.05-.056.139-.463.263-1.224l1.803-11.147c-.616 1.06-1.488 2.775-2.615 5.145l-2.818 5.999c-.35.723-.58 1.087-.723 1.064s-.258-.233-.317-.643c-.021-.13-.237-1.517-.67-4.163-.154-.996-.583-3.79-1.268-8.377l-1.74 10.629c-.1.617-.16.987-.157 1.093 0 .127.045.24.135.339.175.218.51.358 1.008.418s.73.183.703.347c-.017.103-.127.127-.332.094l-1.823-.34c-.305-.072-.679-.112-1.093-.159-.559-.07-.932-.11-1.117-.14-.288-.047-.422-.133-.402-.256.017-.103.15-.144.377-.107.555.09.884.144.99.14.442.01.712-.094.818-.351.068-.158.145-.504.23-1.018l1.604-9.807c.179-1.09.225-1.757.132-1.963-.114-.208-.594-.371-1.437-.51-.226-.036-.319-.115-.298-.238.023-.144.157-.185.38-.128l.551.111 3.89.616c.04.007.123.02.222.057.55 3.996 1.021 7.303 1.413 9.942l4.326-9.023.432.07 2.71.465.35.057c.21.013.394.044.559.07l.945.155c.268.044.402.13.381.253-.023.144-.116.192-.277.144l-.47-.098c-.571-.114-.969-.137-1.177-.024-.23.11-.376.361-.44.752-.017.103-.057.35-.097.723s-.323 2.1-.824 5.164l-.939 5.736c-.08.493-.005.801.253.907.233.122.596.224 1.114.287.496.06.733.163.71.307zM423.84 657.085c.086.558-.232.901-.971 1.016-.921.142-1.705-.03-2.355-.532-.508-.385-.825-.831-.964-1.335l-.343-1.215c-.227-.769-.493-1.284-.798-1.561-.321-.275-.782-.359-1.369-.252l.53 3.427c.125.8.19 1.223.214 1.28.026.167.12.276.266.315.147.055.424.043.816-.018.242-.037.37-.01.384.08.011.076-.042.13-.163.149l-1.467.211-.241.038a6.073 6.073 0 0 1-.511.094l-1.087.169a2.948 2.948 0 0 1-.35.038l-.211.033-.693.123c-.135.02-.218-.013-.23-.088-.014-.091.188-.184.594-.262.345-.07.527-.19.566-.335.019-.08.001-.294-.053-.641l-1.203-7.776c-.082-.528-.144-.828-.175-.931-.03-.089-.117-.152-.23-.181-.144-.04-.376-.035-.693.014-.226.035-.339.006-.353-.084-.012-.076.027-.128.115-.157s.33-.067.722-.127l.272-.042a6.43 6.43 0 0 0 .53-.067l.5-.077a4.29 4.29 0 0 0 .314-.064l1.419-.22c1.404-.217 2.387-.261 2.935-.114.433.103.793.325 1.088.635s.477.684.542 1.107c.15.966-.239 1.753-1.178 2.377-.407.264-1.048.518-1.892.757l-.001.093c1.113-.095 1.943.07 2.518.491.578.436.993 1.222 1.274 2.338.216.895.438 1.432.64 1.633s.4.293.582.265c.15-.023.22-.08.207-.155-.007-.046-.074-.082-.191-.14-.133-.058-.207-.139-.228-.275-.042-.271.088-.43.39-.477s.478.096.532.443zm-5-7.033c-.201-1.299-.815-1.869-1.841-1.71-.333.052-.528.19-.568.428-.024.143.032.707.18 1.658l.387 2.506c.788-.106 1.33-.392 1.615-.853s.365-1.139.227-2.03zM436.465 652.472c.003.015.098.48.27 1.395.083.482.154.827.197 1.036.028.213.05.317.046.302-2.659.42-4.97.863-6.936 1.313l-1.251.287c-.18.037-.279.01-.294-.064-.012-.06.012-.096.053-.12s.189-.07.44-.137c.458-.125.685-.312.68-.56-.012-.138-.025-.276-.058-.44l-1.556-7.589c-.122-.598-.19-.928-.217-.985-.049-.161-.115-.257-.217-.298s-.288-.035-.572.024c-.315.064-.473.05-.492-.04-.021-.105.104-.177.389-.236.269-.055.643-.132 1.134-.248 1.832-.422 3.328-.729 4.499-.953l1.02-.194c.225-.046.491-.116.796-.225l.47 1.604c.152.514.246.822.27.942.022.105-.014.16-.118.18s-.193-.1-.275-.349c-.23-.67-.601-1.108-1.133-1.343-.543-.216-1.247-.227-2.16-.04-.284.058-.76.171-1.428.34l.905 4.414c1.096-.209 1.78-.443 2.031-.666s.345-.678.308-1.388c-.031-.384.007-.579.111-.6.09-.019.154.062.19.242s.099.557.182 1.116c.025.198.078.452.142.767.175.853.325 1.508.429 1.94.027.056.042.13.06.22.025.12-.007.19-.097.208-.075.015-.126-.005-.15-.047s-.085-.186-.188-.46c-.25-.683-.476-1.104-.677-1.25-.214-.128-.636-.135-1.265-.006l-1.018.209 1.034 5.043.955-.211c1.09-.239 1.757-.407 1.99-.486.29-.106.553-.27.8-.507.215-.247.334-.505.393-.75.043-.244.06-.7.038-1.334 0-.156.03-.24.104-.256s.135.05.166.2zM448.27 644.157c.019.074 0 .126-.074.145-.059.015-.11-.004-.137-.044-.04-.037-.13-.203-.277-.466-.393-.735-.914-1.17-1.544-1.292-.383-.076-.994.002-1.852.221-.4.103-.84.231-1.35.393l1.158 4.53.43-.11c.932-.239 1.483-.49 1.67-.743.173-.25.21-.842.098-1.776-.02-.137.025-.211.099-.23s.137.044.175.192c-.011-.045.004.015.034.196.035.196.11.492.217.907l.246.962c.178.695.291 1.14.363 1.358s.12.41.162.573.016.248-.072.271c-.134.034-.25-.11-.344-.417-.23-.714-.525-1.127-.892-1.27-.175-.065-.456-.056-.826.038-.503.129-.933.239-1.284.344l.916 3.582c.163.637.302.995.432 1.073s.486.049 1.063-.099c.177-.045.278-.024.297.05.022.09-.055.156-.248.206-.222.056-.473.12-.788.185-.61.14-1.31.304-2.08.5-.547.14-1.017.277-1.424.412-.055.03-.13.05-.203.068-.119.03-.19.001-.212-.088s.129-.174.436-.269c.455-.132.69-.318.686-.522.026-.086.003-.237-.047-.43l-2.21-8.58c-.05-.13-.135-.219-.235-.24-.115-.018-.304-.017-.589.04s-.444.05-.463-.023c-.027-.104.065-.175.258-.224l.281-.072c.045-.012.415-.106 1.121-.303.78-.215 1.473-.408 2.08-.563.899-.246 1.654-.439 2.279-.583l1.025-.247c.163-.041.396-.117.7-.226.376 1.166.673 1.957.864 2.397.03.055.046.114.06.174zM462.259 645.576c.058.19.103.336.129.472.086.437.178.792.274 1.05l.332 1.033c-1.255.336-3.528 1.001-6.786 2l-.613.187c-.424.13-.656.153-.679.08s.037-.139.169-.18c.478-.162.781-.318.872-.49.065-.1.038-.347-.083-.742l-2.44-7.912c-.104-.336-.196-.532-.276-.587-.162-.11-.36-.13-.604-.039l-.36.126c-.103.032-.174.006-.197-.067s.037-.14.169-.18c.073-.022.16-.049.238-.057l3.71-1.137c.04-.028.098-.046.157-.063.102-.032.16-.001.181.072.027.087-.09.171-.34.247-.364.112-.555.219-.587.324-.046.11.041.5.251 1.186l1.066 3.476c.22.716.722 2.304 1.522 4.76.194-.044.399-.107.632-.179 1.023-.313 1.71-.572 2.083-.766.573-.32.903-.756.97-1.32.04-.284.017-.724-.05-1.31-.02-.17 0-.256.06-.274.072-.023.133.07.2.29zM474.983 641.03c.005.015.166.46.466 1.343.151.465.27.796.342.997.058.206.094.307.09.293-2.573.794-4.797 1.56-6.68 2.285l-1.197.463c-.172.062-.274.05-.3-.022-.02-.058-.002-.097.036-.127s.176-.095.416-.198c.435-.189.633-.406.593-.651a3.784 3.784 0 0 0-.12-.428l-2.62-7.289c-.206-.575-.32-.891-.355-.944-.07-.153-.15-.238-.257-.264s-.29.006-.563.104c-.302.109-.461.117-.492.031-.036-.1.077-.19.35-.288.26-.093.619-.222 1.088-.407 1.753-.679 3.19-1.195 4.318-1.584l.982-.337c.216-.077.47-.184.756-.336l.693 1.52c.223.488.36.78.402.895.036.1.009.16-.092.195s-.205-.072-.321-.306c-.324-.63-.753-1.012-1.313-1.168-.568-.137-1.267-.048-2.144.267-.273.098-.728.278-1.365.539l1.524 4.241c1.055-.362 1.7-.692 1.916-.948s.244-.72.107-1.418c-.086-.375-.076-.573.025-.61.086-.03.16.04.222.213s.177.537.34 1.08c.052.191.14.436.248.738.295.82.536 1.447.7 1.858.035.053.061.125.092.21.042.116.02.189-.067.22-.072.026-.125.012-.155-.026s-.11-.171-.252-.429c-.343-.64-.628-1.024-.848-1.14-.23-.096-.648-.043-1.252.174l-.978.351 1.74 4.846.916-.345c1.044-.392 1.68-.653 1.9-.764.273-.147.51-.346.72-.616.178-.275.259-.547.282-.8.009-.246-.04-.699-.152-1.325-.022-.154-.005-.241.067-.267s.14.03.192.174zM487.79 635.112l.085.245c.018.043.113.35.3.918.128.427.25.757.343.983.118.282.218.521.308.699.044.064.073.135.114.234s.037.167-.006.184-.116-.001-.214-.076c-.352-.25-.658-.388-.939-.387-.452.9-1.09 1.514-1.894 1.849-1.227.511-2.507.498-3.833-.025-1.407-.555-2.418-1.59-3.035-3.071-.6-1.439-.648-2.825-.15-4.175.488-1.329 1.416-2.278 2.756-2.837a3.555 3.555 0 0 1 1.84-.27c.347.037.594.034.72-.019.198-.082.346-.243.44-.497.073-.18.114-.28.143-.292.042-.017.068.005.097.076.012.028.03.07.039.132.079.348.215.755.409 1.22.018.043.1.24.255.573l.405.973c.071.169.064.271-.035.312-.07.03-.231-.118-.455-.456-1.043-1.55-2.171-2.074-3.384-1.568-.96.4-1.392 1.308-1.312 2.73.057.97.325 2.05.819 3.235.734 1.763 1.621 2.899 2.682 3.417.562.279 1.144.285 1.75.032 1.326-.553 1.83-1.805 1.505-3.739-.053-.325-.042-.495.043-.53.099-.042.165-.003.203.13zM498.708 625.198c.033.069.025.123-.044.156-.096.046-.278-.087-.532-.407-.5-.624-.965-.995-1.379-1.12s-.943-.025-1.59.284a9.247 9.247 0 0 0-.636.336l4.006 8.38c.126.229.247.34.404.35s.5-.086 1.044-.294c.103-.032.178-.017.21.052.047.096-.002.17-.154.243-.028.013-.097.046-.214.085a3.598 3.598 0 0 0-.351.15l-1.44.635-2.326 1.158c-.124.059-.213.05-.246-.019-.026-.055-.025-.089.01-.122s.186-.106.442-.245c.504-.257.707-.505.643-.746-.045-.13-.472-1.061-1.306-2.813l-2.777-5.835a3.074 3.074 0 0 0-.366.157c-.73.348-1.203.742-1.41 1.161-.213.44-.204 1.028.028 1.764.121.433.137.68.04.725-.082.04-.15.004-.202-.106a12.234 12.234 0 0 1-.306-.785c-.358-.93-.599-1.577-.742-1.914l.207-.099 1-.493c.028-.013.351-.15.979-.432.613-.275 1.392-.63 2.344-1.082.524-.25.993-.473 1.4-.684s.78-.388 1.125-.552c.304-.145.532-.27.677-.356.31.58.746 1.32 1.297 2.191.086.145.146.235.165.277zM510.684 627.555c.036.067.003.136-.118.2-.068.036-.122.065-.183.08-.555.258-1.021.487-1.413.694-.405.214-.993.542-1.762.982-.25.15-.452.256-.574.32-.135.072-.224.067-.266-.014-.022-.04-.01-.082.038-.124.033-.035.209-.127.499-.298.255-.204.374-.37.35-.513-.016-.13-.182-.509-.503-1.117l-3.695-6.997c-.1-.155-.142-.236-.135-.223-.121-.23-.408-.216-.854.02-.257.135-.392.172-.428.104s-.037-.101-.003-.136.141-.092.344-.2c-.095.05.067-.035.493-.243s.778-.393 1.075-.55l.689-.364c.148-.078.344-.199.607-.355.25-.149.438-.249.547-.306l.135-.071c.121-.064.197-.052.232.015.029.054.03.088-.004.123s-.175.127-.397.262c-.277.163-.403.316-.42.447l.094.278 4.031 7.632c.207.392.37.6.5.618.116.025.428-.071.942-.308.089-.03.143-.024.18.044zM521.334 615.528c.773 1.318 1.014 2.664.73 4.053-.297 1.396-1.028 2.445-2.227 3.148-1.173.688-2.445.815-3.816.38s-2.443-1.296-3.208-2.6c-.78-1.331-1.016-2.699-.712-4.082s1.07-2.434 2.295-3.153c1.186-.696 2.438-.828 3.767-.403 1.337.438 2.39 1.326 3.17 2.657zm-2.196 1.571c-1.028-1.752-1.997-2.92-2.892-3.51-.594-.379-1.178-.408-1.77-.06s-.844 1.008-.751 1.981.51 2.11 1.26 3.388c1.09 1.858 2.226 3.069 3.4 3.62.488.228.986.201 1.486-.092.58-.34.826-.857.739-1.55-.134-1.073-.63-2.34-1.472-3.777zM531.165 603.05c.025.038.017.08-.039.135s-.276.219-.664.492c-.22.164-.323.286-.303.4-.004.077.16.353.5.842l.988 1.472c.66.974 1.508 2.263 2.559 3.857l1.429 2.17c.092.14.117.233.053.275-.09.059-1.177-.231-3.245-.9a184.459 184.459 0 0 1-6.953-2.334l.622.944c.21.319.395.6.567.833l2.9 4.402c.117.179.244.26.384.222.22-.053.45-.15.692-.31.281-.184.451-.26.514-.246.022.004.03.017.047.042.042.064.003.144-.124.228-.077.05-.14.093-.2.114-.519.323-.846.52-.974.604-.293.194-.68.467-1.157.8-.234.172-.336.239-.297.214-.128.084-.217.087-.26.024s.125-.229.478-.498c.409-.324.622-.556.619-.7-.004-.089-.18-.412-.542-.96l-3.454-5.244a14.1 14.1 0 0 0-.664-.953c-.295-.336-.633-.516-.985-.522-.275-.002-.67.149-1.189.472-.148.08-.237.083-.28.02-.05-.077-.011-.157.104-.233.05-.033.238-.138.565-.336.162-.088.391-.239.697-.44.626-.413 1.127-.761 1.515-1.035l8.268 2.804-3.328-5.052c-.135-.204-.257-.306-.363-.328-.097-.01-.267.066-.492.196l-.566.336c-.11.055-.178.063-.212.012-.042-.064.01-.153.163-.254l.28-.185c.052-.033.14-.092.247-.18l.294-.194c.855-.563 1.365-.899 1.514-.979s.25-.091.292-.028zM544.73 602.38c.55.752.74 1.558.561 2.427-.17.88-.67 1.623-1.496 2.226-.506.37-1.323.7-2.443 1.007a.6.6 0 0 0-.2.089c-.135.099-.138.328.004.678.038.105.037.181 0 .208-.062.045-.144.01-.225-.1s-.191-.315-.352-.613a5.996 5.996 0 0 0-.518-.814c-.171-.235-.315-.432-.427-.559-.22-.275-.349-.426-.385-.476-.099-.135-.107-.224-.02-.287s.286.056.61.369c.551.523 1.162.816 1.812.852.693.043 1.297-.115 1.803-.484.445-.324.716-.73.817-1.239s.007-.95-.29-1.357c-.252-.346-.55-.545-.9-.611-.256-.04-.953.015-2.07.168-1.253.176-2.2.148-2.872-.099-.611-.216-1.138-.626-1.579-1.231-.513-.703-.698-1.476-.535-2.314.173-.826.632-1.52 1.397-2.078.407-.297.924-.523 1.537-.667.205-.056.343-.1.405-.145.123-.09.129-.264.013-.5-.042-.084-.032-.148.03-.193.086-.063.16-.04.24.07.027.038.105.17.228.364s.227.364.317.487c.315.432.589.781.842 1.05.03.016.057.053.084.09.054.074.044.138-.017.183-.075.054-.248-.027-.51-.233s-.576-.374-.96-.51c-.386-.115-.706-.166-.973-.142a2.026 2.026 0 0 0-1.026.409c-.456.333-.745.714-.855 1.134s-.02.828.26 1.21c.242.334.582.54 1.03.61s1.173.052 2.198-.072c1.249-.154 2.13-.191 2.63-.102.734.125 1.35.528 1.835 1.194zM601.676 537.026c.7.518 1.075 1.194 1.115 2.04s-.248 1.697-.893 2.57c-.163.22-.415.51-.776.87l3.145 2.324c.455.336.74.49.86.483.13.002.343-.182.646-.566.151-.23.27-.314.356-.25.074.054.065.143-.035.278l-.136.184c-.027.037-.173.234-.43.556-.267.335-.53.691-.793 1.048l-1.05 1.446c-.2.27-.33.421-.37.449s-.082.034-.12.007c-.06-.045-.052-.134.048-.27.287-.414.423-.674.425-.806-.007-.119-.176-.301-.483-.528l-6.315-4.667c-.529-.391-.854-.593-.992-.638s-.341.127-.623.508c-.163.221-.282.305-.343.26-.074-.055-.038-.18.116-.39l2.585-3.522c.636-.86 1.243-1.4 1.819-1.639.826-.32 1.569-.246 2.244.253zm-1.388 2.033c-1.216-.899-2.1-.963-2.663-.201-.336.454-.312.833.094 1.133l3.219 2.379c.245-.332.405-.575.472-.716.135-.26.191-.542.17-.823-.043-.583-.48-1.173-1.292-1.772zM616.033 529.293c.47.313.51.779.094 1.402-.516.776-1.173 1.238-1.982 1.378-.627.115-1.17.047-1.636-.19l-1.127-.567c-.72-.352-1.28-.504-1.69-.466-.42.051-.793.335-1.11.84l2.886 1.922c.674.45 1.03.686 1.089.707.14.093.284.098.411.017.14-.072.318-.284.538-.615.135-.203.241-.28.318-.228.063.042.067.118 0 .22l-.835 1.225-.135.203c-.089.161-.182.301-.275.441l-.61.915c-.06.09-.119.179-.208.284l-.118.178-.377.594c-.076.114-.157.152-.22.11-.076-.05-.009-.263.207-.614.182-.301.216-.517.135-.644-.046-.068-.216-.2-.508-.394l-6.549-4.362c-.445-.296-.707-.453-.805-.5-.085-.037-.19-.016-.288.047-.127.081-.28.255-.457.522-.127.19-.225.254-.301.203-.064-.042-.076-.106-.038-.19s.173-.289.394-.62l.152-.228c.114-.144.216-.297.31-.437l.279-.42c.008-.012.067-.1.165-.275l.796-1.195c.787-1.182 1.418-1.937 1.897-2.242.369-.25.775-.365 1.203-.374s.826.11 1.183.347c.813.542 1.131 1.36.958 2.474-.08.48-.326 1.123-.72 1.907l.069.064c.681-.886 1.363-1.386 2.062-1.526.712-.132 1.572.092 2.585.638.806.445 1.352.644 1.636.631s.487-.098.589-.25c.085-.127.089-.216.025-.259-.038-.025-.11 0-.233.047-.131.06-.241.06-.356-.017-.229-.152-.258-.356-.089-.61s.394-.288.686-.093zm-8.563-1.06c-1.094-.729-1.928-.66-2.504.204-.187.28-.216.517-.068.708.09.114.543.453 1.344.987l2.11 1.405c.454-.652.61-1.246.462-1.767s-.594-1.038-1.344-1.537zM619.738 514.163c1.314.78 2.176 1.842 2.599 3.195.415 1.366.282 2.637-.428 3.833-.694 1.169-1.747 1.894-3.158 2.176s-2.764.047-4.065-.726c-1.326-.787-2.193-1.87-2.595-3.229s-.24-2.648.485-3.87c.702-1.182 1.734-1.902 3.103-2.173 1.382-.263 2.733.006 4.06.794zm-1.162 2.437c-1.747-1.038-3.16-1.592-4.23-1.676-.701-.044-1.227.213-1.578.804s-.25 1.29.3 2.097 1.467 1.6 2.742 2.356c1.852 1.1 3.432 1.611 4.726 1.527.537-.037.96-.3 1.256-.8.343-.578.31-1.149-.102-1.713-.636-.875-1.682-1.745-3.114-2.595zM620.507 501.895c.081.043.093.119.035.226l-.007.014a2.83 2.83 0 0 0-.193.33c-.158.297-.197.5-.105.62.026.048.289.205.76.456l6.055 3.224c1.012.539 1.638.924 1.905 1.17.407.373.65 1.022.743 1.92.084.72-.02 1.338-.3 1.864-.223.418-.518.711-.87.853s-.707.125-1.058-.062a1.074 1.074 0 0 1-.53-.628c-.082-.269-.048-.528.095-.798a.974.974 0 0 1 .545-.47c.228-.07.473-.043.702.079s.422.346.578.67c.038.09.091.153.145.182.095.05.192-.002.278-.164.215-.404-.027-.827-.733-1.255-.141-.093-1.153-.631-3.027-1.63l-5.92-3.152c-.155-.066-.223-.102-.223-.102-.155-.065-.3-.055-.41.024-.098.086-.24.288-.426.604-.121.195-.186.317-.22.35s-.07.032-.124.004c-.081-.044-.086-.133-.014-.267l.911-1.679c-.007.014.094-.175.281-.56.21-.425.432-.843.662-1.275l.208-.39c.08-.149.163-.208.257-.158zM633.365 493.285c.013.007.44.211 1.275.627.435.224.752.376.945.468.186.106.283.152.269.145-1.27 2.374-2.311 4.484-3.14 6.323l-.525 1.171c-.079.166-.16.229-.229.196-.055-.027-.07-.067-.063-.115s.058-.193.156-.434c.177-.44.165-.734-.036-.88-.118-.074-.235-.147-.387-.22l-6.99-3.338c-.55-.263-.854-.408-.915-.42-.159-.06-.275-.064-.37-.008s-.2.209-.326.47c-.138.29-.245.408-.328.369-.097-.046-.079-.19.046-.452.119-.248.284-.593.487-1.054a123.115 123.115 0 0 1 1.955-4.163l.461-.93c.099-.207.204-.462.3-.771l1.563.593c.502.19.805.3.915.353.096.046.118.107.072.204s-.197.092-.444.008c-.674-.22-1.247-.19-1.755.093-.5.302-.934.857-1.336 1.698-.125.262-.322.71-.59 1.343l4.066 1.943c.494-1 .721-1.687.695-2.022s-.334-.684-.922-1.083c-.325-.206-.457-.354-.411-.45.04-.084.142-.085.307-.006s.504.257 1 .528c.173.1.408.212.697.35a58.61 58.61 0 0 0 1.805.828c.062.013.131.046.214.085.11.053.145.12.106.204-.033.068-.08.097-.128.09s-.2-.044-.48-.127c-.695-.213-1.168-.287-1.406-.214-.23.093-.49.425-.767 1.004l-.448.938 4.646 2.22.407-.89c.467-1.013.736-1.646.814-1.88.09-.295.119-.603.078-.944a1.755 1.755 0 0 0-.362-.766c-.167-.181-.52-.469-1.04-.835-.125-.094-.174-.168-.14-.237s.12-.077.259-.012zM638.309 480.047l.234.115c.042.017.326.169.858.441.392.213.71.363.936.457.281.118.521.218.71.28.077.016.147.045.246.086s.143.093.125.135-.083.081-.205.097c-.427.07-.74.187-.94.385.312.959.29 1.843-.046 2.647-.512 1.226-1.43 2.118-2.741 2.68-1.391.594-2.838.569-4.318-.05-1.438-.6-2.448-1.552-3.044-2.86-.587-1.289-.595-2.617-.036-3.956.26-.62.63-1.111 1.118-1.487.273-.217.446-.393.499-.52.082-.197.074-.416-.039-.662-.073-.18-.114-.28-.103-.308.018-.042.052-.044.123-.015.028.012.07.03.12.067.301.192.684.385 1.15.58.042.017.239.1.583.227l.973.406c.17.07.236.149.195.247-.03.07-.248.079-.644-.004-1.833-.368-3.003.054-3.51 1.266-.4.959-.068 1.909.99 2.864.722.65 1.672 1.228 2.856 1.723 1.763.736 3.193.92 4.31.542.597-.198 1.014-.603 1.267-1.21.554-1.324.03-2.57-1.56-3.714-.267-.194-.379-.324-.343-.408.041-.1.115-.118.236-.05zM639.11 465.297c.073.026.105.07.08.142-.037.1-.26.134-.665.086-.795-.092-1.386-.03-1.768.174s-.687.645-.93 1.32a9.247 9.247 0 0 0-.216.687l8.744 3.136c.25.074.414.068.532-.035s.295-.414.535-.944c.051-.096.115-.138.187-.112.1.037.118.124.06.282-.01.029-.036.1-.092.21-.066.139-.107.254-.143.355l-.577 1.464-.838 2.46c-.047.129-.116.185-.188.159-.057-.02-.08-.046-.08-.094s.059-.206.143-.484c.177-.537.146-.857-.068-.983-.124-.061-1.082-.423-2.907-1.08l-6.08-2.193c-.05.096-.097.225-.149.369-.275.761-.333 1.374-.184 1.817.158.463.578.874 1.26 1.234.391.222.576.386.54.487-.032.086-.105.108-.22.067-.072-.026-.34-.139-.77-.342-.908-.41-1.534-.7-1.874-.839l.078-.215.364-1.055c.01-.028.144-.354.391-.995.243-.627.547-1.427.905-2.419.197-.546.373-1.035.514-1.47s.281-.825.41-1.185c.115-.316.188-.565.231-.729.628.195 1.46.413 2.464.645.163.043.269.065.312.08zM649.248 458.623c.073.023.099.095.057.226a.807.807 0 0 1-.074.185 32.004 32.004 0 0 0-.515 1.488 63.474 63.474 0 0 0-.561 1.937c-.073.282-.141.5-.183.632-.045.145-.112.205-.2.177-.043-.014-.063-.052-.06-.115 0-.048.06-.238.145-.563.038-.324.006-.527-.112-.612-.102-.08-.487-.233-1.143-.439l-7.55-2.373c-.179-.04-.266-.068-.252-.063-.248-.078-.442.133-.593.614-.087.277-.158.4-.23.376s-.098-.046-.099-.095.036-.165.105-.383c-.032.102.023-.073.18-.52s.275-.827.376-1.147l.233-.744c.05-.16.105-.383.182-.68.072-.28.136-.485.173-.601l.046-.146c.041-.131.103-.176.176-.153.058.018.083.042.084.09s-.035.214-.099.466c-.081.31-.063.509.016.613l.263.131 8.235 2.588c.422.133.684.167.789.088.1-.064.255-.352.453-.882.042-.083.085-.118.158-.095zM648.37 442.509c1.476.391 2.595 1.178 3.371 2.364.772 1.2.991 2.46.635 3.804-.349 1.314-1.163 2.3-2.444 2.955s-2.646.8-4.108.412c-1.491-.395-2.621-1.2-3.379-2.397s-.954-2.482-.59-3.856c.353-1.329 1.15-2.303 2.392-2.937 1.258-.63 2.63-.741 4.122-.345zm-.454 2.661c-1.964-.52-3.474-.668-4.526-.457-.687.15-1.123.54-1.299 1.204s.111 1.31.862 1.936 1.848 1.138 3.28 1.518c2.082.552 3.742.613 4.963.178.507-.182.842-.551.99-1.112.173-.65-.016-1.19-.565-1.62-.85-.668-2.095-1.22-3.705-1.647zM646.56 426.754c.045.01.069.046.068.124s-.042.35-.125.817c-.041.272-.028.431.067.498.05.057.362.138.948.246l1.737.349c1.155.227 2.665.544 4.534.936l2.542.534c.164.034.248.083.232.158-.022.104-.998.664-2.937 1.647-1.927 1-4.122 2.085-6.581 3.239l1.106.232c.374.079.703.148.99.192l5.159 1.083c.209.044.356.013.43-.112.118-.194.213-.424.273-.708.069-.329.136-.502.19-.537.019-.012.034-.01.064-.003.074.016.103.1.072.25-.019.09-.034.164-.062.22-.14.596-.234.966-.265 1.116-.073.344-.155.81-.26 1.382-.044.287-.069.407-.06.362-.031.15-.092.215-.166.199s-.073-.25-.012-.69c.062-.517.05-.832-.054-.932-.065-.06-.418-.166-1.06-.3l-6.146-1.29a14.1 14.1 0 0 0-1.142-.21c-.447-.03-.813.08-1.067.323-.197.193-.371.578-.512 1.173-.05.16-.11.226-.185.21-.09-.018-.119-.102-.09-.237.012-.06.071-.266.165-.637.052-.176.109-.445.184-.804.154-.733.264-1.334.347-1.8l7.845-3.833-5.92-1.243c-.24-.05-.4-.037-.49.022-.075.063-.143.236-.21.487l-.166.636c-.04.117-.082.17-.142.158-.075-.016-.1-.115-.063-.294l.069-.33c.012-.06.034-.164.048-.302l.072-.343c.21-1.002.336-1.6.385-1.762s.113-.241.188-.226zM655.717 416.722c.92.147 1.623.585 2.108 1.327.5.746.668 1.624.507 2.634-.1.619-.446 1.43-1.024 2.436a.6.6 0 0 0-.08.204c-.026.166.133.33.48.479.102.047.155.102.147.147-.012.076-.094.109-.23.087s-.357-.088-.682-.186a5.996 5.996 0 0 0-.94-.213c-.287-.046-.529-.084-.697-.096-.35-.04-.548-.057-.608-.066-.166-.027-.234-.084-.218-.19s.243-.162.693-.167c.76-.018 1.4-.24 1.887-.673.522-.458.84-.995.939-1.614.087-.543-.007-1.022-.294-1.455s-.665-.679-1.162-.758c-.423-.068-.774 0-1.07.2-.21.152-.665.683-1.35 1.579-.765 1.007-1.456 1.654-2.108 1.952-.586.278-1.248.358-1.987.24-.86-.138-1.536-.556-2.01-1.266-.46-.708-.623-1.523-.473-2.459.08-.498.287-1.021.62-1.556.107-.184.174-.313.186-.388.024-.15-.095-.278-.344-.364-.088-.03-.126-.083-.114-.158.017-.106.084-.141.22-.12.045.008.194.047.418.098s.417.098.568.122c.528.085.968.14 1.337.152a.298.298 0 0 1 .123.005c.091.014.129.067.117.142-.015.09-.195.154-.526.194s-.673.14-1.04.313c-.356.191-.619.381-.79.586-.23.273-.376.605-.441 1.012-.09.559-.026 1.033.192 1.408s.57.602 1.037.677c.407.065.794-.028 1.161-.294s.87-.79 1.51-1.6c.777-.99 1.375-1.636 1.793-1.925.61-.429 1.33-.577 2.145-.446zM216.328 137.986c1.108 1.543 1.434 3.197.95 4.98s-1.65 3.36-3.573 4.74c-.488.35-1.203.782-2.194 1.288l4.976 6.932c.72 1.002 1.209 1.512 1.46 1.578.272.092.837-.15 1.723-.745.468-.377.77-.47.906-.28.117.162.04.34-.258.554l-.406.292c-.081.058-.514.369-1.265.867a81.25 81.25 0 0 0-2.348 1.644l-3.149 2.302c-.596.427-.967.653-1.068.684s-.194.016-.252-.065c-.097-.135-.02-.314.278-.528.874-.668 1.33-1.119 1.423-1.39.065-.252-.165-.744-.65-1.42l-9.992-13.92c-.836-1.163-1.376-1.802-1.633-1.987s-.794.037-1.633.64c-.488.35-.79.443-.887.308-.117-.163.042-.4.502-.73l7.725-5.587c1.896-1.36 3.517-2.073 4.873-2.185 1.93-.113 3.423.538 4.492 2.028zm-4.243 3.292c-1.924-2.681-3.716-3.405-5.395-2.2-1.002.72-1.205 1.522-.564 2.415l5.093 7.095c.731-.525 1.226-.921 1.458-1.17.456-.45.761-.998.907-1.595.3-1.24-.216-2.758-1.499-4.545zM246.794 114.536c.08.146-.196.408-.855.801-.806.473-1.241.859-1.275 1.218-.011.12.039.282.152.562l6.69 12.411c2.484 4.607 1.533 8.11-2.897 10.5-2.26 1.217-4.4 1.462-6.405.763-1.492-.52-2.958-2.116-4.382-4.756l-6.074-11.267c-.332-.616-.626-.95-.91-.986s-.948.208-2.023.673c-.22.082-.37.086-.449-.06-.095-.176.034-.36.386-.549l.235-.127c.191-.065.338-.144.456-.207l1.834-.952c1.747-.904 3.009-1.584 3.815-2.056 1.07-.615 1.51-.852 1.275-.726l.616-.332c.323-.174.546-.18.657.025.095.176-.151.422-.767.754-.851.459-1.241.859-1.126 1.213.081.221.163.443.273.648l5.916 10.973c.855 1.585 1.422 2.567 1.718 2.975.826 1.183 1.685 1.932 2.572 2.173 1.113.309 2.242.154 3.416-.478 1.32-.712 2.08-1.69 2.238-2.873.209-1.438-.422-3.522-1.861-6.192l-5.22-9.682c-.095-.176-.222-.411-.335-.69l-.269-.5c-.269-.498-.605-.771-.978-.76-.268-.007-.681.14-1.239.44-.72.351-1.135.424-1.246.218-.079-.146.02-.314.284-.456.294-.158.734-.395 1.307-.667s1.03-.479 1.323-.637a6.31 6.31 0 0 0 .483-.298l1.613-.87c.617-.332.957-.402 1.052-.226zM284.752 115.587c.036.093.187.856.51 2.34.24 1.086.6 2.663 1.107 4.718a25.33 25.33 0 0 0-1.672.574l-10.696 4.131a25.33 25.33 0 0 0-1.624.699c-.567.29-1.115.537-1.612.73-.28.108-.428.093-.489-.062-.036-.093-.04-.199.005-.36.164-.777.42-2.52.737-5.215l1.884-14.735c.311-2.157.472-3.684.494-4.55-.51.16-1.454.49-2.822 1.019-1.928.744-3.202 1.7-3.823 2.87-.678 1.297-.987 2.81-.951 4.476.02.421-.064.668-.22.728s-.284.003-.356-.184a1.15 1.15 0 0 1-.063-.44c-.145-.838-.461-2.86-.999-6.01 1.18-.277 3.753-1.2 7.765-2.75a68.286 68.286 0 0 0 4.211-1.769c.673-.295 1.096-.494 1.282-.566.311-.12.591-.228.852-.293.087.502 0 1.572-.199 3.185-.303 2.083-.718 5.173-1.282 9.357-.068.563-.62 4.778-1.624 12.634 2.394-.925 3.731-1.442 4.061-1.605 1.749-.746 3.033-1.492 3.79-2.214 1.203-1.143 1.6-3.262 1.16-6.343-.058-.335.006-.539.193-.611.155-.06.296.028.38.246zM316.78 106.582c.024.097.082.873.221 2.384.107 1.108.271 2.716.525 4.818-.493.09-1.05.196-1.73.366l-11.12 2.797c-.679.171-1.22.342-1.697.496-.598.22-1.172.398-1.689.528-.29.073-.436.041-.477-.12-.024-.098-.016-.203.048-.356.258-.753.724-2.451 1.367-5.088l3.666-14.395c.57-2.103.916-3.6 1.044-4.456-.525.097-1.503.31-2.925.667-2.005.504-3.386 1.298-4.144 2.383-.831 1.205-1.322 2.67-1.49 4.327-.031.42-.144.655-.306.696s-.283-.032-.332-.226a1.15 1.15 0 0 1-.008-.445c-.042-.849-.11-2.894-.26-6.087 1.205-.131 3.872-.733 8.042-1.782 1.52-.382 2.966-.78 4.396-1.243.703-.212 1.147-.358 1.341-.407.324-.08.615-.154.881-.187.025.51-.191 1.56-.585 3.138-.555 2.03-1.343 5.046-2.412 9.13-.137.55-1.198 4.667-3.152 12.342 2.49-.626 3.88-.976 4.227-1.097 1.826-.528 3.192-1.113 4.031-1.736 1.333-.988 1.985-3.043 1.924-6.155-.017-.34.072-.534.266-.583.161-.04.29.064.348.29zM350.143 102.97c.054.43.095.761.099 1.063.02.972.086 1.77.193 2.36l.325 2.345c-2.824.25-7.959.823-15.335 1.741l-1.39.173c-.959.12-1.467.082-1.488-.083s.133-.286.43-.323c1.088-.169 1.8-.392 2.06-.726.178-.19.211-.732.1-1.625l-2.265-17.924c-.094-.76-.218-1.216-.371-1.365-.306-.297-.723-.413-1.282-.31l-.823.136c-.231.029-.376-.054-.396-.22s.132-.285.43-.322c.165-.02.364-.045.533-.033l8.402-1.045a1.25 1.25 0 0 1 .36-.079c.231-.029.343.058.363.224.025.198-.26.334-.823.404-.827.103-1.277.26-1.385.475-.14.22-.1 1.087.094 2.642l.98 7.872c.201 1.621.683 5.223 1.478 10.8.434-.02.898-.078 1.427-.144 2.315-.288 3.89-.585 4.763-.861 1.352-.47 2.225-1.285 2.581-2.471.195-.595.311-1.55.386-2.836.021-.372.1-.55.232-.567.165-.02.26.203.322.7z" fill="#3c0000" fill-opacity=".69" fill-rule="nonzero"/><path d="M384.228 101.797c0 .033 0 1.067-.031 3.1a68.854 68.854 0 0 0-.031 2.3c-.033.467-.033.7-.033.667-5.867-.262-11-.325-15.4-.221l-2.8.069c-.4 0-.6-.1-.6-.267 0-.133.066-.2.166-.233s.433-.067 1-.1c1.033-.068 1.6-.369 1.7-.902.032-.3.065-.6.065-.967l-.013-16.9c-.001-1.333-.002-2.067-.035-2.2-.034-.366-.134-.6-.334-.733s-.6-.2-1.234-.199c-.7 0-1.033-.1-1.033-.3 0-.232.3-.333.933-.333.6 0 1.433-.001 2.533-.036 4.1-.103 7.433-.105 10.033-.074l2.267.031c.5 0 1.1-.034 1.8-.134l.303 3.633c.1 1.166.168 1.866.168 2.133 0 .233-.1.333-.333.333s-.367-.3-.434-.866c-.201-1.533-.802-2.633-1.836-3.365-1.067-.7-2.568-1.031-4.6-1.03-.634 0-1.7.035-3.2.103l.007 9.833c2.433.032 4-.17 4.633-.537s1.032-1.3 1.264-2.834c.1-.834.266-1.234.5-1.234.2 0 .3.2.3.6s-.033 1.233-.098 2.467c-.033.433-.033 1-.032 1.7.001 1.9.036 3.366.07 4.333.033.133.033.3.034.5 0 .266-.1.4-.3.4-.167 0-.267-.066-.3-.166s-.1-.434-.201-1.067c-.235-1.566-.535-2.566-.902-2.966-.4-.366-1.3-.565-2.7-.564l-2.267.001.008 11.234 2.134-.035c2.433-.036 3.933-.103 4.466-.17.667-.101 1.3-.335 1.933-.735a3.829 3.829 0 0 0 1.166-1.435c.2-.5.432-1.467.664-2.833.066-.334.166-.5.333-.5s.267.166.267.499z" fill="#fff" fill-rule="nonzero"/><path d="M418.885 104.99c-.171 1.355-.751 2.491-1.7 3.346-.952.887-2.193 1.402-3.723 1.545-1.19.118-2.336.141-3.365.045s-4.076-.449-9.136-1.089c-.694-.087-1.124-.142-1.252-.192s-.186-.124-.17-.256c.025-.199.402-.252 1.13-.16.694.088 1.17.047 1.364-.163.19-.178.352-.661.457-1.488l2.36-18.92c.079-.628-.376-1.022-1.397-1.185-.756-.129-1.14-.278-1.12-.444.026-.198.27-.268.766-.205.459.091.917.183 1.347.237l7.937 1.004c5.093.644 7.418 2.719 6.978 6.191-.363 2.877-2.474 4.425-6.365 4.638l-.083.124c2.157.743 3.636 1.535 4.408 2.338 1.276 1.338 1.786 2.88 1.564 4.633zm-4.435-12.22c.406-3.208-.385-4.921-2.37-5.172-.694-.088-1.194-.117-1.434-.08-.517.102-.79.403-.857.933l-1.104 8.73c1.95.247 3.348.088 4.164-.515s1.346-1.88 1.601-3.896zm-.835 11.385c.393-3.109-.27-5.04-1.993-5.762-.669-.287-1.682-.516-3.004-.683l-.177 1.927c-.07.562-.2 1.318-.363 2.34-.096.491-.217 1.45-.393 2.839-.3 2.381-.394 3.646-.282 3.828.136.253.615.448 1.442.552 2.712.343 4.302-1.337 4.77-5.041zM455.734 119.462c-.043.161-.133.24-.303.23-.178.02-.597-.093-1.273-.275-.16-.043-.643-.173-1.44-.423-1.567-.457-2.653-.784-3.265-.95-.708-.19-1.32-.355-1.875-.47-1.07-.254-1.82-.422-2.206-.526-.579-.156-.843-.33-.782-.556s.698-.157 1.93.14c.29.079.524.107.693.118.363.064.559-.022.62-.247.025-.097.018-.582-.022-1.456l-.112-2.274c.001-.517-.054-1.465-.134-2.833l-.58-.156-2.501-.709c-.893-.275-1.867-.503-2.873-.74-.306.366-.92 1.236-1.875 2.602l-1.272 1.9c-.184.296-.318.537-.37.73-.095.354.06.672.517.899.088.058.627.238 1.543.554.28.11.416.25.372.41-.052.194-.271.238-.657.134l-5.302-1.464a1.761 1.761 0 0 1-.427-.08c-.29-.079-.424-.219-.364-.444.035-.129.383-.138 1.067.012.878.202 1.469.188 1.772-.04s.933-1.026 1.888-2.391c.704-.95 1.717-2.403 3.054-4.286l6.784-9.668c.323-.43.78-1.101 1.403-2.003.425-.68.714-.982.842-.947s.224.578.31 1.671c.08 1.368.624 6.9 1.62 16.525.114 1.24.261 2.487.367 3.759.085 1.093.315 1.776.609 2.097.246.24.864.51 1.934.763.258.07.36.201.308.394zm-8.204-10.29c-.014-.073-.027-.284-.06-.673-.2-2.712-.335-4.647-.452-5.749-.019-.315-.075-.745-.12-1.344l-.038-.632a59.792 59.792 0 0 0-2.449 3.448c-1.106 1.67-1.895 2.804-2.384 3.466.193.052.418.113.717.159l2.51.676c.483.13 1.255.339 2.276.649zM498.273 112.147c-.038.092-.126.128-.292.094s-.733-.237-1.698-.607c-.566-.203-.912-.24-1.094-.064-.144.084-.447.716-.921 1.927l-1.471 3.576c-.966 2.378-2.274 5.48-3.892 9.32l-2.2 5.222c-.143.338-.282.496-.436.432-.215-.09-1.008-2.415-2.305-6.976a402.46 402.46 0 0 1-4.198-15.443l-.958 2.273a44.183 44.183 0 0 0-.824 2.04l-4.466 10.597c-.181.43-.175.759.063.967.365.335.817.634 1.401.88.676.285 1.019.502 1.072.633.018.044.005.074-.021.136-.065.153-.257.18-.565.051-.184-.077-.337-.142-.447-.225-1.216-.548-1.971-.903-2.278-1.032-.707-.298-1.672-.668-2.852-1.13-.597-.215-.842-.318-.75-.28-.307-.129-.422-.286-.357-.44s.564-.051 1.48.263c1.084.348 1.763.453 2.02.272.157-.114.53-.826 1.086-2.147l5.32-12.624c.544-1.29.837-2.071.923-2.36.252-.943.169-1.774-.247-2.42-.331-.5-1.083-1.035-2.298-1.583-.325-.173-.44-.33-.375-.484.077-.184.27-.211.546-.095.123.052.54.264 1.295.618.356.186.909.42 1.646.73 1.505.634 2.747 1.121 3.712 1.492l4.943 18.397 5.126-12.164c.207-.491.245-.837.156-1.055-.102-.188-.445-.405-.954-.655l-1.295-.619c-.233-.134-.33-.247-.278-.37.065-.154.288-.168.657-.013l.675.285c.123.052.338.143.628.228l.706.298c2.058.867 3.287 1.385 3.612 1.558s.47.343.405.497zM525.173 144.916c-.12.2-.543.063-1.24-.395-.841-.542-1.418-.617-1.716-.25-.165.21-.64.937-1.411 2.223-.257.43-.497.83-.674 1.19-3.184.19-5.82-.342-7.878-1.576-2.716-1.629-4.409-3.926-5.061-6.922-.681-3.012-.173-5.933 1.524-8.763 1.8-3.002 4.252-4.952 7.31-5.839s6.002-.482 8.832 1.215c1.172.703 2.202 1.71 3.088 3.018.338.474.583.777.755.88.314.189.709.114 1.183-.223.223-.177.406-.223.52-.155.143.086.15.206.03.406-.018.029-.287.412-.772 1.092-.166.212-.492.755-1.006 1.613-.394.657-.76 1.332-1.126 2.006s-.543 1.035-.543 1.035c-.222.372-.411.492-.611.372-.257-.154-.235-.646.142-1.47.783-1.823 1.029-3.464.725-4.967-.229-1.109-.91-1.984-2.081-2.686-3.602-2.16-7.323-.038-11.163 6.365-2.383 3.974-3.445 7.107-3.216 9.382.143 1.446.852 2.532 2.082 3.27 1.572.942 2.944.404 4.126-1.568.892-1.487 1.332-2.35 1.337-2.619-.04-.257-.303-.531-.817-.84l-.715-.428c-.4-.24-.549-.446-.446-.618s.326-.154.64.034c.658.395 1.515.909 2.499 1.538l1.812 1.125c.372.223.96.537 1.778.989a45.16 45.16 0 0 1 1.533.88l.371.223c.229.137.292.291.19.463z" fill="#3c0000" fill-opacity=".69" fill-rule="nonzero"/><ellipse cx="536.59" cy="663.22" rx="105.59" ry="18.22" stroke="#000" stroke-width="3.93" transform="matrix(.72013 0 0 .69444 -11.087 0)"/><path d="M375.475 523.629s43.351-.695 61.407-11.806c9.499-5.845 18.14-29.323 24.305-36.805s8.413-17.919-1.389-21.56c-9.801-3.642-39.425 13.374-52.083 16.004-13.271 2.757-32.24 3.472-32.24 3.472s-19.225-.715-32.24-3.472c-12.648-2.679-42.282-19.646-52.084-16.005-9.802 3.642-7.554 14.079-1.388 21.56s14.806 30.96 24.305 36.806c18.055 11.111 61.407 11.806 61.407 11.806" fill="#fff" stroke="#000" stroke-width="2.77776"/><path d="m537.43 673 3.257 35 3.316-35h-6.573z" stroke="#000" stroke-width="4.22" transform="matrix(.6587 0 0 .65868 19.785 23.918)"/><path d="m514.78 670.62 3.217 21.38-8.217-21 5-.38z" stroke="#000" stroke-width="3.27" transform="matrix(-.6587 0 0 1.0066 732.495 -208.263)"/><path d="m519 672-1 20-4-21 5 1z" stroke="#000" stroke-width="3.27" transform="matrix(-.6587 0 0 1.0066 750.28 -209.928)"/><path d="m519 672-1 20-4-21 5 1z" stroke="#000" stroke-width="3.05" transform="matrix(-.52696 0 0 1.17439 701.01 -331.399)"/><path d="m520.32 672-2.318 20-4-21 6.318 1z" stroke="#000" stroke-width="3.46" transform="matrix(-.52696 0 0 1.0066 716.818 -223.361)"/><path d="m521.11 672-3.109 20-4-21 7.109 1z" stroke="#000" stroke-width="3.27" transform="matrix(.6587 0 0 1.0066 18.468 -208.263)"/><path d="m519 672-1 20-4-21 5 1z" stroke="#000" stroke-width="3.27" transform="matrix(.6587 0 0 1.0066 .683 -209.928)"/><path d="m519 672-1 20-4-21 5 1z" stroke="#000" stroke-width="3.05" transform="matrix(.52696 0 0 1.17439 49.953 -331.399)"/><path d="m519 672-1 20-4-21 5 1z" stroke="#000" stroke-width="3.46" transform="matrix(.52696 0 0 1.0066 34.145 -223.361)"/><path d="M709 368.52c-41.326-22.032-62.568-46.433-150.36-46.433-79.505 0-151.64 46.433-151.64 46.433s-12.912 46.22-24 82.477-13.968 58.09 4.249 89 40.969 76.821 60.988 82c20.018 5.179 60.43 18.192 109.76 18.192s89.745-13.013 109.76-18.192c20.019-5.179 42.771-51.09 60.988-82s15.337-52.743 4.249-89-24-82.477-24-82.477" fill="#fff" stroke="#000" stroke-width="3.56" transform="matrix(.81729 0 0 .74 -81.09 -11.252)"/><path d="M375.47 134.027c56.85 0 114.985 71.25 139.11 88.541 20.833 14.93 18.75 19.097-4.861 21.875-32.028 3.768-83.416 56.143-134.721 56.944-51.306-.8-147.222-59.027-147.222-59.027s-16.773-2.296 7.202-19.792c20.936-15.278 82.59-88.541 139.443-88.541" fill="#a53232" stroke="#000" stroke-width="2.77776"/><path d="M234.72 311.11c-162.498-5.556-29.566-69.57.258-88.542 29.824-18.97 27.508-48.697 60.853-48.264 16.688.217 47.146 93.055 79.111 93.055 31.914 0 65.337-92.84 81.993-93.055 33.345-.433 31.029 29.295 60.853 48.264 29.824 18.97 163.45 80.902-2.52 88.541 0-27.68-35.597-6.944-140.325-6.944-104.729 0-140.229-23.046-140.229 6.944z" fill="#fff" stroke="#000" stroke-width="2.77776"/><path d="M235.417 311.108c-159.524-5.454-26.93-63.416 2.348-82.038s27.008-46.7 59.74-47.38c10.705-.223 43.34 91.05 77.443 91.221 33.573.171 68.602-90.751 80.716-91.221 32.713-1.27 30.461 28.758 59.74 47.38 29.278 18.622 162.802 74.54-.128 82.038 0-27.173-37.292-1.936-140.108-1.936-102.81 0-139.753-27.505-139.753 1.936z" fill="#a00b0b" stroke="#000" stroke-width="2.72688"/><path d="m537.43 673 3.257 33.946L544.003 673h-6.573z" stroke="#000" stroke-width="4.22" transform="matrix(.6587 0 0 -.65868 19.299 906.626)"/><path d="m519 672-1 20-4-21 5 1z" stroke="#000" stroke-width="3.27" transform="matrix(-.6587 0 0 -1.0066 732.01 1136.728)"/><path d="m519 672-1 20-4-21 5 1z" stroke="#000" stroke-width="3.27" transform="matrix(-.6587 0 0 -1.0066 749.794 1135.616)"/><path d="m521.64 672-3.636 18.226-5.318-18.043 8.954-.183z" stroke="#000" stroke-width="3.05" transform="matrix(-.52696 0 0 -1.17439 700.523 1245.283)"/><path d="m519 672-1 20-4-21 5 1z" stroke="#000" stroke-width="3.46" transform="matrix(-.52696 0 0 -1.0066 716.332 1128.911)"/><path d="m519 672-1 19.31-7.163-20.31 8.163 1z" stroke="#000" stroke-width="3.27" transform="matrix(.6587 0 0 -1.0066 17.981 1136.034)"/><path d="m519 672-1 20-6.109-21 7.109 1z" stroke="#000" stroke-width="3.27" transform="matrix(.6587 0 0 -1.0066 .197 1135.616)"/><path d="m519 672-1 18.226L514 671l5 1z" stroke="#000" stroke-width="3.05" transform="matrix(.52696 0 0 -1.17439 49.467 1245.978)"/><path d="m519 672-1 21.38-6.636-22.38 7.636 1z" stroke="#000" stroke-width="3.46" transform="matrix(.52696 0 0 -1.0066 33.658 1128.911)"/><path d="M376.24 419.497s14.429 5.904 18.15.695c6.944-9.722-2.217-15.944-3.472-22.222-6.25-31.25-15.921-28.542-15.921-28.542l-.051-.059s-9.671-2.708-15.921 28.542c-1.256 6.278-10.417 12.5-3.472 22.222 3.721 5.21 18.149-.695 18.149-.695M265.441 327.153s10.25-18.3 29.861-18.055 44.071 8.837 47.3 22.222-.21 29.03-7.717 34.177-47.126 6.972-54.86 0-16.777-29.042-14.584-38.344zM484.441 327.153s-10.25-18.3-29.86-18.055-44.072 8.837-47.3 22.222.21 29.03 7.716 34.177 47.126 6.972 54.861 0 16.777-29.042 14.583-38.344z" stroke="#000" stroke-width="2.77776"/></svg>