<svg viewBox="0 0 300 300" xmlns="http://www.w3.org/2000/svg" xml:space="preserve" style="fill-rule:evenodd;clip-rule:evenodd;stroke-linejoin:round;stroke-miterlimit:2"><path style="fill:#fff" d="M0 0h792v792H0z" transform="rotate(-.176) scale(.37879)"/><path d="M100 18.182h9.364v9.363H100z"/><path d="M109.09 18.182h9.365v9.363h-9.364z"/><path d="M118.182 18.182h9.363v9.363h-9.363zM154.545 18.182h9.364v9.363h-9.364z"/><path d="M163.636 18.182H173v9.363h-9.364z"/><path d="M172.727 18.182h9.364v9.363h-9.364z"/><path d="M181.818 18.182h9.364v9.363h-9.364z"/><path d="M190.91 18.182h9.363v9.363h-9.364zM109.09 27.273h9.365v9.363h-9.364zM127.273 27.273h9.363v9.363h-9.363zM172.727 27.273h9.364v9.363h-9.364z"/><path d="M200 27.273h9.364v9.363H200zM90.91 36.364h9.363v9.363h-9.364z"/><path d="M100 36.364h9.364v9.363H100z"/><path d="M109.09 36.364h9.365v9.363h-9.364zM145.455 36.364h9.363v9.363h-9.363zM163.636 36.364H173v9.363h-9.364zM200 36.364h9.364v9.363H200zM90.91 45.455h9.363v9.363h-9.364z"/><path d="M100 45.455h9.364v9.363H100zM127.273 45.455h9.363v9.363h-9.363zM163.636 45.455H173v9.363h-9.364z"/><path d="M172.727 45.455h9.364v9.363h-9.364zM190.91 45.455h9.363v9.363h-9.364zM90.91 54.545h9.363v9.364h-9.364zM118.182 54.545h9.363v9.364h-9.363z"/><path d="M127.273 54.545h9.363v9.364h-9.363z"/><path d="M136.364 54.545h9.363v9.364h-9.363z"/><path d="M145.455 54.545h9.363v9.364h-9.363z"/><path d="M154.545 54.545h9.364v9.364h-9.364zM190.91 54.545h9.363v9.364h-9.364z"/><path d="M200 54.545h9.364v9.364H200zM90.91 63.636h9.363V73h-9.364zM109.09 63.636h9.365V73h-9.364zM136.364 63.636h9.363V73h-9.363z"/><path d="M145.455 63.636h9.363V73h-9.363z"/><path d="M154.545 63.636h9.364V73h-9.364z"/><path d="M163.636 63.636H173V73h-9.364zM181.818 63.636h9.364V73h-9.364zM200 63.636h9.364V73H200zM90.91 72.727h9.363v9.364h-9.364zM109.09 72.727h9.365v9.364h-9.364zM127.273 72.727h9.363v9.364h-9.363zM145.455 72.727h9.363v9.364h-9.363z"/><path d="M163.636 72.727H173v9.364h-9.364zM181.818 72.727h9.364v9.364h-9.364zM200 72.727h9.364v9.364H200zM90.91 81.818h9.363v9.364h-9.364zM109.09 81.818h9.365v9.364h-9.364z"/><path d="M118.182 81.818h9.363v9.364h-9.363zM136.364 81.818h9.363v9.364h-9.363zM154.545 81.818h9.364v9.364h-9.364zM181.818 81.818h9.364v9.364h-9.364z"/><path d="M190.91 81.818h9.363v9.364h-9.364z"/><path d="M200 81.818h9.364v9.364H200zM18.182 90.91h9.363v9.363h-9.363zM36.364 90.91h9.363v9.363h-9.363z"/><path d="M45.455 90.91h9.363v9.363h-9.363z"/><path d="M54.545 90.91h9.364v9.363h-9.364z"/><path d="M63.636 90.91H73v9.363h-9.364z"/><path d="M72.727 90.91h9.364v9.363h-9.364zM100 90.91h9.364v9.363H100z"/><path d="M109.09 90.91h9.365v9.363h-9.364z"/><path d="M118.182 90.91h9.363v9.363h-9.363z"/><path d="M127.273 90.91h9.363v9.363h-9.363zM145.455 90.91h9.363v9.363h-9.363z"/><path d="M154.545 90.91h9.364v9.363h-9.364zM172.727 90.91h9.364v9.363h-9.364zM190.91 90.91h9.363v9.363h-9.364zM218.182 90.91h9.363v9.363h-9.363z"/><path d="M227.273 90.91h9.363v9.363h-9.363z"/><path d="M236.364 90.91h9.363v9.363h-9.363z"/><path d="M245.455 90.91h9.363v9.363h-9.363z"/><path d="M254.545 90.91h9.364v9.363h-9.364zM63.636 100H73v9.364h-9.364zM100 100h9.364v9.364H100zM127.273 100h9.363v9.364h-9.363zM154.545 100h9.364v9.364h-9.364z"/><path d="M163.636 100H173v9.364h-9.364z"/><path d="M172.727 100h9.364v9.364h-9.364z"/><path d="M181.818 100h9.364v9.364h-9.364z"/><path d="M190.91 100h9.363v9.364h-9.364z"/><path d="M200 100h9.364v9.364H200z"/><path d="M209.09 100h9.365v9.364h-9.364z"/><path d="M218.182 100h9.363v9.364h-9.363z"/><path d="M227.273 100h9.363v9.364h-9.363z"/><path d="M236.364 100h9.363v9.364h-9.363zM272.727 100h9.364v9.364h-9.364zM18.182 109.09h9.363v9.365h-9.363z"/><path d="M27.273 109.09h9.363v9.365h-9.363z"/><path d="M36.364 109.09h9.363v9.365h-9.363zM54.545 109.09h9.364v9.365h-9.364z"/><path d="M63.636 109.09H73v9.365h-9.364z"/><path d="M72.727 109.09h9.364v9.365h-9.364z"/><path d="M81.818 109.09h9.364v9.365h-9.364zM100 109.09h9.364v9.365H100z"/><path d="M109.09 109.09h9.365v9.365h-9.364zM172.727 109.09h9.364v9.365h-9.364zM200 109.09h9.364v9.365H200zM218.182 109.09h9.363v9.365h-9.363zM45.455 118.182h9.363v9.363h-9.363z"/><path d="M54.545 118.182h9.364v9.363h-9.364z"/><path d="M63.636 118.182H73v9.363h-9.364zM90.91 118.182h9.363v9.363h-9.364zM109.09 118.182h9.365v9.363h-9.364zM145.455 118.182h9.363v9.363h-9.363zM163.636 118.182H173v9.363h-9.364zM190.91 118.182h9.363v9.363h-9.364zM209.09 118.182h9.365v9.363h-9.364zM245.455 118.182h9.363v9.363h-9.363zM263.636 118.182H273v9.363h-9.364zM18.182 127.273h9.363v9.363h-9.363zM36.364 127.273h9.363v9.363h-9.363z"/><path d="M54.545 127.273h9.364v9.363h-9.364z"/><path d="M63.636 127.273H73v9.363h-9.364z"/><path d="M72.727 127.273h9.364v9.363h-9.364zM90.91 127.273h9.363v9.363h-9.364z"/><path d="M100 127.273h9.364v9.363H100z"/><path d="M109.09 127.273h9.365v9.363h-9.364z"/><path d="M118.182 127.273h9.363v9.363h-9.363z"/><path d="M127.273 127.273h9.363v9.363h-9.363zM163.636 127.273H173v9.363h-9.364z"/><path d="M172.727 127.273h9.364v9.363h-9.364zM227.273 127.273h9.363v9.363h-9.363zM245.455 127.273h9.363v9.363h-9.363z"/><path d="M254.545 127.273h9.364v9.363h-9.364zM18.182 136.364h9.363v9.363h-9.363zM90.91 136.364h9.363v9.363h-9.364z"/><path d="M100 136.364h9.364v9.363H100zM136.364 136.364h9.363v9.363h-9.363z"/><path d="M145.455 136.364h9.363v9.363h-9.363z"/><path d="M154.545 136.364h9.364v9.363h-9.364zM190.91 136.364h9.363v9.363h-9.364z"/><path d="M200 136.364h9.364v9.363H200z"/><path d="M209.09 136.364h9.365v9.363h-9.364z"/><path d="M218.182 136.364h9.363v9.363h-9.363z"/><path d="M227.273 136.364h9.363v9.363h-9.363z"/><path d="M236.364 136.364h9.363v9.363h-9.363zM272.727 136.364h9.364v9.363h-9.364zM36.364 145.455h9.363v9.363h-9.363z"/><path d="M45.455 145.455h9.363v9.363h-9.363zM63.636 145.455H73v9.363h-9.364z"/><path d="M72.727 145.455h9.364v9.363h-9.364z"/><path d="M81.818 145.455h9.364v9.363h-9.364zM100 145.455h9.364v9.363H100zM118.182 145.455h9.363v9.363h-9.363z"/><path d="M127.273 145.455h9.363v9.363h-9.363z"/><path d="M136.364 145.455h9.363v9.363h-9.363z"/><path d="M145.455 145.455h9.363v9.363h-9.363z"/><path d="M154.545 145.455h9.364v9.363h-9.364z"/><path d="M163.636 145.455H173v9.363h-9.364z"/><path d="M172.727 145.455h9.364v9.363h-9.364z"/><path d="M181.818 145.455h9.364v9.363h-9.364zM245.455 145.455h9.363v9.363h-9.363z"/><path d="M254.545 145.455h9.364v9.363h-9.364zM27.273 154.545h9.363v9.364h-9.363zM45.455 154.545h9.363v9.364h-9.363zM90.91 154.545h9.363v9.364h-9.364zM109.09 154.545h9.365v9.364h-9.364z"/><path d="M118.182 154.545h9.363v9.364h-9.363zM136.364 154.545h9.363v9.364h-9.363zM154.545 154.545h9.364v9.364h-9.364zM190.91 154.545h9.363v9.364h-9.364z"/><path d="M200 154.545h9.364v9.364H200zM263.636 154.545H273v9.364h-9.364zM18.182 163.636h9.363V173h-9.363z"/><path d="M27.273 163.636h9.363V173h-9.363z"/><path d="M36.364 163.636h9.363V173h-9.363z"/><path d="M45.455 163.636h9.363V173h-9.363z"/><path d="M54.545 163.636h9.364V173h-9.364zM72.727 163.636h9.364V173h-9.364z"/><path d="M81.818 163.636h9.364V173h-9.364zM145.455 163.636h9.363V173h-9.363z"/><path d="M154.545 163.636h9.364V173h-9.364zM172.727 163.636h9.364V173h-9.364zM190.91 163.636h9.363V173h-9.364zM227.273 163.636h9.363V173h-9.363zM245.455 163.636h9.363V173h-9.363z"/><path d="M254.545 163.636h9.364V173h-9.364zM18.182 172.727h9.363v9.364h-9.363z"/><path d="M27.273 172.727h9.363v9.364h-9.363z"/><path d="M36.364 172.727h9.363v9.364h-9.363zM54.545 172.727h9.364v9.364h-9.364z"/><path d="M63.636 172.727H73v9.364h-9.364zM81.818 172.727h9.364v9.364h-9.364z"/><path d="M90.91 172.727h9.363v9.364h-9.364zM118.182 172.727h9.363v9.364h-9.363z"/><path d="M127.273 172.727h9.363v9.364h-9.363zM154.545 172.727h9.364v9.364h-9.364z"/><path d="M163.636 172.727H173v9.364h-9.364zM190.91 172.727h9.363v9.364h-9.364zM209.09 172.727h9.365v9.364h-9.364z"/><path d="M218.182 172.727h9.363v9.364h-9.363z"/><path d="M227.273 172.727h9.363v9.364h-9.363z"/><path d="M236.364 172.727h9.363v9.364h-9.363zM254.545 172.727h9.364v9.364h-9.364zM272.727 172.727h9.364v9.364h-9.364zM18.182 181.818h9.363v9.364h-9.363zM36.364 181.818h9.363v9.364h-9.363z"/><path d="M45.455 181.818h9.363v9.364h-9.363z"/><path d="M54.545 181.818h9.364v9.364h-9.364zM72.727 181.818h9.364v9.364h-9.364zM100 181.818h9.364v9.364H100zM200 181.818h9.364v9.364H200z"/><path d="M209.09 181.818h9.365v9.364h-9.364zM227.273 181.818h9.363v9.364h-9.363z"/><path d="M236.364 181.818h9.363v9.364h-9.363zM254.545 181.818h9.364v9.364h-9.364zM18.182 190.91h9.363v9.363h-9.363zM36.364 190.91h9.363v9.363h-9.363z"/><path d="M45.455 190.91h9.363v9.363h-9.363z"/><path d="M54.545 190.91h9.364v9.363h-9.364z"/><path d="M63.636 190.91H73v9.363h-9.364zM81.818 190.91h9.364v9.363h-9.364zM100 190.91h9.364v9.363H100zM127.273 190.91h9.363v9.363h-9.363zM145.455 190.91h9.363v9.363h-9.363zM163.636 190.91H173v9.363h-9.364zM181.818 190.91h9.364v9.363h-9.364z"/><path d="M190.91 190.91h9.363v9.363h-9.364z"/><path d="M200 190.91h9.364v9.363H200z"/><path d="M209.09 190.91h9.365v9.363h-9.364z"/><path d="M218.182 190.91h9.363v9.363h-9.363z"/><path d="M227.273 190.91h9.363v9.363h-9.363z"/><path d="M236.364 190.91h9.363v9.363h-9.363zM263.636 190.91H273v9.363h-9.364zM18.182 200h9.363v9.364h-9.363zM36.364 200h9.363v9.364h-9.363zM54.545 200h9.364v9.364h-9.364z"/><path d="M63.636 200H73v9.364h-9.364z"/><path d="M72.727 200h9.364v9.364h-9.364zM118.182 200h9.363v9.364h-9.363z"/><path d="M127.273 200h9.363v9.364h-9.363zM163.636 200H173v9.364h-9.364z"/><path d="M172.727 200h9.364v9.364h-9.364zM200 200h9.364v9.364H200z"/><path d="M209.09 200h9.365v9.364h-9.364z"/><path d="M218.182 200h9.363v9.364h-9.363z"/><path d="M227.273 200h9.363v9.364h-9.363z"/><path d="M236.364 200h9.363v9.364h-9.363zM254.545 200h9.364v9.364h-9.364z"/><path d="M263.636 200H273v9.364h-9.364z"/><path d="M272.727 200h9.364v9.364h-9.364zM90.91 209.09h9.363v9.365h-9.364z"/><path d="M100 209.09h9.364v9.365H100z"/><path d="M109.09 209.09h9.365v9.365h-9.364zM127.273 209.09h9.363v9.365h-9.363z"/><path d="M136.364 209.09h9.363v9.365h-9.363z"/><path d="M145.455 209.09h9.363v9.365h-9.363z"/><path d="M154.545 209.09h9.364v9.365h-9.364zM181.818 209.09h9.364v9.365h-9.364zM200 209.09h9.364v9.365H200zM236.364 209.09h9.363v9.365h-9.363z"/><path d="M245.455 209.09h9.363v9.365h-9.363z"/><path d="M254.545 209.09h9.364v9.365h-9.364z"/><path d="M263.636 209.09H273v9.365h-9.364z"/><path d="M272.727 209.09h9.364v9.365h-9.364zM100 218.182h9.364v9.363H100zM127.273 218.182h9.363v9.363h-9.363z"/><path d="M136.364 218.182h9.363v9.363h-9.363z"/><path d="M145.455 218.182h9.363v9.363h-9.363z"/><path d="M154.545 218.182h9.364v9.363h-9.364z"/><path d="M163.636 218.182H173v9.363h-9.364zM190.91 218.182h9.363v9.363h-9.364z"/><path d="M200 218.182h9.364v9.363H200zM218.182 218.182h9.363v9.363h-9.363zM236.364 218.182h9.363v9.363h-9.363z"/><path d="M245.455 218.182h9.363v9.363h-9.363z"/><path d="M254.545 218.182h9.364v9.363h-9.364zM90.91 227.273h9.363v9.363h-9.364zM136.364 227.273h9.363v9.363h-9.363zM154.545 227.273h9.364v9.363h-9.364zM190.91 227.273h9.363v9.363h-9.364z"/><path d="M200 227.273h9.364v9.363H200zM236.364 227.273h9.363v9.363h-9.363zM90.91 236.364h9.363v9.363h-9.364zM127.273 236.364h9.363v9.363h-9.363zM145.455 236.364h9.363v9.363h-9.363z"/><path d="M154.545 236.364h9.364v9.363h-9.364zM172.727 236.364h9.364v9.363h-9.364zM200 236.364h9.364v9.363H200z"/><path d="M209.09 236.364h9.365v9.363h-9.364z"/><path d="M218.182 236.364h9.363v9.363h-9.363z"/><path d="M227.273 236.364h9.363v9.363h-9.363z"/><path d="M236.364 236.364h9.363v9.363h-9.363zM254.545 236.364h9.364v9.363h-9.364zM272.727 236.364h9.364v9.363h-9.364zM90.91 245.455h9.363v9.363h-9.364z"/><path d="M100 245.455h9.364v9.363H100zM118.182 245.455h9.363v9.363h-9.363zM136.364 245.455h9.363v9.363h-9.363zM154.545 245.455h9.364v9.363h-9.364z"/><path d="M163.636 245.455H173v9.363h-9.364zM200 245.455h9.364v9.363H200zM227.273 245.455h9.363v9.363h-9.363zM245.455 245.455h9.363v9.363h-9.363z"/><path d="M254.545 245.455h9.364v9.363h-9.364zM90.91 254.545h9.363v9.364h-9.364zM136.364 254.545h9.363v9.364h-9.363zM172.727 254.545h9.364v9.364h-9.364z"/><path d="M181.818 254.545h9.364v9.364h-9.364z"/><path d="M190.91 254.545h9.363v9.364h-9.364z"/><path d="M200 254.545h9.364v9.364H200z"/><path d="M209.09 254.545h9.365v9.364h-9.364z"/><path d="M218.182 254.545h9.363v9.364h-9.363z"/><path d="M227.273 254.545h9.363v9.364h-9.363z"/><path d="M236.364 254.545h9.363v9.364h-9.363z"/><path d="M245.455 254.545h9.363v9.364h-9.363z"/><path d="M254.545 254.545h9.364v9.364h-9.364z"/><path d="M263.636 254.545H273v9.364h-9.364zM127.273 263.636h9.363V273h-9.363zM145.455 263.636h9.363V273h-9.363zM163.636 263.636H173V273h-9.364zM181.818 263.636h9.364V273h-9.364zM200 263.636h9.364V273H200z"/><path d="M209.09 263.636h9.365V273h-9.364zM236.364 263.636h9.363V273h-9.363z"/><path d="M245.455 263.636h9.363V273h-9.363zM263.636 263.636H273V273h-9.364zM90.91 272.727h9.363v9.364h-9.364zM118.182 272.727h9.363v9.364h-9.363zM181.818 272.727h9.364v9.364h-9.364z"/><path d="M190.91 272.727h9.363v9.364h-9.364zM236.364 272.727h9.363v9.364h-9.363z"/><path d="M245.455 272.727h9.363v9.364h-9.363z"/><path d="M254.545 272.727h9.364v9.364h-9.364z"/><path d="M0 0v14h14V0H0Zm12 12H2V2h10v10Z" style="fill-rule:nonzero" transform="matrix(4.54546 0 0 4.54546 18.182 18.182)"/><path d="M0 0v14h14V0H0Zm12 12H2V2h10v10Z" style="fill-rule:nonzero" transform="matrix(4.54546 0 0 4.54546 218.182 18.182)"/><path d="M0 0v14h14V0H0Zm12 12H2V2h10v10Z" style="fill-rule:nonzero" transform="matrix(4.54546 0 0 4.54546 18.182 218.182)"/><path d="M36.364 36.364h27.272v27.272H36.364zM236.364 36.364h27.272v27.272h-27.272zM36.364 236.364h27.272v27.272H36.364z"/></svg>