<svg viewBox="0 0 100 236" xmlns="http://www.w3.org/2000/svg" xml:space="preserve" style="fill-rule:evenodd;clip-rule:evenodd;stroke-linecap:round;stroke-linejoin:round;stroke-miterlimit:1.5"><path d="m109 20-3-13s2.151-4 14-4 14 3 14 3l-3 14h-22Z" style="fill:#ca863e;stroke:#000;stroke-width:1px" transform="translate(-70.428 -2.5)"/><path d="M120 18c-6.819-.387-13 3-13 3s2.055 44.647-5 50c-7.055 5.353-24.189 13.021-28 26s-3 122-3 122 1.04 7.78 10 11c8.96 3.22 32.464 7.315 39 7 6.536-.315-6.536-.308 0 .007 6.536.314 30.04-3.78 39-7s10-11 10-11 .811-109.021-3-122-20.945-20.648-28-26c-7.055-5.353-5-50-5-50s-6.181-3.387-13-3" style="fill:#d5a04f;stroke:#000;stroke-width:1px" transform="translate(-70.428 -2.5)"/><path d="M120.904 123s16 .974 21 2 15 10 15 10v71s-8.417 11.665-25 12c-16.583.335-11 0-11 0H120s5.583.335-11 0-25-12-25-12v-71s10-8.974 15-10c5-1.026 21-2 21-2" style="fill:#bf6d00;stroke:#000;stroke-width:.96px" transform="matrix(1.02743 0 0 1.06306 -74.184 -19.39)"/><path d="M120.904 123s16 .974 21 2 15 10 15 10v71s-8.417 11.665-25 12c-16.583.335-11 0-11 0H120s5.583.335-11 0-25-12-25-12v-71s10-8.974 15-10c5-1.026 21-2 21-2" style="fill:url(#a);stroke:#000;stroke-width:1.03px" transform="matrix(.94513 0 0 1 -64.271 -8.634)"/><path d="M43.596 160.464c0 .797-.435 1.195-1.305 1.195-1.096 0-1.973-.413-2.628-1.238-.513-.64-.805-1.322-.876-2.048l-.179-1.749c-.119-1.109-.337-1.884-.653-2.325-.316-.441-.825-.654-1.528-.64v4.842c0 1.124.006 1.728.018 1.814 0 .242.083.409.25.501.167.093.483.139.947.139.287 0 .43.064.43.192 0 .114-.072.17-.215.17l-1.734-.021h-.286a9.39 9.39 0 0 1-.608.021h-1.288a4.63 4.63 0 0 1-.411-.021h-.25l-.823.021c-.166 0-.25-.056-.25-.17 0-.128.244-.206.733-.235.405-.028.644-.142.715-.341.036-.1.054-.398.054-.896v-10.987c0-.739-.012-1.177-.036-1.312a.424.424 0 0 0-.232-.309c-.167-.086-.435-.128-.805-.128-.262 0-.393-.064-.393-.192 0-.1.054-.16.161-.182.107-.021.393-.032.858-.032h.322c.214.015.423.022.626.022h.59c.012 0 .137-.007.375-.022h1.681c1.669 0 2.807.157 3.415.47a2.73 2.73 0 0 1 1.144 1.109 3.24 3.24 0 0 1 .429 1.643c0 1.365-.596 2.375-1.788 3.029-.524.285-1.299.498-2.324.64l-.018.128c1.299.1 2.241.509 2.825 1.227.584.718.936 1.881 1.055 3.488.095 1.28.244 2.08.447 2.4.202.32.411.48.626.48.178 0 .268-.057.268-.171 0-.057-.069-.135-.206-.235a.493.493 0 0 1-.205-.426c0-.384.178-.576.536-.576.358 0 .536.242.536.725Zm-4.523-10.773c0-1.835-.608-2.752-1.824-2.752-.393 0-.638.156-.733.469-.06.199-.089.974-.089 2.325v3.542c.929.014 1.603-.263 2.02-.832.417-.569.626-1.486.626-2.752Z" style="fill:#be6e00;fill-rule:nonzero" transform="matrix(1.19318 0 0 1 -10.5 8.258)"/><path d="M28.717 168.173a5.25 5.25 0 0 0 .005-.24v-10.987c0-.279-.006-.544-.012-.747-.079-.003-.168-.002-.269-.002-1.167 0-1.468-.715-1.468-1.192 0-.279.087-.51.23-.7a1.2 1.2 0 0 1 .797-.468c.15-.025.544-.046 1.188-.046h.385l.054.002c.238.013.468.02.692.02H31.024l.397-.02.05-.002h2.006c2.186 0 3.672.208 4.47.551a4.051 4.051 0 0 1 1.794 1.463c.46.67.687 1.405.687 2.208 0 1.677-.796 2.963-2.454 3.811.228.157.433.33.614.516.824.848 1.37 2.2 1.538 4.096.022.245.046.471.072.677.192-.073.417-.116.681-.116.555 0 .952.205 1.23.52.239.271.41.662.41 1.205 0 .596-.184 1.063-.494 1.421-.399.458-1.066.774-2.063.774-1.615 0-2.895-.53-3.86-1.548a4.792 4.792 0 0 1-.208-.229c.023.094.033.184.033.265 0 .344-.127.61-.334.816-.181.181-.47.354-.922.354h-.01l-2.059-.02h-.006s-.309 0-.292-.002c-.271.015-.528.022-.769.022H30c-.154 0-.33-.006-.528-.02h-.25l-.97.02h-.023c-.44 0-.726-.15-.901-.302a1.091 1.091 0 0 1-.397-.868c0-.285.095-.564.355-.804.165-.153.62-.382 1.432-.428Zm6.669.275a4.15 4.15 0 0 1-.598-1.696l-.214-1.745c-.108-.85-.256-1.462-.546-1.8a.632.632 0 0 0-.063-.065v3.617c0 .63.006 1.158.01 1.453.12.004.266.001.44.001.428 0 .743.094.97.235Zm6.133.274c0-.483-.213-.725-.64-.725-.427 0-.64.192-.64.576a.47.47 0 0 0 .245.426c.164.1.246.178.246.235 0 .114-.107.171-.32.171-.256 0-.506-.16-.747-.48-.242-.32-.42-1.12-.533-2.4-.142-1.607-.562-2.77-1.259-3.488-.697-.718-1.82-1.127-3.37-1.227l.02-.128c1.224-.142 2.149-.355 2.774-.64 1.422-.654 2.133-1.664 2.133-3.029 0-.598-.17-1.145-.512-1.643a3.075 3.075 0 0 0-1.365-1.109c-.725-.313-2.083-.47-4.074-.47H31.47a30.6 30.6 0 0 1-.448.022h-.704c-.242 0-.491-.007-.746-.022h-.385c-.554 0-.896.011-1.023.032-.128.022-.192.082-.192.182 0 .128.156.192.468.192.442 0 .762.042.96.128.157.071.25.174.278.31.028.134.043.572.043 1.311v10.987c0 .498-.022.796-.065.896-.084.2-.37.313-.853.341-.583.03-.874.107-.874.235 0 .114.1.17.298.17l.982-.02h.298c.185.013.349.02.49.02h1.537c.227 0 .47-.007.726-.02h.341l2.069.02c.17 0 .257-.056.257-.17 0-.128-.171-.192-.514-.192-.553 0-.93-.046-1.13-.139-.199-.092-.298-.259-.298-.5-.014-.087-.021-.69-.021-1.815v-4.842c.839-.014 1.446.2 1.823.64.377.441.637 1.216.78 2.325l.213 1.75c.084.725.433 1.407 1.045 2.047.781.825 1.828 1.238 3.136 1.238 1.038 0 1.557-.398 1.557-1.195Zm-5.397-10.773c0 1.266-.25 2.183-.747 2.752-.498.57-1.302.846-2.41.832v-3.542c0-1.35.034-2.126.106-2.325.113-.313.406-.469.875-.469 1.45 0 2.176.917 2.176 2.752Zm-2.107-1.75c-.02.352-.05 1.033-.05 1.792v2.441c.27-.076.492-.2.657-.39.376-.429.5-1.138.5-2.093 0-.724-.085-1.258-.428-1.547-.17-.144-.401-.197-.68-.204Z"/><path d="M54.717 146.747c0 .114-.202.178-.608.192-.5.014-.804.114-.911.298-.036.057-.06.178-.072.363v9.024c0 3.357-1.347 5.035-4.041 5.035-1.382 0-2.455-.505-3.218-1.515-.572-.754-.858-2.091-.858-4.011v-8.192c0-.455-.06-.732-.179-.832-.119-.099-.495-.177-1.126-.234-.132-.014-.197-.071-.197-.171 0-.128.107-.192.322-.192h.143c.107.014.196.021.268.021l1.109.022a62.3 62.3 0 0 0 3.111-.022h.375c.203 0 .304.072.304.214 0 .128-.185.192-.554.192-.525 0-.805.114-.841.341a3.095 3.095 0 0 0-.035.448v7.979c0 1.152.017 1.884.053 2.197.084.925.304 1.593.662 2.005.441.512 1.019.768 1.734.768.811 0 1.407-.312 1.788-.938.465-.754.697-2.105.697-4.054v-7.04c0-.128.006-.291.018-.49v-.363c0-.37-.089-.611-.268-.725-.119-.086-.352-.128-.697-.128-.429-.014-.644-.1-.644-.256 0-.114.083-.171.25-.171.179 0 .441.011.787.032.346.021.608.032.787.032l.304-.021h.983c.37 0 .554.064.554.192Z" style="fill:#be6e00;fill-rule:nonzero" transform="matrix(1.19318 0 0 1 -10.5 8.258)"/><path d="M41.797 153.783a.997.997 0 0 1 .28-.007 1.843 1.843 0 0 0 .227.016l1.32.021c1.234.014 2.146.014 2.735 0h.006l.862-.017c.03-.003.062-.004.095-.005h.351c.035 0 .067.002.097.005v-.005c.471 0 .778.161.966.327.253.224.396.514.396.887 0 .352-.134.68-.498.926-.182.122-.559.266-1.163.266h-.045v7.768c0 1.081.014 1.768.055 2.062l.004.028c.068.634.196 1.111.489 1.393l.002.003c.347.337.81.484 1.372.484.592 0 1.047-.144 1.325-.526l.003-.005c.472-.64.637-1.804.637-3.46v-7.04c0-.139.008-.314.022-.525v-.177a2.66 2.66 0 0 0-.152-.005h-.028c-.659-.019-1.068-.185-1.266-.33a1.097 1.097 0 0 1-.474-.926c0-.365.142-.65.397-.869.176-.15.462-.302.901-.302.226 0 .556.011.99.033.37.02.656.03.856.031 0 0 .141-.007.332-.019.021-.002.042-.002.063-.002h1.173c.605 0 .982.143 1.163.266.364.247.498.573.498.926 0 .281-.093.548-.332.78-.156.151-.586.388-1.364.411h-.006a2.744 2.744 0 0 0-.196.014v8.672c0 1.993-.529 3.471-1.484 4.468-.967 1.011-2.401 1.567-4.338 1.567-1.973 0-3.492-.636-4.582-1.844-.8-.884-1.281-2.43-1.281-4.682v-8.189a9.573 9.573 0 0 0-.633-.072h-.015c-.408-.038-.667-.207-.83-.378a1.1 1.1 0 0 1-.314-.79c0-.295.097-.542.275-.749.177-.207.517-.443 1.109-.443v.013Zm5.064.173-.094.036a1.01 1.01 0 0 0-.292.331c.082-.025.174-.048.275-.066a.501.501 0 0 1 .11-.3Zm7.927 1.05c0-.129-.22-.193-.661-.193h-1.173l-.363.021c-.213 0-.526-.01-.939-.032a20.197 20.197 0 0 0-.939-.032c-.199 0-.298.057-.298.171 0 .156.257.242.768.256.412 0 .69.042.832.128.214.114.32.355.32.725v.363a7.079 7.079 0 0 0-.022.49v7.04c0 1.95-.276 3.3-.831 4.054-.455.626-1.166.938-2.134.938-.853 0-1.542-.256-2.069-.768-.427-.412-.69-1.08-.79-2.005-.042-.313-.063-1.045-.063-2.197v-7.979c0-.142.015-.29.042-.448.043-.227.377-.34 1.003-.34.44 0 .661-.065.661-.193 0-.142-.12-.214-.362-.214h-.448a88.692 88.692 0 0 1-3.712.022l-1.323-.022a3.02 3.02 0 0 1-.32-.02h-.17c-.257 0-.385.063-.385.191 0 .1.078.157.236.171.752.057 1.201.135 1.343.234.142.1.214.377.214.832v8.192c0 1.92.34 3.257 1.023 4.011.91 1.01 2.191 1.515 3.84 1.515 3.214 0 4.822-1.678 4.822-5.035v-9.024c.014-.185.043-.306.086-.363.127-.184.49-.284 1.087-.298.484-.014.725-.078.725-.192Z"/><path d="M68.681 161.147c0 .142-.119.213-.357.213h-.126c-.262 0-.724-.007-1.385-.021a78.82 78.82 0 0 0-1.475-.022c-.131 0-.406.008-.823.022h-2.092c-.166 0-.25-.064-.25-.192s.084-.192.25-.192l.608.021c.549.014.882-.099 1.002-.341.035-.071.053-.498.053-1.28l-.018-11.563c-.381 1.181-.882 3.058-1.502 5.632l-1.555 6.528c-.191.797-.346 1.195-.465 1.195-.131 0-.25-.199-.358-.598l-1.144-4.096c-.274-.981-1.019-3.733-2.235-8.256v11.03c0 .64.006 1.02.018 1.141a.465.465 0 0 0 .161.309c.179.185.483.271.912.256.429-.014.644.064.644.235 0 .1-.09.149-.269.149l-1.591-.042a7.443 7.443 0 0 0-.948.021 19.26 19.26 0 0 1-.965.043c-.25 0-.375-.064-.375-.192 0-.114.101-.171.303-.171.477 0 .763-.007.859-.021.369-.057.584-.221.643-.491.036-.171.054-.526.054-1.067v-10.176c0-1.137-.057-1.802-.17-1.994-.113-.192-.539-.288-1.278-.288-.191 0-.286-.064-.286-.192 0-.142.101-.206.304-.192l.482.021 3.38-.021c.035 0 .101.007.196.021a854.125 854.125 0 0 0 2.575 9.813l2.414-9.834h.375l2.36.021h.304c.179-.014.34-.021.483-.021h.822c.239 0 .358.064.358.192 0 .142-.072.206-.215.192l-.411-.022c-.5-.028-.837.029-1.01.171-.173.142-.259.42-.259.832 0 .114.006.363.018.747.011.384.017 2.169.017 5.354v5.952c0 .512.111.808.331.886.221.078.549.11.984.096.435-.014.652.05.652.192Z" style="fill:#be6e00;fill-rule:nonzero" transform="matrix(1.19318 0 0 1 -10.5 8.258)"/><path d="M55.616 168.225c.007-.145.007-.335.007-.57V157.48c0-.47-.034-.944-.06-1.24a6.468 6.468 0 0 0-.668-.042c-.454 0-.75-.152-.931-.305a1.106 1.106 0 0 1-.41-.887c0-.39.157-.686.423-.905.192-.159.506-.31.984-.286l.548.02 4.01-.02h.006c.064 0 .185.006.358.028a.997.997 0 0 1 .832.7c.767 2.497 1.459 4.725 2.076 6.684l1.96-6.694a1 1 0 0 0 .314 1.044c.079-.146.19-.267.323-.356-.273-.59-.502-1.407.33-1.407h.344c.037 0 .072.002.104.006v-.006l2.813.021s.326 0 .316.001c.229-.015.435-.022.619-.022h.98c1.132 0 1.428.683 1.428 1.192 0 .451-.193.752-.464.954-.197.15-.48.267-.875.234l-.408-.017h-.03l-.018-.002a3.86 3.86 0 0 0-.466.013c0 .112.007.346.02.701.014.386.023 2.184.023 5.391v5.93c.151.01.331.01.54.004.65-.018 1.062.112 1.258.232.404.247.547.591.547.96 0 .3-.099.55-.279.76-.182.213-.535.453-1.146.453h-.15c-.317 0-.874-.007-1.671-.02-.782-.015-1.363-.023-1.742-.023-.153 0-.47.008-.954.021l-.028.001h-2.496c-.462 0-.76-.17-.945-.35a1.122 1.122 0 0 1-.295-.46c-.075.127-.144.22-.203.277-.27.27-.556.341-.797.341-.4 0-1.046-.265-1.376-1.284l-1.365-4.093c-.138-.416-.378-1.149-.718-2.2v4.657l.002.691c.085.01.187.018.272.016.69-.019 1.12.15 1.326.305.33.247.47.564.47.93 0 .295-.102.544-.292.752-.165.18-.48.396-1.029.396h-.021l-1.9-.042h-.02a9.307 9.307 0 0 0-1.021.02h-.017c-.593.03-.994.044-1.202.044-1.149 0-1.448-.7-1.448-1.192 0-.51.28-1.17 1.363-1.17.434 0 .717-.002.85-.01Zm7.675.152c.173-.096.4-.164.692-.164h.03l.719.021c.072.002.152-.002.224-.008.006-.175.011-.39.011-.613l-.01-5.102-1.666 5.866Zm8.159 1.028c0-.142-.26-.206-.778-.192-.52.014-.91-.018-1.174-.096-.263-.078-.395-.374-.395-.886v-5.952c0-3.185-.008-4.97-.02-5.354a26.32 26.32 0 0 1-.022-.747c0-.412.102-.69.309-.832.206-.142.608-.199 1.205-.17l.49.021c.171.014.257-.05.257-.192 0-.128-.142-.192-.427-.192h-.981c-.17 0-.363.007-.576.021h-.363l-2.816-.02h-.447l-2.88 9.833a745.393 745.393 0 0 1-3.073-9.813 2.308 2.308 0 0 0-.234-.02l-4.033.02-.575-.02c-.242-.015-.363.05-.363.191 0 .128.114.192.341.192.882 0 1.39.096 1.525.288.135.192.203.857.203 1.994v10.176c0 .541-.021.896-.064 1.067-.07.27-.327.434-.768.491-.114.014-.455.021-1.024.021-.241 0-.362.057-.362.171 0 .128.15.192.447.192.2 0 .584-.014 1.152-.043a10.59 10.59 0 0 1 1.131-.02l1.898.041c.214 0 .321-.049.321-.149 0-.17-.256-.249-.768-.235-.512.015-.875-.07-1.088-.256a.447.447 0 0 1-.192-.309c-.015-.12-.022-.5-.022-1.14v-11.03c1.451 4.522 2.34 7.274 2.667 8.255l1.365 4.096c.129.4.27.598.427.598.142 0 .327-.398.555-1.195l1.855-6.528c.74-2.574 1.338-4.45 1.792-5.632l.022 11.563c0 .782-.022 1.21-.063 1.28-.143.242-.54.355-1.196.341l-.725-.02c-.198 0-.299.063-.299.191s.1.192.299.192h2.496c.497-.014.825-.022.982-.022.384 0 .97.008 1.76.022.788.014 1.34.021 1.652.021h.15c.285 0 .427-.07.427-.213Z"/><path d="m107.335 34.795 25.368.203S133 45.167 133 51c0 5-8.917 6.901-12.548 7-4.148.113-13.452-2-13.452-7 0-5.415.335-16.205.335-16.205Z" style="fill:#fff;fill-opacity:.56;stroke:#000;stroke-width:1px" transform="translate(-70.428 -2.5)"/><path d="M25.295 84.122s-9.463 3.327-12.146 9.7c-2.683 6.373-4.532 17.228-4.532 17.228s5.937-13.09 13.475-15.608c7.538-2.518 8.088-4.014 8.088-4.014l-4.885-7.306Z" style="fill:#fff;fill-opacity:.67;stroke:#000;stroke-width:1px"/><defs><radialGradient id="a" cx="0" cy="0" r="1" gradientUnits="userSpaceOnUse" gradientTransform="matrix(36.452 0 0 47.5745 120.452 170.575)"><stop offset="0" style="stop-color:#fff900;stop-opacity:1"/><stop offset="1" style="stop-color:#ffc100;stop-opacity:1"/></radialGradient></defs></svg>