<svg viewBox="0 0 100 236" xmlns="http://www.w3.org/2000/svg" xml:space="preserve" style="fill-rule:evenodd;clip-rule:evenodd;stroke-linecap:round;stroke-linejoin:round;stroke-miterlimit:1.5"><path d="m109 20-3-13s2.151-4 14-4 14 3 14 3l-3 14h-22Z" style="fill:#ca863e;stroke:#000;stroke-width:1px" transform="translate(-70.428 -2.5)"/><path d="M120 18c-6.819-.387-13 3-13 3s2.055 44.647-5 50c-7.055 5.353-24.189 13.021-28 26s-3 122-3 122 1.04 7.78 10 11c8.96 3.22 32.464 7.315 39 7 6.536-.315-6.536-.308 0 .007 6.536.314 30.04-3.78 39-7s10-11 10-11 .811-109.021-3-122-20.945-20.648-28-26c-7.055-5.353-5-50-5-50s-6.181-3.387-13-3" style="fill:#d5a04f;stroke:#000;stroke-width:1px" transform="translate(-70.428 -2.5)"/><path d="M120.904 123s16 .974 21 2 15 10 15 10v71s-8.417 11.665-25 12c-16.583.335-11 0-11 0H120s5.583.335-11 0-25-12-25-12v-71s10-8.974 15-10c5-1.026 21-2 21-2" style="fill:#bf6d00;stroke:#000;stroke-width:.96px" transform="matrix(1.02743 0 0 1.06306 -73.732 -13.256)"/><path d="M120.904 123s16 .974 21 2 15 10 15 10v71s-8.417 11.665-25 12c-16.583.335-11 0-11 0H120s5.583.335-11 0-25-12-25-12v-71s10-8.974 15-10c5-1.026 21-2 21-2" style="fill:#ffce00;stroke:#000;stroke-width:1.03px" transform="matrix(.94513 0 0 1 -63.819 -2.5)"/><ellipse cx="127" cy="170.5" rx="14" ry="18.5" style="fill:#efefef;stroke:#000;stroke-width:1.22px" transform="matrix(1.17857 0 0 1 -99.654 -2.425)"/><path d="m107.335 34.795 25.368.203S133 45.167 133 51c0 5-8.917 6.901-12.548 7-4.148.113-13.452-2-13.452-7 0-5.415.335-16.205.335-16.205Z" style="fill:#fff;fill-opacity:.56;stroke:#000;stroke-width:1px" transform="translate(-70.428 -2.5)"/><path d="M25.295 84.122s-9.463 3.327-12.146 9.7c-2.683 6.373-4.532 17.228-4.532 17.228s5.937-13.09 13.475-15.608c7.538-2.518 8.088-4.014 8.088-4.014l-4.885-7.306Z" style="fill:#fff;fill-opacity:.67;stroke:#000;stroke-width:1px"/></svg>