<svg clip-rule="evenodd" fill-rule="evenodd" stroke-linecap="round" stroke-linejoin="round" stroke-miterlimit="1.5" viewBox="0 0 822 664" xml:space="preserve" xmlns="http://www.w3.org/2000/svg"><path d="m582.752 562.31-49.094-193.2M585.882 562.29c-15.446-67.533-30.893-135.07-46.34-202.6M480.402 556.52l-26.356-33.012M495.792 558.48l-43.033-42.927M473.652 555.61l.259-87.55M461.452 517.13l98.154-36.813M336.822 529.17c-5.334-3.414-16.001-10.242-23.878-15.549-7.89-5.317-18.274-12.674-23.465-16.352M327.602 528.96c-6.216-3.649-18.647-10.946-26.116-16.162-6.573-4.59-14.656-11.617-18.698-15.13M253.222 501.29c-2.156-6.675-6.47-20.024-7.311-30.419-1.279-15.8-.668-48.188-.362-64.381" fill="none" stroke="#000" stroke-width="2"/><path d="M306.952 532.55c-10.585-11.478-31.755-34.433-41.741-55.24-10.138-21.123-16.104-54.708-19.087-71.5" fill="none" stroke="#000" stroke-width="2"/><path d="M165.672 464.41c16.44 5.571 49.322 16.713 75.012 18.429 27.207 1.818 67.89-4.41 88.231-7.524M18.812 400.4c20.122 16.024 60.366 48.072 85.517 59.091 20.08 8.797 50.288 7.614 65.391 7.022M127.572 545.98c6.139-7.731 18.418-23.195 26.233-35.736 7.96-12.774 17.004-31.529 21.526-40.906" fill="none" stroke="#000" stroke-width="2"/><path d="M85.322 426.61c35.539 13.066 106.62 39.197 141.12 49.574 21.418 6.442 51.063 10.607 65.885 12.689M17.722 399.95l149.32 90.663M17.612 400.39c25.853 23.37 77.557 70.108 101.84 73.331 20.613 2.736 48.445-.164 62.36-1.613" fill="none" stroke="#000" stroke-width="2"/><path d="M17.942 399.55c31.248 33.199 93.744 99.598 152.94 115.81 9.695 2.655 24.682 3.088 32.176 3.305" fill="none" stroke="#000" stroke-width="2"/><path d="M17.842 399.76c21.425 24.787 64.274 74.36 124.28 90.533 44.205 11.913 146.83 7.095 146.83 7.095l3.401-28.107M487.452 467.54l3.468 93.459M331.062 450.62c41.319 34.341 82.637 68.682 123.96 103.02" fill="none" stroke="#000" stroke-width="2"/><path d="M201.272 520.45s53.521 7.576 73.485.342c18.724-6.785 46.303-43.749 46.303-43.749" fill="none" stroke="#000" stroke-width="2"/><path d="M397.162 547.85c15.357-70.492 30.713-140.98 46.07-211.48" fill="none" stroke="#000" stroke-width="4"/><path d="M123.392 547.44s28.208 16.744 56.916 7.464c28.759-9.296 53.093-45.991 53.093-45.991" fill="none" stroke="#000" stroke-width="2"/><path d="m803.812 502.23-189.85 28.911" fill="none" stroke="#000" stroke-width="4"/><path d="m408.852 554.7 34.389-218.32M423.292 555.22l19.949-218.85" fill="none" stroke="#000" stroke-width="2"/><path d="M597.27 680.57c4.774 3.015 11.493 4.184 13.758 2.611" fill="none" stroke="#000" stroke-width="2.12" transform="matrix(.86162 0 0 1.0152 -112.326 -163.556)"/><path d="M600.46 681.64c4.914 1.831 8.702 2.841 11.821 2.264" fill="none" stroke="#000" stroke-width="2.12" transform="matrix(.86162 0 0 1.0152 -103.437 -162.269)"/><path d="M599.96 682.91c4.913 1.832 12.57 2.501 15.689 1.924" fill="none" stroke="#000" stroke-width="2.14" transform="matrix(.86081 -.04395 .0373 1.0143 -117.295 -133.985)"/><path d="M597.27 680.57c4.774 3.015 11.493 4.184 13.758 2.611" fill="none" stroke="#000" stroke-width="2.34" transform="matrix(.8257 0 0 .88449 -88.44 -85.081)"/><path d="M600.46 681.64c4.914 1.831 8.702 2.841 11.821 2.264" fill="none" stroke="#000" stroke-width="2.34" transform="matrix(.8257 0 0 .88449 -79.921 -83.96)"/><path d="M599.96 682.91c4.913 1.832 12.57 2.501 15.689 1.924" fill="none" stroke="#000" stroke-width="2.34" transform="matrix(.82493 -.03829 .03574 .88366 -93.2 -59.318)"/><path d="M597.27 680.57c4.774 3.015 11.493 4.184 13.758 2.611" fill="none" stroke="#000" stroke-width="3.05" transform="matrix(.74928 0 0 .54716 -40.454 135.14)"/><path d="M600.46 681.64c4.914 1.831 8.702 2.841 11.821 2.264" fill="none" stroke="#000" stroke-width="3.05" transform="matrix(.74928 0 0 .54716 -32.723 135.83)"/><path d="M599.96 682.91c4.913 1.832 12.57 2.501 15.689 1.924" fill="none" stroke="#000" stroke-width="3.01" transform="matrix(.74858 -.02369 .03244 .54665 -44.774 151.08)"/><path d="M597.27 680.57c4.774 3.015 11.493 4.184 13.758 2.611" fill="none" stroke="#000" stroke-width="2.68" transform="matrix(.7353 0 0 .75494 -29.07 -18.55)"/><path d="M600.46 681.64c4.914 1.831 8.702 2.841 11.821 2.264" fill="none" stroke="#000" stroke-width="2.68" transform="matrix(.7353 0 0 .75494 -21.484 -17.59)"/><path d="M599.96 682.91c4.913 1.832 12.57 2.501 15.689 1.924" fill="none" stroke="#000" stroke-width="2.69" transform="matrix(.73461 -.03268 .03183 .75424 -33.31 3.44)"/><path d="M492.522 486.24c5.271 3.351 7.874 1.6 9.176.725M495.255 498.105c5.271 3.351 8.756 2.655 10.498 2.308M498.875 511.135c4.774 3.015 8.966 3.644 11.231 2.071M501.475 522.865c4.775 3.015 9.628 4.513 11.893 2.94M506.845 541.555c4.774 3.015 11.493 4.184 13.758 2.611M502.839 487.507c5.271 3.351 7.874 1.6 9.176.725M489.741 474.86c5.271 3.351 7.874 1.6 9.176.725M498.778 475.948c5.271 3.351 7.845 1.581 9.131.696M505.572 499.373c5.271 3.351 8.759 2.029 10.503 1.369M509.192 512.403c4.774 3.015 8.966 3.644 11.231 2.071M514.472 525.413c4.774 3.015 6.685 2.32 9.217 1.653M520.352 543.893c4.914 1.831 8.702 2.841 11.821 2.264M513.275 489.543c5.411 3.12 8.968.83 10.746-.316M508.718 478.17c5.411 3.12 9.248 1.24 11.166.3M516.52 501.28c5.41 3.12 9.928 1.164 12.188.187M520.7 514.14c4.9 2.806 11.457 2.422 13.651.752M526.538 526.91c4.9 2.805 10.11.815 12.61.038M532.768 546.408c4.988 1.618 12.667 1.955 15.758 1.243" fill="none" stroke="#000" stroke-width="2"/><path d="M586.26 640.14c3.977 5.014 10.466 1.62 13.71-.077" fill="none" stroke="#000" stroke-width="2.2" transform="matrix(.72339 .30637 -.39724 .93795 411.292 -290.99)"/><path d="M586.04 639.02c5.016 5.358 11.677 2.15 15.007.547" fill="none" stroke="#000" stroke-width="2.2" transform="matrix(.72339 .30637 -.39724 .93795 408.262 -279.38)"/><path d="M590.85 657.21c4.774 3.015 12.984 1.969 15.248.396" fill="none" stroke="#000" stroke-width="2.2" transform="matrix(.72339 .30637 -.39724 .93795 408.262 -282.38)"/><path d="M592.62 667.36c4.774 3.015 14.578 2.766 16.842 1.193M597.27 680.57c4.774 3.015 14.046.942 16.311-.631" fill="none" stroke="#000" stroke-width="2.2" transform="matrix(.72339 .30637 -.39724 .93795 408.262 -279.38)"/><path d="M589.96 638.39c5.271 3.351 8.544.932 10.181-.277" fill="none" stroke="#000" stroke-width="2.2" transform="matrix(.72339 .30637 -.39724 .93795 418.252 -286.64)"/><path d="M585.16 636.91c5.271 3.351 10.504.199 13.121-1.378" fill="none" stroke="#000" stroke-width="2.2" transform="matrix(.72339 .30637 -.39724 .93795 413.802 -302.51)"/><path d="M588.09 634.23c4.989 1.779 8.958.082 10.942-.767" fill="none" stroke="#000" stroke-width="2.2" transform="matrix(.72339 .30637 -.39724 .93795 420.762 -298.17)"/><path d="M591.47 638.46c5.271 3.351 8.732-.384 10.462-2.251" fill="none" stroke="#000" stroke-width="2.2" transform="matrix(.72339 .30637 -.39724 .93795 415.222 -275.03)"/><path d="M596.66 656.57c3.848 1.053 9.021-.613 11.285-2.186" fill="none" stroke="#000" stroke-width="2.2" transform="matrix(.72339 .30637 -.39724 .93795 415.222 -277.03)"/><path d="M600.26 666.59c4.774 3.015 9.044-.094 11.576-.761M603.67 679.6c3.999.166 9.457-1.305 11.435-3.96" fill="none" stroke="#000" stroke-width="2.2" transform="matrix(.72339 .30637 -.39724 .93795 415.222 -275.03)"/><path d="M590.64 636.62c5.271 3.35 8.165-.008 9.612-1.688" fill="none" stroke="#000" stroke-width="2.22" transform="matrix(.73991 .26548 -.36555 .95034 395.142 -265.49)"/><path d="M589.42 631.23c5.27 3.351 7.48.669 8.584-.672" fill="none" stroke="#000" stroke-width="2.22" transform="matrix(.73991 .26548 -.36555 .95034 397.242 -277.04)"/><path d="M591.62 635.22c5.27 3.351 8.631.673 10.312-.667" fill="none" stroke="#000" stroke-width="2.22" transform="matrix(.73991 .26548 -.36555 .95034 392.522 -253.83)"/><path d="M595.41 650.68c4.775 3.015 9.406.41 11.67-1.163" fill="none" stroke="#000" stroke-width="2.22" transform="matrix(.73991 .26548 -.36555 .95034 392.522 -254.83)"/><path d="M600.15 664.62c5.953.634 7.926-2.91 10.457-3.578M602.34 674.42c4.914 1.832 7.799-3.874 10.918-4.451" fill="none" stroke="#000" stroke-width="2.22" transform="matrix(.73991 .26548 -.36555 .95034 392.522 -253.83)"/><path d="m538.352 474.5 40.782 89.076M556.342 475.29l56.429 69.179M292.082 488.79c7.316 9.063 10.202 17.87 17.518 26.933 6.557 8.124 17.543 16.504 24.1 24.628M54.652 412.72c46.277 20.121 103.25 39.758 149.78 50.077 46.166 10.239 81.365 20.411 128.3 11.594M146.132 539.65l133.75-90.817M222.732 516.03l36.168 57.175M165.482 533.62c22.764 1.567 38.483 6.566 61.247 8.134 17.521 1.206 42.088-1.018 59.609.188M18.092 400.41c46.938 44.516 93.875 89.032 140.81 133.55M311.262 452.16c11.206 5.116 33.618 15.347 42.132 15.302 5.986-.031 7.96-10.392 8.947-15.572" fill="none" stroke="#000" stroke-width="2"/><path d="M353.532 467c4.411 13.361 13.233 40.084 21.146 53.782 6.458 11.181 19.707 22.666 26.331 28.408M311.022 450.22s13.585 37.836 20.795 53.093c6.579 13.919 22.47 38.45 22.47 38.45M203.182 483.83l249.1-338.85M193.262 476.5l262.14-351.31M592.472 20.45l-97.088 88.14M455.482 1s-70.499 116.27-110.97 162.66c-36.412 41.747-131.85 115.73-131.85 115.73" fill="none" stroke="#000" stroke-width="2"/><path d="M455.482 1s12.379 47.578-82.633 155.06c-36.688 41.505-85.014 82.224-85.014 82.224" fill="none" stroke="#000" stroke-width="2"/><path d="m255.042 499.2 192.23-164.79M116.772 549.89l217.08-76.918M411.082 108.49l80.085-82.531M384.872 221.87l130.49-82.713M513.572 389.01l192.72-60.774M541.002 125.31l108.83-72.403M527.383 234.97c52.356-24.797 104.71-49.595 157.07-74.392" fill="none" stroke="#000" stroke-width="4"/><path d="M512.702 562.96S478.101 444.14 466.155 357C449.91 238.5 456.718 1 456.718 1" fill="none" stroke="#000" stroke-width="2"/><path d="M358.612 547.63s117.28-93.641 180.69-154.59c95.878-92.162 141.48-229.29 141.48-229.29" fill="none" stroke="#000" stroke-width="2"/><path d="M373.752 550.87s107.96-90.834 170.31-152.87c80.025-79.619 136.71-234.25 136.71-234.25" fill="none" stroke="#000" stroke-width="2"/><path d="M426.192 558.91s59.479-71.928 117.35-142.09c74.822-90.716 137.24-253.06 137.24-253.06M530.872 581.14s14.268-24.901 38.419-112.59c26.073-94.671 36.761-139.22 36.761-139.22" fill="none" stroke="#000" stroke-width="2"/><path d="M531.092 573.96s-45.605-121.4-57.552-208.54C457.295 246.92 456.713 1 456.713 1" fill="none" stroke="#000" stroke-width="2"/><path d="M543.502 573.96s-51.159-122.72-63.105-209.86C464.152 245.6 456.716.99 456.716.99" fill="none" stroke="#000" stroke-width="2"/><path d="M560.072 574.12s-60.513-126.74-72.459-213.88C471.367 241.74 456.711 1 456.711 1M564.642 564.02c9.562-57.994 25.754-107.32 35.316-165.31 11.108-67.367 26.695-210.77 26.695-210.77" fill="none" stroke="#000" stroke-width="2"/><path d="M578.282 568.47c9.563-57.994 19.706-110.87 29.268-168.86 11.108-67.367 19.11-211.66 19.11-211.66" fill="none" stroke="#000" stroke-width="2"/><path d="M587.992 568.47c9.562-57.994 15.615-102.33 25.177-160.32 11.108-67.366 13.486-220.2 13.486-220.2" fill="none" stroke="#000" stroke-width="2"/><path d="M600.062 550.67c9.562-57.994 8.444-78.315 18.006-136.31 11.108-67.367 8.584-226.42 8.584-226.42" fill="none" stroke="#000" stroke-width="2"/><path d="m743.64 673.87 4.315 23.551" fill="none" stroke="#000" stroke-width="1.94" transform="matrix(1.0237 0 0 1.0389 -79.795 -177.172)"/><path d="M761.472 508.24c4.536 3.754 13.61 11.262 24.648 9.834 6.525-.845 11.767-10.738 14.388-15.684M651.002 523.2l4.315 23.551M701.972 519.43l10.328 26.085M719.902 515.57l9.057 29.035M729.402 514.25l7.403 29.522M741.982 511.75l.914 30.14M760.932 509.31l-23.091 34.116M760.932 509.31l14.176 29.409M669.399 523.828l4.315 23.55" fill="none" stroke="#000" stroke-width="2"/><path d="m743.64 673.87 4.315 23.551" fill="none" stroke="#000" stroke-width="1.46" transform="matrix(1.5309 0 0 1.1783 -447.088 -274.38)"/><path d="M592.822 15.54c-5.72-.103 19.689 534.57 19.689 534.57l34.317.619s-48.287-535.08-54.006-535.19z" fill="#A00B0B" stroke="#000"/><path d="M684.75 153.98c-7.236-.558-41.32 542.05-41.32 542.05l43.418 3.351s5.138-544.84-2.098-545.4z" fill="#A00B0B" stroke="#000" stroke-width="1.29" transform="matrix(.42165 0 0 1.008 165.082 -149.499)"/><path d="m595.232 544.85-1.794 18.926-25.003.548-8.739 5.718-36.383.549 2.877 11.615 119.66 8.864 157.19-36.903 2.444-20.147s-58.494 9.517-88.027 11.038c-35.041 1.805-122.22-.208-122.22-.208z" fill="none"/><path d="M595.322 540.85s86.965 2.013 121.92.213c29.387-1.514 87.591-10.992 87.591-10.992a3.998 3.998 0 0 1 4.613 4.429l-2.444 20.148a3.999 3.999 0 0 1-3.057 3.412l-157.19 36.903a3.998 3.998 0 0 1-1.209.095l-119.66-8.863a4.002 4.002 0 0 1-3.587-3.028l-2.877-11.616a3.999 3.999 0 0 1 3.823-4.961l35.223-.531 7.769-5.083a3.992 3.992 0 0 1 2.102-.652l21.445-.47 1.458-15.382a4.001 4.001 0 0 1 4.075-3.622zm-.093 3.999-1.794 18.926-25.003.548-8.739 5.718-36.383.549 2.877 11.615 119.66 8.864 157.19-36.903 2.444-20.147s-58.494 9.517-88.027 11.038c-35.041 1.805-122.22-.208-122.22-.208z"/><path d="m595.232 544.85-1.794 18.926-25.003.548-8.739 5.718-36.383.549 2.877 11.615 119.66 8.864 157.19-36.903 2.444-20.147s-58.494 9.517-88.027 11.038c-35.041 1.805-122.22-.208-122.22-.208z" stroke="#FFF19F" stroke-width="2"/><path d="m260.422 545.88 1.289 15.927s35.652 28.677 122.88 36.475c83.824 7.493 213.86 18.133 262.25 17.343 80.281-1.313 170.23-27.333 170.23-27.333s-.871-13.126-2.013-19.396c-1.265-6.949-5.578-22.302-5.578-22.302s-35.85 8.884-52.644 10.464c-21.507 2.023-76.398 1.677-76.398 1.677l-1.051 10.421-46.764 1.87.964 9.867-109.01-5.545-5.888-11.602-186.15-22.705.184 16.063s-25.411-1.278-37.391-3.138c-12.051-1.87-34.916-8.086-34.916-8.086z" fill="none"/><path d="M261.462 542.02s22.579 6.146 34.48 7.994c8.833 1.371 25.048 2.418 32.729 2.862l-.135-11.789a4 4 0 0 1 4.484-4.016l186.15 22.704a4.004 4.004 0 0 1 3.083 2.161l4.839 9.535 102.06 5.191-.513-5.247a3.998 3.998 0 0 1 3.821-4.386l43.293-1.731.702-6.964a4 4 0 0 1 4.005-3.599s54.604.353 75.998-1.66c16.608-1.562 52.057-10.363 52.057-10.363a4 4 0 0 1 4.813 2.8s4.377 15.605 5.663 22.668c1.168 6.416 2.068 19.847 2.068 19.847a4 4 0 0 1-2.88 4.107s-90.505 26.17-171.28 27.49c-48.473.792-178.72-9.853-262.67-17.358-88.802-7.938-125.03-37.342-125.03-37.342a4 4 0 0 1-1.48-2.794l-1.289-15.927a4.002 4.002 0 0 1 5.036-4.183zm-1.049 3.86 1.289 15.927s35.652 28.677 122.88 36.475c83.824 7.493 213.86 18.133 262.25 17.343 80.281-1.313 170.23-27.333 170.23-27.333s-.871-13.126-2.013-19.396c-1.265-6.949-5.578-22.302-5.578-22.302s-35.85 8.884-52.644 10.464c-21.507 2.023-76.398 1.677-76.398 1.677l-1.051 10.421-46.764 1.87.964 9.867-109.01-5.545-5.888-11.602-186.15-22.705.184 16.063s-25.411-1.278-37.391-3.138c-12.051-1.87-34.916-8.086-34.916-8.086z"/><path d="m313.402 558.35 8.103-30.803s5.746.578 8.62.862c3.434.34 11.984 1.176 11.984 1.176l-1.519 29.421-27.188-.656z"/><path d="m260.422 545.88 1.289 15.927s35.652 28.677 122.88 36.475c83.824 7.493 213.86 18.133 262.25 17.343 80.281-1.313 170.23-27.333 170.23-27.333s-.871-13.126-2.013-19.396c-1.265-6.949-5.578-22.302-5.578-22.302s-35.85 8.884-52.644 10.464c-21.507 2.023-76.398 1.677-76.398 1.677l-1.051 10.421-46.764 1.87.964 9.867-109.01-5.545-5.888-11.602-186.15-22.705.184 16.063s-25.411-1.278-37.391-3.138c-12.051-1.87-34.916-8.086-34.916-8.086z" fill="#A53232" stroke="#FFF19F" stroke-width="2"/><path d="m565.642 563.31-34.931-90.345" fill="none" stroke="#000" stroke-width="2"/><path d="M265.922 561.65s19.257 25.971 114.46 35.547c95.206 9.576 232.95 23.978 288.38 19.58 78.481-6.225 147.63-26.466 147.63-26.466s-48.468 52.121-217.02 46.119c-168.56-6.003-240.65-15.812-294.34-34.82-45.961-16.27-39.111-39.96-39.111-39.96z" stroke="#000"/><path d="M255.942 561.7s1.669 24.48 15.411 32.805 25.713 15.736 35.122 22.897c9.408 7.161 17.896 32.105 17.896 32.105s133.7 4.588 169.64 3.821c125.88-2.689 282.41-24.662 282.41-24.662l38.448-36.3s-64.275 54.761-280.46 38.06-259.51-37.189-265.48-56.149c-5.967-18.961-3.743-13.171-3.743-13.171l-9.241.594z" fill="none" stroke="#000" stroke-width="4"/><path d="m326.742 655.97-1.833-5.95s147.42 3.677 174.37 2.55 277.99-23.797 277.99-23.797-32.473 4.857-56.91 8.925c-12.973 2.159-25.211 7.568-32.883 6.833-14.512-1.391-45.091.392-68.1 2.507-58.802 5.403-117.79 14.703-128.73 14.171-17.834-.867-65.382-4.705-104.77-5.877-32.275-.961-59.137.638-59.137.638z" fill="none" stroke="#000" stroke-width="4"/><path d="m326.742 655.97-1.833-5.95s147.42 3.677 174.37 2.55 277.99-23.797 277.99-23.797-32.473 4.857-56.91 8.925c-12.973 2.159-25.211 7.568-32.883 6.833-14.512-1.391-45.091.392-68.1 2.507-58.802 5.403-117.79 14.703-128.73 14.171-17.834-.867-65.382-4.705-104.77-5.877-32.275-.961-59.137.638-59.137.638z" fill="#A00B0B" stroke="#000"/><path d="M255.942 561.7s1.669 24.48 15.411 32.805 25.713 15.736 35.122 22.897c9.408 7.161 17.896 32.105 17.896 32.105s133.7 4.588 169.64 3.821c125.88-2.689 282.41-24.662 282.41-24.662l38.448-36.3s-64.275 54.761-280.46 38.06-259.51-37.189-265.48-56.149c-5.967-18.961-3.743-13.171-3.743-13.171l-9.241.594z" fill="#FFC12F" stroke="#000"/><path d="m.5 384.46 323.09 154.95-7.697 13.918-149.4-60.251 1.79-14.664-151.12-77.668L.495 384.463z" fill="#A00B0B" stroke="#000"/><g fill="#fff" stroke="#000"><path d="m617.782 371.26 110.22-79.703s5.113 79.536 16.782 114.41c11.503 34.378 53.231 94.837 53.231 94.837l-178.14 26.783-2.091-156.33z"/><path d="m538.902 227.94 132.13-60.694 35.035 153.73s-76.413 8.978-108.66 18.575c-29.833 8.878-84.841 39.008-84.841 39.008l26.336-150.62zM548.412 116.66l-12.741 106.07s24.375-43.731 45.587-53.942c22.444-10.804 89.078-10.885 89.078-10.885l-30.75-100.66-91.174 59.425z"/><path d="m375.532 385.75 34.874 100.77s17.242-17.452 28.5-18.298c24.283-1.824 117.2 7.354 117.2 7.354l-28.03-141.56-152.54 51.742zM399.692 207.37l100.42-64.947 25.503 173.19s-75.036 17.758-101.53 29.54c-21.476 9.55-57.425 41.15-57.425 41.15l33.032-178.94z"/><path d="m407.242 212.48-175.09 242.05s42.835-4.174 62.523-4.384c21.907-.233 68.915 2.984 68.915 2.984l43.649-240.65z"/><path d="m10.362 389.33 386-216-107 231s-89.698-9.953-135.24-12.402c-46.5-2.5-143.76-2.598-143.76-2.598zM415.492 103.1 385.02 218.49s24.599-50.35 44.383-63.733 74.321-16.566 74.321-16.566l-15.709-110.94-72.523 75.855z"/></g></svg>