<svg viewBox="0 0 822 664" xmlns="http://www.w3.org/2000/svg" xml:space="preserve" style="fill-rule:evenodd;clip-rule:evenodd;stroke-linecap:round;stroke-linejoin:round;stroke-miterlimit:1.5"><path d="m582.752 562.31-49.094-193.2m52.224 193.18c-15.446-67.533-30.893-135.07-46.34-202.6m-59.14 196.83-26.356-33.012m41.746 34.972-43.033-42.927m20.893 40.057.259-87.55m-12.459 49.07 98.154-36.813M336.822 529.17c-5.334-3.414-16.001-10.242-23.878-15.549-7.89-5.317-18.274-12.674-23.465-16.352m38.123 31.691c-6.216-3.649-18.647-10.946-26.116-16.162-6.573-4.59-14.656-11.617-18.698-15.13m-29.566 3.622c-2.156-6.675-6.47-20.024-7.311-30.419-1.279-15.8-.668-48.188-.362-64.381" style="fill:none;stroke:#000;stroke-width:2px"/><path d="M306.952 532.55c-10.585-11.478-31.755-34.433-41.741-55.24-10.138-21.123-16.104-54.708-19.087-71.5" style="fill:none;stroke:#000;stroke-width:2px"/><path d="M165.672 464.41c16.44 5.571 49.322 16.713 75.012 18.429 27.207 1.818 67.89-4.41 88.231-7.524M18.812 400.4c20.122 16.024 60.366 48.072 85.517 59.091 20.08 8.797 50.288 7.614 65.391 7.022m-42.148 79.467c6.139-7.731 18.418-23.195 26.233-35.736 7.96-12.774 17.004-31.529 21.526-40.906" style="fill:none;stroke:#000;stroke-width:2px"/><path d="M85.322 426.61c35.539 13.066 106.62 39.197 141.12 49.574 21.418 6.442 51.063 10.607 65.885 12.689M17.722 399.95l149.32 90.663M17.612 400.39c25.853 23.37 77.557 70.108 101.84 73.331 20.613 2.736 48.445-.164 62.36-1.613" style="fill:none;stroke:#000;stroke-width:2px"/><path d="M17.942 399.55c31.248 33.199 93.744 99.598 152.94 115.81 9.695 2.655 24.682 3.088 32.176 3.305" style="fill:none;stroke:#000;stroke-width:2px"/><path d="M17.842 399.76c21.425 24.787 64.274 74.36 124.28 90.533 44.205 11.913 146.83 7.095 146.83 7.095l3.401-28.107m195.099-1.741 3.468 93.459M331.062 450.62c41.319 34.341 82.637 68.682 123.96 103.02" style="fill:none;stroke:#000;stroke-width:2px"/><path d="M201.272 520.45s53.521 7.576 73.485.342c18.724-6.785 46.303-43.749 46.303-43.749" style="fill:none;stroke:#000;stroke-width:2px"/><path d="M397.162 547.85c15.357-70.492 30.713-140.98 46.07-211.48" style="fill:none;stroke:#000;stroke-width:4px"/><path d="M123.392 547.44s28.208 16.744 56.916 7.464c28.759-9.296 53.093-45.991 53.093-45.991" style="fill:none;stroke:#000;stroke-width:2px"/><path d="m803.812 502.23-189.85 28.911" style="fill:none;stroke:#000;stroke-width:4px"/><path d="m408.852 554.7 34.389-218.32m-19.949 218.84 19.949-218.85" style="fill:none;stroke:#000;stroke-width:2px"/><path d="M597.27 680.57c4.774 3.015 11.493 4.184 13.758 2.611" style="fill:none;stroke:#000;stroke-width:2.12px" transform="matrix(.86162 0 0 1.0152 -112.326 -163.556)"/><path d="M600.46 681.64c4.914 1.831 8.702 2.841 11.821 2.264" style="fill:none;stroke:#000;stroke-width:2.12px" transform="matrix(.86162 0 0 1.0152 -103.437 -162.269)"/><path d="M599.96 682.91c4.913 1.832 12.57 2.501 15.689 1.924" style="fill:none;stroke:#000;stroke-width:2.14px" transform="matrix(.86081 -.04395 .0373 1.0143 -117.295 -133.985)"/><path d="M597.27 680.57c4.774 3.015 11.493 4.184 13.758 2.611" style="fill:none;stroke:#000;stroke-width:2.34px" transform="matrix(.8257 0 0 .88449 -88.44 -85.081)"/><path d="M600.46 681.64c4.914 1.831 8.702 2.841 11.821 2.264" style="fill:none;stroke:#000;stroke-width:2.34px" transform="matrix(.8257 0 0 .88449 -79.921 -83.96)"/><path d="M599.96 682.91c4.913 1.832 12.57 2.501 15.689 1.924" style="fill:none;stroke:#000;stroke-width:2.34px" transform="matrix(.82493 -.03829 .03574 .88366 -93.2 -59.318)"/><path d="M597.27 680.57c4.774 3.015 11.493 4.184 13.758 2.611" style="fill:none;stroke:#000;stroke-width:3.05px" transform="matrix(.74928 0 0 .54716 -40.454 135.14)"/><path d="M600.46 681.64c4.914 1.831 8.702 2.841 11.821 2.264" style="fill:none;stroke:#000;stroke-width:3.05px" transform="matrix(.74928 0 0 .54716 -32.723 135.83)"/><path d="M599.96 682.91c4.913 1.832 12.57 2.501 15.689 1.924" style="fill:none;stroke:#000;stroke-width:3.01px" transform="matrix(.74858 -.02369 .03244 .54665 -44.774 151.08)"/><path d="M597.27 680.57c4.774 3.015 11.493 4.184 13.758 2.611" style="fill:none;stroke:#000;stroke-width:2.68px" transform="matrix(.7353 0 0 .75494 -29.07 -18.55)"/><path d="M600.46 681.64c4.914 1.831 8.702 2.841 11.821 2.264" style="fill:none;stroke:#000;stroke-width:2.68px" transform="matrix(.7353 0 0 .75494 -21.484 -17.59)"/><path d="M599.96 682.91c4.913 1.832 12.57 2.501 15.689 1.924" style="fill:none;stroke:#000;stroke-width:2.69px" transform="matrix(.73461 -.03268 .03183 .75424 -33.31 3.44)"/><path d="M492.522 486.24c5.271 3.351 7.874 1.6 9.176.725m-6.443 11.14c5.271 3.351 8.756 2.655 10.498 2.308m-6.878 10.722c4.774 3.015 8.966 3.644 11.231 2.071m-8.631 9.659c4.775 3.015 9.628 4.513 11.893 2.94m-6.523 15.75c4.774 3.015 11.493 4.184 13.758 2.611m-17.764-56.659c5.271 3.351 7.874 1.6 9.176.725m-22.274-13.372c5.271 3.351 7.874 1.6 9.176.725m-.139.363c5.271 3.351 7.845 1.581 9.131.696m-2.337 22.729c5.271 3.351 8.759 2.029 10.503 1.369m-6.883 11.661c4.774 3.015 8.966 3.644 11.231 2.071m-5.951 10.939c4.774 3.015 6.685 2.32 9.217 1.653m-3.337 16.827c4.914 1.831 8.702 2.841 11.821 2.264m-18.898-56.614c5.411 3.12 8.968.83 10.746-.316m-15.303-11.057c5.411 3.12 9.248 1.24 11.166.3m-3.364 22.81c5.41 3.12 9.928 1.164 12.188.187M520.7 514.14c4.9 2.806 11.457 2.422 13.651.752m-7.813 12.018c4.9 2.805 10.11.815 12.61.038m-6.38 19.46c4.988 1.618 12.667 1.955 15.758 1.243" style="fill:none;stroke:#000;stroke-width:2px"/><path d="M586.26 640.14c3.977 5.014 10.466 1.62 13.71-.077" style="fill:none;stroke:#000;stroke-width:2.2px" transform="matrix(.72339 .30637 -.39724 .93795 411.292 -290.99)"/><path d="M586.04 639.02c5.016 5.358 11.677 2.15 15.007.547" style="fill:none;stroke:#000;stroke-width:2.2px" transform="matrix(.72339 .30637 -.39724 .93795 408.262 -279.38)"/><path d="M590.85 657.21c4.774 3.015 12.984 1.969 15.248.396" style="fill:none;stroke:#000;stroke-width:2.2px" transform="matrix(.72339 .30637 -.39724 .93795 408.262 -282.38)"/><path d="M592.62 667.36c4.774 3.015 14.578 2.766 16.842 1.193M597.27 680.57c4.774 3.015 14.046.942 16.311-.631" style="fill:none;stroke:#000;stroke-width:2.2px" transform="matrix(.72339 .30637 -.39724 .93795 408.262 -279.38)"/><path d="M589.96 638.39c5.271 3.351 8.544.932 10.181-.277" style="fill:none;stroke:#000;stroke-width:2.2px" transform="matrix(.72339 .30637 -.39724 .93795 418.252 -286.64)"/><path d="M585.16 636.91c5.271 3.351 10.504.199 13.121-1.378" style="fill:none;stroke:#000;stroke-width:2.2px" transform="matrix(.72339 .30637 -.39724 .93795 413.802 -302.51)"/><path d="M588.09 634.23c4.989 1.779 8.958.082 10.942-.767" style="fill:none;stroke:#000;stroke-width:2.2px" transform="matrix(.72339 .30637 -.39724 .93795 420.762 -298.17)"/><path d="M591.47 638.46c5.271 3.351 8.732-.384 10.462-2.251" style="fill:none;stroke:#000;stroke-width:2.2px" transform="matrix(.72339 .30637 -.39724 .93795 415.222 -275.03)"/><path d="M596.66 656.57c3.848 1.053 9.021-.613 11.285-2.186" style="fill:none;stroke:#000;stroke-width:2.2px" transform="matrix(.72339 .30637 -.39724 .93795 415.222 -277.03)"/><path d="M600.26 666.59c4.774 3.015 9.044-.094 11.576-.761M603.67 679.6c3.999.166 9.457-1.305 11.435-3.96" style="fill:none;stroke:#000;stroke-width:2.2px" transform="matrix(.72339 .30637 -.39724 .93795 415.222 -275.03)"/><path d="M590.64 636.62c5.271 3.35 8.165-.008 9.612-1.688" style="fill:none;stroke:#000;stroke-width:2.22px" transform="matrix(.73991 .26548 -.36555 .95034 395.142 -265.49)"/><path d="M589.42 631.23c5.27 3.351 7.48.669 8.584-.672" style="fill:none;stroke:#000;stroke-width:2.22px" transform="matrix(.73991 .26548 -.36555 .95034 397.242 -277.04)"/><path d="M591.62 635.22c5.27 3.351 8.631.673 10.312-.667" style="fill:none;stroke:#000;stroke-width:2.22px" transform="matrix(.73991 .26548 -.36555 .95034 392.522 -253.83)"/><path d="M595.41 650.68c4.775 3.015 9.406.41 11.67-1.163" style="fill:none;stroke:#000;stroke-width:2.22px" transform="matrix(.73991 .26548 -.36555 .95034 392.522 -254.83)"/><path d="M600.15 664.62c5.953.634 7.926-2.91 10.457-3.578m-8.267 13.378c4.914 1.832 7.799-3.874 10.918-4.451" style="fill:none;stroke:#000;stroke-width:2.22px" transform="matrix(.73991 .26548 -.36555 .95034 392.522 -253.83)"/><path d="m538.352 474.5 40.782 89.076m-22.792-88.286 56.429 69.179M292.082 488.79c7.316 9.063 10.202 17.87 17.518 26.933 6.557 8.124 17.543 16.504 24.1 24.628M54.652 412.72c46.277 20.121 103.25 39.758 149.78 50.077 46.166 10.239 81.365 20.411 128.3 11.594m-186.6 65.259 133.75-90.817m-57.15 67.197 36.168 57.175m-93.418-39.585c22.764 1.567 38.483 6.566 61.247 8.134 17.521 1.206 42.088-1.018 59.609.188M18.092 400.41c46.938 44.516 93.875 89.032 140.81 133.55m152.36-81.8c11.206 5.116 33.618 15.347 42.132 15.302 5.986-.031 7.96-10.392 8.947-15.572" style="fill:none;stroke:#000;stroke-width:2px"/><path d="M353.532 467c4.411 13.361 13.233 40.084 21.146 53.782 6.458 11.181 19.707 22.666 26.331 28.408m-89.987-98.97s13.585 37.836 20.795 53.093c6.579 13.919 22.47 38.45 22.47 38.45M203.182 483.83l249.1-338.85M193.262 476.5l262.14-351.31m137.07-104.74-97.088 88.14M455.482 1s-70.499 116.27-110.97 162.66c-36.412 41.747-131.85 115.73-131.85 115.73" style="fill:none;stroke:#000;stroke-width:2px"/><path d="M455.482 1s12.379 47.578-82.633 155.06c-36.688 41.505-85.014 82.224-85.014 82.224" style="fill:none;stroke:#000;stroke-width:2px"/><path d="m255.042 499.2 192.23-164.79m-330.5 215.48 217.08-76.918m77.23-364.482 80.085-82.531M384.872 221.87l130.49-82.713m-1.79 249.853 192.72-60.774M541.002 125.31l108.83-72.403M527.383 234.97c52.356-24.797 104.71-49.595 157.07-74.392" style="fill:none;stroke:#000;stroke-width:4px"/><path d="M512.702 562.96S478.101 444.14 466.155 357C449.91 238.5 456.718 1 456.718 1" style="fill:none;stroke:#000;stroke-width:2px"/><path d="M358.612 547.63s117.28-93.641 180.69-154.59c95.878-92.162 141.48-229.29 141.48-229.29" style="fill:none;stroke:#000;stroke-width:2px"/><path d="M373.752 550.87s107.96-90.834 170.31-152.87c80.025-79.619 136.71-234.25 136.71-234.25" style="fill:none;stroke:#000;stroke-width:2px"/><path d="M426.192 558.91s59.479-71.928 117.35-142.09c74.822-90.716 137.24-253.06 137.24-253.06m-149.91 417.38s14.268-24.901 38.419-112.59c26.073-94.671 36.761-139.22 36.761-139.22" style="fill:none;stroke:#000;stroke-width:2px"/><path d="M531.092 573.96s-45.605-121.4-57.552-208.54C457.295 246.92 456.713 1 456.713 1" style="fill:none;stroke:#000;stroke-width:2px"/><path d="M543.502 573.96s-51.159-122.72-63.105-209.86C464.152 245.6 456.716.99 456.716.99" style="fill:none;stroke:#000;stroke-width:2px"/><path d="M560.072 574.12s-60.513-126.74-72.459-213.88C471.367 241.74 456.711 1 456.711 1m107.931 563.02c9.562-57.994 25.754-107.32 35.316-165.31 11.108-67.367 26.695-210.77 26.695-210.77" style="fill:none;stroke:#000;stroke-width:2px"/><path d="M578.282 568.47c9.563-57.994 19.706-110.87 29.268-168.86 11.108-67.367 19.11-211.66 19.11-211.66" style="fill:none;stroke:#000;stroke-width:2px"/><path d="M587.992 568.47c9.562-57.994 15.615-102.33 25.177-160.32 11.108-67.366 13.486-220.2 13.486-220.2" style="fill:none;stroke:#000;stroke-width:2px"/><path d="M600.062 550.67c9.562-57.994 8.444-78.315 18.006-136.31 11.108-67.367 8.584-226.42 8.584-226.42" style="fill:none;stroke:#000;stroke-width:2px"/><path d="m743.64 673.87 4.315 23.551" style="fill:none;stroke:#000;stroke-width:1.94px" transform="matrix(1.0237 0 0 1.0389 -79.795 -177.172)"/><path d="M761.472 508.24c4.536 3.754 13.61 11.262 24.648 9.834 6.525-.845 11.767-10.738 14.388-15.684M651.002 523.2l4.315 23.551m46.655-27.321 10.328 26.085m7.602-29.945 9.057 29.035m.443-30.355 7.403 29.522m5.177-32.022.914 30.14m18.036-32.58-23.091 34.116m23.091-34.116 14.176 29.409m-105.709-14.891 4.315 23.55" style="fill:none;stroke:#000;stroke-width:2px"/><path d="m743.64 673.87 4.315 23.551" style="fill:none;stroke:#000;stroke-width:1.46px" transform="matrix(1.5309 0 0 1.1783 -447.088 -274.38)"/><path d="M592.822 15.54c-5.72-.103 19.689 534.57 19.689 534.57l34.317.619s-48.287-535.08-54.006-535.19v.001Z" style="fill:#a00b0b;stroke:#000;stroke-width:1px"/><path d="M684.75 153.98c-7.236-.558-41.32 542.05-41.32 542.05l43.418 3.351s5.138-544.84-2.098-545.4v-.001Z" style="fill:#a00b0b;stroke:#000;stroke-width:1.29px" transform="matrix(.42165 0 0 1.008 165.082 -149.499)"/><path d="m595.232 544.85-1.794 18.926-25.003.548-8.739 5.718-36.383.549 2.877 11.615 119.66 8.864 157.19-36.903 2.444-20.147s-58.494 9.517-88.027 11.038c-35.041 1.805-122.22-.208-122.22-.208h-.005Z" style="fill:none"/><path d="M595.322 540.85s86.965 2.013 121.92.213c29.387-1.514 87.591-10.992 87.591-10.992.213-.035.428-.052.644-.052 2.194 0 3.998 1.805 3.998 3.998 0 .161-.009.323-.029.483l-2.444 20.148a4.008 4.008 0 0 1-3.057 3.412l-157.19 36.903a3.998 3.998 0 0 1-1.209.095l-119.66-8.863a4.01 4.01 0 0 1-3.587-3.028l-2.877-11.616a4.003 4.003 0 0 1-.118-.962c0-2.172 1.77-3.967 3.941-3.999l35.223-.531 7.769-5.083a3.992 3.992 0 0 1 2.102-.652l21.445-.47 1.458-15.382a4.017 4.017 0 0 1 4.075-3.622h.005Zm-.093 3.999-1.794 18.926-25.003.548-8.739 5.718-36.383.549 2.877 11.615 119.66 8.864 157.19-36.903 2.444-20.147s-58.494 9.517-88.027 11.038c-35.041 1.805-122.22-.208-122.22-.208h-.005Z"/><path d="m595.232 544.85-1.794 18.926-25.003.548-8.739 5.718-36.383.549 2.877 11.615 119.66 8.864 157.19-36.903 2.444-20.147s-58.494 9.517-88.027 11.038c-35.041 1.805-122.22-.208-122.22-.208h-.005Z" style="stroke:#fff19f;stroke-width:2px"/><path d="m260.422 545.88 1.289 15.927s35.652 28.677 122.88 36.475c83.824 7.493 213.86 18.133 262.25 17.343 80.281-1.313 170.23-27.333 170.23-27.333s-.871-13.126-2.013-19.396c-1.265-6.949-5.578-22.302-5.578-22.302s-35.85 8.884-52.644 10.464c-21.507 2.023-76.398 1.677-76.398 1.677l-1.051 10.421-46.764 1.87.964 9.867-109.01-5.545-5.888-11.602-186.15-22.705.184 16.063s-25.411-1.278-37.391-3.138c-12.051-1.87-34.916-8.086-34.916-8.086h.006Z" style="fill:none"/><path d="M261.462 542.02s22.579 6.146 34.48 7.994c8.833 1.371 25.048 2.418 32.729 2.862l-.135-11.789v-.045a4.018 4.018 0 0 1 4.484-3.971l186.15 22.704a4.006 4.006 0 0 1 3.083 2.161l4.839 9.535 102.06 5.191-.513-5.247a4.015 4.015 0 0 1 3.821-4.386l43.293-1.731.702-6.964a4.015 4.015 0 0 1 4.005-3.599c2.053.013 54.604.353 75.998-1.66 16.608-1.562 52.057-10.363 52.057-10.363a4.018 4.018 0 0 1 4.813 2.8c.581 2.067 4.377 15.605 5.663 22.668 1.168 6.416 2.068 19.847 2.068 19.847a4.011 4.011 0 0 1-2.88 4.107c-1.799.52-90.505 26.17-171.28 27.49-48.473.792-178.72-9.853-262.67-17.358-88.802-7.938-125.03-37.342-125.03-37.342a4 4 0 0 1-1.48-2.794l-1.289-15.927a3.804 3.804 0 0 1-.013-.32c0-2.196 1.807-4.002 4.002-4.002.354 0 .706.047 1.047.139h-.004Zm-1.049 3.86 1.289 15.927s35.652 28.677 122.88 36.475c83.824 7.493 213.86 18.133 262.25 17.343 80.281-1.313 170.23-27.333 170.23-27.333s-.871-13.126-2.013-19.396c-1.265-6.949-5.578-22.302-5.578-22.302s-35.85 8.884-52.644 10.464c-21.507 2.023-76.398 1.677-76.398 1.677l-1.051 10.421-46.764 1.87.964 9.867-109.01-5.545-5.888-11.602-186.15-22.705.184 16.063s-25.411-1.278-37.391-3.138c-12.051-1.87-34.916-8.086-34.916-8.086h.006Z"/><path d="m313.402 558.35 8.103-30.803s5.746.578 8.62.862c3.434.34 11.984 1.176 11.984 1.176l-1.519 29.421-27.188-.656Z"/><path d="m260.422 545.88 1.289 15.927s35.652 28.677 122.88 36.475c83.824 7.493 213.86 18.133 262.25 17.343 80.281-1.313 170.23-27.333 170.23-27.333s-.871-13.126-2.013-19.396c-1.265-6.949-5.578-22.302-5.578-22.302s-35.85 8.884-52.644 10.464c-21.507 2.023-76.398 1.677-76.398 1.677l-1.051 10.421-46.764 1.87.964 9.867-109.01-5.545-5.888-11.602-186.15-22.705.184 16.063s-25.411-1.278-37.391-3.138c-12.051-1.87-34.916-8.086-34.916-8.086h.006Z" style="fill:#a53232;stroke:#fff19f;stroke-width:2px"/><path d="m565.642 563.31-34.931-90.345" style="fill:none;stroke:#000;stroke-width:2px"/><path d="M265.922 561.65s19.257 25.971 114.46 35.547c95.206 9.576 232.95 23.978 288.38 19.58 78.481-6.225 147.63-26.466 147.63-26.466s-48.468 52.121-217.02 46.119c-168.56-6.003-240.65-15.812-294.34-34.82-45.961-16.27-39.111-39.96-39.111-39.96h.001Z" style="stroke:#000;stroke-width:1px"/><path d="M255.942 561.7s1.669 24.48 15.411 32.805c13.742 8.325 25.713 15.736 35.122 22.897 9.408 7.161 17.896 32.105 17.896 32.105s133.7 4.588 169.64 3.821c125.88-2.689 282.41-24.662 282.41-24.662l38.448-36.3s-64.275 54.761-280.46 38.06c-216.185-16.701-259.51-37.189-265.48-56.149-5.967-18.961-3.743-13.171-3.743-13.171l-9.241.594h-.003Z" style="fill:none;stroke:#000;stroke-width:4px"/><path d="m326.742 655.97-1.833-5.95s147.42 3.677 174.37 2.55c26.95-1.127 277.99-23.797 277.99-23.797s-32.473 4.857-56.91 8.925c-12.973 2.159-25.211 7.568-32.883 6.833-14.512-1.391-45.091.392-68.1 2.507-58.802 5.403-117.79 14.703-128.73 14.171-17.834-.867-65.382-4.705-104.77-5.877-32.275-.961-59.137.638-59.137.638h.003Z" style="fill:none;stroke:#000;stroke-width:4px"/><path d="m326.742 655.97-1.833-5.95s147.42 3.677 174.37 2.55c26.95-1.127 277.99-23.797 277.99-23.797s-32.473 4.857-56.91 8.925c-12.973 2.159-25.211 7.568-32.883 6.833-14.512-1.391-45.091.392-68.1 2.507-58.802 5.403-117.79 14.703-128.73 14.171-17.834-.867-65.382-4.705-104.77-5.877-32.275-.961-59.137.638-59.137.638h.003Z" style="fill:#a00b0b;stroke:#000;stroke-width:1px"/><path d="M255.942 561.7s1.669 24.48 15.411 32.805c13.742 8.325 25.713 15.736 35.122 22.897 9.408 7.161 17.896 32.105 17.896 32.105s133.7 4.588 169.64 3.821c125.88-2.689 282.41-24.662 282.41-24.662l38.448-36.3s-64.275 54.761-280.46 38.06c-216.185-16.701-259.51-37.189-265.48-56.149-5.967-18.961-3.743-13.171-3.743-13.171l-9.241.594h-.003Z" style="fill:#ffc12f;stroke:#000;stroke-width:1px"/><path d="m.5 384.46 323.09 154.95-7.697 13.918-149.4-60.251 1.79-14.664-151.12-77.668L.495 384.463l.005-.003Z" style="fill:#a00b0b;stroke:#000;stroke-width:1px"/><path d="m617.782 371.26 110.22-79.703s5.113 79.536 16.782 114.41c11.503 34.378 53.231 94.837 53.231 94.837l-178.14 26.783-2.091-156.33-.002.003Z" style="fill:#fff;stroke:#000;stroke-width:1px"/><path d="m538.902 227.94 132.13-60.694 35.035 153.73s-76.413 8.978-108.66 18.575c-29.833 8.878-84.841 39.008-84.841 39.008l26.336-150.62v.001Zm9.51-111.28-12.741 106.07s24.375-43.731 45.587-53.942c22.444-10.804 89.078-10.885 89.078-10.885l-30.75-100.66-91.174 59.425v-.008Z" style="fill:#fff;stroke:#000;stroke-width:1px"/><path d="m375.532 385.75 34.874 100.77s17.242-17.452 28.5-18.298c24.283-1.824 117.2 7.354 117.2 7.354l-28.03-141.56-152.54 51.742-.004-.008Zm24.16-178.38 100.42-64.947 25.503 173.19s-75.036 17.758-101.53 29.54c-21.476 9.55-57.425 41.15-57.425 41.15l33.032-178.94v.007Z" style="fill:#fff;stroke:#000;stroke-width:1px"/><path d="m407.242 212.48-175.09 242.05s42.835-4.174 62.523-4.384c21.907-.233 68.915 2.984 68.915 2.984l43.649-240.65h.003Z" style="fill:#fff;stroke:#000;stroke-width:1px"/><path d="m10.362 389.33 386-216-107 231s-89.698-9.953-135.24-12.402c-46.5-2.5-143.76-2.598-143.76-2.598Zm405.13-286.23L385.02 218.49s24.599-50.35 44.383-63.733c19.784-13.383 74.321-16.566 74.321-16.566l-15.709-110.94-72.523 75.855v-.006Z" style="fill:#fff;stroke:#000;stroke-width:1px"/><path d="m343.888 527.874-238.162-7.548v-17.404l238.419 4-.257 20.952Z" style="fill:#ae816b;stroke:#000;stroke-width:2.47px" transform="matrix(1.49639 0 0 .84435 -154.831 82.165)"/><path d="M781.637 1788.6s76.103-51.41 98.706-89.77c32.548-55.25 4.788-216.65 4.788-216.65" style="fill:none;stroke:#000;stroke-width:12.42px" transform="matrix(-.12604 .40523 -.6008 -.18687 1205.88 557.734)"/><path d="M803.061 1690.47s-15.371 72.28-34.426 95.98c-14.466 17.99 55.902 15.32 98.846-8.75 28.384-15.91 29.759-22.64 29.759-22.64" style="fill:none;stroke:#000;stroke-width:12.42px" transform="matrix(-.12604 .40523 -.6008 -.18687 1205.88 557.734)"/></svg>