<svg clip-rule="evenodd" fill-rule="evenodd" stroke-linecap="round" stroke-linejoin="round" stroke-miterlimit="1.5" version="1.1" viewBox="0 0 822 664" xml:space="preserve" xmlns="http://www.w3.org/2000/svg">
    <g transform="translate(-92.638 -150.67)">
        <path d="m675.39 712.98c-16.364-64.401-32.729-128.8-49.094-193.2" fill="none" stroke="#000" stroke-width="2px"/>
        <path d="m678.52 712.96c-15.446-67.533-30.893-135.07-46.34-202.6" fill="none" stroke="#000" stroke-width="2px"/>
        <path d="m573.04 707.19c-8.785-11.004-17.571-22.008-26.356-33.012" fill="none" stroke="#000" stroke-width="2px"/>
        <path d="m588.43 709.15c-14.345-14.309-28.689-28.618-43.033-42.927" fill="none" stroke="#000" stroke-width="2px"/>
        <path d="m566.29 706.28c0.087-29.183 0.173-58.367 0.259-87.55" fill="none" stroke="#000" stroke-width="2px"/>
        <path d="m554.09 667.8 98.154-36.813" fill="none" stroke="#000" stroke-width="2px"/>
        <path d="m429.46 679.84c-5.334-3.414-16.001-10.242-23.878-15.549-7.89-5.317-18.274-12.674-23.465-16.352" fill="none" stroke="#000" stroke-width="2px"/>
        <path d="m420.24 679.63c-6.216-3.649-18.647-10.946-26.116-16.162-6.573-4.59-14.656-11.617-18.698-15.13" fill="none" stroke="#000" stroke-width="2px"/>
        <path d="m345.86 651.96c-2.156-6.675-6.47-20.024-7.311-30.419-1.279-15.8-0.668-48.188-0.362-64.381" fill="none" stroke="#000" stroke-width="2px"/>
        <path d="m399.59 683.22c-10.585-11.478-31.755-34.433-41.741-55.24-10.138-21.123-16.104-54.708-19.087-71.5" fill="none" stroke="#000" stroke-width="2px"/>
        <path d="m258.31 615.08c16.44 5.571 49.322 16.713 75.012 18.429 27.207 1.818 67.89-4.41 88.231-7.524" fill="none" stroke="#000" stroke-width="2px"/>
        <path d="m111.45 551.07c20.122 16.024 60.366 48.072 85.517 59.091 20.08 8.797 50.288 7.614 65.391 7.022" fill="none" stroke="#000" stroke-width="2px"/>
        <path d="m220.21 696.65c6.139-7.731 18.418-23.195 26.233-35.736 7.96-12.774 17.004-31.529 21.526-40.906" fill="none" stroke="#000" stroke-width="2px"/>
        <path d="m177.96 577.28c35.539 13.066 106.62 39.197 141.12 49.574 21.418 6.442 51.063 10.607 65.885 12.689" fill="none" stroke="#000" stroke-width="2px"/>
        <path d="m110.36 550.62c49.773 30.221 99.547 60.442 149.32 90.663" fill="none" stroke="#000" stroke-width="2px"/>
        <path d="m110.25 551.06c25.853 23.37 77.557 70.108 101.84 73.331 20.613 2.736 48.445-0.164 62.36-1.613" fill="none" stroke="#000" stroke-width="2px"/>
        <path d="m110.58 550.22c31.248 33.199 93.744 99.598 152.94 115.81 9.695 2.655 24.682 3.088 32.176 3.305" fill="none" stroke="#000" stroke-width="2px"/>
        <path d="m110.48 550.43c21.425 24.787 64.274 74.36 124.28 90.533 44.205 11.913 146.83 7.095 146.83 7.095s2.267-18.738 3.401-28.107" fill="none" stroke="#000" stroke-width="2px"/>
        <path d="m580.09 618.21c1.156 31.153 2.312 62.306 3.468 93.459" fill="none" stroke="#000" stroke-width="2px"/>
        <path d="m423.7 601.29c41.319 34.341 82.637 68.682 123.96 103.02" fill="none" stroke="#000" stroke-width="2px"/>
        <path d="m293.91 671.12s53.521 7.576 73.485 0.342c18.724-6.785 46.303-43.749 46.303-43.749" fill="none" stroke="#000" stroke-width="2px"/>
        <path d="m489.8 698.52c15.357-70.492 30.713-140.98 46.07-211.48" fill="none" stroke="#000" stroke-width="4px"/>
        <path d="m216.03 698.11s28.208 16.744 56.916 7.464c28.759-9.296 53.093-45.991 53.093-45.991" fill="none" stroke="#000" stroke-width="2px"/>
        <path d="m896.45 652.9c-63.284 9.637-126.57 19.274-189.85 28.911" fill="none" stroke="#000" stroke-width="4px"/>
        <path d="m501.49 705.37 34.389-218.32" fill="none" stroke="#000" stroke-width="2px"/>
        <path d="m515.93 705.89c6.65-72.949 13.299-145.9 19.949-218.85" fill="none" stroke="#000" stroke-width="2px"/>
        <g transform="matrix(.86162 0 0 1.0152 -19.688 -12.886)">
            <path d="m597.27 680.57c4.774 3.015 11.493 4.184 13.758 2.611" fill="none" stroke="#000" stroke-width="2.12px"/>
        </g>
        <g transform="matrix(.86162 0 0 1.0152 -10.799 -11.599)">
            <path d="m600.46 681.64c4.914 1.831 8.702 2.841 11.821 2.264" fill="none" stroke="#000" stroke-width="2.12px"/>
        </g>
        <g transform="matrix(.86081 -.04395 .0373 1.0143 -24.657 16.685)">
            <path d="m599.96 682.91c4.913 1.832 12.57 2.501 15.689 1.924" fill="none" stroke="#000" stroke-width="2.14px"/>
        </g>
        <g transform="matrix(.8257 0 0 .88449 4.1988 65.589)">
            <path d="m597.27 680.57c4.774 3.015 11.493 4.184 13.758 2.611" fill="none" stroke="#000" stroke-width="2.34px"/>
        </g>
        <g transform="matrix(.8257 0 0 .88449 12.717 66.71)">
            <path d="m600.46 681.64c4.914 1.831 8.702 2.841 11.821 2.264" fill="none" stroke="#000" stroke-width="2.34px"/>
        </g>
        <g transform="matrix(.82493 -.03829 .035745 .88366 -.56279 91.352)">
            <path d="m599.96 682.91c4.913 1.832 12.57 2.501 15.689 1.924" fill="none" stroke="#000" stroke-width="2.34px"/>
        </g>
        <g transform="matrix(.74928 0 0 .54716 52.184 285.81)">
            <path d="m597.27 680.57c4.774 3.015 11.493 4.184 13.758 2.611" fill="none" stroke="#000" stroke-width="3.05px"/>
        </g>
        <g transform="matrix(.74928 0 0 .54716 59.915 286.5)">
            <path d="m600.46 681.64c4.914 1.831 8.702 2.841 11.821 2.264" fill="none" stroke="#000" stroke-width="3.05px"/>
        </g>
        <g transform="matrix(.74858 -.023687 .032437 .54665 47.864 301.75)">
            <path d="m599.96 682.91c4.913 1.832 12.57 2.501 15.689 1.924" fill="none" stroke="#000" stroke-width="3.01px"/>
        </g>
        <g transform="matrix(.7353 0 0 .75494 63.568 132.12)">
            <path d="m597.27 680.57c4.774 3.015 11.493 4.184 13.758 2.611" fill="none" stroke="#000" stroke-width="2.68px"/>
        </g>
        <g transform="matrix(.7353 0 0 .75494 71.154 133.08)">
            <path d="m600.46 681.64c4.914 1.831 8.702 2.841 11.821 2.264" fill="none" stroke="#000" stroke-width="2.68px"/>
        </g>
        <g transform="matrix(.73461 -.032682 .031832 .75424 59.328 154.11)">
            <path d="m599.96 682.91c4.913 1.832 12.57 2.501 15.689 1.924" fill="none" stroke="#000" stroke-width="2.69px"/>
        </g>
        <path d="m585.16 636.91c5.271 3.351 7.874 1.6 9.176 0.725" fill="none" stroke="#000" stroke-width="2px"/>
        <g transform="translate(2.213 11.655)">
            <path d="m585.68 637.12c5.271 3.351 8.756 2.655 10.498 2.308" fill="none" stroke="#000" stroke-width="2px"/>
        </g>
        <g transform="translate(2.213 11.655)">
            <path d="m589.3 650.15c4.774 3.015 8.966 3.644 11.231 2.071" fill="none" stroke="#000" stroke-width="2px"/>
        </g>
        <g transform="translate(2.213 11.655)">
            <path d="m591.9 661.88c4.775 3.015 9.628 4.513 11.893 2.94" fill="none" stroke="#000" stroke-width="2px"/>
        </g>
        <g transform="translate(2.213 11.655)">
            <path d="m597.27 680.57c4.774 3.015 11.493 4.184 13.758 2.611" fill="none" stroke="#000" stroke-width="2px"/>
        </g>
        <g transform="translate(10.317 1.2674)">
            <path d="m585.16 636.91c5.271 3.351 7.874 1.6 9.176 0.725" fill="none" stroke="#000" stroke-width="2px"/>
        </g>
        <g transform="translate(-2.7806 -11.38)">
            <path d="m585.16 636.91c5.271 3.351 7.874 1.6 9.176 0.725" fill="none" stroke="#000" stroke-width="2px"/>
        </g>
        <g transform="translate(7.5361 -10.112)">
            <path d="m583.88 636.73c5.271 3.351 7.845 1.581 9.131 0.696" fill="none" stroke="#000" stroke-width="2px"/>
        </g>
        <g transform="translate(12.53 12.923)">
            <path d="m585.68 637.12c5.271 3.351 8.759 2.029 10.503 1.369" fill="none" stroke="#000" stroke-width="2px"/>
        </g>
        <g transform="translate(12.53 12.923)">
            <path d="m589.3 650.15c4.774 3.015 8.966 3.644 11.231 2.071" fill="none" stroke="#000" stroke-width="2px"/>
        </g>
        <g transform="translate(12.53 12.923)">
            <path d="m594.58 663.16c4.774 3.015 6.685 2.32 9.217 1.653" fill="none" stroke="#000" stroke-width="2px"/>
        </g>
        <g transform="translate(12.53 12.923)">
            <path d="m600.46 681.64c4.914 1.831 8.702 2.841 11.821 2.264" fill="none" stroke="#000" stroke-width="2px"/>
        </g>
        <g transform="matrix(.99906 -.043291 .043291 .99906 -6.2693 29.234)">
            <path d="m585.16 636.91c5.271 3.351 8.924 1.217 10.75 0.149" fill="none" stroke="#000" stroke-width="2px"/>
        </g>
        <g transform="matrix(.99906 -.043291 .043291 .99906 -9.5399 17.985)">
            <path d="m583.88 636.73c5.271 3.351 9.186 1.639 11.143 0.783" fill="none" stroke="#000" stroke-width="2px"/>
        </g>
        <g transform="matrix(.99906 -.043291 .043291 .99906 -3.5538 40.783)">
            <path d="m585.68 637.12c5.271 3.351 9.869 1.593 12.169 0.715" fill="none" stroke="#000" stroke-width="2px"/>
        </g>
        <g transform="matrix(.99906 -.043291 .043291 .99906 -3.5538 40.783)">
            <path d="m589.3 650.15c4.774 3.015 11.342 2.915 13.606 1.342" fill="none" stroke="#000" stroke-width="2px"/>
        </g>
        <g transform="matrix(.99906 -.043291 .043291 .99906 -3.5538 40.783)">
            <path d="m594.58 663.16c4.774 3.015 10.066 1.252 12.597 0.584" fill="none" stroke="#000" stroke-width="2px"/>
        </g>
        <g transform="matrix(.99906 -.043291 .043291 .99906 -3.5538 40.783)">
            <path d="m599.96 682.91c4.913 1.832 12.57 2.501 15.689 1.924" fill="none" stroke="#000" stroke-width="2px"/>
        </g>
        <g transform="matrix(.72339 .30637 -.39724 .93795 503.93 -140.32)">
            <path d="m586.26 640.14c3.977 5.014 10.466 1.62 13.71-0.077" fill="none" stroke="#000" stroke-width="2.2px"/>
        </g>
        <g transform="matrix(.72339 .30637 -.39724 .93795 500.9 -128.71)">
            <path d="m586.04 639.02c5.016 5.358 11.677 2.15 15.007 0.547" fill="none" stroke="#000" stroke-width="2.2px"/>
        </g>
        <g transform="matrix(.72339 .30637 -.39724 .93795 500.9 -131.71)">
            <path d="m590.85 657.21c4.774 3.015 12.984 1.969 15.248 0.396" fill="none" stroke="#000" stroke-width="2.2px"/>
        </g>
        <g transform="matrix(.72339 .30637 -.39724 .93795 500.9 -128.71)">
            <path d="m592.62 667.36c4.774 3.015 14.578 2.766 16.842 1.193" fill="none" stroke="#000" stroke-width="2.2px"/>
        </g>
        <g transform="matrix(.72339 .30637 -.39724 .93795 500.9 -128.71)">
            <path d="m597.27 680.57c4.774 3.015 14.046 0.942 16.311-0.631" fill="none" stroke="#000" stroke-width="2.2px"/>
        </g>
        <g transform="matrix(.72339 .30637 -.39724 .93795 510.89 -135.97)">
            <path d="m589.96 638.39c5.271 3.351 8.544 0.932 10.181-0.277" fill="none" stroke="#000" stroke-width="2.2px"/>
        </g>
        <g transform="matrix(.72339 .30637 -.39724 .93795 506.44 -151.84)">
            <path d="m585.16 636.91c5.271 3.351 10.504 0.199 13.121-1.378" fill="none" stroke="#000" stroke-width="2.2px"/>
        </g>
        <g transform="matrix(.72339 .30637 -.39724 .93795 513.4 -147.5)">
            <path d="m588.09 634.23c4.989 1.779 8.958 0.082 10.942-0.767" fill="none" stroke="#000" stroke-width="2.2px"/>
        </g>
        <g transform="matrix(.72339 .30637 -.39724 .93795 507.86 -124.36)">
            <path d="m591.47 638.46c5.271 3.351 8.732-0.384 10.462-2.251" fill="none" stroke="#000" stroke-width="2.2px"/>
        </g>
        <g transform="matrix(.72339 .30637 -.39724 .93795 507.86 -126.36)">
            <path d="m596.66 656.57c3.848 1.053 9.021-0.613 11.285-2.186" fill="none" stroke="#000" stroke-width="2.2px"/>
        </g>
        <g transform="matrix(.72339 .30637 -.39724 .93795 507.86 -124.36)">
            <path d="m600.26 666.59c4.774 3.015 9.044-0.094 11.576-0.761" fill="none" stroke="#000" stroke-width="2.2px"/>
        </g>
        <g transform="matrix(.72339 .30637 -.39724 .93795 507.86 -124.36)">
            <path d="m603.67 679.6c3.999 0.166 9.457-1.305 11.435-3.96" fill="none" stroke="#000" stroke-width="2.2px"/>
        </g>
        <g transform="matrix(.73991 .26548 -.36555 .95034 487.78 -114.82)">
            <path d="m590.64 636.62c5.271 3.35 8.165-8e-3 9.612-1.688" fill="none" stroke="#000" stroke-width="2.22px"/>
        </g>
        <g transform="matrix(.73991 .26548 -.36555 .95034 489.88 -126.37)">
            <path d="m589.42 631.23c5.27 3.351 7.48 0.669 8.584-0.672" fill="none" stroke="#000" stroke-width="2.22px"/>
        </g>
        <g transform="matrix(.73991 .26548 -.36555 .95034 485.16 -103.16)">
            <path d="m591.62 635.22c5.27 3.351 8.631 0.673 10.312-0.667" fill="none" stroke="#000" stroke-width="2.22px"/>
        </g>
        <g transform="matrix(.73991 .26548 -.36555 .95034 485.16 -104.16)">
            <path d="m595.41 650.68c4.775 3.015 9.406 0.41 11.67-1.163" fill="none" stroke="#000" stroke-width="2.22px"/>
        </g>
        <g transform="matrix(.73991 .26548 -.36555 .95034 485.16 -103.16)">
            <path d="m600.15 664.62c5.953 0.634 7.926-2.91 10.457-3.578" fill="none" stroke="#000" stroke-width="2.22px"/>
        </g>
        <g transform="matrix(.73991 .26548 -.36555 .95034 485.16 -103.16)">
            <path d="m602.34 674.42c4.914 1.832 7.799-3.874 10.918-4.451" fill="none" stroke="#000" stroke-width="2.22px"/>
        </g>
        <path d="m630.99 625.17c13.594 29.692 27.188 59.384 40.782 89.076" fill="none" stroke="#000" stroke-width="2px"/>
        <path d="m648.98 625.96c18.809 23.06 37.619 46.119 56.429 69.179" fill="none" stroke="#000" stroke-width="2px"/>
        <path d="m384.72 639.46c7.316 9.063 10.202 17.87 17.518 26.933 6.557 8.124 17.543 16.504 24.1 24.628" fill="none" stroke="#000" stroke-width="2px"/>
        <path d="m147.29 563.39c46.277 20.121 103.25 39.758 149.78 50.077 46.166 10.239 81.365 20.411 128.3 11.594" fill="none" stroke="#000" stroke-width="2px"/>
        <path d="m238.77 690.32c44.584-30.272 89.167-60.544 133.75-90.817" fill="none" stroke="#000" stroke-width="2px"/>
        <path d="m315.37 666.7c12.056 19.058 24.112 38.117 36.168 57.175" fill="none" stroke="#000" stroke-width="2px"/>
        <path d="m258.12 684.29c22.764 1.567 38.483 6.566 61.247 8.134 17.521 1.206 42.088-1.018 59.609 0.188" fill="none" stroke="#000" stroke-width="2px"/>
        <path d="m110.73 551.08c46.938 44.516 93.875 89.032 140.81 133.55" fill="none" stroke="#000" stroke-width="2px"/>
        <path d="m403.9 602.83c11.206 5.116 33.618 15.347 42.132 15.302 5.986-0.031 7.96-10.392 8.947-15.572" fill="none" stroke="#000" stroke-width="2px"/>
        <path d="m446.17 617.67c4.411 13.361 13.233 40.084 21.146 53.782 6.458 11.181 19.707 22.666 26.331 28.408" fill="none" stroke="#000" stroke-width="2px"/>
        <path d="m403.66 600.89s13.585 37.836 20.795 53.093c6.579 13.919 22.47 38.45 22.47 38.45" fill="none" stroke="#000" stroke-width="2px"/>
        <path d="m295.82 634.5 249.1-338.85" fill="none" stroke="#000" stroke-width="2px"/>
        <path d="m285.9 627.17 262.14-351.31" fill="none" stroke="#000" stroke-width="2px"/>
        <path d="m685.11 171.12-97.088 88.14" fill="none" stroke="#000" stroke-width="2px"/>
        <path d="m548.12 151.67s-70.499 116.27-110.97 162.66c-36.412 41.747-131.85 115.73-131.85 115.73" fill="none" stroke="#000" stroke-width="2px"/>
        <path d="m548.12 151.67s12.379 47.578-82.633 155.06c-36.688 41.505-85.014 82.224-85.014 82.224" fill="none" stroke="#000" stroke-width="2px"/>
        <path d="m347.68 649.87 192.23-164.79" fill="none" stroke="#000" stroke-width="4px"/>
        <path d="m209.41 700.56 217.08-76.918" fill="none" stroke="#000" stroke-width="4px"/>
        <path d="m503.72 259.16 80.085-82.531" fill="none" stroke="#000" stroke-width="4px"/>
        <path d="m477.51 372.54 130.49-82.713" fill="none" stroke="#000" stroke-width="4px"/>
        <path d="m606.21 539.68 192.72-60.774" fill="none" stroke="#000" stroke-width="4px"/>
        <path d="m633.64 275.98c36.276-24.134 72.552-48.268 108.83-72.403" fill="none" stroke="#000" stroke-width="4px"/>
        <g transform="translate(-13.619 109.66)">
            <path d="m633.64 275.98c52.356-24.797 104.71-49.595 157.07-74.392" fill="none" stroke="#000" stroke-width="4px"/>
        </g>
        <path d="m605.34 713.63s-34.601-118.82-46.547-205.96c-16.245-118.5-9.437-356-9.437-356" fill="none" stroke="#000" stroke-width="2px"/>
        <path d="m451.25 698.3s117.28-93.641 180.69-154.59c95.878-92.162 141.48-229.29 141.48-229.29" fill="none" stroke="#000" stroke-width="2px"/>
        <path d="m466.39 701.54s107.96-90.834 170.31-152.87c80.025-79.619 136.71-234.25 136.71-234.25" fill="none" stroke="#000" stroke-width="2px"/>
        <path d="m518.83 709.58s59.479-71.928 117.35-142.09c74.822-90.716 137.24-253.06 137.24-253.06" fill="none" stroke="#000" stroke-width="2px"/>
        <path d="m623.51 731.81s14.268-24.901 38.419-112.59c26.073-94.671 36.761-139.22 36.761-139.22" fill="none" stroke="#000" stroke-width="2px"/>
        <path d="m623.73 724.63s-45.605-121.4-57.552-208.54c-16.245-118.5-16.827-364.42-16.827-364.42" fill="none" stroke="#000" stroke-width="2px"/>
        <path d="m636.14 724.63s-51.159-122.72-63.105-209.86c-16.245-118.5-23.681-363.11-23.681-363.11" fill="none" stroke="#000" stroke-width="2px"/>
        <path d="m652.71 724.79s-60.513-126.74-72.459-213.88c-16.246-118.5-30.902-359.24-30.902-359.24" fill="none" stroke="#000" stroke-width="2px"/>
        <path d="m657.28 714.69c9.562-57.994 25.754-107.32 35.316-165.31 11.108-67.367 26.695-210.77 26.695-210.77" fill="none" stroke="#000" stroke-width="2px"/>
        <path d="m670.92 719.14c9.563-57.994 19.706-110.87 29.268-168.86 11.108-67.367 19.11-211.66 19.11-211.66" fill="none" stroke="#000" stroke-width="2px"/>
        <path d="m680.63 719.14c9.562-57.994 15.615-102.33 25.177-160.32 11.108-67.366 13.486-220.2 13.486-220.2" fill="none" stroke="#000" stroke-width="2px"/>
        <path d="m692.7 701.34c9.562-57.994 8.444-78.315 18.006-136.31 11.108-67.367 8.584-226.42 8.584-226.42" fill="none" stroke="#000" stroke-width="2px"/>
        <g transform="matrix(1.0237 0 0 1.0389 12.843 -26.502)">
            <path d="m743.64 673.87c1.438 7.851 2.877 15.701 4.315 23.551" fill="none" stroke="#000" stroke-width="1.94px"/>
        </g>
        <path d="m854.11 658.91c4.536 3.754 13.61 11.262 24.648 9.834 6.525-0.845 11.767-10.738 14.388-15.684" fill="none" stroke="#000" stroke-width="2px"/>
        <path d="m743.64 673.87c1.438 7.851 2.877 15.701 4.315 23.551" fill="none" stroke="#000" stroke-width="2px"/>
        <path d="m794.61 670.1c3.443 8.695 6.886 17.39 10.328 26.085" fill="none" stroke="#000" stroke-width="2px"/>
        <path d="m812.54 666.24c3.019 9.678 6.038 19.357 9.057 29.035" fill="none" stroke="#000" stroke-width="2px"/>
        <path d="m822.04 664.92c2.468 9.84 4.935 19.681 7.403 29.522" fill="none" stroke="#000" stroke-width="2px"/>
        <path d="m834.62 662.42c0.305 10.047 0.61 20.093 0.914 30.14" fill="none" stroke="#000" stroke-width="2px"/>
        <path d="m853.57 659.98-23.091 34.116" fill="none" stroke="#000" stroke-width="2px"/>
        <path d="m853.57 659.98c4.725 9.803 9.45 19.606 14.176 29.409" fill="none" stroke="#000" stroke-width="2px"/>
        <g transform="translate(18.397 .6276)">
            <path d="m743.64 673.87c1.438 7.851 2.877 15.701 4.315 23.551" fill="none" stroke="#000" stroke-width="2px"/>
        </g>
        <g transform="matrix(1.5309 0 0 1.1783 -354.45 -123.71)">
            <path d="m743.64 673.87c1.438 7.851 2.877 15.701 4.315 23.551" fill="none" stroke="#000" stroke-width="1.46px"/>
        </g>
    </g>
    <g transform="translate(-92.638 -150.67)">
        <path d="m685.46 166.21c-5.72-0.103 19.689 534.57 19.689 534.57l34.317 0.619s-48.287-535.08-54.006-535.19z" fill="#cd3f3f" stroke="#000" stroke-width="1px"/>
        <g transform="matrix(.42165 0 0 1.008 257.72 1.171)">
            <path d="m684.75 153.98c-7.236-0.558-41.32 542.05-41.32 542.05l43.418 3.351s5.138-544.84-2.098-545.4z" fill="#cd3f3f" stroke="#000" stroke-width="1.29px"/>
        </g>
        <path d="m687.87 695.52-1.794 18.926-25.003 0.548-8.739 5.718-36.383 0.549 2.877 11.615 119.66 8.864 157.19-36.903 2.444-20.147s-58.494 9.517-88.027 11.038c-35.041 1.805-122.22-0.208-122.22-0.208z" fill-opacity="0"/>
        <path d="m687.96 691.52s86.965 2.013 121.92 0.213c29.387-1.514 87.591-10.992 87.591-10.992 1.241-0.202 2.505 0.191 3.412 1.063 0.908 0.871 1.352 2.118 1.201 3.366l-2.444 20.148c-0.202 1.666-1.423 3.029-3.057 3.412l-157.19 36.903c-0.396 0.093-0.804 0.125-1.209 0.095l-119.66-8.863c-1.724-0.128-3.171-1.35-3.587-3.028l-2.877-11.616c-0.293-1.184-0.03-2.437 0.715-3.403 0.744-0.966 1.888-1.54 3.108-1.558l35.223-0.531 7.769-5.083c0.626-0.41 1.354-0.636 2.102-0.652l21.445-0.47 1.458-15.382c0.198-2.089 1.977-3.67 4.075-3.622zm-0.093 3.999-1.794 18.926-25.003 0.548-8.739 5.718-36.383 0.549 2.877 11.615 119.66 8.864 157.19-36.903 2.444-20.147s-58.494 9.517-88.027 11.038c-35.041 1.805-122.22-0.208-122.22-0.208z"/>
        <path d="m687.87 695.52-1.794 18.926-25.003 0.548-8.739 5.718-36.383 0.549 2.877 11.615 119.66 8.864 157.19-36.903 2.444-20.147s-58.494 9.517-88.027 11.038c-35.041 1.805-122.22-0.208-122.22-0.208z" stroke="#ffde00" stroke-width="2px"/>
        <path d="m353.06 696.55 1.289 15.927s35.652 28.677 122.88 36.475c83.824 7.493 213.86 18.133 262.25 17.343 80.281-1.313 170.23-27.333 170.23-27.333s-0.871-13.126-2.013-19.396c-1.265-6.949-5.578-22.302-5.578-22.302s-35.85 8.884-52.644 10.464c-21.507 2.023-76.398 1.677-76.398 1.677l-1.051 10.421-46.764 1.87 0.964 9.867-109.01-5.545-5.888-11.602-186.15-22.705 0.184 16.063s-25.411-1.278-37.391-3.138c-12.051-1.87-34.916-8.086-34.916-8.086z" fill-opacity="0"/>
        <path d="m354.1 692.69s22.579 6.146 34.48 7.994c8.833 1.371 25.048 2.418 32.729 2.862l-0.135-11.789c-0.013-1.153 0.472-2.256 1.331-3.025 0.859-0.77 2.008-1.131 3.153-0.991l186.15 22.704c1.323 0.162 2.479 0.972 3.083 2.161l4.839 9.535 102.06 5.191-0.513-5.247c-0.107-1.095 0.242-2.187 0.965-3.016 0.723-0.83 1.756-1.326 2.856-1.37l43.293-1.731 0.702-6.964c0.207-2.053 1.942-3.612 4.005-3.599 0 0 54.604 0.353 75.998-1.66 16.608-1.562 52.057-10.363 52.057-10.363 2.097-0.52 4.228 0.72 4.813 2.8 0 0 4.377 15.605 5.663 22.668 1.168 6.416 2.068 19.847 2.068 19.847 0.124 1.876-1.074 3.585-2.88 4.107 0 0-90.505 26.17-171.28 27.49-48.473 0.792-178.72-9.853-262.67-17.358-88.802-7.938-125.03-37.342-125.03-37.342-0.856-0.688-1.391-1.699-1.48-2.794l-1.289-15.927c-0.105-1.299 0.429-2.567 1.431-3.4 1.003-0.832 2.348-1.125 3.605-0.783zm-1.049 3.86 1.289 15.927s35.652 28.677 122.88 36.475c83.824 7.493 213.86 18.133 262.25 17.343 80.281-1.313 170.23-27.333 170.23-27.333s-0.871-13.126-2.013-19.396c-1.265-6.949-5.578-22.302-5.578-22.302s-35.85 8.884-52.644 10.464c-21.507 2.023-76.398 1.677-76.398 1.677l-1.051 10.421-46.764 1.87 0.964 9.867-109.01-5.545-5.888-11.602-186.15-22.705 0.184 16.063s-25.411-1.278-37.391-3.138c-12.051-1.87-34.916-8.086-34.916-8.086z"/>
        <path d="m406.04 709.02 8.103-30.803s5.746 0.578 8.62 0.862c3.434 0.34 11.984 1.176 11.984 1.176l-1.519 29.421-27.188-0.656z"/>
        <path d="m353.06 696.55 1.289 15.927s35.652 28.677 122.88 36.475c83.824 7.493 213.86 18.133 262.25 17.343 80.281-1.313 170.23-27.333 170.23-27.333s-0.871-13.126-2.013-19.396c-1.265-6.949-5.578-22.302-5.578-22.302s-35.85 8.884-52.644 10.464c-21.507 2.023-76.398 1.677-76.398 1.677l-1.051 10.421-46.764 1.87 0.964 9.867-109.01-5.545-5.888-11.602-186.15-22.705 0.184 16.063s-25.411-1.278-37.391-3.138c-12.051-1.87-34.916-8.086-34.916-8.086z" fill="#ff8600" stroke="#ffde00" stroke-width="2px"/>
        <path d="m658.28 713.98c-11.644-30.115-23.287-60.23-34.931-90.345" fill="none" stroke="#000" stroke-width="2px"/>
        <path d="m358.56 712.32s19.257 25.971 114.46 35.547c95.206 9.576 232.95 23.978 288.38 19.58 78.481-6.225 147.63-26.466 147.63-26.466s-48.468 52.121-217.02 46.119c-168.56-6.003-240.65-15.812-294.34-34.82-45.961-16.27-39.111-39.96-39.111-39.96z" stroke="#000" stroke-width="1px"/>
        <path d="m348.58 712.37s1.669 24.48 15.411 32.805 25.713 15.736 35.122 22.897c9.408 7.161 17.896 32.105 17.896 32.105s133.7 4.588 169.64 3.821c125.88-2.689 282.41-24.662 282.41-24.662l38.448-36.3s-64.275 54.761-280.46 38.06-259.51-37.189-265.48-56.149c-5.967-18.961-3.743-13.171-3.743-13.171l-9.241 0.594z" fill="none" stroke="#000" stroke-width="4px"/>
        <path d="m419.38 806.64-1.833-5.95s147.42 3.677 174.37 2.55 277.99-23.797 277.99-23.797-32.473 4.857-56.91 8.925c-12.973 2.159-25.211 7.568-32.883 6.833-14.512-1.391-45.091 0.392-68.1 2.507-58.802 5.403-117.79 14.703-128.73 14.171-17.834-0.867-65.382-4.705-104.77-5.877-32.275-0.961-59.137 0.638-59.137 0.638z" fill="none" stroke="#000" stroke-width="4px"/>
        <path d="m419.38 806.64-1.833-5.95s147.42 3.677 174.37 2.55 277.99-23.797 277.99-23.797-32.473 4.857-56.91 8.925c-12.973 2.159-25.211 7.568-32.883 6.833-14.512-1.391-45.091 0.392-68.1 2.507-58.802 5.403-117.79 14.703-128.73 14.171-17.834-0.867-65.382-4.705-104.77-5.877-32.275-0.961-59.137 0.638-59.137 0.638z" fill="#cd3f3f" stroke="#000" stroke-width="1px"/>
        <path d="m348.58 712.37s1.669 24.48 15.411 32.805 25.713 15.736 35.122 22.897c9.408 7.161 17.896 32.105 17.896 32.105s133.7 4.588 169.64 3.821c125.88-2.689 282.41-24.662 282.41-24.662l38.448-36.3s-64.275 54.761-280.46 38.06-259.51-37.189-265.48-56.149c-5.967-18.961-3.743-13.171-3.743-13.171l-9.241 0.594z" fill="#fff" stroke="#000" stroke-width="1px"/>
        <path d="m93.138 535.13 323.09 154.95-7.697 13.918-149.4-60.251 1.79-14.664-151.12-77.668-16.668-16.282z" fill="#cd3f3f" stroke="#000" stroke-width="1px"/>
    </g>
    <g transform="translate(-92.638 -150.67)" fill="#fff" stroke="#000" stroke-width="1px">
        <path d="m710.42 521.93 110.22-79.703s5.113 79.536 16.782 114.41c11.503 34.378 53.231 94.837 53.231 94.837l-178.14 26.783-2.091-156.33z"/>
        <path d="m631.54 378.61 132.13-60.694 35.035 153.73s-76.413 8.978-108.66 18.575c-29.833 8.878-84.841 39.008-84.841 39.008l26.336-150.62z"/>
        <path d="m641.05 267.33-12.741 106.07s24.375-43.731 45.587-53.942c22.444-10.804 89.078-10.885 89.078-10.885l-30.75-100.66-91.174 59.425z"/>
        <path d="m468.17 536.42 34.874 100.77s17.242-17.452 28.5-18.298c24.283-1.824 117.2 7.354 117.2 7.354l-28.03-141.56-152.54 51.742z"/>
        <path d="m492.33 358.04 100.42-64.947 25.503 173.19s-75.036 17.758-101.53 29.54c-21.476 9.55-57.425 41.15-57.425 41.15l33.032-178.94z"/>
        <path d="m499.88 363.15-175.09 242.05s42.835-4.174 62.523-4.384c21.907-0.233 68.915 2.984 68.915 2.984l43.649-240.65z"/>
        <path d="m103 540 386-216-107 231s-89.698-9.953-135.24-12.402c-46.5-2.5-143.76-2.598-143.76-2.598z"/>
        <path d="m508.13 253.77-30.472 115.39s24.599-50.35 44.383-63.733 74.321-16.566 74.321-16.566l-15.709-110.94-72.523 75.855z"/>
    </g>
</svg>
