<svg viewBox="0 0 361 364" xmlns="http://www.w3.org/2000/svg" xml:space="preserve" style="fill-rule:evenodd;clip-rule:evenodd;stroke-linecap:round;stroke-linejoin:round;stroke-miterlimit:1.5"><path d="M536.427 762s62.426-1 88.426-17c13.679-8.417 26.121-42.226 35-53 8.879-10.774 12.115-25.803-2-31.047-14.114-5.243-56.772 19.26-75 23.047-19.111 3.97-46.426 5-46.426 5s-27.685-1.03-46.427-5c-18.213-3.858-60.885-28.29-75-23.047-14.115 5.244-10.879 20.273-2 31.047 8.879 10.774 21.322 44.583 35 53 26 16 88.427 17 88.427 17" style="fill:#fff;stroke:#000;stroke-width:4px" transform="translate(-163.305 -166.607) scale(.69444)"/><path d="m537.427 673 3.257 35L544 673h-6.573Z" style="stroke:#000;stroke-width:4.22px" transform="translate(-146.486 -137.146) scale(.6587)"/><path d="M514.783 670.62 518 692l-8.217-21 5-.38Z" style="stroke:#000;stroke-width:3.27px" transform="matrix(-.6587 0 0 1.00662 566.231 -369.335)"/><path d="m519 672-1 20-4-21 5 1Z" style="stroke:#000;stroke-width:3.27px" transform="matrix(-.6587 0 0 1.00662 584.016 -371)"/><path d="m519 672-1 20-4-21 5 1Z" style="stroke:#000;stroke-width:3.05px" transform="matrix(-.52696 0 0 1.1744 534.745 -492.478)"/><path d="M520.318 672 518 692l-4-21 6.318 1Z" style="stroke:#000;stroke-width:3.46px" transform="matrix(-.52696 0 0 1.00662 550.553 -384.434)"/><path d="M521.109 672 518 692l-4-21 7.109 1Z" style="stroke:#000;stroke-width:3.27px" transform="matrix(.6587 0 0 1.00662 -147.804 -369.335)"/><path d="m519 672-1 20-4-21 5 1Z" style="stroke:#000;stroke-width:3.27px" transform="matrix(.6587 0 0 1.00662 -165.589 -371)"/><path d="m519 672-1 20-4-21 5 1Z" style="stroke:#000;stroke-width:3.05px" transform="matrix(.52696 0 0 1.1744 -116.318 -492.478)"/><path d="m519 672-1 20-4-21 5 1Z" style="stroke:#000;stroke-width:3.46px" transform="matrix(.52696 0 0 1.00662 -132.126 -384.434)"/><path d="M709 368.523c-41.326-22.032-62.568-122.64-150.356-122.64-79.505 0-151.644 122.64-151.644 122.64s-12.912 46.22-24 82.477c-11.088 36.257-13.968 58.09 4.249 89 18.217 30.91 40.969 76.821 60.988 82 20.018 5.179 60.43 18.192 109.763 18.192 49.333 0 89.745-13.013 109.763-18.192 20.019-5.179 42.771-51.09 60.988-82 18.217-30.91 15.337-52.743 4.249-89-11.088-36.257-24-82.477-24-82.477" style="fill:#fff;stroke:#000;stroke-width:3.56px" transform="matrix(.81728 0 0 .73996 -247.355 -172.324)"/><path d="M535.607 204.425c16.948 0 55.483 6.406 72.908 13.273 66.747 26.305 109.844 90.755 123.424 121.808 5.242 11.985-9.276 25.478-21.476 29.712-43.872 15.224-96.185 23.066-170.065 24.219-73.88-1.153-187.127-41.791-187.127-41.791s-22.407-1.801 12.117-26.995c27.763-20.26 48.451-103.391 151.238-118.469 6.216-.912 12.505-1.757 18.981-1.757" style="fill:#a53232;stroke:#000;stroke-width:4px" transform="translate(-166.262 -140.572) scale(.69444)"/><path d="m537.427 673 3.257 33.946L544 673h-6.573Z" style="stroke:#000;stroke-width:4.22px" transform="matrix(.6587 0 0 -.6587 -146.958 745.565)"/><path d="m519 672-1 20-4-21 5 1Z" style="stroke:#000;stroke-width:3.27px" transform="matrix(-.6587 0 0 -1.00662 565.758 975.67)"/><path d="m519 672-1 20-4-21 5 1Z" style="stroke:#000;stroke-width:3.27px" transform="matrix(-.6587 0 0 -1.00662 583.543 974.558)"/><path d="M521.636 672 518 690.226l-5.318-18.043 8.954-.183Z" style="stroke:#000;stroke-width:3.05px" transform="matrix(-.52696 0 0 -1.1744 534.272 1084.23)"/><path d="m519 672-1 20-4-21 5 1Z" style="stroke:#000;stroke-width:3.46px" transform="matrix(-.52696 0 0 -1.00662 550.081 967.853)"/><path d="m519 672-1 19.31-7.163-20.31 8.163 1Z" style="stroke:#000;stroke-width:3.27px" transform="matrix(.6587 0 0 -1.00662 -148.276 974.976)"/><path d="m519 672-1 20-6.109-21 7.109 1Z" style="stroke:#000;stroke-width:3.27px" transform="matrix(.6587 0 0 -1.00662 -166.061 974.558)"/><path d="m519 672-1 18.226L514 671l5 1Z" style="stroke:#000;stroke-width:3.05px" transform="matrix(.52696 0 0 -1.1744 -116.79 1084.93)"/><path d="m519 672-1 21.38-6.636-22.38 7.636 1Z" style="stroke:#000;stroke-width:3.46px" transform="matrix(.52696 0 0 -1.00662 -132.599 967.853)"/><path d="M541.791 605.085s20.777 8.502 26.135 1c10-14-3.192-22.959-5-32-9-45-22.926-41.1-22.926-41.1l-.074-.085S526 529 517 574c-1.808 9.041-15 18-5 32 5.359 7.502 26.135-1 26.135-1" style="stroke:#000;stroke-width:4px" transform="translate(-166.262 -161.766) scale(.69444)"/><path d="M375 466s14.761-26.353 43-26c28.239.353 63.463 12.726 68.112 32 4.649 19.274-.302 41.803-11.112 49.215-10.81 7.412-67.862 10.04-79 0-11.138-10.04-24.159-41.821-21-55.215Z" style="stroke:#000;stroke-width:4px" transform="translate(-161.236 -157.528) scale(.69444)"/><path d="M375 466s14.761-26.353 43-26c28.239.353 63.463 12.726 68.112 32 4.649 19.274-.302 41.803-11.112 49.215-10.81 7.412-67.862 10.04-79 0-11.138-10.04-24.159-41.821-21-55.215Z" style="stroke:#000;stroke-width:4px" transform="matrix(-.69444 0 0 .69444 578.606 -157.528)"/><path d="M342.251 99.492s8.956 13.893-9.022 20.032c-129.168 44.107-248.115 11.141-236.003-3.287" style="fill:none;stroke:#000;stroke-width:2.68px" transform="matrix(.99364 0 0 1 -11.628 -28.434)"/><path d="M83.293 118.988s-17.344-15.434-39.337 9.182c-21.992 24.617-35.714 26.792-35.714 26.792s48.816 8.317 59.093 1.121c10.277-7.195 15.958-37.095 15.958-37.095Z" style="fill:#a53232;stroke:#000;stroke-width:2.67px" transform="translate(-6.909 -21.299)"/><path d="M83.293 118.988s-17.344-15.434-39.337 9.182c-21.992 24.617-40.059 30.981-40.059 30.981s53.161 4.128 63.438-3.068c10.277-7.195 15.958-37.095 15.958-37.095Z" style="fill:#a53232;stroke:#000;stroke-width:2.67px" transform="rotate(-7.08 -54.141 94.679)"/><ellipse cx="82.931" cy="119.027" rx="7.681" ry="8.33" style="fill:#a53232;stroke:#000;stroke-width:2px" transform="matrix(1.30624 0 0 1.3587 -27.69 -63.996)"/><path d="M83.904 127.568s1.267-3.231 8.631-4.184c7.364-.954 4.667-7.471 4.667-7.471" style="fill:none;stroke:#000;stroke-width:2.67px" transform="translate(-12.17 -28.434)"/></svg>