<svg viewBox="0 0 777 784" xmlns="http://www.w3.org/2000/svg" xml:space="preserve" style="fill-rule:evenodd;clip-rule:evenodd;stroke-linecap:round;stroke-linejoin:round;stroke-miterlimit:1.5"><path d="M402 510 174 395l474-52 246 60" style="fill:url(#a);stroke:#ffc12f;stroke-width:20px" transform="translate(-129.953 -72.718)"/><path d="M558 409 66 513l37 268 388-110 67-262Z" style="fill:#b58956;stroke:#ffc12f;stroke-width:20px" transform="translate(206.047 -78.718)"/><path d="M558 409 66 513l37 268 390.107-114.301L558 409Z" style="fill:#b58956;stroke:#000;stroke-width:2.13px" transform="matrix(.94919 0 0 .9301 221.4 -36.132)"/><path d="m402 510 38 265-192-112-74-260 228 107Z" style="fill:#b58956;fill-opacity:.36;stroke:#ffc12f;stroke-width:20px" transform="translate(-129.953 -72.718)"/><path d="m402 510 40.283 260.699L248 663l-76.283-253.549L402 510Z" style="fill:#b58956;stroke:#000;stroke-width:2.21px" transform="matrix(.87594 0 0 .9301 -90.367 -32.551)"/><path d="M430.432 149.133s-13.562-9.31-21.732-9.31c-8.5 0-30.002 6.052-30.002 6.052l51.734 3.258Z" style="fill:#ffc12f" transform="matrix(1.31369 -.00957 .01098 1.50799 -248.979 -194.731)"/><path d="M430.432 149.133s-13.598-9.981-21.732-9.31c-22.979 1.898-27.007 11.981-27.007 11.981l48.739-2.671Z" style="fill:#ffc12f" transform="matrix(1.31369 -.00957 .01098 1.50799 -.979 -206.142)"/><path d="M427.409 146.461s-13.594-5.331-21.765-5.331c-8.5 0-21.813 7.707-21.813 7.707l43.578-2.376Z" style="fill:#ffc12f" transform="matrix(1.31369 -.00957 .01098 1.50799 -106.979 -201.647)"/><path d="M229.477 159.702 339 156l21 7.702s14.87-4.867 25.768-5.634C432.435 154.785 448 162 448 162s-7.083-8.204-13.3-9.664C412.7 147.169 392 158 392 158s13.977-6.766 30.975-7.057c10.815-.185 39.044-1.768 60.471-2.169C493.802 148.581 498 156 498 156l86-3s-2.93-7.571-23.102-7.791c-12.515-.137-22.898 9.396-22.898 9.396s6.065-8.795 22.898-9.396c11.473-.41 37.752-2.174 49.102-1.209 10.376.882 17 10 17 10s18.436-3.335 30.103-3.501C668.735 150.332 697 153 697 153s-5.766-13.717-27.704-12.763c-28.307 1.23-28.406 11.64-28.406 11.64S637.663 131.613 727 141c18.72 1.967 26.795 12.821 43 13 51.515.569 66.212 12.341 66.212 12.341S347.213 184.428 338 186c-9.213 1.572-5.56 2.857-16 3-5.619.077-27.991-12.438-51.149-20.298-19.87-6.744-41.374-9-41.374-9Z" style="fill:#b58956;stroke:#000;stroke-width:1.6px" transform="translate(-133.953 -137.718)"/><path d="M165 446s13.74.687 0-55-39.553-132.823 0-181c65.403-79.663 111.897-20.554 146-15 27.108 4.415 28 1 28 1" style="fill:#b58956;stroke:#ffc12f;stroke-width:20px" transform="translate(-133.953 -137.718)"/><path d="m165 446 172-250 494-21-179 219-487 52Z" style="fill:url(#b);stroke:#ffc12f;stroke-width:20px" transform="translate(-133.953 -137.718)"/><path d="M899.642 403.379 391.818 513.554 174 395l499.28-51.821 226.362 60.2Z" style="fill:none;stroke:#000;stroke-width:2.33px" transform="matrix(.88582 -.00586 .00548 .8274 -80.74 1.801)"/><path d="m176.501 448.194 163.636-247.805L831 175 660.364 395.097l-483.863 53.097Z" style="fill:none;stroke:#000;stroke-width:2.14px" transform="matrix(.95646 0 0 .91144 -116.769 -113.22)"/><path d="M165 446c1.799-13.366 13.74.687 0-55s-38.661-132.176 0-181c65.403-82.598 132.124-26.228 165.603-17.935 17.823 4.415 16.607-.117 23.873-.393 88.962-3.375 509.897-19.855 509.897-19.855s12.521 1.55 7.224 13.008c-2.922 6.319-185.933 216.179-185.933 216.179l-505.552 53.8s-7.492 1.115-11.349-.978c-3.255-1.767-4.276-4.013-3.763-7.826Z" style="fill:none;stroke:#000;stroke-width:2.01px" transform="matrix(.96924 0 0 1.0223 -138.525 -147.665)"/><path d="M173 455.303s-9.088-.216-2 21.697c8.451 26.127 72.038 244.637 70.477 255-.615 4.082 93.675 57.296 164.523 98 15.771 9.061 27.248 19.416 38 19 15.881-.614 26.972-8.56 82.844-22.747 92.867-23.58 173.785-49.677 268.283-75.405 19.691-5.36 37.351-10.222 41.085-11.848 7.016-8.2 6.173-19.599 11.574-38.91 15.26-54.564 40.453-156.325 55.363-208.59 4.474-15.682 7.872-20.832 4.851-29.5-.621-1.782-4.721-5.009-12.084-6.697C845.171 443.673 661 400 661 400m-482 7 139-201s-6.967 1.451-20-4c-13.033-5.451-50.222-28.021-68.523-23-18.302 5.021-67.977 23.692-74.477 83-5.73 52.282 14.887 94.991 17 112 2.113 17.009 7 33 7 33Z" style="fill:none;stroke:#000;stroke-width:2px" transform="translate(-133.953 -137.718)"/><path d="M272.344 601.5s29.914-.904 38.523 4.067c8.346 4.82 12.437 9.257 13.129 25.761.692 16.504-12.142 56.773-44.577 50.166-30.059-6.124-28.966-47.225-26.588-64.998 1.841-13.764 19.513-14.996 19.513-14.996Zm2.624 12.484s-11.456-1.075-12.757 9.076c-1.68 13.109-1.116 44.885 18.789 47.94 23.601 3.622 31.989-24.828 31.5-37-.489-12.172-8.601-16.989-8.601-16.989l-28.931-3.027Z" style="fill:#ffc12f;stroke:#000;stroke-width:1.57px" transform="matrix(1.40555 .26756 -.22306 1.0919 -84.1 -270.082)"/><path d="M286 596s-5.559.559-5 9c.559 8.441 7 9 7 9l21.736 1s-2.163-3.313-1.736-9c.275-3.668 4.5-7.247 4.5-7.247s-4.564-4.109-12.764-4.429C289.727 593.933 286 596 286 596Z" style="fill:#ffc12f;stroke:#000;stroke-width:1.58px" transform="matrix(1.40181 .28495 -.24546 1.08749 -81.999 -271.561)"/><ellipse cx="937" cy="673" rx="30" ry="15" style="fill:#e2a41f;stroke:#000;stroke-width:1.49px" transform="matrix(1.28737 -.34708 .35107 1.30217 -770.986 -232.436)"/><ellipse cx="937" cy="673" rx="30" ry="15" style="fill:#ffc314;stroke:#000;stroke-width:1.75px" transform="matrix(1.169 -.31517 .27926 1.03582 -612.814 -87.081)"/><ellipse cx="937" cy="673" rx="30" ry="15" style="fill:#e2a41f;stroke:#000;stroke-width:1.49px" transform="matrix(1.28737 -.34708 .35107 1.30217 -1149.36 -183.937)"/><ellipse cx="937" cy="673" rx="30" ry="15" style="fill:#ffc314;stroke:#000;stroke-width:1.75px" transform="matrix(1.169 -.31517 .27926 1.03582 -991.187 -38.582)"/><ellipse cx="937" cy="673" rx="30" ry="15" style="fill:#e2a41f;stroke:#000;stroke-width:1.37px" transform="matrix(1.45 0 0 1.46667 -836.603 -323.785)"/><ellipse cx="937" cy="673" rx="30" ry="15" style="fill:#ffc314;stroke:#000;stroke-width:1.61px" transform="matrix(1.31667 0 0 1.16667 -711.67 -126.385)"/><ellipse cx="937" cy="673" rx="30" ry="15" style="fill:#e2a41f;stroke:#000;stroke-width:1.24px" transform="matrix(1.55 0 0 1.66667 -902.306 -396.384)"/><ellipse cx="937" cy="673" rx="30" ry="15" style="fill:#ffc314;stroke:#000;stroke-width:1.46px" transform="matrix(1.40748 0 0 1.32576 -768.757 -172.067)"/><ellipse cx="937" cy="673" rx="30" ry="15" style="fill:#e2a41f;stroke:#000;stroke-width:1.37px" transform="matrix(1.45 0 0 1.46667 -749.603 -304.785)"/><ellipse cx="937" cy="673" rx="30" ry="15" style="fill:#ffc314;stroke:#000;stroke-width:1.61px" transform="matrix(1.31667 0 0 1.16667 -624.67 -107.385)"/><ellipse cx="937" cy="673" rx="30" ry="15" style="fill:#e2a41f;stroke:#000;stroke-width:1.37px" transform="matrix(1.45 0 0 1.46667 -798.603 -642.123)"/><ellipse cx="937" cy="673" rx="30" ry="15" style="fill:#ffc314;stroke:#000;stroke-width:1.61px" transform="matrix(1.31667 0 0 1.16667 -673.67 -444.723)"/><ellipse cx="937" cy="673" rx="30" ry="15" style="fill:#b0b0b0;stroke:#000;stroke-width:1.37px" transform="matrix(1.45 0 0 1.46667 -914.103 -303.785)"/><ellipse cx="937" cy="673" rx="30" ry="15" style="fill:#e5e5e5;stroke:#000;stroke-width:1.61px" transform="matrix(1.31667 0 0 1.16667 -789.17 -106.385)"/><ellipse cx="937" cy="673" rx="30" ry="15" style="fill:#e2a41f;stroke:#000;stroke-width:1.37px" transform="matrix(1.45 0 0 1.46667 -1113.6 -665.785)"/><ellipse cx="937" cy="673" rx="30" ry="15" style="fill:#ffc314;stroke:#000;stroke-width:1.61px" transform="matrix(1.31667 0 0 1.16667 -988.67 -468.385)"/><ellipse cx="937" cy="673" rx="30" ry="15" style="fill:#e2a41f;stroke:#000;stroke-width:1.24px" transform="matrix(1.55 0 0 1.66667 -1180.31 -719.793)"/><ellipse cx="937" cy="673" rx="30" ry="15" style="fill:#ffc314;stroke:#000;stroke-width:1.46px" transform="matrix(1.40748 0 0 1.32576 -1046.76 -495.475)"/><ellipse cx="937" cy="673" rx="30" ry="15" style="fill:#e2a41f;stroke:#000;stroke-width:1.41px" transform="matrix(1.31632 -.35749 .3844 1.4154 -1158.75 -223.916)"/><ellipse cx="937" cy="673" rx="30" ry="15" style="fill:#ffc314;stroke:#000;stroke-width:1.66px" transform="matrix(1.19528 -.32461 .30577 1.12589 -993.602 -64.217)"/><ellipse cx="937" cy="673" rx="30" ry="15" style="fill:#e2a41f;stroke:#000;stroke-width:1.37px" transform="matrix(1.45 0 0 1.46667 -1026.6 -646.785)"/><ellipse cx="937" cy="673" rx="30" ry="15" style="fill:#ffc314;stroke:#000;stroke-width:1.61px" transform="matrix(1.31667 0 0 1.16667 -901.67 -449.385)"/><ellipse cx="937" cy="673" rx="30" ry="15" style="fill:#e2a41f;stroke:#000;stroke-width:1.37px" transform="matrix(1.45 0 0 1.46667 -1191.1 -645.785)"/><ellipse cx="937" cy="673" rx="30" ry="15" style="fill:#ffc314;stroke:#000;stroke-width:1.61px" transform="matrix(1.31667 0 0 1.16667 -1066.17 -448.385)"/><ellipse cx="937" cy="673" rx="30" ry="15" style="fill:#e2a41f;stroke:#000;stroke-width:1.37px" transform="matrix(1.45 0 0 1.46667 -889.603 -694.785)"/><ellipse cx="937" cy="673" rx="30" ry="15" style="fill:#ffc314;stroke:#000;stroke-width:1.61px" transform="matrix(1.31667 0 0 1.16667 -764.67 -497.385)"/><ellipse cx="937" cy="673" rx="30" ry="15" style="fill:#c9c9c9;stroke:#000;stroke-width:1.24px" transform="matrix(1.55 0 0 1.66667 -955.306 -767.384)"/><ellipse cx="937" cy="673" rx="30" ry="15" style="fill:#dedede;stroke:#000;stroke-width:1.46px" transform="matrix(1.40748 0 0 1.32576 -821.757 -543.066)"/><ellipse cx="937" cy="673" rx="30" ry="15" style="fill:#e2a41f;stroke:#000;stroke-width:1.37px" transform="matrix(1.45 0 0 1.46667 -802.603 -675.785)"/><ellipse cx="937" cy="673" rx="30" ry="15" style="fill:#ffc314;stroke:#000;stroke-width:1.61px" transform="matrix(1.31667 0 0 1.16667 -677.67 -478.385)"/><ellipse cx="937" cy="673" rx="30" ry="15" style="fill:#e2a41f;stroke:#000;stroke-width:1.37px" transform="matrix(1.45 0 0 1.46667 -969.826 -664.123)"/><ellipse cx="937" cy="673" rx="30" ry="15" style="fill:#ffc314;stroke:#000;stroke-width:1.61px" transform="matrix(1.31667 0 0 1.16667 -844.893 -466.723)"/><ellipse cx="937" cy="673" rx="30" ry="15" style="fill:#e2a41f;stroke:#000;stroke-width:1.37px" transform="matrix(1.45 0 0 1.46667 -879.103 -323.785)"/><ellipse cx="937" cy="673" rx="30" ry="15" style="fill:#ffc314;stroke:#000;stroke-width:1.61px" transform="matrix(1.31667 0 0 1.16667 -754.17 -126.385)"/><ellipse cx="937" cy="673" rx="30" ry="15" style="fill:#e2a41f;stroke:#000;stroke-width:1.65px" transform="matrix(1.14848 -.37404 .37501 1.15148 -974.727 -161.737)"/><ellipse cx="937" cy="673" rx="30" ry="15" style="fill:#ffc314;stroke:#000;stroke-width:1.94px" transform="matrix(1.04288 -.33964 .2983 .91595 -825.3 -38.985)"/><ellipse cx="937" cy="673" rx="30" ry="15" style="fill:#e2a41f;stroke:#000;stroke-width:1.5px" transform="matrix(1.22768 -.39983 .42615 1.3085 -1047.14 -252.534)"/><ellipse cx="937" cy="673" rx="30" ry="15" style="fill:#ffc314;stroke:#000;stroke-width:1.76px" transform="matrix(1.1148 -.36307 .33899 1.04086 -884.002 -110.872)"/><ellipse cx="937" cy="673" rx="30" ry="15" style="fill:#e2a41f;stroke:#000;stroke-width:1.65px" transform="matrix(1.19527 -.17388 .17433 1.1984 -795.294 -385.875)"/><ellipse cx="937" cy="673" rx="30" ry="15" style="fill:#ffc314;stroke:#000;stroke-width:1.94px" transform="matrix(1.08536 -.15789 .13867 .95327 -668.845 -239.563)"/><ellipse cx="937" cy="673" rx="30" ry="15" style="fill:#e2a41f;stroke:#000;stroke-width:1.65px" transform="matrix(1.14848 -.37404 .37501 1.15148 -1085.81 -71.173)"/><ellipse cx="937" cy="673" rx="30" ry="15" style="fill:#ffc314;stroke:#000;stroke-width:1.94px" transform="matrix(1.04288 -.33964 .2983 .91595 -936.378 51.58)"/><ellipse cx="937" cy="673" rx="30" ry="15" style="fill:#e2a41f;stroke:#000;stroke-width:1.65px" transform="matrix(1.14848 -.37404 .37501 1.15148 -1039.96 -91.789)"/><ellipse cx="937" cy="673" rx="30" ry="15" style="fill:#ffc314;stroke:#000;stroke-width:1.94px" transform="matrix(1.04288 -.33964 .2983 .91595 -890.535 30.963)"/><ellipse cx="937" cy="673" rx="30" ry="15" style="fill:#e2a41f;stroke:#000;stroke-width:1.5px" transform="matrix(-1.28647 -.10985 -.11708 1.37116 1769.66 -496.909)"/><ellipse cx="937" cy="673" rx="30" ry="15" style="fill:#ffc314;stroke:#000;stroke-width:1.76px" transform="matrix(-1.16818 -.09975 -.09313 1.0907 1643.06 -321.828)"/><ellipse cx="937" cy="673" rx="30" ry="15" style="fill:#e2a41f;stroke:#000;stroke-width:1.65px" transform="matrix(-1.20347 -.10276 -.10303 1.20662 1607.21 -427.11)"/><ellipse cx="937" cy="673" rx="30" ry="15" style="fill:#ffc314;stroke:#000;stroke-width:1.94px" transform="matrix(-1.09281 -.09332 -.08196 .95981 1489.65 -273.565)"/><ellipse cx="937" cy="673" rx="30" ry="15" style="fill:#e2a41f;stroke:#000;stroke-width:1.65px" transform="matrix(-1.20347 -.10276 -.10303 1.20662 1747.67 -431.783)"/><ellipse cx="937" cy="673" rx="30" ry="15" style="fill:#ffc314;stroke:#000;stroke-width:1.94px" transform="matrix(-1.09281 -.09332 -.08196 .95981 1630.11 -278.237)"/><ellipse cx="937" cy="673" rx="30" ry="15" style="fill:#e2a41f;stroke:#000;stroke-width:1.65px" transform="matrix(-1.20347 -.10276 -.10303 1.20662 1720.03 -450.718)"/><ellipse cx="937" cy="673" rx="30" ry="15" style="fill:#ffc314;stroke:#000;stroke-width:1.94px" transform="matrix(-1.09281 -.09332 -.08196 .95981 1602.47 -297.172)"/><path d="m637 895 19-29-14 54-5-25Z" style="fill:#f4b48a;stroke:#000;stroke-width:2px" transform="translate(-179.953 -585.718)"/><path d="m615.5 910 21.5-15 5 25-26.5-10Z" style="fill:#39cdb7;stroke:#000;stroke-width:2px" transform="translate(-179.953 -585.718)"/><path d="m594 914 21.5-4 26.5 10-48-6Z" style="fill:#00a4ff;stroke:#000;stroke-width:2px" transform="translate(-179.953 -585.718)"/><path d="M656 866h-35l9 6h23l3-6Z" style="fill:#ffb400;stroke:#000;stroke-width:2px" transform="translate(-179.953 -585.718)"/><path d="m621 866-20 16 2 11h7l11-7 9-14-9-6Z" style="fill:#6b46b0;stroke:#000;stroke-width:2px" transform="translate(-179.953 -585.718)"/><path d="M603 893h7l4 17-15 3 4-20Z" style="fill:#de443c;stroke:#000;stroke-width:2px" transform="translate(-179.953 -585.718)"/><path d="m621 886 16 9-23 15-4-17 11-7Z" style="fill:#b09fe7;stroke:#000;stroke-width:2px" transform="translate(-179.953 -585.718)"/><path d="m630 873 23-1-16 23-16-9 9-13Z" style="fill:#a7ffff;stroke:#000;stroke-width:2px" transform="translate(-179.953 -585.718)"/><path d="m586 913 15-31 2 11-4 20h-13Z" style="fill:#ffe39b;stroke:#000;stroke-width:2px" transform="translate(-179.953 -585.718)"/><ellipse cx="937" cy="673" rx="30" ry="15" style="fill:#e2a41f;stroke:#000;stroke-width:1.65px" transform="matrix(-1.14848 -.37404 -.37501 1.15148 1890.98 -166.483)"/><ellipse cx="937" cy="673" rx="30" ry="15" style="fill:#ffc314;stroke:#000;stroke-width:1.94px" transform="matrix(-1.04288 -.33964 -.2983 .91595 1741.56 -43.731)"/><ellipse cx="937" cy="673" rx="30" ry="15" style="fill:#e2a41f;stroke:#000;stroke-width:1.5px" transform="matrix(-1.2513 -.31835 -.3393 1.33366 1925.26 -299.816)"/><ellipse cx="937" cy="673" rx="30" ry="15" style="fill:#ffc314;stroke:#000;stroke-width:1.76px" transform="matrix(-1.13623 -.28908 -.2699 1.06087 1771.78 -147.746)"/><ellipse cx="937" cy="673" rx="30" ry="15" style="fill:#e2a41f;stroke:#000;stroke-width:1.5px" transform="matrix(-1.25475 .30445 .32449 1.33735 1073.76 -560.856)"/><ellipse cx="937" cy="673" rx="30" ry="15" style="fill:#ffc314;stroke:#000;stroke-width:1.76px" transform="matrix(-1.13937 .27645 .25812 1.0638 1009.32 -354.63)"/><ellipse cx="937" cy="673" rx="30" ry="15" style="fill:#bdbdbd;stroke:#000;stroke-width:1.65px" transform="matrix(-1.14848 -.37404 -.37501 1.15148 1817.21 -174.009)"/><ellipse cx="937" cy="673" rx="30" ry="15" style="fill:#e5e3dd;stroke:#000;stroke-width:1.94px" transform="matrix(-1.04288 -.33964 -.2983 .91595 1667.79 -51.257)"/><ellipse cx="937" cy="673" rx="30" ry="15" style="fill:#e2a41f;stroke:#000;stroke-width:1.65px" transform="matrix(-1.14848 -.37404 -.37501 1.15148 1947.25 -130.79)"/><ellipse cx="937" cy="673" rx="30" ry="15" style="fill:#ffc314;stroke:#000;stroke-width:1.94px" transform="matrix(-1.04288 -.33964 -.2983 .91595 1797.83 -8.038)"/><ellipse cx="937" cy="673" rx="30" ry="15" style="fill:#bcbcbc;stroke:#000;stroke-width:1.65px" transform="matrix(-1.14848 -.37404 -.37501 1.15148 1924.64 -155.52)"/><ellipse cx="937" cy="673" rx="30" ry="15" style="fill:#e9e9e9;stroke:#000;stroke-width:1.94px" transform="matrix(-1.04288 -.33964 -.2983 .91595 1775.21 -32.768)"/><ellipse cx="937" cy="673" rx="30" ry="15" style="fill:#e2a41f;stroke:#000;stroke-width:1.65px" transform="matrix(1.20639 .05942 -.05958 1.20955 -655.362 -498.356)"/><ellipse cx="937" cy="673" rx="30" ry="15" style="fill:#ffc314;stroke:#000;stroke-width:1.94px" transform="matrix(1.09546 .05396 -.04739 .96214 -559.437 -330.443)"/><ellipse cx="937" cy="673" rx="30" ry="15" style="fill:#a5a5a5;stroke:#000;stroke-width:1.65px" transform="matrix(1.12443 .44109 -.44224 1.12737 -358.026 -818.228)"/><ellipse cx="937" cy="673" rx="30" ry="15" style="fill:#e9e9e9;stroke:#000;stroke-width:1.94px" transform="matrix(1.02104 .40053 -.35178 .89677 -320.666 -628.489)"/><ellipse cx="937" cy="673" rx="30" ry="15" style="fill:#e2a41f;stroke:#000;stroke-width:1.5px" transform="matrix(1.28762 .09543 -.1017 1.37239 -748.388 -631.532)"/><ellipse cx="937" cy="673" rx="30" ry="15" style="fill:#ffc314;stroke:#000;stroke-width:1.76px" transform="matrix(1.16922 .08665 -.0809 1.09167 -651.134 -438.6)"/><ellipse cx="937" cy="673" rx="30" ry="15" style="fill:#e2a41f;stroke:#000;stroke-width:1.65px" transform="matrix(1.12443 .44109 -.44224 1.12737 -309.16 -822.842)"/><ellipse cx="937" cy="673" rx="30" ry="15" style="fill:#ffc314;stroke:#000;stroke-width:1.94px" transform="matrix(1.02104 .40053 -.35178 .89677 -271.8 -633.103)"/><path d="m637 895 19-29-14 54-5-25Z" style="fill:#f4b48a;stroke:#000;stroke-width:2.66px" transform="scale(-.7507 .7507) rotate(56.065 580.03 -406.933)"/><path d="m615.5 910 21.5-15 5 25-26.5-10Z" style="fill:#39cdb7;stroke:#000;stroke-width:2.66px" transform="scale(-.7507 .7507) rotate(56.065 580.03 -406.933)"/><path d="m594 914 21.5-4 26.5 10-48-6Z" style="fill:#00a4ff;stroke:#000;stroke-width:2.66px" transform="scale(-.7507 .7507) rotate(56.065 580.03 -406.933)"/><path d="M656 866h-35l9 6h23l3-6Z" style="fill:#ffb400;stroke:#000;stroke-width:2.66px" transform="scale(-.7507 .7507) rotate(56.065 580.03 -406.933)"/><path d="m621 866-20 16 2 11h7l11-7 9-14-9-6Z" style="fill:#6b46b0;stroke:#000;stroke-width:2.66px" transform="scale(-.7507 .7507) rotate(56.065 580.03 -406.933)"/><path d="M603 893h7l4 17-15 3 4-20Z" style="fill:#de443c;stroke:#000;stroke-width:2.66px" transform="scale(-.7507 .7507) rotate(56.065 580.03 -406.933)"/><path d="m621 886 16 9-23 15-4-17 11-7Z" style="fill:#b09fe7;stroke:#000;stroke-width:2.66px" transform="scale(-.7507 .7507) rotate(56.065 580.03 -406.933)"/><path d="m630 873 23-1-16 23-16-9 9-13Z" style="fill:#a7ffff;stroke:#000;stroke-width:2.66px" transform="scale(-.7507 .7507) rotate(56.065 580.03 -406.933)"/><path d="m586 913 15-31 2 11-4 20h-13Z" style="fill:#ffe39b;stroke:#000;stroke-width:2.66px" transform="scale(-.7507 .7507) rotate(56.065 580.03 -406.933)"/><ellipse cx="937" cy="673" rx="30" ry="15" style="fill:#e2a41f;stroke:#000;stroke-width:1.65px" transform="matrix(1.12443 .44109 -.44224 1.12737 -427.028 -869.152)"/><ellipse cx="937" cy="673" rx="30" ry="15" style="fill:#ffc314;stroke:#000;stroke-width:1.94px" transform="matrix(1.02104 .40053 -.35178 .89677 -389.668 -679.413)"/><ellipse cx="937" cy="673" rx="30" ry="15" style="fill:#e2a41f;stroke:#000;stroke-width:1.65px" transform="matrix(1.12443 .44109 -.44224 1.12737 -393.855 -873.878)"/><ellipse cx="937" cy="673" rx="30" ry="15" style="fill:#ffc314;stroke:#000;stroke-width:1.94px" transform="matrix(1.02104 .40053 -.35178 .89677 -356.495 -684.139)"/><path d="m580.239 862-26.853 28.158L602 857.384 580.239 862Z" style="fill:#4300ff;stroke:#000;stroke-width:2px" transform="translate(-133.953 -137.718)"/><path d="M580.239 862 602 858.131 574 833l6.239 29Z" style="fill:#0500ff;stroke:#000;stroke-width:2px" transform="translate(-133.953 -137.718)"/><path d="m338 799 14 11-1 16-22.771-3.159L338 799Z" style="fill:#f7e98c;stroke:#000;stroke-width:1.8px" transform="matrix(.91557 .6336 -.6336 .91557 597.714 -259.543)"/><path d="M371.126 786.048 365 805l-13 5-14-11 33.126-12.952Z" style="fill:#8bd737;stroke:#000;stroke-width:1.8px" transform="matrix(.91557 .6336 -.6336 .91557 597.714 -259.543)"/><path d="m391 804-16 6-10-5 6.126-18.952L391 804Z" style="fill:#c9ca16;stroke:#000;stroke-width:1.8px" transform="matrix(.91557 .6336 -.6336 .91557 597.714 -259.543)"/><path d="M385.545 838.499 391 804l-16 6v16l10.545 12.499Z" style="fill:#e100ec;stroke:#000;stroke-width:1.8px" transform="matrix(.91557 .6336 -.6336 .91557 597.714 -259.543)"/><path d="m351.82 848.384 33.725-9.885L375 826l-14 6-9.18 16.384Z" style="fill:#8755d3;stroke:#000;stroke-width:1.8px" transform="matrix(.91557 .6336 -.6336 .91557 597.714 -259.543)"/><path d="m327.675 822.04 24.145 26.344L360 832l-8-6-24.325-3.96Z" style="fill:#006faa;stroke:#000;stroke-width:1.8px" transform="matrix(.91557 .6336 -.6336 .91557 597.714 -259.543)"/><path d="m352 810 13.534-4.229L375 810v16l-15 7-8-7v-16Z" style="fill:#35c963;stroke:#000;stroke-width:1.8px" transform="matrix(.91557 .6336 -.6336 .91557 597.714 -259.543)"/><path d="m338 799 14 11-1 16-18-1 5-26Z" style="fill:#f7b78c;stroke:#000;stroke-width:2px" transform="translate(-133.953 -137.718)"/><path d="m368 791-3 14-13 5-14-11 30-8Z" style="fill:#ef824a;stroke:#000;stroke-width:2px" transform="translate(-133.953 -137.718)"/><path d="m391 804-16 6-10-5 3-14 23 13Z" style="fill:#ca1616;stroke:#000;stroke-width:2px" transform="translate(-133.953 -137.718)"/><path d="m386 836 5-32-16 6v16l11 10Z" style="fill:#ff5900;stroke:#000;stroke-width:2px" transform="translate(-133.953 -137.718)"/><path d="m360 846 26-10-11-10-14 6-1 14Z" style="fill:#f550ba;stroke:#000;stroke-width:2px" transform="translate(-133.953 -137.718)"/><path d="m333 826 27 20v-14l-8-6h-19Z" style="fill:#a00;stroke:#000;stroke-width:2px" transform="translate(-133.953 -137.718)"/><path d="m352 810 13-4 10 4v16l-15 7-8-7v-16Z" style="fill:#f24a4a;stroke:#000;stroke-width:2px" transform="translate(-133.953 -137.718)"/><path d="m338 799 14 11-1 16-18-1 5-26Z" style="fill:#adf78c;stroke:#000;stroke-width:2px" transform="matrix(1 0 0 -1 -221.953 1158.28)"/><path d="m368 791-3 14-13 5-14-11 30-8Z" style="fill:#00bb4f;stroke:#000;stroke-width:2px" transform="matrix(1 0 0 -1 -221.953 1158.28)"/><path d="m391 804-16 6-10-5 3-14 23 13Z" style="fill:#1680ca;stroke:#000;stroke-width:2px" transform="matrix(1 0 0 -1 -221.953 1158.28)"/><path d="m386 836 5-32-16 6v16l11 10Z" style="fill:#70beac;stroke:#000;stroke-width:2px" transform="matrix(1 0 0 -1 -221.953 1158.28)"/><path d="m360 846 26-10-11-10-14 6-1 14Z" style="fill:#505af5;stroke:#000;stroke-width:2px" transform="matrix(1 0 0 -1 -221.953 1158.28)"/><path d="m333 826 27 20v-14l-8-6h-19Z" style="fill:#0052aa;stroke:#000;stroke-width:2px" transform="matrix(1 0 0 -1 -221.953 1158.28)"/><path d="m352 810 13-4 10 4v16l-15 7-8-7v-16Z" style="fill:#4aeff2;stroke:#000;stroke-width:2px" transform="matrix(1 0 0 -1 -221.953 1158.28)"/><path d="m637 895 19-29-14 54-5-25Z" style="fill:#cedffb;stroke:#000;stroke-width:2px" transform="translate(-133.953 -137.718)"/><path d="m615.5 910 21.5-15 5 25-26.5-10Z" style="fill:#39cdb7;stroke:#000;stroke-width:2px" transform="translate(-133.953 -137.718)"/><path d="m594 914 21.5-4 26.5 10-48-6Z" style="fill:#ffd200;stroke:#000;stroke-width:2px" transform="translate(-133.953 -137.718)"/><path d="M656 866h-35l9 6h23l3-6Z" style="fill:#00e0ff;stroke:#000;stroke-width:2px" transform="translate(-133.953 -137.718)"/><path d="m621 866-20 16 2 11h7l11-7 9-14-9-6Z" style="fill:#ebebeb;stroke:#000;stroke-width:2px" transform="translate(-133.953 -137.718)"/><path d="M603 893h7l4 17-15 3 4-20Z" style="fill:#ff9200;stroke:#000;stroke-width:2px" transform="translate(-133.953 -137.718)"/><path d="m621 886 16 9-23 15-4-17 11-7Z" style="fill:#e79fe5;stroke:#000;stroke-width:2px" transform="translate(-133.953 -137.718)"/><path d="m630 873 23-1-16 23-16-9 9-13Z" style="fill:#a7ffff;stroke:#000;stroke-width:2px" transform="translate(-133.953 -137.718)"/><path d="m586 913 15-31 2 11-4 20h-13Z" style="fill:#ffe39b;stroke:#000;stroke-width:2px" transform="translate(-133.953 -137.718)"/><path d="m338 799 14 11-1 16-22.771-3.159L338 799Z" style="fill:#f7e98c;stroke:#000;stroke-width:1.8px" transform="matrix(-1.10584 .1297 .1297 1.10584 543.381 -556.94)"/><path d="M371.126 786.048 365 805l-13 5-14-11 33.126-12.952Z" style="fill:#8bd737;stroke:#000;stroke-width:1.8px" transform="matrix(-1.10584 .1297 .1297 1.10584 543.381 -556.94)"/><path d="m391 804-16 6-10-5 6.126-18.952L391 804Z" style="fill:#c9ca16;stroke:#000;stroke-width:1.8px" transform="matrix(-1.10584 .1297 .1297 1.10584 543.381 -556.94)"/><path d="M385.545 838.499 391 804l-16 6v16l10.545 12.499Z" style="fill:#ec8000;stroke:#000;stroke-width:1.8px" transform="matrix(-1.10584 .1297 .1297 1.10584 543.381 -556.94)"/><path d="m351.82 848.384 33.725-9.885L375 826l-14 6-9.18 16.384Z" style="fill:#d355b0;stroke:#000;stroke-width:1.8px" transform="matrix(-1.10584 .1297 .1297 1.10584 543.381 -556.94)"/><path d="m327.675 822.04 24.145 26.344L360 832l-8-6-24.325-3.96Z" style="fill:#6cccff;stroke:#000;stroke-width:1.8px" transform="matrix(-1.10584 .1297 .1297 1.10584 543.381 -556.94)"/><path d="m352 810 13.534-4.229L375 810v16l-15 7-8-7v-16Z" style="fill:#9affb9;stroke:#000;stroke-width:1.8px" transform="matrix(-1.10584 .1297 .1297 1.10584 543.381 -556.94)"/><path d="m637 895 19-29-14 54-5-25Z" style="fill:#f4b48a;stroke:#000;stroke-width:2px" transform="matrix(-1 0 0 1 1245.05 -567.218)"/><path d="m615.5 910 21.5-15 5 25-26.5-10Z" style="fill:#39cdb7;stroke:#000;stroke-width:2px" transform="matrix(-1 0 0 1 1245.05 -567.218)"/><path d="m594 914 21.5-4 26.5 10-48-6Z" style="fill:#00a4ff;stroke:#000;stroke-width:2px" transform="matrix(-1 0 0 1 1245.05 -567.218)"/><path d="M656 866h-35l9 6h23l3-6Z" style="fill:#ffb400;stroke:#000;stroke-width:2px" transform="matrix(-1 0 0 1 1245.05 -567.218)"/><path d="m621 866-20 16 2 11h7l11-7 9-14-9-6Z" style="fill:#6b46b0;stroke:#000;stroke-width:2px" transform="matrix(-1 0 0 1 1245.05 -567.218)"/><path d="M603 893h7l4 17-15 3 4-20Z" style="fill:#de443c;stroke:#000;stroke-width:2px" transform="matrix(-1 0 0 1 1245.05 -567.218)"/><path d="m621 886 16 9-23 15-4-17 11-7Z" style="fill:#b09fe7;stroke:#000;stroke-width:2px" transform="matrix(-1 0 0 1 1245.05 -567.218)"/><path d="m630 873 23-1-16 23-16-9 9-13Z" style="fill:#a7ffff;stroke:#000;stroke-width:2px" transform="matrix(-1 0 0 1 1245.05 -567.218)"/><path d="m586 913 15-31 2 11-4 20h-13Z" style="fill:#ffe39b;stroke:#000;stroke-width:2px" transform="matrix(-1 0 0 1 1245.05 -567.218)"/><path d="m338 799 14 11-1 16-18-1 5-26Z" style="fill:#f7b78c;stroke:#000;stroke-width:1.81px" transform="rotate(-34.178 -490.36 725.863) scale(1.10573)"/><path d="m368 791-3 14-13 5-14-11 30-8Z" style="fill:#ef824a;stroke:#000;stroke-width:1.81px" transform="rotate(-34.178 -490.36 725.863) scale(1.10573)"/><path d="m391 804-16 6-10-5 3-14 23 13Z" style="fill:#ca1616;stroke:#000;stroke-width:1.81px" transform="rotate(-34.178 -490.36 725.863) scale(1.10573)"/><path d="m386 836 5-32-16 6v16l11 10Z" style="fill:#ff5900;stroke:#000;stroke-width:1.81px" transform="rotate(-34.178 -490.36 725.863) scale(1.10573)"/><path d="m360 846 26-10-11-10-14 6-1 14Z" style="fill:#f550ba;stroke:#000;stroke-width:1.81px" transform="rotate(-34.178 -490.36 725.863) scale(1.10573)"/><path d="m333 826 27 20v-14l-8-6h-19Z" style="fill:#a00;stroke:#000;stroke-width:1.81px" transform="rotate(-34.178 -490.36 725.863) scale(1.10573)"/><path d="m352 810 13-4 10 4v16l-15 7-8-7v-16Z" style="fill:#f24a4a;stroke:#000;stroke-width:1.81px" transform="rotate(-34.178 -490.36 725.863) scale(1.10573)"/><path d="m580.239 862-26.853 28.158L602 857.384 580.239 862Z" style="fill:#4300ff;stroke:#000;stroke-width:2.94px" transform="matrix(.4791 .63411 -.88309 .2381 733.417 -258.288)"/><path d="M580.239 862 602 858.131 574 833l6.239 29Z" style="fill:#0500ff;stroke:#000;stroke-width:2.94px" transform="matrix(.4791 .63411 -.88309 .2381 733.417 -258.288)"/><path d="m338 799 14 11-1 16-22.771-3.159L338 799Z" style="fill:#f7e98c;stroke:#000;stroke-width:2.1px" transform="matrix(-.12087 .73144 -1.11209 -.18377 1191.55 176.664)"/><path d="M371.126 786.048 365 805l-13 5-14-11 33.126-12.952Z" style="fill:#8bd737;stroke:#000;stroke-width:2.1px" transform="matrix(-.12087 .73144 -1.11209 -.18377 1191.55 176.664)"/><path d="m391 804-16 6-10-5 6.126-18.952L391 804Z" style="fill:#c9ca16;stroke:#000;stroke-width:2.1px" transform="matrix(-.12087 .73144 -1.11209 -.18377 1191.55 176.664)"/><path d="M385.545 838.499 391 804l-16 6v16l10.545 12.499Z" style="fill:#e100ec;stroke:#000;stroke-width:2.1px" transform="matrix(-.12087 .73144 -1.11209 -.18377 1191.55 176.664)"/><path d="m351.82 848.384 33.725-9.885L375 826l-14 6-9.18 16.384Z" style="fill:#8755d3;stroke:#000;stroke-width:2.1px" transform="matrix(-.12087 .73144 -1.11209 -.18377 1191.55 176.664)"/><path d="m327.675 822.04 24.145 26.344L360 832l-8-6-24.325-3.96Z" style="fill:#006faa;stroke:#000;stroke-width:2.1px" transform="matrix(-.12087 .73144 -1.11209 -.18377 1191.55 176.664)"/><path d="m352 810 13.534-4.229L375 810v16l-15 7-8-7v-16Z" style="fill:#35c963;stroke:#000;stroke-width:2.1px" transform="matrix(-.12087 .73144 -1.11209 -.18377 1191.55 176.664)"/><ellipse cx="937" cy="673" rx="30" ry="15" style="fill:#e2a41f;stroke:#000;stroke-width:1.73px" transform="matrix(-1.11383 .22005 .22793 1.15371 1078.2 -670.038)"/><ellipse cx="937" cy="673" rx="30" ry="15" style="fill:#ffc314;stroke:#000;stroke-width:2.03px" transform="matrix(-1.01142 .19982 .1813 .91772 1012.91 -495.8)"/><ellipse cx="937" cy="673" rx="30" ry="15" style="fill:#cdcac4;stroke:#000;stroke-width:1.73px" transform="matrix(-1.11383 .22005 .22793 1.15371 1096.2 -615.903)"/><ellipse cx="937" cy="673" rx="30" ry="15" style="fill:#ececec;stroke:#000;stroke-width:2.03px" transform="matrix(-1.01142 .19982 .1813 .91772 1030.91 -441.664)"/><ellipse cx="937" cy="673" rx="30" ry="15" style="fill:#9d9d9d;stroke:#000;stroke-width:1.73px" transform="matrix(-1.11383 .22005 .22793 1.15371 1196.72 -678.216)"/><ellipse cx="937" cy="673" rx="30" ry="15" style="fill:#c5c5c5;stroke:#000;stroke-width:2.03px" transform="matrix(-1.01142 .19982 .1813 .91772 1131.43 -503.977)"/><ellipse cx="937" cy="673" rx="30" ry="15" style="fill:#e2a41f;stroke:#000;stroke-width:1.73px" transform="matrix(-1.11383 .22005 .22793 1.15371 1174.73 -704.637)"/><ellipse cx="937" cy="673" rx="30" ry="15" style="fill:#ffc314;stroke:#000;stroke-width:2.03px" transform="matrix(-1.01142 .19982 .1813 .91772 1109.44 -530.398)"/><path d="m651.5 531-6 103s40.583 41.1 57.5 37c16.917-4.1 44-61.597 44-61.597L729 514l-77.5 17Z" style="fill:#ffc12f;stroke:#000;stroke-width:2px" transform="translate(-133.953 -137.718)"/><path d="M695.25 578c2.458-.702 12.762-1.607 14.75 3 3.125 7.243 6.292 32.458 4 40.458-1.77 6.18-14.625 7.461-17.75 7.542-2.375.062-2.628-5.326-1-7.056 1.792-1.904 10.614-.347 11.75-4.368 1.625-5.751-.042-24.74-2-30.133-1.138-3.134-8.125-.655-9.75-2.229s-2.312-6.553 0-7.214Z" style="fill:none;stroke:#000;stroke-width:1.49px" transform="matrix(1.33301 0 0 1.34589 -369.984 -356.933)"/><defs><linearGradient id="a" x1="0" y1="0" x2="1" y2="0" gradientUnits="userSpaceOnUse" gradientTransform="matrix(720 0 0 720 174 426.5)"><stop offset="0" style="stop-color:#6a6a6a;stop-opacity:1"/><stop offset="1" style="stop-color:#b58956;stop-opacity:1"/></linearGradient><linearGradient id="b" x1="0" y1="0" x2="1" y2="0" gradientUnits="userSpaceOnUse" gradientTransform="matrix(666 0 0 666 165 310.5)"><stop offset="0" style="stop-color:#757474;stop-opacity:1"/><stop offset="1" style="stop-color:#b58956;stop-opacity:1"/></linearGradient></defs></svg>